<?xml version="1.0" encoding="utf-8"?>
<!-- Generator: Adobe Illustrator 23.0.3, SVG Export Plug-In . SVG Version: 6.00 Build 0)  -->
<svg version="1.1" id="Layer_1" xmlns="http://www.w3.org/2000/svg" xmlns:xlink="http://www.w3.org/1999/xlink" x="0px" y="0px"
	 viewBox="0 0 1024 395" style="enable-background:new 0 0 1024 395;" xml:space="preserve">
<style type="text/css">
	.st0{fill:#FFFFFF;}
</style>
<g>
	<path class="st0" d="M33.83,346.04h-3.9c-2.03,0-3.19-1.44-3.47-4.34c-0.29-2.89-0.43-5.35-0.43-7.38l35.14-71.15L167.9,51.44
		c1.44-1.44,3.04-3.32,4.77-5.64c0.87-1.15,1.74-2.02,2.6-2.6c2.02,0,3.97,0.87,5.86,2.6c1.88,1.74,3.83,3.62,5.86,5.64
		l141.44,282.88c0,2.03-0.15,3.98-0.43,5.86c-0.29,1.88-1.45,3.84-3.47,5.86c-0.58,0.58-1.3,1.02-2.17,1.3
		c-0.58,0.29-1.38,0.43-2.39,0.43c-1.02,0-2.1-0.58-3.25-1.74L76.79,279.22l-31.24,62.91c-2.03,2.03-3.98,3.19-5.86,3.47
		C37.8,345.9,35.85,346.04,33.83,346.04z M85.03,259.7l216.07,62.91L175.27,74.87L85.03,259.7z M281.57,275.32L104.55,204.6
		c-4.05,0-6.37-1.44-6.94-4.34c-0.58-2.89-0.87-5.35-0.87-7.38c2.02-2.02,3.97-3.69,5.86-4.99c1.88-1.3,3.83-0.94,5.86,1.08
		l177.02,70.72c4.05,0,6.36,1.45,6.94,4.34c0.58,2.89,0.87,5.36,0.87,7.38c-2.03,2.03-3.98,3.19-5.86,3.47
		C285.54,275.18,283.59,275.32,281.57,275.32z"/>
	<path class="st0" d="M499.98,346.47c-2.07,0-3.92-0.79-5.55-2.39c-1.63-1.59-2.44-3.4-2.44-5.42V57.08c0-2.02,0.81-4.48,2.44-7.38
		c1.63-2.89,3.47-4.34,5.55-4.34c4.14,0,7.17,1.45,9.09,4.34c1.92,2.89,2.88,5.36,2.88,7.38v281.58c0,2.03-0.96,3.84-2.88,5.42
		C507.14,345.68,504.11,346.47,499.98,346.47z"/>
	<path class="st0" d="M851.23,348.21c-21.12,0-41.08-4.19-59.87-12.58c-18.81-8.39-35.36-19.74-49.68-34.06S716,270.7,707.62,251.89
		c-8.39-18.8-12.58-38.76-12.58-59.87c0-21.11,4.19-40.93,12.58-59.44c8.39-18.51,19.74-34.63,34.06-48.38
		c14.32-13.73,30.87-24.58,49.68-32.54c18.8-7.95,38.76-11.93,59.87-11.93c21.11,0,40.93,3.98,59.44,11.93
		c18.51,7.96,34.63,18.81,48.38,32.54c13.73,13.74,24.58,29.87,32.54,48.38c7.95,18.51,11.93,38.33,11.93,59.44
		c0,21.12-3.98,41.07-11.93,59.87c-7.96,18.81-18.81,35.36-32.54,49.68c-13.74,14.32-29.87,25.67-48.38,34.06
		C892.15,344.02,872.34,348.21,851.23,348.21z M851.23,59.25c-19.09,0-36.88,3.56-53.37,10.66c-16.49,7.11-30.88,16.69-43.17,28.73
		c-12.3,12.04-21.98,26.11-29.07,42.22c-7.09,16.11-10.63,33.15-10.63,51.14c0,19.16,3.54,37,10.63,53.54
		c7.08,16.54,16.77,30.97,29.07,43.3c12.29,12.34,26.68,22.06,43.17,29.16c16.49,7.11,34.28,10.66,53.37,10.66
		c17.93,0,34.93-3.55,50.98-10.66c16.05-7.1,30.08-16.83,42.08-29.16c12-12.33,21.54-26.76,28.64-43.3
		c7.08-16.54,10.63-34.38,10.63-53.54c0-17.99-3.55-35.03-10.63-51.14c-7.09-16.11-16.64-30.18-28.64-42.22
		c-12.01-12.04-26.03-21.62-42.08-28.73C886.15,62.81,869.16,59.25,851.23,59.25z"/>
</g>
</svg>
