<?xml version="1.0" encoding="utf-8"?>
<!-- Generator: Adobe Illustrator 23.0.3, SVG Export Plug-In . SVG Version: 6.00 Build 0)  -->
<svg version="1.1" id="Layer_1" xmlns="http://www.w3.org/2000/svg" xmlns:xlink="http://www.w3.org/1999/xlink" x="0px" y="0px"
	 viewBox="0 0 998 386" style="enable-background:new 0 0 998 386;" xml:space="preserve">
<style type="text/css">
	.st0{fill:none;stroke:#848484;stroke-miterlimit:10;}
	.st1{fill:#848484;}
</style>
<path class="st0" d="M751.5,342.5h-287c-8.3,0-15-6.7-15-15v-212c0-8.3,6.7-15,15-15h287c8.3,0,15,6.7,15,15v212
	C766.5,335.8,759.8,342.5,751.5,342.5z"/>
<line class="st0" x1="363" y1="158.5" x2="426" y2="158.5"/>
<line class="st0" x1="363" y1="288.5" x2="426" y2="288.5"/>
<path class="st0" d="M363.5,353.5h15c0,0,16,1,16-11s0-40,0-40s-2.9-14,14-14"/>
<polyline class="st0" points="415.5,147.5 425.5,158.5 415.5,169.5 "/>
<line class="st0" x1="363" y1="223" x2="426" y2="223"/>
<polyline class="st0" points="415.5,212 425.5,223 415.5,234 "/>
<polyline class="st0" points="415.5,277.5 425.5,288.5 415.5,299.5 "/>
<g>
	<path class="st1" d="M68.2,166.5c-0.3,0-0.4-0.1-0.5-0.4l-0.2-1.7c-0.4,0.4-0.7,0.7-1.1,1s-0.7,0.5-1.1,0.7s-0.8,0.3-1.3,0.5
		c-0.5,0.1-1,0.2-1.5,0.2s-0.9-0.1-1.3-0.2c-0.4-0.1-0.8-0.3-1.2-0.6s-0.6-0.6-0.8-1.1s-0.3-1-0.3-1.6s0.2-1.1,0.5-1.6
		s0.8-0.9,1.5-1.3c0.7-0.4,1.6-0.6,2.7-0.9c1.1-0.2,2.4-0.3,3.9-0.4v-1.4c0-1.2-0.3-2.2-0.8-2.9s-1.3-1-2.4-1
		c-0.6,0-1.2,0.1-1.7,0.3s-0.8,0.4-1.2,0.6c-0.3,0.2-0.6,0.4-0.8,0.6c-0.2,0.2-0.4,0.3-0.5,0.3s-0.2,0-0.2-0.1s-0.1-0.1-0.2-0.2
		l-0.2-0.4c0.7-0.7,1.4-1.2,2.2-1.6c0.8-0.4,1.7-0.5,2.6-0.5c0.7,0,1.4,0.1,1.9,0.3s1,0.6,1.3,1c0.4,0.4,0.6,0.9,0.8,1.6
		c0.2,0.6,0.3,1.3,0.3,2v8.7L68.2,166.5L68.2,166.5z M62.8,165.8c0.5,0,1-0.1,1.4-0.2c0.4-0.1,0.8-0.3,1.2-0.5
		c0.4-0.2,0.7-0.4,1-0.7s0.6-0.6,1-0.9V160c-1.3,0-2.4,0.1-3.3,0.3s-1.7,0.4-2.3,0.6s-1,0.6-1.3,1s-0.4,0.8-0.4,1.3s0.1,0.8,0.2,1.2
		s0.3,0.6,0.6,0.8s0.5,0.4,0.9,0.5S62.4,165.8,62.8,165.8z"/>
	<path class="st1" d="M82.7,166.5c-0.2,0-0.4-0.1-0.4-0.4l-0.1-2.1c-0.6,0.8-1.3,1.5-2.1,1.9s-1.7,0.7-2.7,0.7
		c-1.7,0-2.9-0.6-3.9-1.7c-0.9-1.1-1.4-2.9-1.4-5.1c0-1,0.1-1.9,0.4-2.7c0.3-0.9,0.6-1.6,1.1-2.2s1.1-1.1,1.8-1.5
		c0.7-0.4,1.6-0.5,2.5-0.5s1.7,0.2,2.4,0.5c0.7,0.3,1.2,0.8,1.7,1.5v-8h1.3v19.6H82.7z M77.8,165.6c0.9,0,1.7-0.2,2.4-0.7
		c0.7-0.5,1.4-1.1,1.9-1.9v-7c-0.5-0.8-1.1-1.3-1.7-1.6s-1.3-0.5-2.1-0.5c-0.8,0-1.5,0.1-2.1,0.4c-0.6,0.3-1.1,0.7-1.5,1.2
		s-0.7,1.2-0.9,1.9c-0.2,0.7-0.3,1.5-0.3,2.4c0,2,0.4,3.5,1.1,4.4C75.4,165.2,76.4,165.6,77.8,165.6z"/>
	<path class="st1" d="M87.9,166.5v-13.4h0.7c0.2,0,0.4,0.1,0.4,0.3l0.1,1.9c0.5-0.7,1.1-1.4,1.8-1.8c0.7-0.5,1.4-0.7,2.3-0.7
		c1,0,1.8,0.3,2.4,0.9c0.6,0.6,1,1.4,1.2,2.4c0.2-0.5,0.4-1,0.7-1.4c0.3-0.4,0.6-0.7,1-1s0.8-0.5,1.2-0.6c0.4-0.1,0.9-0.2,1.4-0.2
		c0.7,0,1.3,0.1,1.8,0.3s1,0.5,1.3,1c0.4,0.4,0.7,1,0.9,1.6c0.2,0.6,0.3,1.4,0.3,2.2v8.6H104V158c0-1.3-0.3-2.3-0.9-3s-1.4-1-2.4-1
		c-0.5,0-0.9,0.1-1.3,0.3s-0.8,0.4-1.1,0.8c-0.3,0.3-0.6,0.8-0.8,1.3c-0.2,0.5-0.3,1.1-0.3,1.8v8.6h-1.3v-8.6c0-1.3-0.3-2.3-0.8-3
		s-1.3-1-2.3-1c-0.7,0-1.4,0.2-2,0.6s-1.2,1-1.7,1.8v10.2h-1.2V166.5z"/>
	<path class="st1" d="M111.6,148.4c0,0.2,0,0.3-0.1,0.5c-0.1,0.1-0.2,0.3-0.3,0.4c-0.1,0.1-0.2,0.2-0.4,0.3s-0.3,0.1-0.5,0.1
		s-0.3,0-0.5-0.1c-0.1-0.1-0.3-0.1-0.4-0.3c-0.1-0.1-0.2-0.2-0.3-0.4c-0.1-0.1-0.1-0.3-0.1-0.5s0-0.3,0.1-0.5s0.1-0.3,0.3-0.4
		c0.1-0.1,0.2-0.2,0.4-0.3c0.1-0.1,0.3-0.1,0.5-0.1s0.3,0,0.5,0.1s0.3,0.1,0.4,0.3s0.2,0.2,0.3,0.4S111.6,148.3,111.6,148.4z
		 M111,153.1v13.4h-1.3v-13.4H111z"/>
	<path class="st1" d="M115.6,166.5v-13.4h0.7c0.2,0,0.4,0.1,0.4,0.3l0.1,2c0.6-0.8,1.3-1.4,2.1-1.9c0.8-0.5,1.7-0.7,2.7-0.7
		c0.7,0,1.4,0.1,2,0.4s1,0.6,1.4,1s0.6,1,0.8,1.6s0.3,1.3,0.3,2.1v8.6h-1.3v-8.6c0-1.3-0.3-2.2-0.9-3c-0.6-0.7-1.5-1.1-2.6-1.1
		c-0.9,0-1.7,0.2-2.5,0.7c-0.8,0.4-1.4,1.1-2,1.9v10.1L115.6,166.5L115.6,166.5z"/>
	<path class="st1" d="M130.2,165.5c0-0.2,0-0.3,0.1-0.5s0.2-0.3,0.3-0.4c0.1-0.1,0.2-0.2,0.4-0.3s0.3-0.1,0.5-0.1s0.3,0,0.5,0.1
		s0.3,0.2,0.4,0.3c0.1,0.1,0.2,0.2,0.3,0.4s0.1,0.3,0.1,0.5s0,0.3-0.1,0.5s-0.2,0.3-0.3,0.4c-0.1,0.1-0.2,0.2-0.4,0.3
		s-0.3,0.1-0.5,0.1c-0.4,0-0.6-0.1-0.9-0.4C130.3,166.1,130.2,165.8,130.2,165.5z"/>
	<path class="st1" d="M145.8,154.9l-0.1,0.1c0,0-0.1,0-0.2,0c-0.1,0-0.2-0.1-0.4-0.2c-0.2-0.1-0.4-0.3-0.6-0.4
		c-0.3-0.1-0.6-0.3-1-0.4s-0.9-0.2-1.4-0.2c-0.8,0-1.5,0.1-2.1,0.4c-0.6,0.3-1.1,0.7-1.5,1.2s-0.7,1.1-0.9,1.9
		c-0.2,0.7-0.3,1.5-0.3,2.5c0,0.9,0.1,1.8,0.3,2.5s0.5,1.3,0.9,1.8s0.9,0.9,1.5,1.1c0.6,0.3,1.2,0.4,1.9,0.4c0.6,0,1.2-0.1,1.6-0.2
		s0.8-0.3,1.1-0.5s0.5-0.3,0.7-0.5s0.3-0.2,0.4-0.2s0.2,0,0.3,0.1l0.3,0.4c-0.2,0.3-0.5,0.5-0.8,0.8c-0.3,0.2-0.7,0.4-1.1,0.6
		s-0.8,0.3-1.3,0.4c-0.5,0.1-0.9,0.1-1.5,0.1c-0.9,0-1.6-0.2-2.3-0.5s-1.3-0.8-1.8-1.4s-0.9-1.3-1.2-2.2s-0.4-1.8-0.4-2.9
		c0-1,0.1-2,0.4-2.8c0.3-0.8,0.7-1.6,1.2-2.2c0.5-0.6,1.2-1.1,1.9-1.4c0.8-0.3,1.6-0.5,2.6-0.5c0.9,0,1.6,0.1,2.3,0.4
		s1.3,0.7,1.8,1.1L145.8,154.9z"/>
	<path class="st1" d="M154.8,152.9c1,0,1.8,0.2,2.6,0.5s1.4,0.8,1.9,1.4s0.9,1.3,1.2,2.2s0.4,1.8,0.4,2.9c0,1.1-0.1,2-0.4,2.8
		c-0.3,0.8-0.7,1.6-1.2,2.2c-0.5,0.6-1.2,1.1-1.9,1.4c-0.8,0.3-1.6,0.5-2.6,0.5s-1.8-0.2-2.6-0.5s-1.4-0.8-1.9-1.4
		c-0.5-0.6-0.9-1.3-1.2-2.2c-0.3-0.8-0.4-1.8-0.4-2.8c0-1.1,0.1-2,0.4-2.9c0.3-0.9,0.7-1.6,1.2-2.2c0.5-0.6,1.2-1.1,1.9-1.4
		C153,153,153.9,152.9,154.8,152.9z M154.8,165.7c0.8,0,1.5-0.1,2.1-0.4c0.6-0.3,1.1-0.7,1.5-1.2s0.7-1.1,0.9-1.9
		c0.2-0.7,0.3-1.5,0.3-2.4s-0.1-1.7-0.3-2.4s-0.5-1.4-0.9-1.9s-0.9-0.9-1.5-1.2s-1.3-0.4-2.1-0.4s-1.5,0.1-2.1,0.4
		c-0.6,0.3-1.1,0.7-1.5,1.2s-0.7,1.1-0.9,1.9s-0.3,1.5-0.3,2.4s0.1,1.7,0.3,2.4s0.5,1.3,0.9,1.9c0.4,0.5,0.9,0.9,1.5,1.2
		S154,165.7,154.8,165.7z"/>
	<path class="st1" d="M164.6,166.5v-13.4h0.7c0.2,0,0.4,0.1,0.4,0.3l0.1,1.9c0.5-0.7,1.1-1.4,1.8-1.8c0.7-0.5,1.4-0.7,2.3-0.7
		c1,0,1.8,0.3,2.4,0.9c0.6,0.6,1,1.4,1.2,2.4c0.2-0.5,0.4-1,0.7-1.4s0.6-0.7,1-1s0.8-0.5,1.2-0.6s0.9-0.2,1.4-0.2
		c0.7,0,1.3,0.1,1.8,0.3s1,0.5,1.3,1c0.4,0.4,0.7,1,0.9,1.6s0.3,1.4,0.3,2.2v8.6h-1.3V158c0-1.3-0.3-2.3-0.9-3s-1.4-1-2.4-1
		c-0.5,0-0.9,0.1-1.3,0.3c-0.4,0.2-0.8,0.4-1.1,0.8c-0.3,0.3-0.6,0.8-0.8,1.3s-0.3,1.1-0.3,1.8v8.6h-1.3v-8.6c0-1.3-0.3-2.3-0.8-3
		s-1.3-1-2.3-1c-0.7,0-1.4,0.2-2,0.6s-1.2,1-1.7,1.8v10.2h-1.3V166.5z"/>
	<path class="st1" d="M186.3,171.3v-18.2h0.7c0.2,0,0.4,0.1,0.4,0.3l0.1,2.1c0.6-0.8,1.3-1.5,2.1-1.9c0.8-0.5,1.7-0.7,2.7-0.7
		c1.6,0,2.9,0.6,3.9,1.7s1.4,2.9,1.4,5.1c0,1-0.1,1.9-0.4,2.7s-0.6,1.6-1.1,2.2s-1.1,1.1-1.8,1.5s-1.6,0.5-2.5,0.5s-1.7-0.2-2.4-0.5
		s-1.2-0.8-1.7-1.5v6.5h-1.4V171.3z M191.9,153.9c-0.9,0-1.7,0.2-2.4,0.7s-1.4,1.1-1.9,1.9v7.1c0.5,0.8,1.1,1.3,1.7,1.6
		s1.3,0.5,2.1,0.5s1.5-0.1,2.1-0.4c0.6-0.3,1.1-0.7,1.5-1.2s0.7-1.2,0.9-1.9s0.3-1.5,0.3-2.4c0-2-0.4-3.5-1.1-4.4
		C194.4,154.4,193.3,153.9,191.9,153.9z"/>
	<path class="st1" d="M209.5,166.5c-0.3,0-0.4-0.1-0.5-0.4l-0.2-1.7c-0.4,0.4-0.7,0.7-1.1,1c-0.4,0.3-0.7,0.5-1.1,0.7
		c-0.4,0.2-0.8,0.3-1.3,0.5c-0.5,0.1-1,0.2-1.5,0.2s-0.9-0.1-1.3-0.2c-0.4-0.1-0.8-0.3-1.2-0.6s-0.6-0.6-0.8-1.1s-0.3-1-0.3-1.6
		s0.2-1.1,0.5-1.6s0.8-0.9,1.5-1.3c0.7-0.4,1.6-0.6,2.7-0.9c1.1-0.2,2.4-0.3,3.9-0.4v-1.4c0-1.2-0.3-2.2-0.8-2.9s-1.3-1-2.4-1
		c-0.6,0-1.2,0.1-1.7,0.3s-0.8,0.4-1.2,0.6c-0.3,0.2-0.6,0.4-0.8,0.6c-0.2,0.2-0.4,0.3-0.5,0.3s-0.2,0-0.2-0.1s-0.1-0.1-0.2-0.2
		l-0.2-0.4c0.7-0.7,1.4-1.2,2.2-1.6c0.8-0.4,1.7-0.5,2.6-0.5c0.7,0,1.4,0.1,1.9,0.3s1,0.6,1.3,1c0.4,0.4,0.6,0.9,0.8,1.6
		c0.2,0.6,0.3,1.3,0.3,2v8.7L209.5,166.5L209.5,166.5z M204.1,165.8c0.5,0,1-0.1,1.4-0.2c0.4-0.1,0.8-0.3,1.2-0.5s0.7-0.4,1-0.7
		s0.6-0.6,1-0.9V160c-1.3,0-2.4,0.1-3.3,0.3c-0.9,0.2-1.7,0.4-2.3,0.6s-1,0.6-1.3,1s-0.4,0.8-0.4,1.3s0.1,0.8,0.2,1.2
		s0.3,0.6,0.6,0.8s0.5,0.4,0.9,0.5S203.7,165.8,204.1,165.8z"/>
	<path class="st1" d="M214.3,166.5v-13.4h0.7c0.2,0,0.4,0.1,0.4,0.3l0.1,2c0.6-0.8,1.3-1.4,2.1-1.9s1.7-0.7,2.7-0.7
		c0.7,0,1.4,0.1,2,0.4s1,0.6,1.4,1s0.6,1,0.8,1.6s0.3,1.3,0.3,2.1v8.6h-1.3v-8.6c0-1.3-0.3-2.2-0.9-3c-0.6-0.7-1.5-1.1-2.6-1.1
		c-0.9,0-1.7,0.2-2.5,0.7c-0.8,0.4-1.4,1.1-2,1.9v10.1L214.3,166.5L214.3,166.5z"/>
	<path class="st1" d="M232.2,170.8c-0.1,0.1-0.1,0.2-0.2,0.3s-0.2,0.1-0.4,0.1h-0.9l2.4-5.3l-5.7-12.9h1.1c0.1,0,0.2,0,0.3,0.1
		s0.1,0.1,0.2,0.2l4.5,10.4c0.1,0.1,0.1,0.3,0.1,0.4s0.1,0.3,0.1,0.4c0-0.1,0.1-0.3,0.1-0.4c0-0.1,0.1-0.3,0.2-0.4l4.5-10.4
		c0-0.1,0.1-0.2,0.2-0.2s0.2-0.1,0.3-0.1h1L232.2,170.8z"/>
	<path class="st1" d="M242.3,165.5c0-0.2,0-0.3,0.1-0.5s0.2-0.3,0.3-0.4c0.1-0.1,0.2-0.2,0.4-0.3s0.3-0.1,0.5-0.1s0.3,0,0.5,0.1
		s0.3,0.2,0.4,0.3c0.1,0.1,0.2,0.2,0.3,0.4s0.1,0.3,0.1,0.5s0,0.3-0.1,0.5s-0.2,0.3-0.3,0.4c-0.1,0.1-0.2,0.2-0.4,0.3
		s-0.3,0.1-0.5,0.1c-0.4,0-0.6-0.1-0.9-0.4C242.5,166.1,242.3,165.8,242.3,165.5z"/>
	<path class="st1" d="M258,154.9l-0.1,0.1c0,0-0.1,0-0.2,0s-0.2-0.1-0.4-0.2c-0.2-0.1-0.4-0.3-0.6-0.4c-0.3-0.1-0.6-0.3-1-0.4
		s-0.9-0.2-1.4-0.2c-0.8,0-1.5,0.1-2.1,0.4c-0.6,0.3-1.1,0.7-1.5,1.2s-0.7,1.1-0.9,1.9c-0.2,0.7-0.3,1.5-0.3,2.5
		c0,0.9,0.1,1.8,0.3,2.5s0.5,1.3,0.9,1.8s0.9,0.9,1.5,1.1c0.6,0.3,1.2,0.4,1.9,0.4c0.6,0,1.2-0.1,1.6-0.2c0.4-0.1,0.8-0.3,1.1-0.5
		c0.3-0.2,0.5-0.3,0.7-0.5s0.3-0.2,0.4-0.2s0.2,0,0.3,0.1l0.3,0.4c-0.2,0.3-0.5,0.5-0.8,0.8c-0.3,0.2-0.7,0.4-1.1,0.6
		s-0.8,0.3-1.3,0.4c-0.5,0.1-0.9,0.1-1.5,0.1c-0.9,0-1.6-0.2-2.3-0.5s-1.3-0.8-1.8-1.4s-0.9-1.3-1.2-2.2s-0.4-1.8-0.4-2.9
		c0-1,0.1-2,0.4-2.8c0.3-0.8,0.7-1.6,1.2-2.2c0.5-0.6,1.2-1.1,1.9-1.4c0.8-0.3,1.6-0.5,2.6-0.5c0.9,0,1.6,0.1,2.3,0.4
		c0.7,0.3,1.3,0.7,1.8,1.1L258,154.9z"/>
	<path class="st1" d="M267,152.9c1,0,1.8,0.2,2.6,0.5s1.4,0.8,1.9,1.4s0.9,1.3,1.2,2.2c0.3,0.9,0.4,1.8,0.4,2.9c0,1.1-0.1,2-0.4,2.8
		s-0.7,1.6-1.2,2.2c-0.5,0.6-1.2,1.1-1.9,1.4c-0.8,0.3-1.6,0.5-2.6,0.5s-1.8-0.2-2.6-0.5c-0.8-0.3-1.4-0.8-1.9-1.4
		c-0.5-0.6-0.9-1.3-1.2-2.2c-0.3-0.8-0.4-1.8-0.4-2.8c0-1.1,0.1-2,0.4-2.9s0.7-1.6,1.2-2.2c0.5-0.6,1.2-1.1,1.9-1.4
		C265.2,153,266,152.9,267,152.9z M267,165.7c0.8,0,1.5-0.1,2.1-0.4c0.6-0.3,1.1-0.7,1.5-1.2s0.7-1.1,0.9-1.9
		c0.2-0.7,0.3-1.5,0.3-2.4s-0.1-1.7-0.3-2.4c-0.2-0.7-0.5-1.4-0.9-1.9s-0.9-0.9-1.5-1.2s-1.3-0.4-2.1-0.4c-0.8,0-1.5,0.1-2.1,0.4
		c-0.6,0.3-1.1,0.7-1.5,1.2s-0.7,1.1-0.9,1.9s-0.3,1.5-0.3,2.4s0.1,1.7,0.3,2.4s0.5,1.3,0.9,1.9c0.4,0.5,0.9,0.9,1.5,1.2
		S266.2,165.7,267,165.7z"/>
	<path class="st1" d="M276.7,166.5v-13.4h0.7c0.2,0,0.4,0.1,0.4,0.3l0.1,1.9c0.5-0.7,1.1-1.4,1.8-1.8c0.7-0.5,1.4-0.7,2.3-0.7
		c1,0,1.8,0.3,2.4,0.9c0.6,0.6,1,1.4,1.2,2.4c0.2-0.5,0.4-1,0.7-1.4c0.3-0.4,0.6-0.7,1-1s0.8-0.5,1.2-0.6c0.4-0.1,0.9-0.2,1.4-0.2
		c0.7,0,1.3,0.1,1.8,0.3s1,0.5,1.3,1c0.4,0.4,0.7,1,0.9,1.6c0.2,0.6,0.3,1.4,0.3,2.2v8.6h-1.3V158c0-1.3-0.3-2.3-0.9-3s-1.4-1-2.4-1
		c-0.5,0-0.9,0.1-1.3,0.3s-0.8,0.4-1.1,0.8c-0.3,0.3-0.6,0.8-0.8,1.3c-0.2,0.5-0.3,1.1-0.3,1.8v8.6h-1.3v-8.6c0-1.3-0.3-2.3-0.8-3
		s-1.3-1-2.3-1c-0.7,0-1.4,0.2-2,0.6s-1.2,1-1.7,1.8v10.2h-1.3V166.5z"/>
	<path class="st1" d="M70.2,217.9v8.6c0,1.3,0.3,2.2,0.9,3c0.6,0.7,1.5,1.1,2.6,1.1c0.9,0,1.7-0.2,2.4-0.7c0.8-0.4,1.4-1.1,2-1.9
		v-10.1h1.3v13.4h-0.7c-0.2,0-0.4-0.1-0.4-0.4l-0.1-2c-0.6,0.8-1.3,1.4-2.2,1.9c-0.8,0.5-1.7,0.7-2.7,0.7c-0.7,0-1.4-0.1-2-0.4
		c-0.6-0.2-1-0.6-1.4-1s-0.6-1-0.8-1.6s-0.3-1.3-0.3-2.1v-8.6h1.4V217.9z"/>
	<path class="st1" d="M91.3,219.5c-0.1,0.1-0.2,0.2-0.3,0.2c-0.1,0-0.2-0.1-0.4-0.2c-0.2-0.1-0.4-0.2-0.6-0.4
		c-0.3-0.1-0.6-0.3-1-0.4c-0.4-0.1-0.8-0.2-1.4-0.2c-0.5,0-0.9,0.1-1.3,0.2s-0.7,0.3-1,0.6c-0.3,0.2-0.5,0.5-0.7,0.8s-0.2,0.6-0.2,1
		s0.1,0.8,0.3,1.1c0.2,0.3,0.5,0.5,0.8,0.7s0.7,0.4,1.2,0.5s0.9,0.3,1.4,0.4c0.5,0.1,0.9,0.3,1.4,0.5c0.4,0.2,0.8,0.4,1.2,0.7
		c0.3,0.3,0.6,0.6,0.8,1c0.2,0.4,0.3,0.8,0.3,1.4c0,0.6-0.1,1.1-0.3,1.6s-0.5,0.9-0.9,1.3s-0.9,0.7-1.5,0.9s-1.3,0.3-2,0.3
		c-0.9,0-1.8-0.2-2.4-0.5c-0.7-0.3-1.3-0.7-1.8-1.2l0.3-0.5c0-0.1,0.1-0.1,0.2-0.2s0.1-0.1,0.2-0.1s0.3,0.1,0.4,0.2
		c0.2,0.1,0.4,0.3,0.7,0.5c0.3,0.2,0.6,0.3,1,0.5c0.4,0.1,0.9,0.2,1.5,0.2s1.1-0.1,1.5-0.2c0.4-0.2,0.8-0.4,1.1-0.6
		c0.3-0.3,0.5-0.6,0.7-1c0.1-0.4,0.2-0.8,0.2-1.2c0-0.5-0.1-0.8-0.3-1.1s-0.5-0.5-0.9-0.8s-0.7-0.4-1.2-0.5
		c-0.4-0.1-0.9-0.3-1.4-0.4c-0.5-0.1-0.9-0.3-1.4-0.5c-0.4-0.2-0.8-0.4-1.2-0.6c-0.4-0.3-0.6-0.6-0.9-1c-0.2-0.4-0.3-0.8-0.3-1.4
		c0-0.5,0.1-0.9,0.3-1.4c0.2-0.4,0.5-0.8,0.9-1.2c0.4-0.3,0.8-0.6,1.4-0.8c0.5-0.2,1.2-0.3,1.8-0.3c0.8,0,1.5,0.1,2.2,0.4
		c0.6,0.2,1.2,0.6,1.7,1.1L91.3,219.5z"/>
	<path class="st1" d="M100.6,217.7c0.8,0,1.5,0.1,2.1,0.4c0.6,0.3,1.2,0.6,1.7,1.1s0.9,1.1,1.1,1.8c0.3,0.7,0.4,1.6,0.4,2.5
		c0,0.2,0,0.3-0.1,0.4c-0.1,0.1-0.1,0.1-0.3,0.1h-9.8v0.3c0,1,0.1,1.9,0.4,2.7s0.6,1.4,1,1.9s1,0.9,1.6,1.2s1.3,0.4,2.1,0.4
		c0.7,0,1.3-0.1,1.8-0.2c0.5-0.1,0.9-0.3,1.2-0.5c0.3-0.2,0.6-0.4,0.8-0.5c0.2-0.1,0.3-0.2,0.4-0.2s0.2,0,0.3,0.1l0.4,0.4
		c-0.2,0.3-0.5,0.5-0.9,0.8s-0.8,0.4-1.2,0.6c-0.4,0.2-0.9,0.3-1.4,0.4s-1,0.1-1.5,0.1c-0.9,0-1.8-0.2-2.5-0.5
		c-0.8-0.3-1.4-0.8-1.9-1.4c-0.5-0.6-1-1.4-1.2-2.2s-0.4-1.9-0.4-3c0-1,0.1-1.9,0.4-2.7s0.7-1.5,1.2-2.1s1.2-1.1,1.9-1.4
		S99.7,217.7,100.6,217.7z M100.6,218.6c-0.7,0-1.3,0.1-1.9,0.3c-0.5,0.2-1,0.5-1.4,0.9s-0.7,0.9-1,1.5c-0.2,0.6-0.4,1.2-0.5,1.9
		h8.9c0-0.7-0.1-1.4-0.3-1.9c-0.2-0.6-0.5-1.1-0.9-1.5s-0.8-0.7-1.3-0.9C101.8,218.7,101.2,218.6,100.6,218.6z"/>
	<path class="st1" d="M109.4,231.3v-13.4h0.7c0.2,0,0.3,0,0.3,0.1c0.1,0.1,0.1,0.2,0.1,0.3l0.1,2.8c0.2-0.5,0.4-1,0.7-1.5
		c0.3-0.4,0.6-0.8,0.9-1.1s0.7-0.5,1.2-0.7c0.4-0.2,0.9-0.2,1.4-0.2c0.3,0,0.6,0,0.8,0.1c0.3,0,0.5,0.1,0.7,0.3l-0.1,0.9
		c0,0.1-0.1,0.2-0.3,0.2c-0.1,0-0.3,0-0.5-0.1s-0.5-0.1-0.9-0.1c-0.5,0-1,0.1-1.4,0.2c-0.4,0.2-0.8,0.4-1.1,0.7
		c-0.3,0.3-0.6,0.7-0.8,1.2c-0.2,0.5-0.5,1-0.7,1.6v8.7H109.4z"/>
	<path class="st1" d="M126.4,219.5c-0.1,0.1-0.2,0.2-0.3,0.2c-0.1,0-0.2-0.1-0.4-0.2c-0.2-0.1-0.4-0.2-0.6-0.4
		c-0.3-0.1-0.6-0.3-1-0.4c-0.4-0.1-0.8-0.2-1.4-0.2c-0.5,0-0.9,0.1-1.3,0.2s-0.7,0.3-1,0.6c-0.3,0.2-0.5,0.5-0.7,0.8s-0.2,0.6-0.2,1
		s0.1,0.8,0.3,1.1c0.2,0.3,0.5,0.5,0.8,0.7s0.7,0.4,1.2,0.5s0.9,0.3,1.4,0.4c0.5,0.1,0.9,0.3,1.4,0.5c0.4,0.2,0.8,0.4,1.2,0.7
		c0.3,0.3,0.6,0.6,0.8,1c0.2,0.4,0.3,0.8,0.3,1.4c0,0.6-0.1,1.1-0.3,1.6s-0.5,0.9-0.9,1.3s-0.9,0.7-1.5,0.9s-1.3,0.3-2,0.3
		c-0.9,0-1.8-0.2-2.4-0.5c-0.7-0.3-1.3-0.7-1.8-1.2l0.3-0.5c0-0.1,0.1-0.1,0.2-0.2s0.1-0.1,0.2-0.1s0.3,0.1,0.4,0.2
		c0.2,0.1,0.4,0.3,0.7,0.5c0.3,0.2,0.6,0.3,1,0.5c0.4,0.1,0.9,0.2,1.5,0.2s1.1-0.1,1.5-0.2c0.4-0.2,0.8-0.4,1.1-0.6
		c0.3-0.3,0.5-0.6,0.7-1c0.1-0.4,0.2-0.8,0.2-1.2c0-0.5-0.1-0.8-0.3-1.1s-0.5-0.5-0.9-0.8s-0.7-0.4-1.2-0.5
		c-0.4-0.1-0.9-0.3-1.4-0.4c-0.5-0.1-0.9-0.3-1.4-0.5c-0.4-0.2-0.8-0.4-1.2-0.6c-0.4-0.3-0.6-0.6-0.9-1c-0.2-0.4-0.3-0.8-0.3-1.4
		c0-0.5,0.1-0.9,0.3-1.4c0.2-0.4,0.5-0.8,0.9-1.2c0.4-0.3,0.8-0.6,1.4-0.8c0.5-0.2,1.2-0.3,1.8-0.3c0.8,0,1.5,0.1,2.2,0.4
		c0.6,0.2,1.2,0.6,1.7,1.1L126.4,219.5z"/>
	<path class="st1" d="M130.2,230.3c0-0.2,0-0.3,0.1-0.5s0.2-0.3,0.3-0.4c0.1-0.1,0.2-0.2,0.4-0.3s0.3-0.1,0.5-0.1s0.3,0,0.5,0.1
		s0.3,0.2,0.4,0.3c0.1,0.1,0.2,0.2,0.3,0.4s0.1,0.3,0.1,0.5s0,0.3-0.1,0.5s-0.2,0.3-0.3,0.4c-0.1,0.1-0.2,0.2-0.4,0.3
		s-0.3,0.1-0.5,0.1c-0.4,0-0.6-0.1-0.9-0.4C130.3,230.9,130.2,230.6,130.2,230.3z"/>
	<path class="st1" d="M145.8,219.7l-0.1,0.1c0,0-0.1,0-0.2,0c-0.1,0-0.2-0.1-0.4-0.2c-0.2-0.1-0.4-0.3-0.6-0.4
		c-0.3-0.1-0.6-0.3-1-0.4c-0.4-0.1-0.9-0.2-1.4-0.2c-0.8,0-1.5,0.1-2.1,0.4c-0.6,0.3-1.1,0.7-1.5,1.2s-0.7,1.1-0.9,1.9
		c-0.2,0.7-0.3,1.5-0.3,2.5c0,0.9,0.1,1.8,0.3,2.5s0.5,1.3,0.9,1.8s0.9,0.9,1.5,1.1c0.6,0.3,1.2,0.4,1.9,0.4c0.6,0,1.2-0.1,1.6-0.2
		c0.4-0.2,0.8-0.3,1.1-0.5s0.5-0.3,0.7-0.5s0.3-0.2,0.4-0.2s0.2,0,0.3,0.1l0.3,0.4c-0.2,0.3-0.5,0.5-0.8,0.8s-0.7,0.4-1.1,0.6
		s-0.8,0.3-1.3,0.4c-0.5,0.1-0.9,0.1-1.5,0.1c-0.9,0-1.6-0.2-2.3-0.5s-1.3-0.8-1.8-1.3c-0.5-0.6-0.9-1.3-1.2-2.2s-0.4-1.8-0.4-2.9
		c0-1,0.1-2,0.4-2.8c0.3-0.8,0.7-1.6,1.2-2.2s1.2-1.1,1.9-1.4c0.8-0.3,1.6-0.5,2.6-0.5c0.9,0,1.6,0.1,2.3,0.4
		c0.7,0.3,1.3,0.7,1.8,1.1L145.8,219.7z"/>
	<path class="st1" d="M154.8,217.7c1,0,1.8,0.2,2.6,0.5s1.4,0.8,1.9,1.4c0.5,0.6,0.9,1.3,1.2,2.2s0.4,1.8,0.4,2.9s-0.1,2-0.4,2.8
		c-0.3,0.8-0.7,1.6-1.2,2.2c-0.5,0.6-1.2,1.1-1.9,1.4c-0.8,0.3-1.6,0.5-2.6,0.5s-1.8-0.2-2.6-0.5s-1.4-0.8-1.9-1.4
		c-0.5-0.6-0.9-1.3-1.2-2.2c-0.3-0.8-0.4-1.8-0.4-2.8s0.1-2,0.4-2.9c0.3-0.9,0.7-1.6,1.2-2.2c0.5-0.6,1.2-1.1,1.9-1.4
		C153,217.8,153.9,217.7,154.8,217.7z M154.8,230.5c0.8,0,1.5-0.1,2.1-0.4c0.6-0.3,1.1-0.7,1.5-1.2s0.7-1.1,0.9-1.9
		c0.2-0.7,0.3-1.5,0.3-2.4s-0.1-1.7-0.3-2.4s-0.5-1.4-0.9-1.9s-0.9-0.9-1.5-1.2s-1.3-0.4-2.1-0.4s-1.5,0.1-2.1,0.4
		c-0.6,0.3-1.1,0.7-1.5,1.2s-0.7,1.1-0.9,1.9c-0.2,0.7-0.3,1.5-0.3,2.4s0.1,1.7,0.3,2.4s0.5,1.3,0.9,1.9s0.9,0.9,1.5,1.2
		S154,230.5,154.8,230.5z"/>
	<path class="st1" d="M164.6,231.3v-13.4h0.7c0.2,0,0.4,0.1,0.4,0.3l0.1,1.9c0.5-0.7,1.1-1.4,1.8-1.8c0.7-0.5,1.4-0.7,2.3-0.7
		c1,0,1.8,0.3,2.4,0.9c0.6,0.6,1,1.4,1.2,2.4c0.2-0.5,0.4-1,0.7-1.4s0.6-0.7,1-1s0.8-0.5,1.2-0.6s0.9-0.2,1.4-0.2
		c0.7,0,1.3,0.1,1.8,0.3s1,0.5,1.3,1s0.7,1,0.9,1.6s0.3,1.4,0.3,2.2v8.6h-1.3v-8.6c0-1.3-0.3-2.3-0.9-3s-1.4-1-2.4-1
		c-0.5,0-0.9,0.1-1.3,0.3c-0.4,0.2-0.8,0.4-1.1,0.8c-0.3,0.3-0.6,0.8-0.8,1.3s-0.3,1.1-0.3,1.8v8.6h-1.3V223c0-1.3-0.3-2.3-0.8-3
		s-1.3-1-2.3-1c-0.7,0-1.4,0.2-2,0.6c-0.6,0.4-1.2,1-1.7,1.8v10.2h-1.3V231.3z"/>
	<path class="st1" d="M186.3,236.1v-18.2h0.7c0.2,0,0.4,0.1,0.4,0.3l0.1,2.1c0.6-0.8,1.3-1.5,2.1-1.9c0.8-0.5,1.7-0.7,2.7-0.7
		c1.6,0,2.9,0.6,3.9,1.7c0.9,1.1,1.4,2.9,1.4,5.1c0,1-0.1,1.9-0.4,2.7s-0.6,1.6-1.1,2.2c-0.5,0.6-1.1,1.1-1.8,1.5s-1.6,0.5-2.5,0.5
		s-1.7-0.2-2.4-0.5s-1.2-0.8-1.7-1.5v6.5h-1.4V236.1z M191.9,218.7c-0.9,0-1.7,0.2-2.4,0.7s-1.4,1.1-1.9,1.9v7.1
		c0.5,0.8,1.1,1.3,1.7,1.6s1.3,0.5,2.1,0.5s1.5-0.1,2.1-0.4c0.6-0.3,1.1-0.7,1.5-1.2s0.7-1.2,0.9-1.9s0.3-1.5,0.3-2.4
		c0-2-0.4-3.5-1.1-4.4C194.4,219.2,193.3,218.7,191.9,218.7z"/>
	<path class="st1" d="M209.5,231.3c-0.3,0-0.4-0.1-0.5-0.4l-0.2-1.7c-0.4,0.4-0.7,0.7-1.1,1c-0.4,0.3-0.7,0.5-1.1,0.7
		c-0.4,0.2-0.8,0.3-1.3,0.5c-0.5,0.1-1,0.2-1.5,0.2s-0.9-0.1-1.3-0.2s-0.8-0.3-1.2-0.6c-0.3-0.3-0.6-0.6-0.8-1.1s-0.3-1-0.3-1.6
		s0.2-1.1,0.5-1.6s0.8-0.9,1.5-1.3c0.7-0.4,1.6-0.6,2.7-0.9s2.4-0.3,3.9-0.4v-1.4c0-1.2-0.3-2.2-0.8-2.9s-1.3-1-2.4-1
		c-0.6,0-1.2,0.1-1.7,0.3s-0.8,0.4-1.2,0.6c-0.3,0.2-0.6,0.4-0.8,0.6c-0.2,0.2-0.4,0.3-0.5,0.3s-0.2,0-0.2-0.1s-0.1-0.1-0.2-0.2
		l-0.2-0.4c0.7-0.7,1.4-1.2,2.2-1.6c0.8-0.4,1.7-0.5,2.6-0.5c0.7,0,1.4,0.1,1.9,0.3s1,0.6,1.3,1s0.6,0.9,0.8,1.6
		c0.2,0.6,0.3,1.3,0.3,2v8.7L209.5,231.3L209.5,231.3z M204.1,230.6c0.5,0,1-0.1,1.4-0.2s0.8-0.3,1.2-0.5s0.7-0.4,1-0.7
		s0.6-0.6,1-0.9v-3.5c-1.3,0-2.4,0.1-3.3,0.3c-0.9,0.2-1.7,0.4-2.3,0.6c-0.6,0.3-1,0.6-1.3,1s-0.4,0.8-0.4,1.3s0.1,0.8,0.2,1.2
		c0.1,0.3,0.3,0.6,0.6,0.8c0.2,0.2,0.5,0.4,0.9,0.5C203.4,230.5,203.7,230.6,204.1,230.6z"/>
	<path class="st1" d="M214.3,231.3v-13.4h0.7c0.2,0,0.4,0.1,0.4,0.3l0.1,2c0.6-0.8,1.3-1.4,2.1-1.9s1.7-0.7,2.7-0.7
		c0.7,0,1.4,0.1,2,0.4c0.6,0.2,1,0.6,1.4,1s0.6,1,0.8,1.6s0.3,1.3,0.3,2.1v8.6h-1.3v-8.6c0-1.3-0.3-2.2-0.9-3
		c-0.6-0.7-1.5-1.1-2.6-1.1c-0.9,0-1.7,0.2-2.5,0.7c-0.8,0.4-1.4,1.1-2,1.9v10.1L214.3,231.3L214.3,231.3z"/>
	<path class="st1" d="M232.2,235.6c-0.1,0.1-0.1,0.2-0.2,0.3s-0.2,0.1-0.4,0.1h-0.9l2.4-5.3l-5.7-12.9h1.1c0.1,0,0.2,0,0.3,0.1
		s0.1,0.1,0.2,0.2l4.5,10.4c0.1,0.1,0.1,0.3,0.1,0.4s0.1,0.3,0.1,0.4c0-0.1,0.1-0.3,0.1-0.4c0-0.1,0.1-0.3,0.2-0.4l4.5-10.4
		c0-0.1,0.1-0.2,0.2-0.2s0.2-0.1,0.3-0.1h1L232.2,235.6z"/>
	<path class="st1" d="M242.3,230.3c0-0.2,0-0.3,0.1-0.5s0.2-0.3,0.3-0.4c0.1-0.1,0.2-0.2,0.4-0.3s0.3-0.1,0.5-0.1s0.3,0,0.5,0.1
		s0.3,0.2,0.4,0.3c0.1,0.1,0.2,0.2,0.3,0.4s0.1,0.3,0.1,0.5s0,0.3-0.1,0.5s-0.2,0.3-0.3,0.4c-0.1,0.1-0.2,0.2-0.4,0.3
		s-0.3,0.1-0.5,0.1c-0.4,0-0.6-0.1-0.9-0.4C242.5,230.9,242.3,230.6,242.3,230.3z"/>
	<path class="st1" d="M258,219.7l-0.1,0.1c0,0-0.1,0-0.2,0s-0.2-0.1-0.4-0.2c-0.2-0.1-0.4-0.3-0.6-0.4c-0.3-0.1-0.6-0.3-1-0.4
		c-0.4-0.1-0.9-0.2-1.4-0.2c-0.8,0-1.5,0.1-2.1,0.4c-0.6,0.3-1.1,0.7-1.5,1.2s-0.7,1.1-0.9,1.9c-0.2,0.7-0.3,1.5-0.3,2.5
		c0,0.9,0.1,1.8,0.3,2.5s0.5,1.3,0.9,1.8s0.9,0.9,1.5,1.1c0.6,0.3,1.2,0.4,1.9,0.4c0.6,0,1.2-0.1,1.6-0.2c0.4-0.2,0.8-0.3,1.1-0.5
		c0.3-0.2,0.5-0.3,0.7-0.5s0.3-0.2,0.4-0.2s0.2,0,0.3,0.1l0.3,0.4c-0.2,0.3-0.5,0.5-0.8,0.8s-0.7,0.4-1.1,0.6s-0.8,0.3-1.3,0.4
		c-0.5,0.1-0.9,0.1-1.5,0.1c-0.9,0-1.6-0.2-2.3-0.5s-1.3-0.8-1.8-1.3c-0.5-0.6-0.9-1.3-1.2-2.2s-0.4-1.8-0.4-2.9c0-1,0.1-2,0.4-2.8
		c0.3-0.8,0.7-1.6,1.2-2.2s1.2-1.1,1.9-1.4c0.8-0.3,1.6-0.5,2.6-0.5c0.9,0,1.6,0.1,2.3,0.4c0.7,0.3,1.3,0.7,1.8,1.1L258,219.7z"/>
	<path class="st1" d="M267,217.7c1,0,1.8,0.2,2.6,0.5c0.8,0.3,1.4,0.8,1.9,1.4c0.5,0.6,0.9,1.3,1.2,2.2c0.3,0.9,0.4,1.8,0.4,2.9
		s-0.1,2-0.4,2.8s-0.7,1.6-1.2,2.2c-0.5,0.6-1.2,1.1-1.9,1.4c-0.8,0.3-1.6,0.5-2.6,0.5s-1.8-0.2-2.6-0.5c-0.8-0.3-1.4-0.8-1.9-1.4
		c-0.5-0.6-0.9-1.3-1.2-2.2c-0.3-0.8-0.4-1.8-0.4-2.8s0.1-2,0.4-2.9s0.7-1.6,1.2-2.2c0.5-0.6,1.2-1.1,1.9-1.4
		C265.2,217.8,266,217.7,267,217.7z M267,230.5c0.8,0,1.5-0.1,2.1-0.4c0.6-0.3,1.1-0.7,1.5-1.2s0.7-1.1,0.9-1.9
		c0.2-0.7,0.3-1.5,0.3-2.4s-0.1-1.7-0.3-2.4c-0.2-0.7-0.5-1.4-0.9-1.9s-0.9-0.9-1.5-1.2s-1.3-0.4-2.1-0.4c-0.8,0-1.5,0.1-2.1,0.4
		c-0.6,0.3-1.1,0.7-1.5,1.2s-0.7,1.1-0.9,1.9c-0.2,0.7-0.3,1.5-0.3,2.4s0.1,1.7,0.3,2.4s0.5,1.3,0.9,1.9s0.9,0.9,1.5,1.2
		S266.2,230.5,267,230.5z"/>
	<path class="st1" d="M276.7,231.3v-13.4h0.7c0.2,0,0.4,0.1,0.4,0.3l0.1,1.9c0.5-0.7,1.1-1.4,1.8-1.8c0.7-0.5,1.4-0.7,2.3-0.7
		c1,0,1.8,0.3,2.4,0.9c0.6,0.6,1,1.4,1.2,2.4c0.2-0.5,0.4-1,0.7-1.4c0.3-0.4,0.6-0.7,1-1s0.8-0.5,1.2-0.6c0.4-0.1,0.9-0.2,1.4-0.2
		c0.7,0,1.3,0.1,1.8,0.3s1,0.5,1.3,1s0.7,1,0.9,1.6c0.2,0.6,0.3,1.4,0.3,2.2v8.6h-1.3v-8.6c0-1.3-0.3-2.3-0.9-3s-1.4-1-2.4-1
		c-0.5,0-0.9,0.1-1.3,0.3s-0.8,0.4-1.1,0.8c-0.3,0.3-0.6,0.8-0.8,1.3c-0.2,0.5-0.3,1.1-0.3,1.8v8.6h-1.3V223c0-1.3-0.3-2.3-0.8-3
		s-1.3-1-2.3-1c-0.7,0-1.4,0.2-2,0.6c-0.6,0.4-1.2,1-1.7,1.8v10.2h-1.3V231.3z"/>
	<path class="st1" d="M145.8,284.5l-0.1,0.1c0,0-0.1,0-0.2,0c-0.1,0-0.2-0.1-0.4-0.2s-0.4-0.3-0.6-0.4c-0.3-0.1-0.6-0.3-1-0.4
		s-0.9-0.2-1.4-0.2c-0.8,0-1.5,0.1-2.1,0.4s-1.1,0.7-1.5,1.2s-0.7,1.1-0.9,1.9c-0.2,0.7-0.3,1.5-0.3,2.5c0,0.9,0.1,1.8,0.3,2.5
		s0.5,1.3,0.9,1.8s0.9,0.9,1.5,1.1c0.6,0.3,1.2,0.4,1.9,0.4c0.6,0,1.2-0.1,1.6-0.2s0.8-0.3,1.1-0.5s0.5-0.3,0.7-0.5s0.3-0.2,0.4-0.2
		s0.2,0,0.3,0.1l0.3,0.4c-0.2,0.3-0.5,0.5-0.8,0.8c-0.3,0.2-0.7,0.4-1.1,0.6s-0.8,0.3-1.3,0.4s-0.9,0.1-1.5,0.1
		c-0.9,0-1.6-0.2-2.3-0.5s-1.3-0.8-1.8-1.4s-0.9-1.3-1.2-2.2c-0.3-0.9-0.4-1.8-0.4-2.9c0-1,0.1-2,0.4-2.8c0.3-0.8,0.7-1.6,1.2-2.2
		s1.2-1.1,1.9-1.4c0.8-0.3,1.6-0.5,2.6-0.5c0.9,0,1.6,0.1,2.3,0.4s1.3,0.7,1.8,1.1L145.8,284.5z"/>
	<path class="st1" d="M154.8,282.5c1,0,1.8,0.2,2.6,0.5s1.4,0.8,1.9,1.4s0.9,1.3,1.2,2.2c0.3,0.9,0.4,1.8,0.4,2.9s-0.1,2-0.4,2.8
		c-0.3,0.8-0.7,1.6-1.2,2.2s-1.2,1.1-1.9,1.4s-1.6,0.5-2.6,0.5s-1.8-0.2-2.6-0.5s-1.4-0.8-1.9-1.4s-0.9-1.3-1.2-2.2
		c-0.3-0.8-0.4-1.8-0.4-2.8c0-1.1,0.1-2,0.4-2.9c0.3-0.9,0.7-1.6,1.2-2.2s1.2-1.1,1.9-1.4C153,282.6,153.9,282.5,154.8,282.5z
		 M154.8,295.3c0.8,0,1.5-0.1,2.1-0.4s1.1-0.7,1.5-1.2s0.7-1.1,0.9-1.9c0.2-0.7,0.3-1.5,0.3-2.4s-0.1-1.7-0.3-2.4
		c-0.2-0.7-0.5-1.4-0.9-1.9s-0.9-0.9-1.5-1.2c-0.6-0.3-1.3-0.4-2.1-0.4s-1.5,0.1-2.1,0.4s-1.1,0.7-1.5,1.2s-0.7,1.1-0.9,1.9
		c-0.2,0.7-0.3,1.5-0.3,2.4s0.1,1.7,0.3,2.4s0.5,1.3,0.9,1.9c0.4,0.5,0.9,0.9,1.5,1.2C153.3,295.1,154,295.3,154.8,295.3z"/>
	<path class="st1" d="M164.6,296.1v-13.4h0.7c0.2,0,0.4,0.1,0.4,0.3l0.1,1.9c0.5-0.7,1.1-1.3,1.8-1.8s1.4-0.7,2.3-0.7
		c1,0,1.8,0.3,2.4,0.9c0.6,0.6,1,1.4,1.2,2.4c0.2-0.5,0.4-1,0.7-1.4s0.6-0.7,1-1s0.8-0.5,1.2-0.6s0.9-0.2,1.4-0.2
		c0.7,0,1.3,0.1,1.8,0.3c0.5,0.2,1,0.5,1.3,1c0.4,0.4,0.7,1,0.9,1.6s0.3,1.3,0.3,2.2v8.6h-1.3v-8.6c0-1.3-0.3-2.3-0.9-3
		s-1.4-1-2.4-1c-0.5,0-0.9,0.1-1.3,0.3c-0.4,0.2-0.8,0.4-1.1,0.8c-0.3,0.3-0.6,0.8-0.8,1.3s-0.3,1.1-0.3,1.8v8.6h-1.3v-8.6
		c0-1.3-0.3-2.3-0.8-3s-1.3-1-2.3-1c-0.7,0-1.4,0.2-2,0.6s-1.2,1-1.7,1.8v10.2h-1.3V296.1z"/>
	<path class="st1" d="M186.3,300.9v-18.2h0.7c0.2,0,0.4,0.1,0.4,0.3l0.1,2.1c0.6-0.8,1.3-1.5,2.1-1.9c0.8-0.5,1.7-0.7,2.7-0.7
		c1.6,0,2.9,0.6,3.9,1.7c0.9,1.1,1.4,2.9,1.4,5.1c0,1-0.1,1.9-0.4,2.7s-0.6,1.6-1.1,2.2s-1.1,1.1-1.8,1.5s-1.6,0.5-2.5,0.5
		s-1.7-0.2-2.4-0.5s-1.2-0.8-1.7-1.5v6.5h-1.4V300.9z M191.9,283.5c-0.9,0-1.7,0.2-2.4,0.7s-1.4,1.1-1.9,1.9v7.1
		c0.5,0.8,1.1,1.3,1.7,1.6s1.3,0.5,2.1,0.5s1.5-0.1,2.1-0.4s1.1-0.7,1.5-1.2s0.7-1.2,0.9-1.9c0.2-0.7,0.3-1.5,0.3-2.4
		c0-2-0.4-3.5-1.1-4.4C194.4,284,193.3,283.5,191.9,283.5z"/>
	<path class="st1" d="M209.5,296.1c-0.3,0-0.4-0.1-0.5-0.4l-0.2-1.7c-0.4,0.4-0.7,0.7-1.1,1c-0.4,0.3-0.7,0.5-1.1,0.7
		s-0.8,0.3-1.3,0.5s-1,0.2-1.5,0.2s-0.9-0.1-1.3-0.2s-0.8-0.3-1.2-0.6s-0.6-0.6-0.8-1.1s-0.3-1-0.3-1.6s0.2-1.1,0.5-1.6
		s0.8-0.9,1.5-1.3s1.6-0.6,2.7-0.9s2.4-0.3,3.9-0.4v-1.4c0-1.2-0.3-2.2-0.8-2.9c-0.5-0.7-1.3-1-2.4-1c-0.6,0-1.2,0.1-1.7,0.3
		c-0.5,0.2-0.8,0.4-1.2,0.6s-0.6,0.4-0.8,0.6s-0.4,0.3-0.5,0.3s-0.2,0-0.2-0.1s-0.1-0.1-0.2-0.2l-0.2-0.4c0.7-0.7,1.4-1.2,2.2-1.6
		s1.7-0.5,2.6-0.5c0.7,0,1.4,0.1,1.9,0.3c0.5,0.2,1,0.6,1.3,1s0.6,0.9,0.8,1.6c0.2,0.6,0.3,1.3,0.3,2v8.7h-0.4V296.1z M204.1,295.4
		c0.5,0,1-0.1,1.4-0.2s0.8-0.3,1.2-0.5s0.7-0.4,1-0.7c0.3-0.3,0.6-0.6,1-0.9v-3.5c-1.3,0-2.4,0.1-3.3,0.3c-0.9,0.2-1.7,0.4-2.3,0.6
		c-0.6,0.3-1,0.6-1.3,1s-0.4,0.8-0.4,1.3s0.1,0.8,0.2,1.2s0.3,0.6,0.6,0.8c0.2,0.2,0.5,0.4,0.9,0.5
		C203.4,295.3,203.7,295.4,204.1,295.4z"/>
	<path class="st1" d="M214.3,296.1v-13.4h0.7c0.2,0,0.4,0.1,0.4,0.3l0.1,2c0.6-0.8,1.3-1.4,2.1-1.9s1.7-0.7,2.7-0.7
		c0.7,0,1.4,0.1,2,0.4c0.6,0.2,1,0.6,1.4,1s0.6,1,0.8,1.6s0.3,1.3,0.3,2.1v8.6h-1.3v-8.6c0-1.3-0.3-2.2-0.9-3
		c-0.6-0.7-1.5-1.1-2.6-1.1c-0.9,0-1.7,0.2-2.5,0.7c-0.8,0.4-1.4,1.1-2,1.9v10.1H214.3z"/>
	<path class="st1" d="M232.2,300.4c-0.1,0.1-0.1,0.2-0.2,0.3s-0.2,0.1-0.4,0.1h-0.9l2.4-5.3l-5.7-12.9h1.1c0.1,0,0.2,0,0.3,0.1
		s0.1,0.1,0.2,0.2l4.5,10.4c0.1,0.1,0.1,0.3,0.1,0.4s0.1,0.3,0.1,0.4c0-0.1,0.1-0.3,0.1-0.4s0.1-0.3,0.2-0.4l4.5-10.4
		c0-0.1,0.1-0.2,0.2-0.2s0.2-0.1,0.3-0.1h1L232.2,300.4z"/>
	<path class="st1" d="M242.3,295.1c0-0.2,0-0.3,0.1-0.5s0.2-0.3,0.3-0.4s0.2-0.2,0.4-0.3c0.1-0.1,0.3-0.1,0.5-0.1s0.3,0,0.5,0.1
		s0.3,0.2,0.4,0.3c0.1,0.1,0.2,0.2,0.3,0.4s0.1,0.3,0.1,0.5s0,0.3-0.1,0.5s-0.2,0.3-0.3,0.4s-0.2,0.2-0.4,0.3
		c-0.2,0.1-0.3,0.1-0.5,0.1c-0.4,0-0.6-0.1-0.9-0.4C242.5,295.7,242.3,295.4,242.3,295.1z"/>
	<path class="st1" d="M258,284.5l-0.1,0.1c0,0-0.1,0-0.2,0s-0.2-0.1-0.4-0.2c-0.2-0.1-0.4-0.3-0.6-0.4c-0.3-0.1-0.6-0.3-1-0.4
		s-0.9-0.2-1.4-0.2c-0.8,0-1.5,0.1-2.1,0.4s-1.1,0.7-1.5,1.2s-0.7,1.1-0.9,1.9c-0.2,0.7-0.3,1.5-0.3,2.5c0,0.9,0.1,1.8,0.3,2.5
		s0.5,1.3,0.9,1.8s0.9,0.9,1.5,1.1c0.6,0.3,1.2,0.4,1.9,0.4c0.6,0,1.2-0.1,1.6-0.2c0.4-0.1,0.8-0.3,1.1-0.5c0.3-0.2,0.5-0.3,0.7-0.5
		s0.3-0.2,0.4-0.2s0.2,0,0.3,0.1l0.3,0.4c-0.2,0.3-0.5,0.5-0.8,0.8c-0.3,0.2-0.7,0.4-1.1,0.6s-0.8,0.3-1.3,0.4s-0.9,0.1-1.5,0.1
		c-0.9,0-1.6-0.2-2.3-0.5s-1.3-0.8-1.8-1.4s-0.9-1.3-1.2-2.2c-0.3-0.9-0.4-1.8-0.4-2.9c0-1,0.1-2,0.4-2.8c0.3-0.8,0.7-1.6,1.2-2.2
		s1.2-1.1,1.9-1.4c0.8-0.3,1.6-0.5,2.6-0.5c0.9,0,1.6,0.1,2.3,0.4c0.7,0.3,1.3,0.7,1.8,1.1L258,284.5z"/>
	<path class="st1" d="M267,282.5c1,0,1.8,0.2,2.6,0.5c0.8,0.3,1.4,0.8,1.9,1.4s0.9,1.3,1.2,2.2c0.3,0.9,0.4,1.8,0.4,2.9
		s-0.1,2-0.4,2.8s-0.7,1.6-1.2,2.2s-1.2,1.1-1.9,1.4s-1.6,0.5-2.6,0.5s-1.8-0.2-2.6-0.5c-0.8-0.3-1.4-0.8-1.9-1.4s-0.9-1.3-1.2-2.2
		c-0.3-0.8-0.4-1.8-0.4-2.8c0-1.1,0.1-2,0.4-2.9s0.7-1.6,1.2-2.2s1.2-1.1,1.9-1.4C265.2,282.6,266,282.5,267,282.5z M267,295.3
		c0.8,0,1.5-0.1,2.1-0.4s1.1-0.7,1.5-1.2s0.7-1.1,0.9-1.9c0.2-0.7,0.3-1.5,0.3-2.4s-0.1-1.7-0.3-2.4c-0.2-0.7-0.5-1.4-0.9-1.9
		s-0.9-0.9-1.5-1.2c-0.6-0.3-1.3-0.4-2.1-0.4c-0.8,0-1.5,0.1-2.1,0.4s-1.1,0.7-1.5,1.2s-0.7,1.1-0.9,1.9c-0.2,0.7-0.3,1.5-0.3,2.4
		s0.1,1.7,0.3,2.4s0.5,1.3,0.9,1.9c0.4,0.5,0.9,0.9,1.5,1.2C265.5,295.1,266.2,295.3,267,295.3z"/>
	<path class="st1" d="M276.7,296.1v-13.4h0.7c0.2,0,0.4,0.1,0.4,0.3l0.1,1.9c0.5-0.7,1.1-1.3,1.8-1.8c0.7-0.5,1.4-0.7,2.3-0.7
		c1,0,1.8,0.3,2.4,0.9s1,1.4,1.2,2.4c0.2-0.5,0.4-1,0.7-1.4c0.3-0.4,0.6-0.7,1-1s0.8-0.5,1.2-0.6c0.4-0.1,0.9-0.2,1.4-0.2
		c0.7,0,1.3,0.1,1.8,0.3c0.5,0.2,1,0.5,1.3,1c0.4,0.4,0.7,1,0.9,1.6s0.3,1.3,0.3,2.2v8.6h-1.3v-8.6c0-1.3-0.3-2.3-0.9-3
		s-1.4-1-2.4-1c-0.5,0-0.9,0.1-1.3,0.3c-0.4,0.2-0.8,0.4-1.1,0.8c-0.3,0.3-0.6,0.8-0.8,1.3c-0.2,0.5-0.3,1.1-0.3,1.8v8.6h-1.3v-8.6
		c0-1.3-0.3-2.3-0.8-3s-1.3-1-2.3-1c-0.7,0-1.4,0.2-2,0.6s-1.2,1-1.7,1.8v10.2h-1.3V296.1z"/>
	<path class="st1" d="M167.6,349.3l-0.1,0.1c0,0-0.1,0-0.2,0c-0.1,0-0.2-0.1-0.4-0.2s-0.4-0.3-0.6-0.4c-0.3-0.1-0.6-0.3-1-0.4
		s-0.9-0.2-1.4-0.2c-0.8,0-1.5,0.1-2.1,0.4s-1.1,0.7-1.5,1.2s-0.7,1.1-0.9,1.9c-0.2,0.7-0.3,1.5-0.3,2.5c0,0.9,0.1,1.8,0.3,2.5
		s0.5,1.3,0.9,1.8s0.9,0.9,1.5,1.1c0.6,0.3,1.2,0.4,1.9,0.4c0.6,0,1.2-0.1,1.6-0.2s0.8-0.3,1.1-0.5s0.5-0.3,0.7-0.5s0.3-0.2,0.4-0.2
		s0.2,0,0.3,0.1l0.3,0.4c-0.2,0.3-0.5,0.5-0.8,0.8c-0.3,0.2-0.7,0.4-1.1,0.6s-0.8,0.3-1.3,0.4s-0.9,0.1-1.5,0.1
		c-0.9,0-1.6-0.2-2.3-0.5s-1.3-0.8-1.8-1.4s-0.9-1.3-1.2-2.2c-0.3-0.9-0.4-1.8-0.4-2.9c0-1,0.1-2,0.4-2.8c0.3-0.8,0.7-1.6,1.2-2.2
		s1.2-1.1,1.9-1.4c0.8-0.3,1.6-0.5,2.6-0.5c0.9,0,1.6,0.1,2.3,0.4s1.3,0.7,1.8,1.1L167.6,349.3z"/>
	<path class="st1" d="M176.7,347.3c1,0,1.8,0.2,2.6,0.5s1.4,0.8,1.9,1.4s0.9,1.3,1.2,2.2c0.3,0.9,0.4,1.8,0.4,2.9s-0.1,2-0.4,2.8
		c-0.3,0.8-0.7,1.6-1.2,2.2s-1.2,1.1-1.9,1.4s-1.6,0.5-2.6,0.5s-1.8-0.2-2.6-0.5s-1.4-0.8-1.9-1.4s-0.9-1.3-1.2-2.2
		c-0.3-0.8-0.4-1.8-0.4-2.8c0-1.1,0.1-2,0.4-2.9c0.3-0.9,0.7-1.6,1.2-2.2s1.2-1.1,1.9-1.4C174.8,347.4,175.7,347.3,176.7,347.3z
		 M176.7,360.1c0.8,0,1.5-0.1,2.1-0.4s1.1-0.7,1.5-1.2s0.7-1.1,0.9-1.9c0.2-0.7,0.3-1.5,0.3-2.4s-0.1-1.7-0.3-2.4
		c-0.2-0.7-0.5-1.4-0.9-1.9s-0.9-0.9-1.5-1.2c-0.6-0.3-1.3-0.4-2.1-0.4s-1.5,0.1-2.1,0.4s-1.1,0.7-1.5,1.2s-0.7,1.1-0.9,1.9
		c-0.2,0.7-0.3,1.5-0.3,2.4s0.1,1.7,0.3,2.4s0.5,1.3,0.9,1.9c0.4,0.5,0.9,0.9,1.5,1.2C175.2,359.9,175.9,360.1,176.7,360.1z"/>
	<path class="st1" d="M186.4,360.9v-13.4h0.7c0.2,0,0.4,0.1,0.4,0.3l0.1,1.9c0.5-0.7,1.1-1.3,1.8-1.8s1.4-0.7,2.3-0.7
		c1,0,1.8,0.3,2.4,0.9c0.6,0.6,1,1.4,1.2,2.4c0.2-0.5,0.4-1,0.7-1.4s0.6-0.7,1-1s0.8-0.5,1.2-0.6s0.9-0.2,1.4-0.2
		c0.7,0,1.3,0.1,1.8,0.3c0.5,0.2,1,0.5,1.3,1c0.4,0.4,0.7,1,0.9,1.6s0.3,1.3,0.3,2.2v8.6h-1.3v-8.6c0-1.3-0.3-2.3-0.9-3
		s-1.4-1-2.4-1c-0.5,0-0.9,0.1-1.3,0.3c-0.4,0.2-0.8,0.4-1.1,0.8c-0.3,0.3-0.6,0.8-0.8,1.3s-0.3,1.1-0.3,1.8v8.6h-1.3v-8.6
		c0-1.3-0.3-2.3-0.8-3s-1.3-1-2.3-1c-0.7,0-1.4,0.2-2,0.6s-1.2,1-1.7,1.8v10.2h-1.3V360.9z"/>
	<path class="st1" d="M208.1,365.7v-18.2h0.7c0.2,0,0.4,0.1,0.4,0.3l0.1,2.1c0.6-0.8,1.3-1.5,2.1-1.9c0.8-0.5,1.7-0.7,2.7-0.7
		c1.6,0,2.9,0.6,3.9,1.7c0.9,1.1,1.4,2.9,1.4,5.1c0,1-0.1,1.9-0.4,2.7s-0.6,1.6-1.1,2.2s-1.1,1.1-1.8,1.5s-1.6,0.5-2.5,0.5
		s-1.7-0.2-2.4-0.5s-1.2-0.8-1.7-1.5v6.5h-1.4V365.7z M213.8,348.3c-0.9,0-1.7,0.2-2.4,0.7s-1.4,1.1-1.9,1.9v7.1
		c0.5,0.8,1.1,1.3,1.7,1.6s1.3,0.5,2.1,0.5s1.5-0.1,2.1-0.4s1.1-0.7,1.5-1.2s0.7-1.2,0.9-1.9c0.2-0.7,0.3-1.5,0.3-2.4
		c0-2-0.4-3.5-1.1-4.4C216.2,348.8,215.2,348.3,213.8,348.3z"/>
	<path class="st1" d="M231.3,360.9c-0.3,0-0.4-0.1-0.5-0.4l-0.2-1.7c-0.4,0.4-0.7,0.7-1.1,1c-0.4,0.3-0.7,0.5-1.1,0.7
		s-0.8,0.3-1.3,0.5s-1,0.2-1.5,0.2s-0.9-0.1-1.3-0.2s-0.8-0.3-1.2-0.6s-0.6-0.6-0.8-1.1s-0.3-1-0.3-1.6s0.2-1.1,0.5-1.6
		s0.8-0.9,1.5-1.3s1.6-0.6,2.7-0.9s2.4-0.3,3.9-0.4v-1.4c0-1.2-0.3-2.2-0.8-2.9c-0.5-0.7-1.3-1-2.4-1c-0.6,0-1.2,0.1-1.7,0.3
		c-0.5,0.2-0.8,0.4-1.2,0.6s-0.6,0.4-0.8,0.6s-0.4,0.3-0.5,0.3s-0.2,0-0.2-0.1s-0.1-0.1-0.2-0.2l-0.2-0.4c0.7-0.7,1.4-1.2,2.2-1.6
		s1.7-0.5,2.6-0.5c0.7,0,1.4,0.1,1.9,0.3c0.5,0.2,1,0.6,1.3,1s0.6,0.9,0.8,1.6c0.2,0.6,0.3,1.3,0.3,2v8.7h-0.4V360.9z M225.9,360.2
		c0.5,0,1-0.1,1.4-0.2s0.8-0.3,1.2-0.5s0.7-0.4,1-0.7c0.3-0.3,0.6-0.6,1-0.9v-3.5c-1.3,0-2.4,0.1-3.3,0.3c-0.9,0.2-1.7,0.4-2.3,0.6
		c-0.6,0.3-1,0.6-1.3,1s-0.4,0.8-0.4,1.3s0.1,0.8,0.2,1.2s0.3,0.6,0.6,0.8c0.2,0.2,0.5,0.4,0.9,0.5
		C225.2,360.1,225.5,360.2,225.9,360.2z"/>
	<path class="st1" d="M236.1,360.9v-13.4h0.7c0.2,0,0.4,0.1,0.4,0.3l0.1,2c0.6-0.8,1.3-1.4,2.1-1.9s1.7-0.7,2.7-0.7
		c0.7,0,1.4,0.1,2,0.4c0.6,0.2,1,0.6,1.4,1s0.6,1,0.8,1.6s0.3,1.3,0.3,2.1v8.6h-1.3v-8.6c0-1.3-0.3-2.2-0.9-3
		c-0.6-0.7-1.5-1.1-2.6-1.1c-0.9,0-1.7,0.2-2.5,0.7c-0.8,0.4-1.4,1.1-2,1.9v10.1H236.1z"/>
	<path class="st1" d="M254.1,365.2c-0.1,0.1-0.1,0.2-0.2,0.3s-0.2,0.1-0.4,0.1h-0.9l2.4-5.3l-5.7-12.9h1.1c0.1,0,0.2,0,0.3,0.1
		s0.1,0.1,0.2,0.2l4.5,10.4c0.1,0.1,0.1,0.3,0.1,0.4s0.1,0.3,0.1,0.4c0-0.1,0.1-0.3,0.1-0.4s0.1-0.3,0.2-0.4l4.5-10.4
		c0-0.1,0.1-0.2,0.2-0.2s0.2-0.1,0.3-0.1h1L254.1,365.2z"/>
	<path class="st1" d="M264.2,359.9c0-0.2,0-0.3,0.1-0.5s0.2-0.3,0.3-0.4c0.1-0.1,0.2-0.2,0.4-0.3c0.1-0.1,0.3-0.1,0.5-0.1
		s0.3,0,0.5,0.1s0.3,0.2,0.4,0.3c0.1,0.1,0.2,0.2,0.3,0.4s0.1,0.3,0.1,0.5s0,0.3-0.1,0.5s-0.2,0.3-0.3,0.4c-0.1,0.1-0.2,0.2-0.4,0.3
		c-0.2,0.1-0.3,0.1-0.5,0.1c-0.4,0-0.6-0.1-0.9-0.4C264.3,360.5,264.2,360.2,264.2,359.9z"/>
	<path class="st1" d="M271.9,347.5v8.6c0,1.3,0.3,2.2,0.9,3c0.6,0.7,1.5,1.1,2.6,1.1c0.9,0,1.7-0.2,2.4-0.7c0.8-0.4,1.4-1.1,2-1.9
		v-10.1h1.3v13.4h-0.7c-0.2,0-0.4-0.1-0.4-0.4l-0.1-2c-0.6,0.8-1.3,1.4-2.2,1.9c-0.8,0.5-1.7,0.7-2.7,0.7c-0.7,0-1.4-0.1-2-0.4
		c-0.6-0.2-1-0.6-1.4-1s-0.6-1-0.8-1.6s-0.3-1.3-0.3-2.1v-8.6h1.4V347.5z"/>
	<path class="st1" d="M286.9,341.3v12h0.6c0.1,0,0.2,0,0.4-0.1c0.1,0,0.2-0.1,0.4-0.3l5.4-5.1c0.1-0.1,0.2-0.2,0.3-0.2
		s0.2-0.1,0.4-0.1h1.1l-5.9,5.6c-0.2,0.2-0.3,0.3-0.5,0.4c0.1,0.1,0.3,0.2,0.4,0.2c0.1,0.1,0.2,0.2,0.3,0.3l6.2,6.8h-1.1
		c-0.1,0-0.2,0-0.3-0.1c-0.1,0-0.2-0.1-0.3-0.2l-5.6-6c-0.1-0.1-0.1-0.1-0.2-0.2s-0.1-0.1-0.2-0.1s-0.2-0.1-0.2-0.1
		c-0.1,0-0.2,0-0.3,0h-0.6v6.8h-1.3v-19.6L286.9,341.3L286.9,341.3z"/>
</g>
<g>
	<path class="st1" d="M587.2,166.5c-0.3,0-0.4-0.1-0.5-0.4l-0.2-1.7c-0.4,0.4-0.7,0.7-1.1,1c-0.4,0.3-0.7,0.5-1.1,0.7
		c-0.4,0.2-0.8,0.3-1.3,0.5c-0.5,0.1-1,0.2-1.5,0.2s-0.9-0.1-1.3-0.2c-0.4-0.1-0.8-0.3-1.2-0.6c-0.3-0.3-0.6-0.6-0.8-1.1
		c-0.2-0.4-0.3-1-0.3-1.6s0.2-1.1,0.5-1.6s0.8-0.9,1.5-1.3c0.7-0.4,1.6-0.6,2.7-0.9c1.1-0.2,2.4-0.3,3.9-0.4v-1.4
		c0-1.2-0.3-2.2-0.8-2.9s-1.3-1-2.4-1c-0.6,0-1.2,0.1-1.7,0.3s-0.8,0.4-1.2,0.6c-0.3,0.2-0.6,0.4-0.8,0.6c-0.2,0.2-0.4,0.3-0.5,0.3
		s-0.2,0-0.2-0.1c-0.1,0-0.1-0.1-0.2-0.2l-0.2-0.4c0.7-0.7,1.4-1.2,2.2-1.6c0.8-0.4,1.7-0.5,2.6-0.5c0.7,0,1.4,0.1,1.9,0.3
		s1,0.6,1.3,1c0.4,0.4,0.6,0.9,0.8,1.6c0.2,0.6,0.3,1.3,0.3,2v8.7L587.2,166.5L587.2,166.5z M581.8,165.8c0.5,0,1-0.1,1.4-0.2
		c0.4-0.1,0.8-0.3,1.2-0.5s0.7-0.4,1-0.7s0.6-0.6,1-0.9V160c-1.3,0-2.4,0.1-3.3,0.3c-0.9,0.2-1.7,0.4-2.3,0.6s-1,0.6-1.3,1
		s-0.4,0.8-0.4,1.3s0.1,0.8,0.2,1.2s0.3,0.6,0.6,0.8c0.2,0.2,0.5,0.4,0.9,0.5S581.4,165.8,581.8,165.8z"/>
	<path class="st1" d="M601.7,166.5c-0.2,0-0.4-0.1-0.4-0.4l-0.1-2.1c-0.6,0.8-1.3,1.5-2.1,1.9s-1.7,0.7-2.7,0.7
		c-1.7,0-2.9-0.6-3.9-1.7c-0.9-1.1-1.4-2.9-1.4-5.1c0-1,0.1-1.9,0.4-2.7s0.6-1.6,1.1-2.2s1.1-1.1,1.8-1.5s1.6-0.5,2.5-0.5
		s1.7,0.2,2.4,0.5s1.2,0.8,1.7,1.5v-8h1.3v19.6H601.7z M596.8,165.6c0.9,0,1.7-0.2,2.4-0.7s1.4-1.1,1.9-1.9v-7
		c-0.5-0.8-1.1-1.3-1.7-1.6c-0.6-0.3-1.3-0.5-2.1-0.5s-1.5,0.1-2.1,0.4c-0.6,0.3-1.1,0.7-1.5,1.2s-0.7,1.2-0.9,1.9s-0.3,1.5-0.3,2.4
		c0,2,0.4,3.5,1.1,4.4C594.3,165.2,595.4,165.6,596.8,165.6z"/>
	<path class="st1" d="M606.9,166.5v-13.4h0.7c0.2,0,0.4,0.1,0.4,0.3l0.1,1.9c0.5-0.7,1.1-1.4,1.8-1.8c0.7-0.5,1.4-0.7,2.3-0.7
		c1,0,1.8,0.3,2.4,0.9c0.6,0.6,1,1.4,1.2,2.4c0.2-0.5,0.4-1,0.7-1.4s0.6-0.7,1-1s0.8-0.5,1.2-0.6s0.9-0.2,1.4-0.2
		c0.7,0,1.3,0.1,1.8,0.3s1,0.5,1.3,1c0.4,0.4,0.7,1,0.9,1.6s0.3,1.4,0.3,2.2v8.6H623V158c0-1.3-0.3-2.3-0.9-3c-0.6-0.7-1.4-1-2.4-1
		c-0.5,0-0.9,0.1-1.3,0.3c-0.4,0.2-0.8,0.4-1.1,0.8c-0.3,0.3-0.6,0.8-0.8,1.3s-0.3,1.1-0.3,1.8v8.6h-1.3v-8.6c0-1.3-0.3-2.3-0.8-3
		s-1.3-1-2.3-1c-0.7,0-1.4,0.2-2,0.6s-1.2,1-1.7,1.8v10.2h-1.2V166.5z"/>
	<path class="st1" d="M630.6,148.4c0,0.2,0,0.3-0.1,0.5c-0.1,0.1-0.2,0.3-0.3,0.4c-0.1,0.1-0.2,0.2-0.4,0.3
		c-0.1,0.1-0.3,0.1-0.5,0.1s-0.3,0-0.5-0.1s-0.3-0.1-0.4-0.3c-0.1-0.1-0.2-0.2-0.3-0.4c-0.1-0.1-0.1-0.3-0.1-0.5s0-0.3,0.1-0.5
		c0.1-0.1,0.1-0.3,0.3-0.4s0.2-0.2,0.4-0.3s0.3-0.1,0.5-0.1s0.3,0,0.5,0.1c0.1,0.1,0.3,0.1,0.4,0.3c0.1,0.1,0.2,0.2,0.3,0.4
		S630.6,148.3,630.6,148.4z M630,153.1v13.4h-1.3v-13.4H630z"/>
	<path class="st1" d="M634.6,166.5v-13.4h0.7c0.2,0,0.4,0.1,0.4,0.3l0.1,2c0.6-0.8,1.3-1.4,2.1-1.9s1.7-0.7,2.7-0.7
		c0.7,0,1.4,0.1,2,0.4s1,0.6,1.4,1s0.6,1,0.8,1.6s0.3,1.3,0.3,2.1v8.6h-1.3v-8.6c0-1.3-0.3-2.2-0.9-3c-0.6-0.7-1.5-1.1-2.6-1.1
		c-0.9,0-1.7,0.2-2.5,0.7c-0.8,0.4-1.4,1.1-2,1.9v10.1L634.6,166.5L634.6,166.5z"/>
	<path class="st1" d="M584.6,217.9v8.6c0,1.3,0.3,2.2,0.9,3c0.6,0.7,1.5,1.1,2.6,1.1c0.9,0,1.7-0.2,2.4-0.7c0.8-0.4,1.4-1.1,2-1.9
		v-10.1h1.3v13.4h-0.7c-0.2,0-0.4-0.1-0.4-0.4l-0.1-2c-0.6,0.8-1.3,1.4-2.2,1.9c-0.8,0.5-1.7,0.7-2.7,0.7c-0.7,0-1.4-0.1-2-0.4
		s-1-0.6-1.4-1s-0.6-1-0.8-1.6s-0.3-1.3-0.3-2.1v-8.6h1.4V217.9z"/>
	<path class="st1" d="M605.7,219.5c-0.1,0.1-0.2,0.2-0.3,0.2s-0.2-0.1-0.4-0.2c-0.2-0.1-0.4-0.2-0.6-0.4c-0.3-0.1-0.6-0.3-1-0.4
		c-0.4-0.1-0.8-0.2-1.4-0.2c-0.5,0-0.9,0.1-1.3,0.2s-0.7,0.3-1,0.6c-0.3,0.2-0.5,0.5-0.7,0.8s-0.2,0.6-0.2,1s0.1,0.8,0.3,1.1
		s0.5,0.5,0.8,0.7s0.7,0.4,1.2,0.5s0.9,0.3,1.4,0.4c0.5,0.1,0.9,0.3,1.4,0.5s0.8,0.4,1.2,0.7c0.3,0.3,0.6,0.6,0.8,1s0.3,0.8,0.3,1.4
		c0,0.6-0.1,1.1-0.3,1.6s-0.5,0.9-0.9,1.3s-0.9,0.7-1.5,0.9s-1.3,0.3-2,0.3c-0.9,0-1.8-0.2-2.4-0.5c-0.7-0.3-1.3-0.7-1.8-1.2
		l0.3-0.5c0-0.1,0.1-0.1,0.2-0.2s0.1-0.1,0.2-0.1c0.1,0,0.3,0.1,0.4,0.2c0.2,0.1,0.4,0.3,0.7,0.5s0.6,0.3,1,0.5
		c0.4,0.1,0.9,0.2,1.5,0.2s1.1-0.1,1.5-0.2c0.4-0.2,0.8-0.4,1.1-0.6c0.3-0.3,0.5-0.6,0.7-1c0.1-0.4,0.2-0.8,0.2-1.2
		c0-0.5-0.1-0.8-0.3-1.1s-0.5-0.5-0.9-0.8c-0.4-0.2-0.7-0.4-1.2-0.5c-0.4-0.1-0.9-0.3-1.4-0.4c-0.5-0.1-0.9-0.3-1.4-0.5
		c-0.4-0.2-0.8-0.4-1.2-0.6c-0.4-0.3-0.6-0.6-0.9-1c-0.2-0.4-0.3-0.8-0.3-1.4c0-0.5,0.1-0.9,0.3-1.4c0.2-0.4,0.5-0.8,0.9-1.2
		s0.8-0.6,1.4-0.8c0.5-0.2,1.2-0.3,1.8-0.3c0.8,0,1.5,0.1,2.2,0.4c0.6,0.2,1.2,0.6,1.7,1.1L605.7,219.5z"/>
	<path class="st1" d="M615,217.7c0.8,0,1.5,0.1,2.1,0.4c0.6,0.3,1.2,0.6,1.7,1.1s0.9,1.1,1.1,1.8c0.3,0.7,0.4,1.6,0.4,2.5
		c0,0.2,0,0.3-0.1,0.4c-0.1,0.1-0.1,0.1-0.3,0.1h-9.8v0.3c0,1,0.1,1.9,0.4,2.7c0.2,0.8,0.6,1.4,1,1.9s1,0.9,1.6,1.2s1.3,0.4,2.1,0.4
		c0.7,0,1.3-0.1,1.8-0.2c0.5-0.1,0.9-0.3,1.2-0.5s0.6-0.4,0.8-0.5s0.3-0.2,0.4-0.2c0.1,0,0.2,0,0.3,0.1l0.4,0.4
		c-0.2,0.3-0.5,0.5-0.9,0.8s-0.8,0.4-1.2,0.6c-0.4,0.2-0.9,0.3-1.4,0.4c-0.5,0.1-1,0.1-1.5,0.1c-0.9,0-1.8-0.2-2.5-0.5
		c-0.8-0.3-1.4-0.8-1.9-1.4c-0.5-0.6-1-1.4-1.2-2.2c-0.3-0.9-0.4-1.9-0.4-3c0-1,0.1-1.9,0.4-2.7c0.3-0.8,0.7-1.5,1.2-2.1
		s1.2-1.1,1.9-1.4C613.2,217.8,614.1,217.7,615,217.7z M615,218.6c-0.7,0-1.3,0.1-1.9,0.3c-0.5,0.2-1,0.5-1.4,0.9s-0.7,0.9-1,1.5
		c-0.2,0.6-0.4,1.2-0.5,1.9h8.9c0-0.7-0.1-1.4-0.3-1.9c-0.2-0.6-0.5-1.1-0.9-1.5s-0.8-0.7-1.3-0.9
		C616.2,218.7,615.7,218.6,615,218.6z"/>
	<path class="st1" d="M623.9,231.3v-13.4h0.7c0.2,0,0.3,0,0.3,0.1c0.1,0.1,0.1,0.2,0.1,0.3l0.1,2.8c0.2-0.5,0.4-1,0.7-1.5
		c0.3-0.4,0.6-0.8,0.9-1.1c0.3-0.3,0.7-0.5,1.2-0.7c0.4-0.2,0.9-0.2,1.4-0.2c0.3,0,0.6,0,0.8,0.1c0.3,0,0.5,0.1,0.7,0.3l-0.1,0.9
		c0,0.1-0.1,0.2-0.3,0.2c-0.1,0-0.3,0-0.5-0.1s-0.5-0.1-0.9-0.1c-0.5,0-1,0.1-1.4,0.2c-0.4,0.2-0.8,0.4-1.1,0.7s-0.6,0.7-0.8,1.2
		s-0.5,1-0.7,1.6v8.7H623.9z"/>
	<path class="st1" d="M640.8,219.5c-0.1,0.1-0.2,0.2-0.3,0.2s-0.2-0.1-0.4-0.2c-0.2-0.1-0.4-0.2-0.6-0.4c-0.3-0.1-0.6-0.3-1-0.4
		c-0.4-0.1-0.8-0.2-1.4-0.2c-0.5,0-0.9,0.1-1.3,0.2s-0.7,0.3-1,0.6c-0.3,0.2-0.5,0.5-0.7,0.8s-0.2,0.6-0.2,1s0.1,0.8,0.3,1.1
		s0.5,0.5,0.8,0.7s0.7,0.4,1.2,0.5s0.9,0.3,1.4,0.4c0.5,0.1,0.9,0.3,1.4,0.5c0.4,0.2,0.8,0.4,1.2,0.7s0.6,0.6,0.8,1s0.3,0.8,0.3,1.4
		c0,0.6-0.1,1.1-0.3,1.6s-0.5,0.9-0.9,1.3s-0.9,0.7-1.5,0.9s-1.3,0.3-2,0.3c-0.9,0-1.8-0.2-2.4-0.5c-0.7-0.3-1.3-0.7-1.8-1.2
		l0.3-0.5c0-0.1,0.1-0.1,0.2-0.2s0.1-0.1,0.2-0.1c0.1,0,0.3,0.1,0.4,0.2c0.2,0.1,0.4,0.3,0.7,0.5s0.6,0.3,1,0.5
		c0.4,0.1,0.9,0.2,1.5,0.2s1.1-0.1,1.5-0.2s0.8-0.4,1.1-0.6c0.3-0.3,0.5-0.6,0.7-1c0.1-0.4,0.2-0.8,0.2-1.2c0-0.5-0.1-0.8-0.3-1.1
		s-0.5-0.5-0.9-0.8c-0.4-0.2-0.7-0.4-1.2-0.5c-0.4-0.1-0.9-0.3-1.4-0.4c-0.5-0.1-0.9-0.3-1.4-0.5s-0.8-0.4-1.2-0.6
		c-0.4-0.3-0.6-0.6-0.9-1c-0.2-0.4-0.3-0.8-0.3-1.4c0-0.5,0.1-0.9,0.3-1.4c0.2-0.4,0.5-0.8,0.9-1.2c0.4-0.3,0.8-0.6,1.4-0.8
		c0.5-0.2,1.2-0.3,1.8-0.3c0.8,0,1.5,0.1,2.2,0.4c0.6,0.2,1.2,0.6,1.7,1.1L640.8,219.5z"/>
	<path class="st1" d="M570.3,284.5l-0.1,0.1c0,0-0.1,0-0.2,0c-0.1,0-0.2-0.1-0.4-0.2s-0.4-0.3-0.6-0.4c-0.3-0.1-0.6-0.3-1-0.4
		s-0.9-0.2-1.4-0.2c-0.8,0-1.5,0.1-2.1,0.4s-1.1,0.7-1.5,1.2s-0.7,1.1-0.9,1.9c-0.2,0.7-0.3,1.5-0.3,2.5c0,0.9,0.1,1.8,0.3,2.5
		s0.5,1.3,0.9,1.8s0.9,0.9,1.5,1.1s1.2,0.4,1.9,0.4c0.6,0,1.2-0.1,1.6-0.2s0.8-0.3,1.1-0.5s0.5-0.3,0.7-0.5s0.3-0.2,0.4-0.2
		c0.1,0,0.2,0,0.3,0.1l0.3,0.4c-0.2,0.3-0.5,0.5-0.8,0.8c-0.3,0.2-0.7,0.4-1.1,0.6c-0.4,0.2-0.8,0.3-1.3,0.4s-0.9,0.1-1.5,0.1
		c-0.9,0-1.6-0.2-2.3-0.5s-1.3-0.8-1.8-1.4s-0.9-1.3-1.2-2.2c-0.3-0.9-0.4-1.8-0.4-2.9c0-1,0.1-2,0.4-2.8c0.3-0.8,0.7-1.6,1.2-2.2
		s1.2-1.1,1.9-1.4c0.8-0.3,1.6-0.5,2.6-0.5c0.9,0,1.6,0.1,2.3,0.4s1.3,0.7,1.8,1.1L570.3,284.5z"/>
	<path class="st1" d="M579.3,282.5c1,0,1.8,0.2,2.6,0.5s1.4,0.8,1.9,1.4s0.9,1.3,1.2,2.2c0.3,0.9,0.4,1.8,0.4,2.9s-0.1,2-0.4,2.8
		c-0.3,0.8-0.7,1.6-1.2,2.2s-1.2,1.1-1.9,1.4s-1.6,0.5-2.6,0.5s-1.8-0.2-2.6-0.5s-1.4-0.8-1.9-1.4s-0.9-1.3-1.2-2.2
		c-0.3-0.8-0.4-1.8-0.4-2.8c0-1.1,0.1-2,0.4-2.9c0.3-0.9,0.7-1.6,1.2-2.2s1.2-1.1,1.9-1.4C577.5,282.6,578.3,282.5,579.3,282.5z
		 M579.3,295.3c0.8,0,1.5-0.1,2.1-0.4s1.1-0.7,1.5-1.2s0.7-1.1,0.9-1.9c0.2-0.7,0.3-1.5,0.3-2.4s-0.1-1.7-0.3-2.4
		c-0.2-0.7-0.5-1.4-0.9-1.9s-0.9-0.9-1.5-1.2c-0.6-0.3-1.3-0.4-2.1-0.4s-1.5,0.1-2.1,0.4s-1.1,0.7-1.5,1.2s-0.7,1.1-0.9,1.9
		c-0.2,0.7-0.3,1.5-0.3,2.4s0.1,1.7,0.3,2.4c0.2,0.7,0.5,1.3,0.9,1.9c0.4,0.5,0.9,0.9,1.5,1.2C577.8,295.1,578.5,295.3,579.3,295.3z
		"/>
	<path class="st1" d="M589,296.1v-13.4h0.7c0.2,0,0.4,0.1,0.4,0.3l0.1,1.9c0.5-0.7,1.1-1.3,1.8-1.8s1.4-0.7,2.3-0.7
		c1,0,1.8,0.3,2.4,0.9c0.6,0.6,1,1.4,1.2,2.4c0.2-0.5,0.4-1,0.7-1.4s0.6-0.7,1-1s0.8-0.5,1.2-0.6s0.9-0.2,1.4-0.2
		c0.7,0,1.3,0.1,1.8,0.3s1,0.5,1.3,1c0.4,0.4,0.7,1,0.9,1.6s0.3,1.3,0.3,2.2v8.6h-1.3v-8.6c0-1.3-0.3-2.3-0.9-3
		c-0.6-0.7-1.4-1-2.4-1c-0.5,0-0.9,0.1-1.3,0.3c-0.4,0.2-0.8,0.4-1.1,0.8c-0.3,0.3-0.6,0.8-0.8,1.3s-0.3,1.1-0.3,1.8v8.6h-1.3v-8.6
		c0-1.3-0.3-2.3-0.8-3s-1.3-1-2.3-1c-0.7,0-1.4,0.2-2,0.6s-1.2,1-1.7,1.8v10.2H589V296.1z"/>
	<path class="st1" d="M610.8,300.9v-18.2h0.7c0.2,0,0.4,0.1,0.4,0.3l0.1,2.1c0.6-0.8,1.3-1.5,2.1-1.9c0.8-0.5,1.7-0.7,2.7-0.7
		c1.6,0,2.9,0.6,3.9,1.7c0.9,1.1,1.4,2.9,1.4,5.1c0,1-0.1,1.9-0.4,2.7c-0.3,0.9-0.6,1.6-1.1,2.2s-1.1,1.1-1.8,1.5s-1.6,0.5-2.5,0.5
		s-1.7-0.2-2.4-0.5s-1.2-0.8-1.7-1.5v6.5h-1.4V300.9z M616.4,283.5c-0.9,0-1.7,0.2-2.4,0.7s-1.4,1.1-1.9,1.9v7.1
		c0.5,0.8,1.1,1.3,1.7,1.6s1.3,0.5,2.1,0.5s1.5-0.1,2.1-0.4s1.1-0.7,1.5-1.2s0.7-1.2,0.9-1.9s0.3-1.5,0.3-2.4c0-2-0.4-3.5-1.1-4.4
		C618.8,284,617.8,283.5,616.4,283.5z"/>
	<path class="st1" d="M633.9,296.1c-0.3,0-0.4-0.1-0.5-0.4l-0.2-1.7c-0.4,0.4-0.7,0.7-1.1,1c-0.4,0.3-0.7,0.5-1.1,0.7
		c-0.4,0.2-0.8,0.3-1.3,0.5s-1,0.2-1.5,0.2s-0.9-0.1-1.3-0.2c-0.4-0.1-0.8-0.3-1.2-0.6c-0.3-0.3-0.6-0.6-0.8-1.1
		c-0.2-0.4-0.3-1-0.3-1.6s0.2-1.1,0.5-1.6s0.8-0.9,1.5-1.3s1.6-0.6,2.7-0.9c1.1-0.2,2.4-0.3,3.9-0.4v-1.4c0-1.2-0.3-2.2-0.8-2.9
		c-0.5-0.7-1.3-1-2.4-1c-0.6,0-1.2,0.1-1.7,0.3c-0.5,0.2-0.8,0.4-1.2,0.6c-0.3,0.2-0.6,0.4-0.8,0.6s-0.4,0.3-0.5,0.3s-0.2,0-0.2-0.1
		c-0.1,0-0.1-0.1-0.2-0.2l-0.2-0.4c0.7-0.7,1.4-1.2,2.2-1.6s1.7-0.5,2.6-0.5c0.7,0,1.3,0.1,1.9,0.3s1,0.6,1.3,1s0.6,0.9,0.8,1.6
		c0.2,0.6,0.3,1.3,0.3,2v8.7h-0.4V296.1z M628.5,295.4c0.5,0,1-0.1,1.4-0.2s0.8-0.3,1.2-0.5s0.7-0.4,1-0.7c0.3-0.3,0.6-0.6,1-0.9
		v-3.5c-1.3,0-2.4,0.1-3.3,0.3s-1.7,0.4-2.3,0.6c-0.6,0.3-1,0.6-1.3,1s-0.4,0.8-0.4,1.3s0.1,0.8,0.2,1.2s0.3,0.6,0.6,0.8
		c0.2,0.2,0.5,0.4,0.9,0.5C627.8,295.3,628.2,295.4,628.5,295.4z"/>
	<path class="st1" d="M638.7,296.1v-13.4h0.7c0.2,0,0.4,0.1,0.4,0.3l0.1,2c0.6-0.8,1.3-1.4,2.1-1.9s1.7-0.7,2.7-0.7
		c0.7,0,1.4,0.1,2,0.4c0.6,0.2,1,0.6,1.4,1s0.6,1,0.8,1.6s0.3,1.3,0.3,2.1v8.6H648v-8.6c0-1.3-0.3-2.2-0.9-3
		c-0.6-0.7-1.5-1.1-2.6-1.1c-0.9,0-1.7,0.2-2.5,0.7s-1.4,1.1-2,1.9v10.1H638.7z"/>
	<path class="st1" d="M656.7,300.4c-0.1,0.1-0.1,0.2-0.2,0.3c-0.1,0.1-0.2,0.1-0.4,0.1h-0.9l2.4-5.3l-5.7-12.9h1.1
		c0.1,0,0.2,0,0.3,0.1s0.1,0.1,0.2,0.2l4.5,10.4c0.1,0.1,0.1,0.3,0.1,0.4s0.1,0.3,0.1,0.4c0-0.1,0.1-0.3,0.1-0.4s0.1-0.3,0.2-0.4
		L663,283c0-0.1,0.1-0.2,0.2-0.2s0.2-0.1,0.3-0.1h1L656.7,300.4z"/>
</g>
<g>
	<path class="st1" d="M795.7,158.6v7.9h-1.4v-7.9l-7.1-11.2h1.2c0.1,0,0.2,0,0.3,0.1s0.1,0.1,0.2,0.2l5.5,8.8
		c0.1,0.2,0.2,0.4,0.3,0.6c0.1,0.2,0.2,0.4,0.2,0.6c0.1-0.2,0.2-0.4,0.2-0.6s0.2-0.4,0.3-0.6l5.5-8.8c0-0.1,0.1-0.2,0.2-0.2
		c0.1-0.1,0.2-0.1,0.3-0.1h1.2L795.7,158.6z"/>
	<path class="st1" d="M810.6,152.9c1,0,1.8,0.2,2.6,0.5s1.4,0.8,1.9,1.4c0.5,0.6,0.9,1.3,1.2,2.2s0.4,1.8,0.4,2.9
		c0,1.1-0.1,2-0.4,2.8c-0.3,0.8-0.7,1.6-1.2,2.2c-0.5,0.6-1.2,1.1-1.9,1.4c-0.8,0.3-1.6,0.5-2.6,0.5s-1.8-0.2-2.6-0.5
		s-1.4-0.8-1.9-1.4c-0.5-0.6-0.9-1.3-1.2-2.2c-0.3-0.8-0.4-1.8-0.4-2.8c0-1.1,0.1-2,0.4-2.9s0.7-1.6,1.2-2.2
		c0.5-0.6,1.2-1.1,1.9-1.4S809.6,152.9,810.6,152.9z M810.6,165.7c0.8,0,1.5-0.1,2.1-0.4s1.1-0.7,1.5-1.2s0.7-1.1,0.9-1.9
		s0.3-1.5,0.3-2.4s-0.1-1.7-0.3-2.4s-0.5-1.4-0.9-1.9s-0.9-0.9-1.5-1.2s-1.3-0.4-2.1-0.4s-1.5,0.1-2.1,0.4c-0.6,0.3-1.1,0.7-1.5,1.2
		s-0.7,1.1-0.9,1.9c-0.2,0.7-0.3,1.5-0.3,2.4s0.1,1.7,0.3,2.4s0.5,1.3,0.9,1.9c0.4,0.5,0.9,0.9,1.5,1.2S809.8,165.7,810.6,165.7z"/>
	<path class="st1" d="M821.5,153.1v8.6c0,1.3,0.3,2.2,0.9,3s1.5,1.1,2.6,1.1c0.9,0,1.7-0.2,2.4-0.7c0.8-0.4,1.4-1.1,2-1.9v-10.1h1.3
		v13.4H830c-0.2,0-0.4-0.1-0.4-0.4l-0.1-2c-0.6,0.8-1.3,1.4-2.2,1.9c-0.8,0.5-1.7,0.7-2.7,0.7c-0.7,0-1.4-0.1-2-0.4
		c-0.6-0.2-1-0.6-1.4-1s-0.6-1-0.8-1.6s-0.3-1.3-0.3-2.1V153h1.4V153.1z"/>
	<path class="st1" d="M835.1,166.5v-13.4h0.7c0.2,0,0.3,0,0.3,0.1c0.1,0.1,0.1,0.2,0.1,0.3l0.1,2.8c0.2-0.5,0.4-1,0.7-1.5
		c0.3-0.4,0.6-0.8,0.9-1.1c0.3-0.3,0.7-0.5,1.2-0.7c0.4-0.2,0.9-0.2,1.4-0.2c0.3,0,0.6,0,0.8,0.1c0.3,0,0.5,0.1,0.7,0.3l-0.1,0.9
		c0,0.1-0.1,0.2-0.3,0.2c-0.1,0-0.3,0-0.5-0.1s-0.5-0.1-0.9-0.1c-0.5,0-1,0.1-1.4,0.2s-0.8,0.4-1.1,0.7s-0.6,0.7-0.8,1.2
		s-0.5,1-0.7,1.6v8.7H835.1z"/>
	<path class="st1" d="M853.4,165.5h4.4V150c0-0.3,0-0.6,0-1l-4.2,3.7c-0.1,0.1-0.3,0.1-0.4,0.1s-0.2-0.1-0.3-0.2l-0.4-0.5l5.5-4.9h1
		v18.2h4.2v1h-9.9v-0.9H853.4z"/>
	<path class="st1" d="M875.1,154.7c-0.1,0.1-0.2,0.2-0.3,0.2s-0.2-0.1-0.4-0.2c-0.2-0.1-0.4-0.2-0.6-0.4c-0.3-0.1-0.6-0.3-1-0.4
		c-0.4-0.1-0.8-0.2-1.4-0.2c-0.5,0-0.9,0.1-1.3,0.2c-0.4,0.1-0.7,0.3-1,0.6c-0.3,0.2-0.5,0.5-0.7,0.8s-0.2,0.6-0.2,1
		s0.1,0.8,0.3,1.1s0.5,0.5,0.8,0.7s0.7,0.4,1.2,0.5s0.9,0.3,1.4,0.4s0.9,0.3,1.4,0.5s0.8,0.4,1.2,0.7c0.3,0.3,0.6,0.6,0.8,1
		s0.3,0.8,0.3,1.4c0,0.6-0.1,1.1-0.3,1.6s-0.5,0.9-0.9,1.3s-0.9,0.7-1.5,0.9s-1.3,0.3-2,0.3c-0.9,0-1.8-0.2-2.4-0.5
		c-0.7-0.3-1.3-0.7-1.8-1.2l0.3-0.5c0-0.1,0.1-0.1,0.2-0.2c0.1,0,0.1-0.1,0.2-0.1c0.1,0,0.3,0.1,0.4,0.2c0.2,0.1,0.4,0.3,0.7,0.5
		s0.6,0.3,1,0.5c0.4,0.1,0.9,0.2,1.5,0.2s1.1-0.1,1.5-0.2c0.4-0.2,0.8-0.4,1.1-0.6s0.5-0.6,0.7-1c0.1-0.4,0.2-0.7,0.2-1.2
		s-0.1-0.8-0.3-1.1s-0.5-0.5-0.9-0.8c-0.4-0.2-0.7-0.4-1.2-0.5c-0.4-0.1-0.9-0.3-1.4-0.4c-0.5-0.1-0.9-0.3-1.4-0.5
		c-0.4-0.2-0.8-0.4-1.2-0.6c-0.4-0.3-0.6-0.6-0.9-1s-0.3-0.8-0.3-1.4c0-0.5,0.1-0.9,0.3-1.4s0.5-0.8,0.9-1.2
		c0.4-0.3,0.8-0.6,1.4-0.8c0.5-0.2,1.2-0.3,1.8-0.3c0.8,0,1.5,0.1,2.2,0.4s1.2,0.6,1.7,1.1L875.1,154.7z"/>
	<path class="st1" d="M882.8,166.7c-0.9,0-1.6-0.3-2.1-0.8s-0.8-1.3-0.8-2.3v-9.2H878c-0.1,0-0.2,0-0.2-0.1
		c-0.1-0.1-0.1-0.1-0.1-0.2v-0.5l2.3-0.2l0.3-4.8c0-0.1,0.1-0.2,0.1-0.2s0.1-0.1,0.2-0.1h0.6v5.1h4.2v1h-4.2v9.1c0,0.4,0,0.7,0.1,1
		s0.2,0.5,0.4,0.7s0.4,0.3,0.6,0.4c0.2,0.1,0.5,0.1,0.7,0.1c0.3,0,0.6,0,0.8-0.1s0.4-0.2,0.6-0.3c0.2-0.1,0.3-0.2,0.4-0.3
		c0.1-0.1,0.2-0.1,0.3-0.1s0.1,0,0.2,0.1l0.4,0.6c-0.3,0.4-0.8,0.7-1.3,0.9S883.4,166.7,882.8,166.7z"/>
	<path class="st1" d="M910.9,166.5h-1.1c-0.1,0-0.2,0-0.3-0.1s-0.1-0.2-0.2-0.3l-2.2-5.5h-9.4l-2.2,5.5c0,0.1-0.1,0.2-0.2,0.3
		c-0.1,0.1-0.2,0.1-0.3,0.1h-1.1l7.8-19.1h1.4L910.9,166.5z M898.1,159.6h8.6l-3.9-9.7c-0.1-0.3-0.3-0.7-0.4-1.1
		c-0.1,0.2-0.1,0.4-0.2,0.6c-0.1,0.2-0.1,0.4-0.2,0.5L898.1,159.6z"/>
	<path class="st1" d="M913.4,171.3v-18.2h0.7c0.2,0,0.4,0.1,0.4,0.3l0.1,2.1c0.6-0.8,1.3-1.5,2.1-1.9c0.8-0.5,1.7-0.7,2.7-0.7
		c1.6,0,2.9,0.6,3.9,1.7c0.9,1.1,1.4,2.9,1.4,5.1c0,1-0.1,1.9-0.4,2.7c-0.3,0.9-0.6,1.6-1.1,2.2c-0.5,0.6-1.1,1.1-1.8,1.5
		s-1.6,0.5-2.5,0.5s-1.7-0.2-2.4-0.5s-1.2-0.8-1.7-1.5v6.5h-1.4V171.3z M919.1,153.9c-0.9,0-1.7,0.2-2.4,0.7s-1.4,1.1-1.9,1.9v7.1
		c0.5,0.8,1.1,1.3,1.7,1.6s1.3,0.5,2.1,0.5s1.5-0.1,2.1-0.4c0.6-0.3,1.1-0.7,1.5-1.2s0.7-1.2,0.9-1.9s0.3-1.5,0.3-2.4
		c0-2-0.4-3.5-1.1-4.4C921.5,154.4,920.4,153.9,919.1,153.9z"/>
	<path class="st1" d="M928.3,171.3v-18.2h0.7c0.2,0,0.4,0.1,0.4,0.3l0.1,2.1c0.6-0.8,1.3-1.5,2.1-1.9c0.8-0.5,1.7-0.7,2.7-0.7
		c1.6,0,2.9,0.6,3.9,1.7c0.9,1.1,1.4,2.9,1.4,5.1c0,1-0.1,1.9-0.4,2.7c-0.3,0.9-0.6,1.6-1.1,2.2c-0.5,0.6-1.1,1.1-1.8,1.5
		s-1.6,0.5-2.5,0.5s-1.7-0.2-2.4-0.5s-1.2-0.8-1.7-1.5v6.5h-1.4V171.3z M934,153.9c-0.9,0-1.7,0.2-2.4,0.7s-1.4,1.1-1.9,1.9v7.1
		c0.5,0.8,1.1,1.3,1.7,1.6s1.3,0.5,2.1,0.5s1.5-0.1,2.1-0.4c0.6-0.3,1.1-0.7,1.5-1.2s0.7-1.2,0.9-1.9s0.3-1.5,0.3-2.4
		c0-2-0.4-3.5-1.1-4.4C936.4,154.4,935.3,153.9,934,153.9z"/>
	<path class="st1" d="M795.7,223.4v7.9h-1.4v-7.9l-7.1-11.2h1.2c0.1,0,0.2,0,0.3,0.1s0.1,0.1,0.2,0.2l5.5,8.8
		c0.1,0.2,0.2,0.4,0.3,0.6c0.1,0.2,0.2,0.4,0.2,0.6c0.1-0.2,0.2-0.4,0.2-0.6s0.2-0.4,0.3-0.6l5.5-8.8c0-0.1,0.1-0.2,0.2-0.2
		c0.1-0.1,0.2-0.1,0.3-0.1h1.2L795.7,223.4z"/>
	<path class="st1" d="M810.6,217.7c1,0,1.8,0.2,2.6,0.5s1.4,0.8,1.9,1.4c0.5,0.6,0.9,1.3,1.2,2.2s0.4,1.8,0.4,2.9s-0.1,2-0.4,2.8
		s-0.7,1.6-1.2,2.2c-0.5,0.6-1.2,1.1-1.9,1.4c-0.8,0.3-1.6,0.5-2.6,0.5s-1.8-0.2-2.6-0.5s-1.4-0.8-1.9-1.4c-0.5-0.6-0.9-1.3-1.2-2.2
		s-0.4-1.8-0.4-2.8s0.1-2,0.4-2.9s0.7-1.6,1.2-2.2c0.5-0.6,1.2-1.1,1.9-1.4C808.7,217.8,809.6,217.7,810.6,217.7z M810.6,230.5
		c0.8,0,1.5-0.1,2.1-0.4s1.1-0.7,1.5-1.2s0.7-1.1,0.9-1.9s0.3-1.5,0.3-2.4s-0.1-1.7-0.3-2.4s-0.5-1.4-0.9-1.9s-0.9-0.9-1.5-1.2
		s-1.3-0.4-2.1-0.4s-1.5,0.1-2.1,0.4c-0.6,0.3-1.1,0.7-1.5,1.2s-0.7,1.1-0.9,1.9c-0.2,0.7-0.3,1.5-0.3,2.4s0.1,1.7,0.3,2.4
		s0.5,1.3,0.9,1.9s0.9,0.9,1.5,1.2S809.8,230.5,810.6,230.5z"/>
	<path class="st1" d="M821.5,217.9v8.6c0,1.3,0.3,2.2,0.9,3c0.6,0.7,1.5,1.1,2.6,1.1c0.9,0,1.7-0.2,2.4-0.7c0.8-0.4,1.4-1.1,2-1.9
		v-10.1h1.3v13.4H830c-0.2,0-0.4-0.1-0.4-0.4l-0.1-2c-0.6,0.8-1.3,1.4-2.2,1.9c-0.8,0.5-1.7,0.7-2.7,0.7c-0.7,0-1.4-0.1-2-0.4
		c-0.6-0.2-1-0.6-1.4-1s-0.6-1-0.8-1.6s-0.3-1.3-0.3-2.1v-8.6h1.4V217.9z"/>
	<path class="st1" d="M835.1,231.3v-13.4h0.7c0.2,0,0.3,0,0.3,0.1c0.1,0.1,0.1,0.2,0.1,0.3l0.1,2.8c0.2-0.5,0.4-1,0.7-1.5
		c0.3-0.4,0.6-0.8,0.9-1.1c0.3-0.3,0.7-0.5,1.2-0.7c0.4-0.2,0.9-0.2,1.4-0.2c0.3,0,0.6,0,0.8,0.1c0.3,0,0.5,0.1,0.7,0.3l-0.1,0.9
		c0,0.1-0.1,0.2-0.3,0.2c-0.1,0-0.3,0-0.5-0.1s-0.5-0.1-0.9-0.1c-0.5,0-1,0.1-1.4,0.2s-0.8,0.4-1.1,0.7s-0.6,0.7-0.8,1.2
		s-0.5,1-0.7,1.6v8.7H835.1z"/>
	<path class="st1" d="M857.7,212c0.7,0,1.4,0.1,2.1,0.3c0.7,0.2,1.2,0.5,1.8,1c0.5,0.4,0.9,1,1.2,1.6s0.4,1.4,0.4,2.3
		c0,0.7-0.1,1.4-0.3,2s-0.5,1.2-0.9,1.8s-0.8,1.1-1.3,1.7c-0.5,0.5-1,1.1-1.6,1.6l-6,6.1c0.3-0.1,0.6-0.1,0.9-0.2
		c0.3,0,0.6-0.1,0.9-0.1h8.2c0.1,0,0.3,0,0.3,0.1c0.1,0.1,0.1,0.2,0.1,0.3v0.8h-12.3v-0.5c0-0.1,0-0.2,0.1-0.3
		c0-0.1,0.1-0.2,0.2-0.3l6.5-6.6c0.5-0.5,1-1.1,1.5-1.6s0.9-1,1.2-1.6c0.3-0.5,0.6-1.1,0.8-1.6s0.3-1.1,0.3-1.8s-0.1-1.3-0.4-1.8
		c-0.2-0.5-0.5-0.9-0.9-1.3c-0.4-0.3-0.8-0.6-1.4-0.7c-0.5-0.2-1-0.2-1.6-0.2s-1.2,0.1-1.7,0.3s-1,0.4-1.4,0.8
		c-0.4,0.3-0.7,0.7-1,1.2s-0.4,1-0.5,1.5c-0.1,0.2-0.1,0.3-0.2,0.4c-0.1,0.1-0.2,0.1-0.4,0.1l-0.7-0.1c0.1-0.8,0.3-1.5,0.7-2.2
		c0.3-0.6,0.8-1.2,1.3-1.6c0.5-0.4,1.1-0.8,1.8-1S857,212,857.7,212z"/>
	<path class="st1" d="M867.7,231.3v-13.4h0.7c0.2,0,0.4,0.1,0.4,0.3l0.1,2c0.6-0.8,1.3-1.4,2.1-1.9s1.7-0.7,2.7-0.7
		c0.7,0,1.4,0.1,2,0.4c0.6,0.2,1,0.6,1.4,1s0.6,1,0.8,1.6s0.3,1.3,0.3,2.1v8.6H877v-8.6c0-1.3-0.3-2.2-0.9-3
		c-0.6-0.7-1.5-1.1-2.6-1.1c-0.9,0-1.7,0.2-2.5,0.7s-1.4,1.1-2,1.9v10.1L867.7,231.3L867.7,231.3z"/>
	<path class="st1" d="M892.3,231.3c-0.2,0-0.4-0.1-0.4-0.4l-0.1-2.1c-0.6,0.8-1.3,1.5-2.1,1.9c-0.8,0.5-1.7,0.7-2.7,0.7
		c-1.7,0-2.9-0.6-3.9-1.7c-0.9-1.1-1.4-2.9-1.4-5.1c0-1,0.1-1.9,0.4-2.7c0.3-0.9,0.6-1.6,1.1-2.2c0.5-0.6,1.1-1.1,1.8-1.5
		s1.6-0.5,2.5-0.5s1.7,0.2,2.4,0.5s1.2,0.8,1.7,1.5v-8h1.3v19.6H892.3z M887.3,230.4c0.9,0,1.7-0.2,2.4-0.7s1.4-1.1,1.9-1.9v-7
		c-0.5-0.8-1.1-1.3-1.7-1.6s-1.3-0.5-2.1-0.5s-1.5,0.1-2.1,0.4s-1.1,0.7-1.5,1.2s-0.7,1.2-0.9,1.9s-0.3,1.5-0.3,2.4
		c0,2,0.4,3.5,1.1,4.4S886,230.4,887.3,230.4z"/>
	<path class="st1" d="M919.9,231.3h-1.1c-0.1,0-0.2,0-0.3-0.1s-0.1-0.2-0.2-0.3l-2.2-5.5h-9.4l-2.2,5.5c0,0.1-0.1,0.2-0.2,0.3
		c-0.1,0.1-0.2,0.1-0.3,0.1h-1.1l7.8-19.1h1.4L919.9,231.3z M907.1,224.4h8.6l-3.9-9.7c-0.1-0.3-0.3-0.7-0.4-1.1
		c-0.1,0.2-0.1,0.4-0.2,0.6c-0.1,0.2-0.1,0.4-0.2,0.5L907.1,224.4z"/>
	<path class="st1" d="M922.4,236.1v-18.2h0.7c0.2,0,0.4,0.1,0.4,0.3l0.1,2.1c0.6-0.8,1.3-1.5,2.1-1.9c0.8-0.5,1.7-0.7,2.7-0.7
		c1.6,0,2.9,0.6,3.9,1.7c0.9,1.1,1.4,2.9,1.4,5.1c0,1-0.1,1.9-0.4,2.7c-0.3,0.9-0.6,1.6-1.1,2.2c-0.5,0.6-1.1,1.1-1.8,1.5
		s-1.6,0.5-2.5,0.5s-1.7-0.2-2.4-0.5s-1.2-0.8-1.7-1.5v6.5h-1.4V236.1z M928.1,218.7c-0.9,0-1.7,0.2-2.4,0.7s-1.4,1.1-1.9,1.9v7.1
		c0.5,0.8,1.1,1.3,1.7,1.6s1.3,0.5,2.1,0.5s1.5-0.1,2.1-0.4s1.1-0.7,1.5-1.2s0.7-1.2,0.9-1.9s0.3-1.5,0.3-2.4c0-2-0.4-3.5-1.1-4.4
		C930.5,219.2,929.5,218.7,928.1,218.7z"/>
	<path class="st1" d="M937.3,236.1v-18.2h0.7c0.2,0,0.4,0.1,0.4,0.3l0.1,2.1c0.6-0.8,1.3-1.5,2.1-1.9c0.8-0.5,1.7-0.7,2.7-0.7
		c1.6,0,2.9,0.6,3.9,1.7c0.9,1.1,1.4,2.9,1.4,5.1c0,1-0.1,1.9-0.4,2.7c-0.3,0.9-0.6,1.6-1.1,2.2c-0.5,0.6-1.1,1.1-1.8,1.5
		s-1.6,0.5-2.5,0.5s-1.7-0.2-2.4-0.5s-1.2-0.8-1.7-1.5v6.5h-1.4V236.1z M943,218.7c-0.9,0-1.7,0.2-2.4,0.7s-1.4,1.1-1.9,1.9v7.1
		c0.5,0.8,1.1,1.3,1.7,1.6s1.3,0.5,2.1,0.5s1.5-0.1,2.1-0.4s1.1-0.7,1.5-1.2s0.7-1.2,0.9-1.9s0.3-1.5,0.3-2.4c0-2-0.4-3.5-1.1-4.4
		C945.4,219.2,944.3,218.7,943,218.7z"/>
	<path class="st1" d="M795.7,288.2v7.9h-1.4v-7.9l-7.1-11.2h1.2c0.1,0,0.2,0,0.3,0.1s0.1,0.1,0.2,0.2l5.5,8.8
		c0.1,0.2,0.2,0.4,0.3,0.6s0.2,0.4,0.2,0.6c0.1-0.2,0.2-0.4,0.2-0.6c0.1-0.2,0.2-0.4,0.3-0.6l5.5-8.8c0-0.1,0.1-0.2,0.2-0.2
		c0.1-0.1,0.2-0.1,0.3-0.1h1.2L795.7,288.2z"/>
	<path class="st1" d="M810.6,282.5c1,0,1.8,0.2,2.6,0.5s1.4,0.8,1.9,1.4s0.9,1.3,1.2,2.2s0.4,1.8,0.4,2.9s-0.1,2-0.4,2.8
		c-0.3,0.8-0.7,1.6-1.2,2.2s-1.2,1.1-1.9,1.4s-1.6,0.5-2.6,0.5s-1.8-0.2-2.6-0.5s-1.4-0.8-1.9-1.4s-0.9-1.3-1.2-2.2
		c-0.3-0.8-0.4-1.8-0.4-2.8c0-1.1,0.1-2,0.4-2.9s0.7-1.6,1.2-2.2s1.2-1.1,1.9-1.4C808.7,282.6,809.6,282.5,810.6,282.5z
		 M810.6,295.3c0.8,0,1.5-0.1,2.1-0.4s1.1-0.7,1.5-1.2s0.7-1.1,0.9-1.9s0.3-1.5,0.3-2.4s-0.1-1.7-0.3-2.4c-0.2-0.7-0.5-1.4-0.9-1.9
		s-0.9-0.9-1.5-1.2c-0.6-0.3-1.3-0.4-2.1-0.4s-1.5,0.1-2.1,0.4s-1.1,0.7-1.5,1.2s-0.7,1.1-0.9,1.9c-0.2,0.7-0.3,1.5-0.3,2.4
		s0.1,1.7,0.3,2.4c0.2,0.7,0.5,1.3,0.9,1.9c0.4,0.5,0.9,0.9,1.5,1.2C809.1,295.1,809.8,295.3,810.6,295.3z"/>
	<path class="st1" d="M821.5,282.7v8.6c0,1.3,0.3,2.2,0.9,3c0.6,0.7,1.5,1.1,2.6,1.1c0.9,0,1.7-0.2,2.4-0.7s1.4-1.1,2-1.9v-10.1h1.3
		v13.4H830c-0.2,0-0.4-0.1-0.4-0.4l-0.1-2c-0.6,0.8-1.3,1.4-2.2,1.9c-0.8,0.5-1.7,0.7-2.7,0.7c-0.7,0-1.4-0.1-2-0.4
		c-0.6-0.2-1-0.6-1.4-1s-0.6-1-0.8-1.6s-0.3-1.3-0.3-2.1v-8.6h1.4V282.7z"/>
	<path class="st1" d="M835.1,296.1v-13.4h0.7c0.2,0,0.3,0,0.3,0.1c0.1,0.1,0.1,0.2,0.1,0.3l0.1,2.8c0.2-0.5,0.4-1,0.7-1.5
		s0.6-0.8,0.9-1.1s0.7-0.5,1.2-0.7s0.9-0.2,1.4-0.2c0.3,0,0.6,0,0.8,0.1c0.3,0,0.5,0.1,0.7,0.3l-0.1,0.9c0,0.1-0.1,0.2-0.3,0.2
		c-0.1,0-0.3,0-0.5-0.1s-0.5-0.1-0.9-0.1c-0.5,0-1,0.1-1.4,0.2c-0.4,0.2-0.8,0.4-1.1,0.7s-0.6,0.7-0.8,1.2s-0.5,1-0.7,1.6v8.7H835.1
		z"/>
	<path class="st1" d="M857.8,276.8c0.7,0,1.4,0.1,2.1,0.3c0.6,0.2,1.2,0.5,1.7,0.9s0.9,0.9,1.2,1.5s0.4,1.3,0.4,2.1
		c0,0.6-0.1,1.2-0.3,1.7s-0.5,0.9-0.8,1.3s-0.7,0.7-1.2,1s-1,0.5-1.5,0.6c1.4,0.3,2.5,0.8,3.2,1.6c0.7,0.8,1.1,1.9,1.1,3.1
		c0,0.8-0.2,1.5-0.5,2.2s-0.7,1.2-1.3,1.7c-0.5,0.5-1.2,0.9-1.9,1.1s-1.6,0.4-2.4,0.4c-1.1,0-2-0.1-2.7-0.4s-1.3-0.7-1.8-1.1
		s-0.8-1-1.1-1.6s-0.5-1.2-0.6-1.7l0.5-0.2c0.1-0.1,0.3-0.1,0.5-0.1s0.3,0.1,0.3,0.3c0,0.1,0.1,0.3,0.2,0.5s0.2,0.5,0.3,0.8
		s0.3,0.6,0.6,0.9c0.2,0.3,0.5,0.6,0.9,0.8s0.8,0.4,1.2,0.6c0.5,0.2,1.1,0.2,1.7,0.2c0.8,0,1.5-0.1,2.1-0.4s1.1-0.6,1.5-1
		s0.7-0.9,0.9-1.4s0.3-1,0.3-1.5c0-0.6-0.1-1.1-0.3-1.6s-0.5-0.9-0.9-1.3s-1-0.7-1.7-0.9c-0.7-0.2-1.6-0.3-2.6-0.3V286
		c0.8,0,1.6-0.1,2.2-0.3c0.6-0.2,1.2-0.5,1.6-0.8c0.4-0.4,0.7-0.8,1-1.3c0.2-0.5,0.3-1,0.3-1.6c0-0.7-0.1-1.3-0.3-1.8
		s-0.5-0.9-0.9-1.2c-0.4-0.3-0.8-0.6-1.3-0.7c-0.5-0.2-1-0.2-1.6-0.2s-1.2,0.1-1.7,0.3c-0.5,0.2-1,0.4-1.4,0.8
		c-0.4,0.3-0.7,0.7-1,1.2s-0.4,1-0.5,1.5c-0.1,0.2-0.1,0.3-0.2,0.4c-0.1,0.1-0.2,0.1-0.4,0.1l-0.7-0.1c0.1-0.8,0.3-1.5,0.7-2.2
		c0.3-0.6,0.8-1.2,1.3-1.6s1.1-0.8,1.8-1S857,276.8,857.8,276.8z"/>
	<path class="st1" d="M867.7,296.1v-13.4h0.7c0.2,0,0.3,0,0.3,0.1c0.1,0.1,0.1,0.2,0.1,0.3l0.1,2.8c0.2-0.5,0.4-1,0.7-1.5
		s0.6-0.8,0.9-1.1s0.7-0.5,1.2-0.7s0.9-0.2,1.4-0.2c0.3,0,0.6,0,0.8,0.1c0.3,0,0.5,0.1,0.7,0.3l-0.1,0.9c0,0.1-0.1,0.2-0.3,0.2
		c-0.1,0-0.3,0-0.5-0.1s-0.5-0.1-0.9-0.1c-0.5,0-1,0.1-1.4,0.2c-0.4,0.2-0.8,0.4-1.1,0.7s-0.6,0.7-0.8,1.2s-0.5,1-0.7,1.6v8.7H867.7
		z"/>
	<path class="st1" d="M887,296.1c-0.2,0-0.4-0.1-0.4-0.4l-0.1-2.1c-0.6,0.8-1.3,1.5-2.1,1.9c-0.8,0.5-1.7,0.7-2.7,0.7
		c-1.7,0-2.9-0.6-3.9-1.7c-0.9-1.1-1.4-2.9-1.4-5.1c0-1,0.1-1.9,0.4-2.7c0.3-0.9,0.6-1.6,1.1-2.2s1.1-1.1,1.8-1.5s1.6-0.5,2.5-0.5
		s1.7,0.2,2.4,0.5s1.2,0.8,1.7,1.5v-8h1.3v19.6L887,296.1L887,296.1z M882,295.2c0.9,0,1.7-0.2,2.4-0.7s1.4-1.1,1.9-1.9v-7
		c-0.5-0.8-1.1-1.3-1.7-1.6s-1.3-0.5-2.1-0.5s-1.5,0.1-2.1,0.4s-1.1,0.7-1.5,1.2s-0.7,1.2-0.9,1.9c-0.2,0.7-0.3,1.5-0.3,2.4
		c0,2,0.4,3.5,1.1,4.4S880.7,295.2,882,295.2z"/>
	<path class="st1" d="M914.6,296.1h-1.1c-0.1,0-0.2,0-0.3-0.1s-0.1-0.2-0.2-0.3l-2.2-5.5h-9.4l-2.2,5.5c0,0.1-0.1,0.2-0.2,0.3
		c-0.1,0.1-0.2,0.1-0.3,0.1h-1.1l7.8-19.1h1.4L914.6,296.1z M901.8,289.2h8.6l-3.9-9.7c-0.1-0.3-0.3-0.7-0.4-1.1
		c-0.1,0.2-0.1,0.4-0.2,0.6c-0.1,0.2-0.1,0.4-0.2,0.5L901.8,289.2z"/>
	<path class="st1" d="M917.1,300.9v-18.2h0.7c0.2,0,0.4,0.1,0.4,0.3l0.1,2.1c0.6-0.8,1.3-1.5,2.1-1.9c0.8-0.5,1.7-0.7,2.7-0.7
		c1.6,0,2.9,0.6,3.9,1.7c0.9,1.1,1.4,2.9,1.4,5.1c0,1-0.1,1.9-0.4,2.7c-0.3,0.9-0.6,1.6-1.1,2.2s-1.1,1.1-1.8,1.5s-1.6,0.5-2.5,0.5
		s-1.7-0.2-2.4-0.5s-1.2-0.8-1.7-1.5v6.5h-1.4V300.9z M922.8,283.5c-0.9,0-1.7,0.2-2.4,0.7s-1.4,1.1-1.9,1.9v7.1
		c0.5,0.8,1.1,1.3,1.7,1.6s1.3,0.5,2.1,0.5s1.5-0.1,2.1-0.4s1.1-0.7,1.5-1.2s0.7-1.2,0.9-1.9s0.3-1.5,0.3-2.4c0-2-0.4-3.5-1.1-4.4
		C925.2,284,924.1,283.5,922.8,283.5z"/>
	<path class="st1" d="M932,300.9v-18.2h0.7c0.2,0,0.4,0.1,0.4,0.3l0.1,2.1c0.6-0.8,1.3-1.5,2.1-1.9c0.8-0.5,1.7-0.7,2.7-0.7
		c1.6,0,2.9,0.6,3.9,1.7c0.9,1.1,1.4,2.9,1.4,5.1c0,1-0.1,1.9-0.4,2.7c-0.3,0.9-0.6,1.6-1.1,2.2s-1.1,1.1-1.8,1.5s-1.6,0.5-2.5,0.5
		s-1.7-0.2-2.4-0.5s-1.2-0.8-1.7-1.5v6.5H932V300.9z M937.7,283.5c-0.9,0-1.7,0.2-2.4,0.7s-1.4,1.1-1.9,1.9v7.1
		c0.5,0.8,1.1,1.3,1.7,1.6s1.3,0.5,2.1,0.5s1.5-0.1,2.1-0.4s1.1-0.7,1.5-1.2s0.7-1.2,0.9-1.9s0.3-1.5,0.3-2.4c0-2-0.4-3.5-1.1-4.4
		C940.1,284,939,283.5,937.7,283.5z"/>
</g>
<g>
	<path class="st1" d="M546.9,75.4h-0.4c-0.2,0-0.3-0.2-0.4-0.5c0-0.3,0-0.6,0-0.8l3.7-7.4l11.1-22c0.2-0.2,0.3-0.3,0.5-0.6
		c0.1-0.1,0.2-0.2,0.3-0.3c0.2,0,0.4,0.1,0.6,0.3c0.2,0.2,0.4,0.4,0.6,0.6l14.7,29.4c0,0.2,0,0.4,0,0.6c0,0.2-0.2,0.4-0.4,0.6
		c-0.1,0.1-0.1,0.1-0.2,0.1c-0.1,0-0.1,0-0.2,0s-0.2-0.1-0.3-0.2l-24.9-6.9l-3.2,6.5c-0.2,0.2-0.4,0.3-0.6,0.4
		C547.3,75.4,547.1,75.4,546.9,75.4z M552.3,66.4l22.5,6.5l-13.1-25.7L552.3,66.4z M572.7,68l-18.4-7.3c-0.4,0-0.7-0.2-0.7-0.5
		c-0.1-0.3-0.1-0.6-0.1-0.8c0.2-0.2,0.4-0.4,0.6-0.5s0.4-0.1,0.6,0.1l18.4,7.3c0.4,0,0.7,0.2,0.7,0.5c0.1,0.3,0.1,0.6,0.1,0.8
		c-0.2,0.2-0.4,0.3-0.6,0.4C573.1,68,572.9,68,572.7,68z"/>
	<path class="st1" d="M608.9,75.4c-0.2,0-0.4-0.1-0.6-0.2c-0.2-0.2-0.3-0.4-0.3-0.6V45.4c0-0.2,0.1-0.5,0.3-0.8
		c0.2-0.3,0.4-0.5,0.6-0.5c0.4,0,0.7,0.2,0.9,0.5c0.2,0.3,0.3,0.6,0.3,0.8v29.3c0,0.2-0.1,0.4-0.3,0.6
		C609.6,75.3,609.3,75.4,608.9,75.4z"/>
	<path class="st1" d="M658.9,75.6c-2.2,0-4.3-0.4-6.2-1.3c-2-0.9-3.7-2.1-5.2-3.5c-1.5-1.5-2.7-3.2-3.5-5.2c-0.9-2-1.3-4-1.3-6.2
		c0-2.2,0.4-4.3,1.3-6.2c0.9-1.9,2.1-3.6,3.5-5c1.5-1.4,3.2-2.6,5.2-3.4c2-0.8,4-1.2,6.2-1.2c2.2,0,4.3,0.4,6.2,1.2
		c1.9,0.8,3.6,2,5,3.4s2.6,3.1,3.4,5c0.8,1.9,1.2,4,1.2,6.2c0,2.2-0.4,4.3-1.2,6.2c-0.8,2-2,3.7-3.4,5.2c-1.4,1.5-3.1,2.7-5,3.5
		C663.2,75.2,661.1,75.6,658.9,75.6z M658.9,45.6c-2,0-3.8,0.4-5.5,1.1c-1.7,0.7-3.2,1.7-4.5,3c-1.3,1.3-2.3,2.7-3,4.4
		c-0.7,1.7-1.1,3.4-1.1,5.3c0,2,0.4,3.8,1.1,5.6c0.7,1.7,1.7,3.2,3,4.5c1.3,1.3,2.8,2.3,4.5,3c1.7,0.7,3.6,1.1,5.5,1.1
		c1.9,0,3.6-0.4,5.3-1.1c1.7-0.7,3.1-1.7,4.4-3c1.2-1.3,2.2-2.8,3-4.5c0.7-1.7,1.1-3.6,1.1-5.6c0-1.9-0.4-3.6-1.1-5.3
		c-0.7-1.7-1.7-3.1-3-4.4c-1.2-1.3-2.7-2.2-4.4-3C662.6,45.9,660.8,45.6,658.9,45.6z"/>
</g>
</svg>
