<?xml version="1.0" encoding="utf-8"?>
<!-- Generator: Adobe Illustrator 23.0.2, SVG Export Plug-In . SVG Version: 6.00 Build 0)  -->
<svg version="1.1" id="Layer_1" xmlns="http://www.w3.org/2000/svg" xmlns:xlink="http://www.w3.org/1999/xlink" x="0px" y="0px"
	 viewBox="0 0 998 386" style="enable-background:new 0 0 998 386;" xml:space="preserve">
<style type="text/css">
	.st0{fill:#FFFFFF;stroke:#000000;stroke-miterlimit:10;}
	.st1{fill:none;stroke:#000000;stroke-miterlimit:10;}
</style>
<path class="st0" d="M751.5,342.5h-287c-8.28,0-15-6.72-15-15v-212c0-8.28,6.72-15,15-15h287c8.28,0,15,6.72,15,15v212
	C766.5,335.78,759.78,342.5,751.5,342.5z"/>
<g>
	<path d="M550.52,61.93c0.07,0.03,0.14,0.1,0.22,0.21l12.37,16.54c-0.03-0.27-0.04-0.53-0.04-0.78V61.88h1.2v19.09h-0.65
		c-0.12,0-0.21-0.02-0.29-0.06s-0.15-0.11-0.22-0.21l-12.4-16.55c0.03,0.27,0.04,0.52,0.04,0.76v16.07h-1.21V61.88h0.69
		C550.36,61.88,550.45,61.9,550.52,61.93z"/>
	<path d="M571.3,80.97h-1.39V61.88h1.39V80.97z"/>
	<path d="M593.02,71.42c0,1.48-0.22,2.8-0.66,3.98c-0.44,1.18-1.06,2.18-1.86,3.01c-0.8,0.83-1.76,1.46-2.88,1.9
		c-1.12,0.44-2.35,0.66-3.7,0.66h-6.97V61.88h6.97c1.35,0,2.58,0.22,3.7,0.66c1.12,0.44,2.08,1.08,2.88,1.9
		c0.8,0.83,1.42,1.83,1.86,3.01C592.8,68.63,593.02,69.96,593.02,71.42z M591.59,71.42c0-1.33-0.18-2.52-0.55-3.56
		c-0.37-1.04-0.89-1.92-1.56-2.64c-0.67-0.72-1.48-1.27-2.43-1.65c-0.94-0.38-1.99-0.57-3.13-0.57h-5.59v16.85h5.59
		c1.14,0,2.19-0.19,3.13-0.57c0.94-0.38,1.75-0.93,2.43-1.65c0.67-0.72,1.2-1.6,1.56-2.64C591.41,73.95,591.59,72.76,591.59,71.42z"
		/>
	<path d="M611.96,80.97h-1.07c-0.13,0-0.23-0.03-0.31-0.1s-0.14-0.16-0.19-0.26l-2.24-5.54h-9.38l-2.24,5.54
		c-0.04,0.1-0.1,0.18-0.19,0.26c-0.09,0.07-0.2,0.11-0.32,0.11h-1.05l7.81-19.09h1.36L611.96,80.97z M599.19,74.04h8.55l-3.88-9.65
		c-0.13-0.31-0.27-0.69-0.39-1.13c-0.06,0.22-0.13,0.42-0.19,0.62c-0.06,0.2-0.13,0.37-0.19,0.53L599.19,74.04z"/>
	<path d="M636.97,80.97h-1.07c-0.13,0-0.23-0.03-0.31-0.1s-0.14-0.16-0.19-0.26l-2.24-5.54h-9.38l-2.24,5.54
		c-0.04,0.1-0.1,0.18-0.19,0.26c-0.09,0.07-0.2,0.11-0.32,0.11h-1.05l7.81-19.09h1.36L636.97,80.97z M624.2,74.04h8.55l-3.88-9.65
		c-0.13-0.31-0.27-0.69-0.39-1.13c-0.06,0.22-0.13,0.42-0.19,0.62c-0.06,0.2-0.13,0.37-0.19,0.53L624.2,74.04z"/>
	<path d="M641.54,73.28v7.69h-1.39V61.88h4.94c2.24,0,3.93,0.49,5.07,1.47c1.14,0.98,1.71,2.38,1.71,4.2c0,0.84-0.16,1.61-0.47,2.31
		c-0.31,0.7-0.76,1.31-1.35,1.81c-0.58,0.51-1.3,0.9-2.13,1.19s-1.78,0.42-2.82,0.42H641.54z M641.54,72.18h3.55
		c0.84,0,1.59-0.12,2.25-0.35c0.67-0.23,1.23-0.56,1.69-0.97c0.46-0.41,0.82-0.9,1.07-1.46c0.25-0.56,0.37-1.18,0.37-1.84
		c0-1.47-0.45-2.59-1.35-3.39c-0.9-0.79-2.24-1.19-4.03-1.19h-3.55V72.18z"/>
	<path d="M657.13,73.28v7.69h-1.39V61.88h4.94c2.24,0,3.93,0.49,5.07,1.47c1.14,0.98,1.71,2.38,1.71,4.2c0,0.84-0.16,1.61-0.47,2.31
		c-0.32,0.7-0.77,1.31-1.35,1.81c-0.58,0.51-1.29,0.9-2.13,1.19s-1.78,0.42-2.82,0.42H657.13z M657.13,72.18h3.55
		c0.84,0,1.59-0.12,2.25-0.35c0.67-0.23,1.23-0.56,1.69-0.97c0.46-0.41,0.82-0.9,1.07-1.46c0.25-0.56,0.37-1.18,0.37-1.84
		c0-1.47-0.45-2.59-1.35-3.39c-0.9-0.79-2.24-1.19-4.03-1.19h-3.55V72.18z"/>
</g>
<g>
	<path d="M474.33,151.55v8.58c0,1.26,0.29,2.25,0.86,2.96c0.58,0.71,1.45,1.07,2.63,1.07c0.87,0,1.69-0.22,2.44-0.67
		c0.76-0.45,1.43-1.06,2.04-1.85v-10.09h1.29v13.42h-0.71c-0.23,0-0.36-0.12-0.39-0.35l-0.12-2c-0.62,0.77-1.34,1.39-2.15,1.86
		c-0.81,0.47-1.72,0.7-2.72,0.7c-0.75,0-1.4-0.12-1.96-0.35c-0.56-0.23-1.02-0.57-1.39-1.01c-0.37-0.44-0.65-0.97-0.84-1.59
		c-0.19-0.62-0.28-1.32-0.28-2.1v-8.58H474.33z"/>
	<path d="M495.39,153.21c-0.07,0.13-0.18,0.19-0.31,0.19c-0.1,0-0.23-0.06-0.38-0.17s-0.36-0.24-0.61-0.38
		c-0.26-0.14-0.57-0.27-0.95-0.38c-0.38-0.11-0.84-0.17-1.38-0.17c-0.49,0-0.93,0.07-1.33,0.21c-0.4,0.14-0.74,0.33-1.03,0.56
		s-0.5,0.51-0.65,0.82c-0.15,0.31-0.23,0.64-0.23,0.98c0,0.42,0.11,0.77,0.32,1.05s0.5,0.52,0.84,0.71s0.74,0.37,1.19,0.51
		c0.45,0.14,0.91,0.29,1.37,0.43c0.46,0.14,0.92,0.3,1.37,0.48s0.85,0.39,1.19,0.65s0.63,0.58,0.84,0.96
		c0.22,0.38,0.32,0.84,0.32,1.38c0,0.58-0.1,1.13-0.31,1.63c-0.21,0.5-0.51,0.94-0.91,1.31c-0.4,0.37-0.89,0.66-1.48,0.88
		s-1.25,0.32-2.01,0.32c-0.94,0-1.76-0.15-2.44-0.45c-0.68-0.3-1.3-0.69-1.83-1.18l0.3-0.46c0.04-0.07,0.1-0.13,0.16-0.16
		c0.06-0.04,0.14-0.05,0.24-0.05c0.12,0,0.26,0.07,0.42,0.22c0.17,0.14,0.39,0.3,0.67,0.47s0.62,0.32,1.03,0.47
		c0.41,0.14,0.92,0.22,1.52,0.22c0.57,0,1.07-0.08,1.5-0.24c0.43-0.16,0.79-0.37,1.08-0.64c0.29-0.27,0.51-0.59,0.65-0.95
		s0.22-0.75,0.22-1.15c0-0.45-0.11-0.82-0.32-1.12s-0.5-0.55-0.85-0.76c-0.35-0.21-0.75-0.38-1.19-0.53
		c-0.45-0.14-0.9-0.29-1.37-0.43c-0.47-0.14-0.92-0.3-1.37-0.47c-0.44-0.17-0.84-0.39-1.19-0.65c-0.35-0.26-0.63-0.58-0.85-0.95
		s-0.32-0.84-0.32-1.4c0-0.48,0.1-0.94,0.31-1.38c0.21-0.44,0.5-0.83,0.88-1.16c0.38-0.33,0.85-0.6,1.4-0.8
		c0.55-0.2,1.16-0.3,1.85-0.3c0.82,0,1.54,0.12,2.18,0.35c0.63,0.23,1.21,0.59,1.73,1.08L495.39,153.21z"/>
	<path d="M504.73,151.33c0.76,0,1.46,0.13,2.1,0.39c0.65,0.26,1.21,0.64,1.69,1.14c0.48,0.5,0.85,1.11,1.13,1.84
		c0.27,0.73,0.41,1.56,0.41,2.51c0,0.2-0.03,0.33-0.08,0.4c-0.05,0.07-0.14,0.11-0.27,0.11h-9.77v0.26c0,1.01,0.12,1.89,0.35,2.66
		c0.23,0.76,0.57,1.41,1,1.92c0.43,0.52,0.95,0.91,1.56,1.17c0.61,0.26,1.29,0.39,2.05,0.39c0.67,0,1.26-0.07,1.75-0.22
		c0.49-0.15,0.91-0.31,1.25-0.5c0.34-0.18,0.6-0.35,0.8-0.5c0.2-0.15,0.34-0.22,0.43-0.22c0.12,0,0.21,0.04,0.27,0.13l0.35,0.43
		c-0.22,0.27-0.5,0.52-0.86,0.76s-0.75,0.43-1.19,0.6c-0.44,0.17-0.9,0.3-1.4,0.4c-0.5,0.1-1,0.15-1.5,0.15
		c-0.92,0-1.75-0.16-2.51-0.48c-0.76-0.32-1.4-0.78-1.94-1.4s-0.96-1.36-1.25-2.25c-0.29-0.89-0.44-1.9-0.44-3.04
		c0-0.96,0.14-1.85,0.41-2.66c0.27-0.81,0.67-1.52,1.19-2.1c0.52-0.59,1.15-1.05,1.9-1.38C502.92,151.5,503.77,151.33,504.73,151.33
		z M504.74,152.29c-0.69,0-1.31,0.11-1.86,0.32c-0.55,0.22-1.02,0.53-1.42,0.93c-0.4,0.4-0.72,0.89-0.97,1.46
		c-0.25,0.57-0.41,1.2-0.49,1.9h8.9c0-0.72-0.1-1.36-0.3-1.94c-0.2-0.57-0.49-1.05-0.86-1.45s-0.81-0.7-1.32-0.91
		C505.91,152.4,505.35,152.29,504.74,152.29z"/>
	<path d="M513.55,164.97v-13.42h0.69c0.15,0,0.26,0.03,0.32,0.09c0.06,0.06,0.1,0.17,0.12,0.32l0.09,2.82
		c0.21-0.55,0.44-1.04,0.71-1.46c0.27-0.43,0.57-0.79,0.92-1.09c0.35-0.3,0.73-0.52,1.16-0.68s0.9-0.24,1.42-0.24
		c0.28,0,0.55,0.02,0.82,0.07c0.27,0.05,0.51,0.14,0.72,0.26l-0.11,0.89c-0.04,0.14-0.13,0.22-0.26,0.22
		c-0.11,0-0.27-0.03-0.49-0.09c-0.22-0.06-0.51-0.09-0.87-0.09c-0.52,0-0.98,0.08-1.39,0.24s-0.76,0.4-1.08,0.71
		c-0.31,0.31-0.59,0.7-0.83,1.16c-0.24,0.46-0.46,1-0.65,1.6v8.69H513.55z"/>
	<path d="M530.47,153.21c-0.07,0.13-0.17,0.19-0.31,0.19c-0.1,0-0.23-0.06-0.38-0.17s-0.36-0.24-0.61-0.38
		c-0.26-0.14-0.57-0.27-0.95-0.38c-0.38-0.11-0.84-0.17-1.38-0.17c-0.49,0-0.93,0.07-1.33,0.21c-0.4,0.14-0.74,0.33-1.03,0.56
		s-0.5,0.51-0.65,0.82c-0.15,0.31-0.23,0.64-0.23,0.98c0,0.42,0.11,0.77,0.32,1.05s0.5,0.52,0.84,0.71s0.74,0.37,1.19,0.51
		c0.45,0.14,0.91,0.29,1.37,0.43c0.46,0.14,0.92,0.3,1.37,0.48s0.85,0.39,1.19,0.65c0.35,0.26,0.63,0.58,0.84,0.96
		c0.21,0.38,0.32,0.84,0.32,1.38c0,0.58-0.1,1.13-0.31,1.63c-0.21,0.5-0.51,0.94-0.91,1.31c-0.4,0.37-0.89,0.66-1.48,0.88
		s-1.25,0.32-2.01,0.32c-0.94,0-1.76-0.15-2.44-0.45c-0.68-0.3-1.3-0.69-1.83-1.18l0.3-0.46c0.04-0.07,0.1-0.13,0.16-0.16
		c0.06-0.04,0.14-0.05,0.24-0.05c0.12,0,0.26,0.07,0.42,0.22c0.17,0.14,0.39,0.3,0.67,0.47s0.62,0.32,1.03,0.47
		c0.41,0.14,0.92,0.22,1.52,0.22c0.57,0,1.07-0.08,1.5-0.24c0.43-0.16,0.79-0.37,1.08-0.64c0.29-0.27,0.51-0.59,0.65-0.95
		s0.22-0.75,0.22-1.15c0-0.45-0.11-0.82-0.32-1.12s-0.5-0.55-0.85-0.76c-0.35-0.21-0.75-0.38-1.19-0.53
		c-0.45-0.14-0.9-0.29-1.37-0.43c-0.47-0.14-0.92-0.3-1.37-0.47c-0.44-0.17-0.84-0.39-1.19-0.65c-0.35-0.26-0.63-0.58-0.85-0.95
		s-0.32-0.84-0.32-1.4c0-0.48,0.1-0.94,0.31-1.38c0.21-0.44,0.5-0.83,0.88-1.16c0.38-0.33,0.85-0.6,1.4-0.8
		c0.55-0.2,1.16-0.3,1.85-0.3c0.82,0,1.54,0.12,2.18,0.35c0.63,0.23,1.21,0.59,1.73,1.08L530.47,153.21z"/>
	<path d="M543.73,167.74v0.92H533.1v-0.92H543.73z"/>
	<path d="M546.71,164.97v-19.63h1.3v8.54c0.58-0.79,1.27-1.41,2.05-1.87s1.69-0.68,2.73-0.68c0.81,0,1.53,0.15,2.17,0.45
		c0.64,0.3,1.18,0.72,1.62,1.28c0.45,0.56,0.79,1.24,1.02,2.06c0.23,0.81,0.35,1.74,0.35,2.77c0,1.09-0.13,2.08-0.39,2.97
		s-0.64,1.66-1.14,2.29c-0.5,0.63-1.11,1.12-1.83,1.47c-0.72,0.35-1.54,0.52-2.47,0.52c-0.95,0-1.77-0.18-2.44-0.55
		c-0.67-0.36-1.25-0.9-1.74-1.61l-0.08,1.65c-0.03,0.23-0.15,0.34-0.37,0.34H546.71z M552.41,152.36c-0.96,0-1.8,0.23-2.51,0.69
		c-0.71,0.46-1.34,1.1-1.9,1.92v7.08c0.52,0.77,1.09,1.32,1.71,1.63c0.62,0.31,1.33,0.47,2.12,0.47c0.8,0,1.5-0.14,2.1-0.43
		c0.6-0.29,1.1-0.7,1.5-1.23s0.7-1.19,0.9-1.95c0.2-0.76,0.3-1.62,0.3-2.58c0-1.85-0.37-3.25-1.11-4.18
		C554.78,152.83,553.75,152.36,552.41,152.36z"/>
	<path d="M569.83,164.97c-0.27,0-0.44-0.13-0.5-0.38l-0.19-1.71c-0.37,0.36-0.74,0.68-1.1,0.97c-0.36,0.29-0.74,0.53-1.14,0.73
		c-0.4,0.2-0.82,0.35-1.28,0.45c-0.46,0.1-0.96,0.16-1.51,0.16c-0.46,0-0.9-0.07-1.34-0.2c-0.43-0.14-0.82-0.34-1.15-0.62
		c-0.34-0.28-0.61-0.64-0.81-1.07c-0.2-0.44-0.3-0.96-0.3-1.57c0-0.57,0.16-1.09,0.49-1.58c0.32-0.49,0.83-0.91,1.52-1.27
		s1.58-0.65,2.66-0.86s2.39-0.34,3.91-0.38v-1.4c0-1.24-0.27-2.2-0.8-2.87s-1.33-1-2.38-1c-0.65,0-1.2,0.09-1.65,0.27
		c-0.46,0.18-0.84,0.38-1.15,0.59s-0.57,0.41-0.77,0.59c-0.2,0.18-0.36,0.27-0.5,0.27c-0.1,0-0.18-0.02-0.24-0.07
		c-0.06-0.04-0.12-0.1-0.16-0.18l-0.23-0.39c0.7-0.7,1.44-1.23,2.21-1.59c0.77-0.36,1.65-0.54,2.63-0.54c0.72,0,1.35,0.11,1.89,0.34
		c0.54,0.23,0.99,0.56,1.34,0.98s0.62,0.94,0.8,1.55s0.27,1.28,0.27,2.03v8.74H569.83z M564.44,164.26c0.52,0,1-0.06,1.44-0.17
		c0.44-0.11,0.84-0.27,1.21-0.47c0.37-0.2,0.72-0.44,1.05-0.72s0.64-0.58,0.96-0.9v-3.49c-1.28,0.04-2.38,0.13-3.3,0.29
		c-0.93,0.16-1.69,0.37-2.29,0.64c-0.6,0.27-1.04,0.59-1.32,0.96s-0.43,0.8-0.43,1.27c0,0.45,0.07,0.84,0.22,1.17
		s0.35,0.6,0.59,0.81c0.25,0.21,0.53,0.37,0.86,0.47S564.08,164.26,564.44,164.26z"/>
	<path d="M583.66,153.34c-0.04,0.04-0.09,0.08-0.13,0.11c-0.04,0.03-0.1,0.05-0.17,0.05c-0.09,0-0.21-0.06-0.36-0.18
		s-0.36-0.25-0.62-0.4c-0.26-0.14-0.59-0.28-0.98-0.4s-0.87-0.18-1.42-0.18c-0.77,0-1.46,0.14-2.06,0.41s-1.1,0.67-1.52,1.18
		c-0.41,0.51-0.73,1.13-0.94,1.86c-0.21,0.73-0.32,1.55-0.32,2.46c0,0.94,0.11,1.78,0.33,2.51s0.53,1.34,0.94,1.84
		c0.41,0.5,0.9,0.88,1.47,1.14c0.58,0.26,1.21,0.39,1.92,0.39c0.65,0,1.19-0.08,1.63-0.23c0.44-0.15,0.8-0.32,1.08-0.5
		c0.28-0.18,0.51-0.35,0.67-0.5s0.3-0.23,0.4-0.23s0.2,0.04,0.27,0.13l0.34,0.43c-0.21,0.27-0.47,0.52-0.78,0.76
		c-0.31,0.23-0.67,0.44-1.07,0.61s-0.83,0.3-1.29,0.4s-0.95,0.14-1.45,0.14c-0.85,0-1.63-0.16-2.34-0.47
		c-0.71-0.31-1.31-0.76-1.82-1.35c-0.51-0.59-0.9-1.31-1.19-2.17s-0.43-1.83-0.43-2.91c0-1.03,0.13-1.96,0.4-2.81
		c0.27-0.85,0.67-1.57,1.19-2.19s1.16-1.09,1.91-1.42s1.61-0.51,2.58-0.51c0.87,0,1.65,0.14,2.32,0.42
		c0.68,0.28,1.26,0.66,1.77,1.13L583.66,153.34z"/>
	<path d="M588.65,145.34v11.97h0.62c0.12,0,0.24-0.02,0.36-0.05c0.11-0.04,0.24-0.12,0.37-0.26l5.38-5.11
		c0.09-0.11,0.19-0.19,0.3-0.25c0.11-0.06,0.24-0.09,0.4-0.09h1.13l-5.92,5.63c-0.16,0.19-0.34,0.34-0.53,0.45
		c0.14,0.07,0.27,0.16,0.37,0.25c0.1,0.09,0.2,0.2,0.3,0.33l6.22,6.77h-1.12c-0.13,0-0.24-0.02-0.34-0.06s-0.2-0.12-0.29-0.25
		l-5.64-6.04c-0.07-0.08-0.14-0.15-0.21-0.2c-0.07-0.05-0.14-0.1-0.21-0.13c-0.07-0.03-0.16-0.05-0.25-0.07
		c-0.09-0.01-0.21-0.02-0.34-0.02h-0.61v6.77h-1.29v-19.63H588.65z"/>
	<path d="M605.45,151.33c0.75,0,1.46,0.13,2.1,0.39c0.65,0.26,1.21,0.64,1.69,1.14c0.48,0.5,0.85,1.11,1.13,1.84
		s0.41,1.56,0.41,2.51c0,0.2-0.03,0.33-0.08,0.4c-0.05,0.07-0.14,0.11-0.27,0.11h-9.77v0.26c0,1.01,0.12,1.89,0.35,2.66
		c0.23,0.76,0.57,1.41,1,1.92c0.43,0.52,0.95,0.91,1.57,1.17c0.61,0.26,1.29,0.39,2.05,0.39c0.67,0,1.26-0.07,1.75-0.22
		c0.5-0.15,0.91-0.31,1.25-0.5c0.34-0.18,0.6-0.35,0.8-0.5s0.34-0.22,0.43-0.22c0.12,0,0.21,0.04,0.27,0.13l0.35,0.43
		c-0.21,0.27-0.5,0.52-0.86,0.76s-0.75,0.43-1.19,0.6c-0.44,0.17-0.9,0.3-1.4,0.4c-0.5,0.1-1,0.15-1.5,0.15
		c-0.92,0-1.75-0.16-2.51-0.48c-0.76-0.32-1.4-0.78-1.94-1.4c-0.54-0.61-0.96-1.36-1.25-2.25c-0.29-0.89-0.44-1.9-0.44-3.04
		c0-0.96,0.14-1.85,0.41-2.66c0.27-0.81,0.67-1.52,1.19-2.1c0.52-0.59,1.15-1.05,1.9-1.38C603.64,151.5,604.49,151.33,605.45,151.33
		z M605.46,152.29c-0.69,0-1.31,0.11-1.86,0.32c-0.55,0.22-1.02,0.53-1.42,0.93c-0.4,0.4-0.72,0.89-0.97,1.46s-0.41,1.2-0.49,1.9
		h8.9c0-0.72-0.1-1.36-0.3-1.94c-0.2-0.57-0.49-1.05-0.86-1.45s-0.81-0.7-1.32-0.91C606.63,152.4,606.07,152.29,605.46,152.29z"/>
	<path d="M614.27,164.97v-13.42h0.72c0.22,0,0.35,0.11,0.39,0.34l0.12,2.02c0.62-0.78,1.34-1.41,2.14-1.88
		c0.81-0.47,1.72-0.7,2.73-0.7c0.74,0,1.39,0.12,1.95,0.35s1.03,0.57,1.4,1.01c0.37,0.44,0.65,0.97,0.84,1.59
		c0.19,0.62,0.28,1.32,0.28,2.1v8.58h-1.3v-8.58c0-1.26-0.29-2.25-0.86-2.96c-0.58-0.71-1.45-1.07-2.63-1.07
		c-0.88,0-1.7,0.22-2.46,0.67c-0.75,0.45-1.43,1.06-2.02,1.85v10.09H614.27z"/>
	<path d="M638.85,164.97c-0.23,0-0.37-0.12-0.4-0.35l-0.13-2.12c-0.59,0.81-1.29,1.45-2.08,1.93s-1.68,0.71-2.67,0.71
		c-1.66,0-2.94-0.57-3.86-1.71c-0.92-1.14-1.38-2.86-1.38-5.14c0-0.98,0.13-1.9,0.38-2.75c0.26-0.85,0.63-1.59,1.13-2.21
		s1.1-1.12,1.83-1.48c0.72-0.36,1.56-0.54,2.5-0.54c0.91,0,1.7,0.17,2.36,0.51c0.67,0.34,1.25,0.83,1.74,1.48v-7.96h1.28v19.63
		H638.85z M633.93,164.11c0.88,0,1.68-0.23,2.41-0.69c0.72-0.46,1.37-1.1,1.94-1.93v-7.04c-0.51-0.77-1.08-1.32-1.71-1.64
		c-0.62-0.32-1.34-0.48-2.14-0.48c-0.79,0-1.48,0.14-2.08,0.43c-0.59,0.29-1.09,0.69-1.49,1.22s-0.7,1.16-0.9,1.89
		c-0.2,0.73-0.3,1.54-0.3,2.42c0,2,0.37,3.46,1.1,4.4C631.48,163.64,632.54,164.11,633.93,164.11z"/>
	<path d="M653.15,167.74v0.92h-10.63v-0.92H653.15z"/>
	<path d="M654.59,151.55h0.97c0.12,0,0.23,0.03,0.31,0.1c0.08,0.07,0.13,0.14,0.16,0.22l3.39,10.59c0.05,0.21,0.1,0.41,0.14,0.6
		c0.04,0.19,0.08,0.38,0.12,0.57c0.04-0.19,0.1-0.38,0.15-0.57c0.06-0.19,0.12-0.39,0.2-0.6l3.59-10.68c0.06-0.2,0.19-0.3,0.38-0.3
		h0.53c0.2,0,0.33,0.1,0.39,0.3l3.56,10.68c0.06,0.21,0.12,0.4,0.17,0.59c0.05,0.19,0.1,0.38,0.14,0.58
		c0.04-0.19,0.09-0.38,0.13-0.57c0.04-0.19,0.09-0.39,0.15-0.6l3.41-10.59c0.04-0.1,0.09-0.18,0.17-0.24
		c0.08-0.06,0.17-0.09,0.28-0.09h0.93l-4.48,13.42h-0.96c-0.15,0-0.26-0.09-0.31-0.28l-3.67-10.9c-0.04-0.13-0.09-0.27-0.12-0.4
		c-0.04-0.13-0.07-0.27-0.1-0.39c-0.03,0.14-0.06,0.27-0.09,0.4c-0.03,0.13-0.07,0.26-0.11,0.4l-3.72,10.9
		c-0.05,0.19-0.16,0.28-0.32,0.28h-0.92L654.59,151.55z"/>
	<path d="M682.01,151.33c0.76,0,1.46,0.13,2.11,0.39c0.65,0.26,1.21,0.64,1.69,1.14c0.48,0.5,0.85,1.11,1.13,1.84
		c0.27,0.73,0.41,1.56,0.41,2.51c0,0.2-0.03,0.33-0.08,0.4c-0.05,0.07-0.14,0.11-0.27,0.11h-9.77v0.26c0,1.01,0.12,1.89,0.35,2.66
		c0.23,0.76,0.57,1.41,1,1.92c0.43,0.52,0.95,0.91,1.56,1.17c0.61,0.26,1.29,0.39,2.05,0.39c0.67,0,1.26-0.07,1.75-0.22
		c0.49-0.15,0.91-0.31,1.25-0.5c0.34-0.18,0.6-0.35,0.8-0.5c0.2-0.15,0.34-0.22,0.43-0.22c0.12,0,0.21,0.04,0.27,0.13l0.35,0.43
		c-0.22,0.27-0.5,0.52-0.86,0.76s-0.75,0.43-1.19,0.6c-0.44,0.17-0.9,0.3-1.4,0.4c-0.5,0.1-1,0.15-1.5,0.15
		c-0.92,0-1.75-0.16-2.51-0.48c-0.76-0.32-1.4-0.78-1.94-1.4c-0.54-0.61-0.96-1.36-1.25-2.25c-0.29-0.89-0.44-1.9-0.44-3.04
		c0-0.96,0.14-1.85,0.41-2.66c0.27-0.81,0.67-1.52,1.19-2.1c0.52-0.59,1.15-1.05,1.9-1.38C680.2,151.5,681.05,151.33,682.01,151.33z
		 M682.02,152.29c-0.69,0-1.31,0.11-1.86,0.32s-1.02,0.53-1.42,0.93s-0.72,0.89-0.97,1.46c-0.25,0.57-0.41,1.2-0.49,1.9h8.9
		c0-0.72-0.1-1.36-0.3-1.94c-0.2-0.57-0.49-1.05-0.86-1.45s-0.81-0.7-1.32-0.91S682.63,152.29,682.02,152.29z"/>
	<path d="M690.83,164.97v-19.63h1.29v8.54c0.58-0.79,1.27-1.41,2.05-1.87c0.78-0.45,1.69-0.68,2.72-0.68c0.81,0,1.53,0.15,2.17,0.45
		c0.64,0.3,1.18,0.72,1.63,1.28c0.45,0.56,0.78,1.24,1.02,2.06s0.35,1.74,0.35,2.77c0,1.09-0.13,2.08-0.39,2.97
		c-0.26,0.9-0.64,1.66-1.14,2.29c-0.5,0.63-1.11,1.12-1.83,1.47c-0.72,0.35-1.54,0.52-2.47,0.52c-0.95,0-1.77-0.18-2.44-0.55
		s-1.25-0.9-1.74-1.61l-0.08,1.65c-0.03,0.23-0.15,0.34-0.36,0.34H690.83z M696.54,152.36c-0.96,0-1.8,0.23-2.51,0.69
		c-0.71,0.46-1.35,1.1-1.9,1.92v7.08c0.52,0.77,1.09,1.32,1.71,1.63c0.62,0.31,1.33,0.47,2.12,0.47c0.8,0,1.5-0.14,2.1-0.43
		c0.6-0.29,1.1-0.7,1.5-1.23c0.4-0.54,0.7-1.19,0.9-1.95c0.2-0.76,0.3-1.62,0.3-2.58c0-1.85-0.37-3.25-1.11-4.18
		C698.9,152.83,697.87,152.36,696.54,152.36z"/>
	<path d="M713.08,153.21c-0.07,0.13-0.18,0.19-0.31,0.19c-0.1,0-0.22-0.06-0.38-0.17s-0.36-0.24-0.61-0.38
		c-0.26-0.14-0.57-0.27-0.95-0.38c-0.38-0.11-0.84-0.17-1.38-0.17c-0.49,0-0.93,0.07-1.33,0.21c-0.4,0.14-0.74,0.33-1.03,0.56
		s-0.5,0.51-0.65,0.82c-0.15,0.31-0.23,0.64-0.23,0.98c0,0.42,0.11,0.77,0.32,1.05c0.21,0.28,0.5,0.52,0.84,0.71
		s0.74,0.37,1.19,0.51c0.45,0.14,0.91,0.29,1.37,0.43c0.46,0.14,0.92,0.3,1.37,0.48s0.85,0.39,1.19,0.65
		c0.35,0.26,0.63,0.58,0.84,0.96c0.22,0.38,0.32,0.84,0.32,1.38c0,0.58-0.1,1.13-0.31,1.63c-0.21,0.5-0.51,0.94-0.91,1.31
		c-0.4,0.37-0.89,0.66-1.48,0.88c-0.58,0.22-1.25,0.32-2.01,0.32c-0.94,0-1.76-0.15-2.44-0.45c-0.68-0.3-1.29-0.69-1.83-1.18
		l0.3-0.46c0.04-0.07,0.1-0.13,0.16-0.16c0.06-0.04,0.14-0.05,0.24-0.05c0.12,0,0.26,0.07,0.42,0.22c0.17,0.14,0.39,0.3,0.67,0.47
		c0.28,0.17,0.62,0.32,1.03,0.47c0.41,0.14,0.91,0.22,1.52,0.22c0.57,0,1.07-0.08,1.5-0.24c0.43-0.16,0.79-0.37,1.08-0.64
		c0.29-0.27,0.51-0.59,0.65-0.95s0.22-0.75,0.22-1.15c0-0.45-0.11-0.82-0.32-1.12c-0.21-0.3-0.5-0.55-0.85-0.76
		c-0.35-0.21-0.75-0.38-1.19-0.53c-0.45-0.14-0.9-0.29-1.37-0.43c-0.47-0.14-0.92-0.3-1.37-0.47c-0.44-0.17-0.84-0.39-1.19-0.65
		c-0.35-0.26-0.63-0.58-0.85-0.95c-0.21-0.37-0.32-0.84-0.32-1.4c0-0.48,0.1-0.94,0.31-1.38c0.21-0.44,0.5-0.83,0.88-1.16
		c0.38-0.33,0.85-0.6,1.4-0.8c0.55-0.2,1.17-0.3,1.85-0.3c0.82,0,1.54,0.12,2.18,0.35s1.21,0.59,1.73,1.08L713.08,153.21z"/>
	<path d="M719.15,146.92c0,0.16-0.03,0.31-0.1,0.45c-0.07,0.14-0.15,0.26-0.26,0.37s-0.23,0.19-0.38,0.26
		c-0.14,0.06-0.3,0.09-0.46,0.09s-0.31-0.03-0.46-0.09c-0.14-0.06-0.27-0.15-0.38-0.26s-0.19-0.23-0.26-0.37
		c-0.06-0.14-0.1-0.29-0.1-0.45c0-0.16,0.03-0.32,0.1-0.47c0.06-0.15,0.15-0.28,0.26-0.38s0.23-0.19,0.38-0.26
		c0.14-0.06,0.3-0.09,0.46-0.09s0.31,0.03,0.46,0.09c0.14,0.06,0.27,0.15,0.38,0.26s0.2,0.24,0.26,0.38
		C719.11,146.6,719.15,146.76,719.15,146.92z M718.59,151.55v13.42h-1.28v-13.42H718.59z"/>
	<path d="M726.84,165.19c-0.91,0-1.62-0.25-2.12-0.76s-0.76-1.28-0.76-2.33v-9.17h-1.93c-0.1,0-0.18-0.03-0.24-0.08
		c-0.06-0.05-0.09-0.13-0.09-0.23v-0.5l2.29-0.16l0.32-4.8c0.02-0.08,0.05-0.15,0.11-0.22s0.13-0.09,0.23-0.09h0.61v5.13h4.24v0.96
		h-4.24v9.11c0,0.37,0.05,0.69,0.14,0.95c0.1,0.27,0.22,0.48,0.39,0.65s0.36,0.3,0.59,0.38c0.22,0.08,0.47,0.12,0.73,0.12
		c0.32,0,0.6-0.05,0.84-0.14c0.23-0.09,0.44-0.2,0.61-0.31c0.17-0.11,0.31-0.22,0.42-0.31c0.11-0.09,0.19-0.14,0.26-0.14
		c0.07,0,0.14,0.04,0.22,0.13l0.35,0.57c-0.34,0.38-0.78,0.68-1.3,0.91C727.95,165.07,727.4,165.19,726.84,165.19z"/>
	<path d="M737.66,151.33c0.75,0,1.46,0.13,2.1,0.39c0.65,0.26,1.21,0.64,1.69,1.14c0.48,0.5,0.85,1.11,1.13,1.84
		c0.27,0.73,0.41,1.56,0.41,2.51c0,0.2-0.03,0.33-0.08,0.4c-0.05,0.07-0.14,0.11-0.27,0.11h-9.77v0.26c0,1.01,0.12,1.89,0.35,2.66
		c0.23,0.76,0.57,1.41,1,1.92c0.43,0.52,0.95,0.91,1.57,1.17c0.61,0.26,1.29,0.39,2.05,0.39c0.68,0,1.26-0.07,1.75-0.22
		c0.5-0.15,0.91-0.31,1.25-0.5c0.34-0.18,0.61-0.35,0.8-0.5c0.2-0.15,0.34-0.22,0.43-0.22c0.12,0,0.21,0.04,0.27,0.13l0.35,0.43
		c-0.22,0.27-0.5,0.52-0.86,0.76s-0.75,0.43-1.19,0.6c-0.44,0.17-0.9,0.3-1.4,0.4c-0.5,0.1-1,0.15-1.5,0.15
		c-0.92,0-1.75-0.16-2.51-0.48c-0.76-0.32-1.4-0.78-1.94-1.4s-0.96-1.36-1.25-2.25c-0.29-0.89-0.44-1.9-0.44-3.04
		c0-0.96,0.14-1.85,0.41-2.66c0.27-0.81,0.67-1.52,1.19-2.1c0.52-0.59,1.15-1.05,1.9-1.38C735.85,151.5,736.7,151.33,737.66,151.33z
		 M737.67,152.29c-0.69,0-1.31,0.11-1.86,0.32s-1.02,0.53-1.42,0.93c-0.4,0.4-0.72,0.89-0.97,1.46c-0.25,0.57-0.41,1.2-0.49,1.9h8.9
		c0-0.72-0.1-1.36-0.3-1.94s-0.49-1.05-0.86-1.45c-0.37-0.4-0.81-0.7-1.32-0.91C738.84,152.4,738.28,152.29,737.67,152.29z"/>
	<path d="M514.7,218.1c-0.04,0.04-0.09,0.08-0.13,0.11c-0.04,0.03-0.1,0.05-0.17,0.05c-0.09,0-0.21-0.06-0.36-0.18
		s-0.36-0.25-0.62-0.4c-0.26-0.14-0.59-0.28-0.98-0.4c-0.39-0.12-0.87-0.18-1.42-0.18c-0.77,0-1.46,0.14-2.06,0.41
		s-1.1,0.67-1.52,1.18c-0.41,0.51-0.73,1.13-0.94,1.86s-0.32,1.55-0.32,2.46c0,0.95,0.11,1.78,0.33,2.51
		c0.22,0.73,0.53,1.34,0.94,1.84c0.4,0.5,0.9,0.88,1.47,1.14c0.58,0.26,1.21,0.39,1.92,0.39c0.65,0,1.19-0.08,1.63-0.23
		c0.44-0.15,0.8-0.32,1.08-0.5s0.51-0.35,0.67-0.5c0.16-0.15,0.3-0.23,0.4-0.23s0.2,0.04,0.27,0.13l0.34,0.43
		c-0.21,0.27-0.47,0.52-0.78,0.76c-0.31,0.23-0.67,0.44-1.07,0.61c-0.4,0.17-0.83,0.3-1.29,0.4c-0.46,0.09-0.95,0.14-1.45,0.14
		c-0.85,0-1.63-0.16-2.34-0.47c-0.71-0.31-1.31-0.76-1.82-1.35c-0.51-0.59-0.9-1.31-1.19-2.17c-0.28-0.85-0.43-1.83-0.43-2.91
		c0-1.03,0.14-1.96,0.4-2.81c0.27-0.84,0.67-1.57,1.19-2.19c0.52-0.61,1.16-1.09,1.91-1.42c0.75-0.34,1.61-0.51,2.58-0.51
		c0.87,0,1.65,0.14,2.32,0.42c0.67,0.28,1.26,0.66,1.77,1.13L514.7,218.1z"/>
	<path d="M523.71,216.09c0.96,0,1.82,0.16,2.58,0.49c0.76,0.33,1.4,0.79,1.92,1.4c0.52,0.6,0.92,1.33,1.19,2.18
		c0.27,0.85,0.41,1.8,0.41,2.85c0,1.05-0.14,2-0.41,2.85c-0.27,0.85-0.67,1.57-1.19,2.17c-0.52,0.6-1.16,1.06-1.92,1.39
		c-0.76,0.32-1.62,0.49-2.58,0.49s-1.82-0.16-2.58-0.49c-0.76-0.32-1.4-0.79-1.93-1.39c-0.53-0.6-0.93-1.33-1.2-2.17
		c-0.27-0.84-0.41-1.79-0.41-2.85c0-1.05,0.14-2,0.41-2.85c0.27-0.85,0.67-1.58,1.2-2.18c0.53-0.6,1.17-1.07,1.93-1.4
		C521.89,216.25,522.75,216.09,523.71,216.09z M523.71,228.89c0.8,0,1.5-0.14,2.1-0.41c0.6-0.27,1.1-0.67,1.5-1.18
		c0.4-0.51,0.7-1.13,0.9-1.86c0.2-0.72,0.3-1.54,0.3-2.44c0-0.89-0.1-1.7-0.3-2.43c-0.2-0.73-0.5-1.35-0.9-1.87
		c-0.4-0.52-0.9-0.91-1.5-1.19s-1.3-0.42-2.1-0.42c-0.8,0-1.5,0.14-2.1,0.42s-1.1,0.68-1.5,1.19c-0.4,0.52-0.7,1.14-0.9,1.87
		c-0.2,0.73-0.3,1.54-0.3,2.43c0,0.9,0.1,1.71,0.3,2.44c0.2,0.72,0.5,1.34,0.9,1.86c0.4,0.51,0.9,0.91,1.5,1.18
		C522.21,228.75,522.91,228.89,523.71,228.89z"/>
	<path d="M533.45,229.73V216.3h0.72c0.22,0,0.35,0.11,0.39,0.34l0.12,1.94c0.52-0.75,1.12-1.35,1.79-1.81
		c0.67-0.46,1.43-0.69,2.28-0.69c0.98,0,1.77,0.28,2.35,0.85s0.99,1.35,1.19,2.36c0.16-0.55,0.39-1.03,0.68-1.43s0.63-0.74,1-1
		c0.38-0.27,0.79-0.46,1.23-0.59s0.9-0.19,1.37-0.19c0.67,0,1.26,0.11,1.79,0.33c0.53,0.22,0.98,0.55,1.35,0.98
		c0.37,0.43,0.65,0.96,0.85,1.59c0.2,0.63,0.3,1.35,0.3,2.16v8.58h-1.28v-8.58c0-1.31-0.28-2.31-0.85-3
		c-0.57-0.69-1.38-1.03-2.43-1.03c-0.47,0-0.92,0.08-1.34,0.26c-0.43,0.17-0.8,0.42-1.13,0.76c-0.33,0.34-0.59,0.76-0.78,1.26
		s-0.29,1.09-0.29,1.75v8.58h-1.29v-8.58c0-1.3-0.26-2.3-0.78-3c-0.52-0.69-1.27-1.04-2.27-1.04c-0.73,0-1.4,0.21-2.02,0.65
		c-0.62,0.43-1.17,1.03-1.66,1.79v10.17H533.45z"/>
	<path d="M555.17,234.48V216.3h0.72c0.22,0,0.35,0.11,0.39,0.34l0.12,2.08c0.59-0.81,1.29-1.45,2.09-1.93
		c0.8-0.48,1.7-0.71,2.68-0.71c1.65,0,2.93,0.57,3.85,1.71s1.38,2.86,1.38,5.14c0,0.98-0.13,1.89-0.38,2.74
		c-0.26,0.85-0.63,1.59-1.13,2.21s-1.11,1.12-1.83,1.48c-0.72,0.36-1.56,0.54-2.5,0.54c-0.91,0-1.7-0.17-2.36-0.5
		c-0.67-0.33-1.24-0.82-1.73-1.47v6.54H555.17z M560.81,217.12c-0.89,0-1.7,0.23-2.42,0.69c-0.72,0.46-1.36,1.1-1.93,1.92v7.08
		c0.51,0.77,1.08,1.32,1.7,1.63c0.62,0.31,1.33,0.47,2.14,0.47c0.79,0,1.48-0.14,2.08-0.43c0.59-0.29,1.09-0.7,1.49-1.22
		s0.7-1.16,0.9-1.89c0.2-0.73,0.3-1.54,0.3-2.42c0-2-0.37-3.46-1.11-4.41C563.25,217.58,562.19,217.12,560.81,217.12z"/>
	<path d="M578.31,229.73c-0.27,0-0.44-0.13-0.5-0.38l-0.19-1.71c-0.37,0.36-0.74,0.68-1.1,0.97c-0.36,0.29-0.74,0.53-1.14,0.73
		c-0.4,0.2-0.82,0.35-1.28,0.45c-0.46,0.1-0.96,0.16-1.51,0.16c-0.46,0-0.9-0.07-1.33-0.2s-0.82-0.34-1.15-0.62
		c-0.34-0.28-0.61-0.64-0.81-1.07c-0.2-0.44-0.3-0.96-0.3-1.57c0-0.57,0.16-1.09,0.49-1.58c0.32-0.49,0.83-0.91,1.52-1.27
		s1.58-0.65,2.67-0.86c1.08-0.22,2.38-0.34,3.91-0.38v-1.4c0-1.24-0.27-2.2-0.8-2.87c-0.54-0.67-1.33-1-2.38-1
		c-0.65,0-1.2,0.09-1.65,0.27c-0.45,0.18-0.84,0.38-1.15,0.59c-0.32,0.21-0.57,0.41-0.77,0.59c-0.2,0.18-0.37,0.27-0.5,0.27
		c-0.1,0-0.18-0.02-0.24-0.07s-0.12-0.1-0.16-0.17l-0.23-0.39c0.7-0.7,1.44-1.23,2.21-1.59c0.77-0.36,1.65-0.54,2.63-0.54
		c0.72,0,1.35,0.11,1.89,0.34c0.54,0.23,0.99,0.56,1.34,0.98c0.35,0.43,0.62,0.95,0.8,1.55c0.18,0.61,0.27,1.28,0.27,2.03v8.74
		H578.31z M572.92,229.01c0.52,0,1-0.06,1.44-0.17c0.44-0.11,0.84-0.27,1.21-0.47c0.37-0.2,0.72-0.44,1.04-0.72
		c0.32-0.28,0.64-0.58,0.96-0.9v-3.49c-1.28,0.04-2.38,0.13-3.31,0.29s-1.69,0.37-2.29,0.64c-0.6,0.27-1.04,0.59-1.32,0.96
		c-0.28,0.37-0.42,0.8-0.42,1.28c0,0.45,0.07,0.84,0.22,1.17s0.35,0.6,0.59,0.81c0.25,0.21,0.53,0.37,0.86,0.46
		C572.23,228.96,572.56,229.01,572.92,229.01z"/>
	<path d="M583.11,229.73V216.3h0.72c0.22,0,0.35,0.11,0.39,0.34l0.12,2.02c0.62-0.78,1.34-1.41,2.14-1.88
		c0.81-0.47,1.72-0.7,2.73-0.7c0.74,0,1.39,0.12,1.95,0.35c0.56,0.23,1.03,0.57,1.4,1.01c0.37,0.44,0.65,0.97,0.84,1.59
		c0.19,0.62,0.28,1.32,0.28,2.1v8.58h-1.3v-8.58c0-1.26-0.29-2.25-0.86-2.96s-1.45-1.07-2.63-1.07c-0.88,0-1.7,0.22-2.46,0.67
		c-0.75,0.45-1.43,1.06-2.02,1.85v10.09H583.11z"/>
	<path d="M601.08,234.04c-0.05,0.13-0.12,0.23-0.21,0.31c-0.08,0.08-0.21,0.12-0.37,0.12h-0.92l2.36-5.25l-5.68-12.92h1.06
		c0.14,0,0.24,0.03,0.32,0.1c0.08,0.07,0.13,0.14,0.16,0.22l4.52,10.44c0.05,0.13,0.1,0.27,0.14,0.41s0.08,0.28,0.11,0.42
		c0.04-0.14,0.09-0.29,0.14-0.42c0.05-0.14,0.1-0.28,0.15-0.41l4.47-10.44c0.04-0.1,0.11-0.18,0.19-0.24
		c0.08-0.06,0.17-0.09,0.27-0.09h0.99L601.08,234.04z"/>
	<path d="M620.66,232.49v0.92h-10.63v-0.92H620.66z"/>
	<path d="M622.1,216.3h0.97c0.13,0,0.23,0.03,0.31,0.1s0.13,0.14,0.16,0.22l3.39,10.59c0.05,0.21,0.1,0.41,0.14,0.6
		c0.04,0.19,0.08,0.38,0.12,0.57c0.04-0.19,0.1-0.38,0.15-0.57c0.06-0.19,0.12-0.39,0.2-0.6l3.59-10.68c0.06-0.2,0.19-0.3,0.38-0.3
		h0.53c0.2,0,0.33,0.1,0.39,0.3l3.56,10.68c0.06,0.21,0.12,0.41,0.17,0.59c0.05,0.19,0.1,0.38,0.14,0.58
		c0.04-0.19,0.09-0.38,0.13-0.57c0.04-0.19,0.09-0.39,0.16-0.6l3.41-10.59c0.04-0.1,0.09-0.18,0.18-0.24
		c0.08-0.06,0.17-0.09,0.28-0.09h0.93l-4.48,13.42h-0.96c-0.15,0-0.26-0.09-0.31-0.28l-3.67-10.9c-0.04-0.13-0.09-0.27-0.12-0.41
		c-0.04-0.13-0.07-0.26-0.09-0.39c-0.03,0.14-0.06,0.27-0.09,0.4c-0.03,0.13-0.07,0.26-0.12,0.4l-3.72,10.9
		c-0.05,0.19-0.16,0.28-0.32,0.28h-0.92L622.1,216.3z"/>
	<path d="M649.51,216.09c0.75,0,1.46,0.13,2.1,0.39c0.65,0.26,1.21,0.64,1.69,1.14c0.48,0.5,0.85,1.11,1.13,1.84
		c0.27,0.73,0.41,1.57,0.41,2.51c0,0.2-0.03,0.33-0.08,0.41c-0.05,0.07-0.14,0.11-0.27,0.11h-9.77v0.26c0,1.01,0.12,1.89,0.35,2.66
		c0.23,0.76,0.57,1.4,1,1.92s0.95,0.91,1.57,1.17c0.61,0.26,1.29,0.39,2.05,0.39c0.68,0,1.26-0.07,1.75-0.22
		c0.5-0.15,0.91-0.31,1.25-0.5c0.34-0.18,0.61-0.35,0.8-0.5c0.2-0.15,0.34-0.22,0.43-0.22c0.12,0,0.21,0.04,0.27,0.13l0.35,0.43
		c-0.22,0.27-0.5,0.52-0.86,0.76c-0.36,0.23-0.75,0.43-1.19,0.6s-0.9,0.3-1.4,0.4c-0.5,0.1-1,0.15-1.5,0.15
		c-0.92,0-1.75-0.16-2.51-0.48s-1.4-0.78-1.94-1.4c-0.54-0.61-0.96-1.36-1.25-2.25s-0.44-1.9-0.44-3.04c0-0.96,0.14-1.85,0.41-2.66
		c0.27-0.81,0.67-1.52,1.19-2.11c0.52-0.59,1.15-1.05,1.9-1.38C647.71,216.26,648.56,216.09,649.51,216.09z M649.53,217.05
		c-0.69,0-1.31,0.11-1.86,0.32s-1.02,0.53-1.42,0.93c-0.4,0.41-0.72,0.89-0.97,1.46c-0.25,0.57-0.41,1.2-0.49,1.9h8.9
		c0-0.72-0.1-1.36-0.3-1.94c-0.2-0.57-0.49-1.05-0.86-1.45c-0.37-0.4-0.81-0.7-1.32-0.91C650.7,217.15,650.14,217.05,649.53,217.05z
		"/>
	<path d="M658.34,229.73V210.1h1.29v8.54c0.58-0.79,1.27-1.41,2.05-1.87c0.78-0.45,1.69-0.68,2.72-0.68c0.81,0,1.53,0.15,2.17,0.45
		c0.64,0.3,1.18,0.72,1.63,1.28s0.78,1.24,1.02,2.06c0.23,0.81,0.35,1.74,0.35,2.77c0,1.09-0.13,2.08-0.39,2.97
		c-0.26,0.89-0.64,1.66-1.14,2.29c-0.5,0.63-1.11,1.12-1.83,1.47c-0.72,0.35-1.54,0.52-2.47,0.52c-0.95,0-1.77-0.18-2.44-0.55
		s-1.25-0.9-1.74-1.61l-0.08,1.64c-0.03,0.23-0.15,0.34-0.36,0.34H658.34z M664.04,217.12c-0.96,0-1.8,0.23-2.51,0.69
		c-0.71,0.46-1.35,1.1-1.9,1.92v7.08c0.52,0.77,1.09,1.32,1.71,1.63c0.62,0.31,1.33,0.47,2.12,0.47c0.8,0,1.5-0.14,2.1-0.43
		c0.6-0.29,1.1-0.7,1.5-1.23c0.4-0.54,0.7-1.19,0.9-1.95c0.2-0.76,0.3-1.62,0.3-2.58c0-1.85-0.37-3.25-1.11-4.18
		C666.41,217.58,665.38,217.12,664.04,217.12z"/>
	<path d="M680.58,217.96c-0.07,0.12-0.18,0.19-0.31,0.19c-0.1,0-0.22-0.06-0.38-0.17c-0.15-0.11-0.36-0.24-0.61-0.38
		c-0.26-0.14-0.57-0.27-0.95-0.38s-0.84-0.17-1.38-0.17c-0.49,0-0.93,0.07-1.33,0.21c-0.4,0.14-0.74,0.33-1.03,0.56
		c-0.28,0.23-0.5,0.51-0.65,0.82c-0.15,0.31-0.23,0.64-0.23,0.98c0,0.42,0.11,0.77,0.32,1.05c0.22,0.28,0.5,0.52,0.84,0.71
		c0.35,0.2,0.74,0.37,1.19,0.51c0.45,0.14,0.91,0.29,1.37,0.43c0.46,0.14,0.92,0.3,1.37,0.48c0.45,0.18,0.85,0.39,1.19,0.65
		s0.63,0.58,0.84,0.96c0.22,0.38,0.32,0.84,0.32,1.38c0,0.58-0.1,1.13-0.31,1.63s-0.51,0.94-0.91,1.31s-0.89,0.66-1.48,0.88
		c-0.58,0.21-1.25,0.32-2.01,0.32c-0.94,0-1.76-0.15-2.44-0.45s-1.29-0.69-1.83-1.18l0.3-0.46c0.04-0.07,0.1-0.13,0.15-0.16
		c0.06-0.04,0.14-0.05,0.24-0.05c0.12,0,0.26,0.07,0.42,0.22c0.17,0.14,0.39,0.3,0.67,0.46c0.28,0.17,0.62,0.32,1.03,0.47
		c0.41,0.14,0.92,0.22,1.52,0.22c0.57,0,1.07-0.08,1.5-0.24c0.43-0.16,0.79-0.37,1.08-0.64c0.29-0.27,0.51-0.59,0.65-0.95
		s0.22-0.75,0.22-1.15c0-0.45-0.11-0.82-0.32-1.12s-0.5-0.55-0.85-0.76c-0.35-0.21-0.75-0.38-1.19-0.53
		c-0.45-0.14-0.9-0.29-1.37-0.43c-0.47-0.14-0.92-0.3-1.37-0.47c-0.45-0.17-0.84-0.39-1.19-0.65c-0.35-0.26-0.63-0.58-0.85-0.95
		s-0.32-0.84-0.32-1.4c0-0.48,0.1-0.94,0.31-1.38c0.21-0.44,0.5-0.83,0.88-1.16c0.38-0.33,0.85-0.6,1.4-0.79
		c0.55-0.2,1.16-0.3,1.85-0.3c0.82,0,1.54,0.12,2.18,0.35c0.63,0.23,1.21,0.59,1.73,1.08L680.58,217.96z"/>
	<path d="M686.65,211.68c0,0.16-0.03,0.31-0.1,0.45c-0.07,0.14-0.15,0.26-0.26,0.37c-0.11,0.11-0.23,0.19-0.38,0.26
		c-0.14,0.06-0.3,0.09-0.46,0.09c-0.16,0-0.32-0.03-0.46-0.09c-0.14-0.06-0.27-0.15-0.38-0.26c-0.11-0.11-0.19-0.23-0.26-0.37
		s-0.09-0.29-0.09-0.45s0.03-0.32,0.09-0.46s0.15-0.28,0.26-0.38c0.11-0.11,0.23-0.19,0.38-0.26c0.14-0.06,0.3-0.09,0.46-0.09
		c0.16,0,0.31,0.03,0.46,0.09c0.14,0.06,0.27,0.15,0.38,0.26c0.11,0.11,0.2,0.24,0.26,0.38
		C686.62,211.36,686.65,211.52,686.65,211.68z M686.1,216.3v13.42h-1.28V216.3H686.1z"/>
	<path d="M694.34,229.94c-0.91,0-1.62-0.25-2.12-0.75s-0.76-1.28-0.76-2.33v-9.17h-1.93c-0.1,0-0.18-0.03-0.24-0.08
		c-0.06-0.05-0.09-0.13-0.09-0.23v-0.5l2.29-0.16l0.32-4.8c0.02-0.08,0.05-0.15,0.11-0.22c0.05-0.06,0.13-0.09,0.23-0.09h0.61v5.13
		h4.24v0.96h-4.24v9.11c0,0.37,0.05,0.69,0.14,0.95c0.09,0.27,0.22,0.48,0.39,0.65c0.17,0.17,0.36,0.3,0.59,0.38
		c0.23,0.08,0.47,0.12,0.73,0.12c0.32,0,0.6-0.05,0.84-0.14c0.23-0.09,0.44-0.2,0.61-0.31c0.17-0.11,0.31-0.21,0.42-0.31
		s0.19-0.14,0.26-0.14c0.07,0,0.14,0.04,0.21,0.13l0.35,0.57c-0.34,0.38-0.78,0.68-1.3,0.91
		C695.46,229.83,694.91,229.94,694.34,229.94z"/>
	<path d="M705.16,216.09c0.75,0,1.46,0.13,2.1,0.39c0.65,0.26,1.21,0.64,1.69,1.14c0.48,0.5,0.85,1.11,1.13,1.84
		s0.41,1.57,0.41,2.51c0,0.2-0.03,0.33-0.08,0.41c-0.05,0.07-0.14,0.11-0.27,0.11h-9.77v0.26c0,1.01,0.12,1.89,0.35,2.66
		c0.23,0.76,0.57,1.4,1,1.92c0.43,0.52,0.95,0.91,1.57,1.17c0.61,0.26,1.29,0.39,2.05,0.39c0.67,0,1.26-0.07,1.75-0.22
		s0.91-0.31,1.25-0.5c0.34-0.18,0.6-0.35,0.8-0.5s0.34-0.22,0.43-0.22c0.12,0,0.21,0.04,0.27,0.13l0.35,0.43
		c-0.21,0.27-0.5,0.52-0.86,0.76c-0.36,0.23-0.75,0.43-1.19,0.6c-0.44,0.17-0.9,0.3-1.4,0.4c-0.5,0.1-1,0.15-1.5,0.15
		c-0.92,0-1.75-0.16-2.51-0.48c-0.76-0.32-1.4-0.78-1.94-1.4c-0.54-0.61-0.96-1.36-1.25-2.25c-0.29-0.89-0.44-1.9-0.44-3.04
		c0-0.96,0.14-1.85,0.41-2.66s0.67-1.52,1.19-2.11c0.52-0.59,1.15-1.05,1.9-1.38C703.36,216.26,704.21,216.09,705.16,216.09z
		 M705.18,217.05c-0.69,0-1.31,0.11-1.86,0.32c-0.55,0.22-1.02,0.53-1.42,0.93c-0.4,0.41-0.72,0.89-0.97,1.46s-0.41,1.2-0.49,1.9
		h8.9c0-0.72-0.1-1.36-0.3-1.94c-0.2-0.57-0.49-1.05-0.86-1.45c-0.37-0.4-0.81-0.7-1.32-0.91
		C706.35,217.15,705.79,217.05,705.18,217.05z"/>
</g>
<g>
	<path d="M800.33,157.11v7.87h-1.38v-7.87l-7.07-11.22h1.21c0.12,0,0.23,0.03,0.31,0.09c0.08,0.06,0.15,0.14,0.2,0.25l5.46,8.77
		c0.12,0.21,0.22,0.41,0.32,0.6c0.09,0.19,0.18,0.38,0.25,0.57c0.07-0.19,0.15-0.38,0.25-0.57c0.09-0.19,0.2-0.39,0.32-0.6
		l5.46-8.77c0.04-0.1,0.11-0.18,0.2-0.24s0.19-0.09,0.32-0.09h1.21L800.33,157.11z"/>
	<path d="M815.2,151.33c0.96,0,1.82,0.16,2.58,0.49c0.76,0.33,1.4,0.79,1.92,1.4s0.92,1.33,1.19,2.18s0.41,1.8,0.41,2.85
		s-0.14,2-0.41,2.85c-0.27,0.85-0.67,1.57-1.19,2.17s-1.16,1.07-1.92,1.39c-0.76,0.32-1.62,0.49-2.58,0.49
		c-0.96,0-1.82-0.16-2.58-0.49c-0.76-0.32-1.4-0.79-1.93-1.39c-0.53-0.6-0.93-1.33-1.2-2.17c-0.27-0.85-0.41-1.79-0.41-2.85
		s0.14-2,0.41-2.85s0.67-1.58,1.2-2.18c0.53-0.6,1.17-1.07,1.93-1.4C813.38,151.5,814.24,151.33,815.2,151.33z M815.2,164.14
		c0.8,0,1.5-0.14,2.1-0.41c0.6-0.27,1.1-0.67,1.5-1.18c0.4-0.51,0.7-1.13,0.9-1.85c0.2-0.72,0.3-1.54,0.3-2.44
		c0-0.89-0.1-1.7-0.3-2.43c-0.2-0.73-0.5-1.35-0.9-1.87c-0.4-0.52-0.9-0.92-1.5-1.19c-0.6-0.28-1.3-0.42-2.1-0.42
		c-0.8,0-1.5,0.14-2.1,0.42c-0.6,0.28-1.1,0.68-1.5,1.19s-0.7,1.14-0.9,1.87c-0.2,0.73-0.3,1.54-0.3,2.43c0,0.9,0.1,1.71,0.3,2.44
		c0.2,0.72,0.5,1.34,0.9,1.85s0.9,0.91,1.5,1.18C813.7,164,814.4,164.14,815.2,164.14z"/>
	<path d="M826.09,151.55v8.58c0,1.26,0.29,2.25,0.86,2.96c0.58,0.71,1.45,1.07,2.63,1.07c0.87,0,1.69-0.22,2.44-0.67
		c0.76-0.45,1.43-1.06,2.04-1.85v-10.09h1.29v13.42h-0.71c-0.22,0-0.36-0.12-0.39-0.35l-0.12-2c-0.62,0.77-1.34,1.39-2.15,1.86
		c-0.81,0.47-1.72,0.7-2.72,0.7c-0.75,0-1.4-0.12-1.96-0.35c-0.56-0.23-1.02-0.57-1.39-1.01c-0.37-0.44-0.65-0.97-0.84-1.59
		c-0.19-0.62-0.28-1.32-0.28-2.1v-8.58H826.09z"/>
	<path d="M839.77,164.97v-13.42h0.69c0.15,0,0.26,0.03,0.32,0.09c0.06,0.06,0.1,0.17,0.12,0.32l0.09,2.82
		c0.21-0.55,0.44-1.04,0.71-1.46c0.27-0.43,0.57-0.79,0.92-1.09c0.35-0.3,0.73-0.52,1.16-0.68s0.9-0.24,1.42-0.24
		c0.28,0,0.55,0.02,0.82,0.07c0.27,0.05,0.51,0.14,0.71,0.26l-0.11,0.89c-0.04,0.14-0.13,0.22-0.26,0.22
		c-0.11,0-0.27-0.03-0.49-0.09c-0.22-0.06-0.51-0.09-0.87-0.09c-0.52,0-0.98,0.08-1.39,0.24s-0.76,0.4-1.08,0.71
		c-0.31,0.31-0.59,0.7-0.83,1.16s-0.46,1-0.65,1.6v8.69H839.77z"/>
	<path d="M858.02,163.97h4.38v-15.49c0-0.31,0.01-0.63,0.04-0.97l-4.21,3.74c-0.13,0.11-0.25,0.15-0.38,0.12
		c-0.12-0.03-0.22-0.08-0.3-0.16l-0.39-0.54l5.52-4.87h1.01v18.17h4.17v1h-9.85V163.97z"/>
	<path d="M879.66,153.21c-0.07,0.13-0.17,0.19-0.31,0.19c-0.1,0-0.23-0.06-0.38-0.17c-0.15-0.11-0.36-0.24-0.61-0.38
		c-0.26-0.14-0.57-0.27-0.95-0.38c-0.38-0.11-0.84-0.17-1.38-0.17c-0.49,0-0.93,0.07-1.33,0.21c-0.4,0.14-0.74,0.33-1.03,0.56
		s-0.5,0.51-0.65,0.82c-0.15,0.31-0.23,0.64-0.23,0.98c0,0.42,0.11,0.77,0.32,1.05s0.5,0.52,0.84,0.71c0.35,0.2,0.74,0.37,1.19,0.51
		c0.45,0.14,0.91,0.29,1.37,0.43c0.46,0.14,0.92,0.3,1.37,0.48c0.45,0.18,0.85,0.39,1.19,0.65s0.63,0.58,0.84,0.96
		c0.21,0.38,0.32,0.84,0.32,1.38c0,0.58-0.1,1.13-0.31,1.63c-0.21,0.5-0.51,0.94-0.91,1.31c-0.4,0.37-0.89,0.66-1.48,0.88
		s-1.25,0.32-2.01,0.32c-0.95,0-1.76-0.15-2.44-0.45c-0.68-0.3-1.3-0.69-1.84-1.18l0.3-0.46c0.04-0.07,0.1-0.13,0.16-0.16
		c0.06-0.04,0.14-0.05,0.24-0.05c0.12,0,0.26,0.07,0.42,0.22c0.17,0.14,0.39,0.3,0.67,0.47s0.62,0.32,1.03,0.47
		c0.41,0.14,0.92,0.22,1.52,0.22c0.57,0,1.07-0.08,1.5-0.24c0.43-0.16,0.79-0.37,1.08-0.64c0.29-0.27,0.51-0.59,0.65-0.95
		s0.22-0.75,0.22-1.15c0-0.45-0.11-0.82-0.32-1.12s-0.5-0.55-0.85-0.76c-0.35-0.21-0.75-0.38-1.19-0.53
		c-0.45-0.14-0.9-0.29-1.37-0.43s-0.92-0.3-1.37-0.47c-0.44-0.17-0.84-0.39-1.19-0.65c-0.35-0.26-0.63-0.58-0.85-0.95
		s-0.32-0.84-0.32-1.4c0-0.48,0.1-0.94,0.31-1.38c0.21-0.44,0.5-0.83,0.88-1.16s0.85-0.6,1.4-0.8c0.55-0.2,1.17-0.3,1.85-0.3
		c0.82,0,1.54,0.12,2.18,0.35c0.63,0.23,1.21,0.59,1.73,1.08L879.66,153.21z"/>
	<path d="M887.42,165.19c-0.91,0-1.62-0.25-2.12-0.76s-0.76-1.28-0.76-2.33v-9.17h-1.93c-0.1,0-0.18-0.03-0.24-0.08
		c-0.06-0.05-0.09-0.13-0.09-0.23v-0.5l2.29-0.16l0.32-4.8c0.02-0.08,0.05-0.15,0.11-0.22c0.05-0.06,0.13-0.09,0.23-0.09h0.61v5.13
		h4.24v0.96h-4.24v9.11c0,0.37,0.05,0.69,0.14,0.95s0.22,0.48,0.39,0.65c0.17,0.17,0.36,0.3,0.59,0.38
		c0.23,0.08,0.47,0.12,0.73,0.12c0.32,0,0.6-0.05,0.84-0.14c0.23-0.09,0.44-0.2,0.61-0.31c0.17-0.11,0.31-0.22,0.42-0.31
		s0.19-0.14,0.26-0.14c0.07,0,0.14,0.04,0.21,0.13l0.35,0.57c-0.34,0.38-0.78,0.68-1.3,0.91
		C888.53,165.07,887.98,165.19,887.42,165.19z"/>
	<path d="M915.44,164.97h-1.07c-0.13,0-0.23-0.03-0.31-0.1c-0.08-0.07-0.14-0.16-0.19-0.26l-2.24-5.54h-9.38l-2.24,5.54
		c-0.04,0.1-0.1,0.18-0.19,0.26c-0.09,0.07-0.2,0.11-0.32,0.11h-1.05l7.81-19.09h1.36L915.44,164.97z M902.66,158.04h8.55
		l-3.89-9.65c-0.13-0.31-0.27-0.69-0.39-1.13c-0.06,0.22-0.13,0.42-0.19,0.62s-0.13,0.37-0.19,0.53L902.66,158.04z"/>
	<path d="M918,169.72v-18.17h0.71c0.22,0,0.36,0.11,0.39,0.34l0.12,2.08c0.59-0.81,1.29-1.45,2.09-1.93c0.8-0.48,1.7-0.72,2.68-0.72
		c1.65,0,2.93,0.57,3.85,1.71c0.92,1.14,1.38,2.86,1.38,5.14c0,0.98-0.13,1.9-0.38,2.75c-0.26,0.85-0.63,1.59-1.13,2.21
		s-1.11,1.12-1.83,1.48c-0.72,0.36-1.56,0.54-2.5,0.54c-0.91,0-1.7-0.17-2.36-0.5s-1.24-0.82-1.73-1.47v6.54H918z M923.64,152.36
		c-0.89,0-1.7,0.23-2.41,0.69c-0.72,0.46-1.36,1.1-1.93,1.92v7.08c0.51,0.77,1.08,1.32,1.7,1.63c0.62,0.31,1.34,0.47,2.15,0.47
		c0.79,0,1.48-0.14,2.08-0.43c0.59-0.29,1.09-0.69,1.49-1.22c0.4-0.53,0.7-1.16,0.9-1.89c0.2-0.73,0.3-1.54,0.3-2.42
		c0-2-0.37-3.46-1.11-4.4C926.07,152.83,925.01,152.36,923.64,152.36z"/>
	<path d="M932.88,169.72v-18.17h0.72c0.22,0,0.35,0.11,0.39,0.34l0.12,2.08c0.59-0.81,1.29-1.45,2.09-1.93
		c0.8-0.48,1.7-0.72,2.68-0.72c1.65,0,2.93,0.57,3.85,1.71c0.92,1.14,1.38,2.86,1.38,5.14c0,0.98-0.13,1.9-0.38,2.75
		c-0.26,0.85-0.63,1.59-1.13,2.21c-0.5,0.62-1.11,1.12-1.83,1.48c-0.72,0.36-1.56,0.54-2.5,0.54c-0.91,0-1.7-0.17-2.36-0.5
		c-0.67-0.33-1.24-0.82-1.73-1.47v6.54H932.88z M938.52,152.36c-0.89,0-1.7,0.23-2.42,0.69c-0.72,0.46-1.36,1.1-1.93,1.92v7.08
		c0.51,0.77,1.08,1.32,1.7,1.63c0.62,0.31,1.34,0.47,2.14,0.47c0.79,0,1.48-0.14,2.08-0.43c0.59-0.29,1.09-0.69,1.49-1.22
		c0.4-0.53,0.7-1.16,0.9-1.89c0.2-0.73,0.3-1.54,0.3-2.42c0-2-0.37-3.46-1.11-4.4S939.89,152.36,938.52,152.36z"/>
	<path d="M800.33,221.86v7.87h-1.38v-7.87l-7.07-11.22h1.21c0.12,0,0.23,0.03,0.31,0.09c0.08,0.06,0.15,0.14,0.2,0.25l5.46,8.77
		c0.12,0.21,0.22,0.41,0.32,0.6c0.09,0.19,0.18,0.38,0.25,0.57c0.07-0.19,0.15-0.38,0.25-0.57c0.09-0.19,0.2-0.39,0.32-0.6
		l5.46-8.77c0.04-0.1,0.11-0.18,0.2-0.24s0.19-0.09,0.32-0.09h1.21L800.33,221.86z"/>
	<path d="M815.2,216.09c0.96,0,1.82,0.16,2.58,0.49c0.76,0.33,1.4,0.79,1.92,1.4c0.52,0.6,0.92,1.33,1.19,2.18
		c0.27,0.85,0.41,1.8,0.41,2.85c0,1.05-0.14,2-0.41,2.85c-0.27,0.85-0.67,1.57-1.19,2.17c-0.52,0.6-1.16,1.06-1.92,1.39
		c-0.76,0.32-1.62,0.49-2.58,0.49c-0.96,0-1.82-0.16-2.58-0.49s-1.4-0.79-1.93-1.39c-0.53-0.6-0.93-1.33-1.2-2.17
		c-0.27-0.84-0.41-1.79-0.41-2.85c0-1.05,0.14-2,0.41-2.85c0.27-0.85,0.67-1.58,1.2-2.18c0.53-0.6,1.17-1.07,1.93-1.4
		S814.24,216.09,815.2,216.09z M815.2,228.89c0.8,0,1.5-0.14,2.1-0.41c0.6-0.27,1.1-0.67,1.5-1.18c0.4-0.51,0.7-1.13,0.9-1.86
		c0.2-0.72,0.3-1.54,0.3-2.44c0-0.89-0.1-1.7-0.3-2.43c-0.2-0.73-0.5-1.35-0.9-1.87c-0.4-0.52-0.9-0.91-1.5-1.19
		c-0.6-0.28-1.3-0.42-2.1-0.42c-0.8,0-1.5,0.14-2.1,0.42c-0.6,0.28-1.1,0.68-1.5,1.19c-0.4,0.52-0.7,1.14-0.9,1.87
		c-0.2,0.73-0.3,1.54-0.3,2.43c0,0.9,0.1,1.71,0.3,2.44c0.2,0.72,0.5,1.34,0.9,1.86c0.4,0.51,0.9,0.91,1.5,1.18
		C813.7,228.75,814.4,228.89,815.2,228.89z"/>
	<path d="M826.09,216.3v8.58c0,1.26,0.29,2.25,0.86,2.96c0.58,0.71,1.45,1.07,2.63,1.07c0.87,0,1.69-0.22,2.44-0.67
		c0.76-0.45,1.43-1.06,2.04-1.86V216.3h1.29v13.42h-0.71c-0.22,0-0.36-0.12-0.39-0.35l-0.12-2c-0.62,0.77-1.34,1.39-2.15,1.86
		c-0.81,0.47-1.72,0.7-2.72,0.7c-0.75,0-1.4-0.12-1.96-0.35c-0.56-0.23-1.02-0.57-1.39-1.01c-0.37-0.44-0.65-0.97-0.84-1.59
		c-0.19-0.62-0.28-1.32-0.28-2.11v-8.58H826.09z"/>
	<path d="M839.77,229.73V216.3h0.69c0.15,0,0.26,0.03,0.32,0.09c0.06,0.06,0.1,0.17,0.12,0.32l0.09,2.82
		c0.21-0.55,0.44-1.04,0.71-1.46s0.57-0.79,0.92-1.09c0.35-0.3,0.73-0.52,1.16-0.68c0.43-0.16,0.9-0.24,1.42-0.24
		c0.28,0,0.55,0.02,0.82,0.07c0.27,0.05,0.51,0.14,0.71,0.26l-0.11,0.89c-0.04,0.14-0.13,0.22-0.26,0.22
		c-0.11,0-0.27-0.03-0.49-0.09c-0.22-0.06-0.51-0.09-0.87-0.09c-0.52,0-0.98,0.08-1.39,0.24s-0.76,0.4-1.08,0.71
		s-0.59,0.7-0.83,1.16c-0.24,0.46-0.46,1-0.65,1.6v8.69H839.77z"/>
	<path d="M862.35,210.42c0.73,0,1.42,0.11,2.08,0.32c0.66,0.21,1.25,0.53,1.75,0.96c0.51,0.43,0.91,0.96,1.21,1.6
		c0.3,0.64,0.45,1.4,0.45,2.26c0,0.72-0.11,1.39-0.33,2c-0.22,0.62-0.52,1.21-0.9,1.77c-0.38,0.57-0.82,1.12-1.31,1.65
		c-0.5,0.54-1.02,1.08-1.57,1.64l-5.98,6.1c0.29-0.07,0.59-0.13,0.9-0.16c0.31-0.04,0.62-0.05,0.94-0.05h8.24
		c0.14,0,0.26,0.04,0.34,0.13s0.12,0.2,0.12,0.33v0.76h-12.32v-0.46c0-0.1,0.03-0.2,0.07-0.3c0.05-0.1,0.12-0.19,0.2-0.26l6.52-6.6
		c0.54-0.55,1.04-1.08,1.5-1.59c0.46-0.51,0.86-1.03,1.19-1.55c0.34-0.52,0.6-1.06,0.79-1.61c0.19-0.55,0.28-1.13,0.28-1.75
		c0-0.7-0.12-1.31-0.35-1.83c-0.23-0.52-0.54-0.94-0.93-1.28c-0.39-0.33-0.84-0.58-1.35-0.74c-0.51-0.16-1.04-0.24-1.59-0.24
		c-0.6,0-1.16,0.09-1.67,0.28c-0.51,0.18-0.96,0.44-1.35,0.77c-0.39,0.33-0.71,0.72-0.97,1.17c-0.26,0.45-0.43,0.95-0.53,1.49
		c-0.06,0.2-0.15,0.33-0.25,0.39s-0.25,0.09-0.42,0.07l-0.66-0.11c0.12-0.82,0.34-1.55,0.67-2.19s0.75-1.18,1.27-1.62
		c0.51-0.44,1.11-0.78,1.78-1C860.84,210.54,861.57,210.42,862.35,210.42z"/>
	<path d="M872.28,229.73V216.3H873c0.22,0,0.35,0.11,0.39,0.34l0.12,2.02c0.62-0.78,1.34-1.41,2.14-1.88
		c0.81-0.47,1.72-0.7,2.73-0.7c0.74,0,1.39,0.12,1.95,0.35c0.56,0.23,1.03,0.57,1.4,1.01c0.37,0.44,0.65,0.97,0.84,1.59
		c0.19,0.62,0.28,1.32,0.28,2.1v8.58h-1.3v-8.58c0-1.26-0.29-2.25-0.86-2.96s-1.45-1.07-2.63-1.07c-0.88,0-1.7,0.22-2.46,0.67
		c-0.75,0.45-1.43,1.06-2.02,1.85v10.09H872.28z"/>
	<path d="M896.86,229.73c-0.23,0-0.37-0.12-0.4-0.35l-0.13-2.12c-0.59,0.81-1.29,1.45-2.08,1.93s-1.68,0.71-2.67,0.71
		c-1.66,0-2.94-0.57-3.86-1.71c-0.92-1.14-1.38-2.86-1.38-5.14c0-0.98,0.13-1.9,0.38-2.75c0.26-0.85,0.63-1.59,1.13-2.21
		s1.1-1.12,1.83-1.48c0.72-0.36,1.56-0.54,2.5-0.54c0.91,0,1.7,0.17,2.36,0.51c0.67,0.34,1.25,0.83,1.74,1.48v-7.96h1.28v19.63
		H896.86z M891.94,228.87c0.88,0,1.68-0.23,2.41-0.69c0.72-0.46,1.37-1.1,1.94-1.93v-7.04c-0.51-0.77-1.08-1.32-1.71-1.64
		c-0.62-0.32-1.34-0.48-2.14-0.48c-0.79,0-1.48,0.14-2.08,0.43c-0.59,0.29-1.09,0.69-1.49,1.22s-0.7,1.16-0.9,1.89
		c-0.2,0.73-0.3,1.54-0.3,2.42c0,2,0.37,3.46,1.1,4.4C889.49,228.39,890.55,228.87,891.94,228.87z"/>
	<path d="M924.44,229.73h-1.07c-0.13,0-0.23-0.03-0.31-0.1c-0.08-0.07-0.14-0.15-0.19-0.26l-2.24-5.54h-9.38l-2.24,5.54
		c-0.04,0.1-0.1,0.18-0.19,0.26s-0.2,0.11-0.32,0.11h-1.05l7.81-19.09h1.36L924.44,229.73z M911.66,222.79h8.55l-3.89-9.65
		c-0.13-0.31-0.26-0.69-0.39-1.13c-0.06,0.21-0.13,0.42-0.19,0.62c-0.06,0.2-0.12,0.37-0.19,0.53L911.66,222.79z"/>
	<path d="M927,234.48V216.3h0.71c0.22,0,0.36,0.11,0.39,0.34l0.12,2.08c0.59-0.81,1.29-1.45,2.09-1.93s1.7-0.71,2.68-0.71
		c1.65,0,2.93,0.57,3.85,1.71s1.38,2.86,1.38,5.14c0,0.98-0.13,1.89-0.38,2.74c-0.26,0.85-0.63,1.59-1.13,2.21s-1.11,1.12-1.83,1.48
		c-0.72,0.36-1.56,0.54-2.5,0.54c-0.91,0-1.7-0.17-2.36-0.5c-0.67-0.33-1.24-0.82-1.73-1.47v6.54H927z M932.64,217.12
		c-0.89,0-1.7,0.23-2.41,0.69c-0.72,0.46-1.36,1.1-1.93,1.92v7.08c0.51,0.77,1.08,1.32,1.7,1.63c0.62,0.31,1.34,0.47,2.15,0.47
		c0.79,0,1.48-0.14,2.08-0.43c0.59-0.29,1.09-0.7,1.49-1.22c0.4-0.53,0.7-1.16,0.9-1.89c0.2-0.73,0.3-1.54,0.3-2.42
		c0-2-0.37-3.46-1.11-4.41C935.07,217.58,934.01,217.12,932.64,217.12z"/>
	<path d="M941.88,234.48V216.3h0.72c0.22,0,0.35,0.11,0.39,0.34l0.12,2.08c0.59-0.81,1.29-1.45,2.09-1.93
		c0.8-0.48,1.7-0.71,2.68-0.71c1.65,0,2.93,0.57,3.85,1.71s1.38,2.86,1.38,5.14c0,0.98-0.13,1.89-0.38,2.74
		c-0.26,0.85-0.63,1.59-1.13,2.21c-0.5,0.62-1.11,1.12-1.83,1.48c-0.72,0.36-1.56,0.54-2.5,0.54c-0.91,0-1.7-0.17-2.36-0.5
		c-0.67-0.33-1.24-0.82-1.73-1.47v6.54H941.88z M947.52,217.12c-0.89,0-1.7,0.23-2.42,0.69s-1.36,1.1-1.93,1.92v7.08
		c0.51,0.77,1.08,1.32,1.7,1.63c0.62,0.31,1.34,0.47,2.14,0.47c0.79,0,1.48-0.14,2.08-0.43c0.59-0.29,1.09-0.7,1.49-1.22
		s0.7-1.16,0.9-1.89s0.3-1.54,0.3-2.42c0-2-0.37-3.46-1.11-4.41S948.89,217.12,947.52,217.12z"/>
</g>
<g>
	<path d="M54.34,151.33c0.76,0,1.46,0.13,2.1,0.39c0.65,0.26,1.21,0.64,1.69,1.14c0.48,0.5,0.85,1.11,1.13,1.84
		c0.27,0.73,0.41,1.56,0.41,2.51c0,0.2-0.03,0.33-0.08,0.4c-0.05,0.07-0.14,0.11-0.27,0.11h-9.77v0.26c0,1.01,0.12,1.89,0.35,2.66
		c0.23,0.76,0.57,1.41,1,1.92c0.43,0.52,0.95,0.91,1.56,1.17c0.61,0.26,1.29,0.39,2.05,0.39c0.67,0,1.26-0.07,1.75-0.22
		c0.49-0.15,0.91-0.31,1.25-0.5c0.34-0.18,0.6-0.35,0.8-0.5c0.2-0.15,0.34-0.22,0.43-0.22c0.12,0,0.21,0.04,0.27,0.13l0.35,0.43
		c-0.22,0.27-0.5,0.52-0.86,0.76s-0.75,0.43-1.19,0.6c-0.44,0.17-0.9,0.3-1.4,0.4c-0.5,0.1-1,0.15-1.5,0.15
		c-0.92,0-1.75-0.16-2.51-0.48c-0.76-0.32-1.4-0.78-1.94-1.4s-0.96-1.36-1.25-2.25c-0.29-0.89-0.44-1.9-0.44-3.04
		c0-0.96,0.14-1.85,0.41-2.66c0.27-0.81,0.67-1.52,1.19-2.1c0.52-0.59,1.15-1.05,1.9-1.38C52.54,151.5,53.39,151.33,54.34,151.33z
		 M54.36,152.29c-0.69,0-1.31,0.11-1.86,0.32c-0.55,0.22-1.02,0.53-1.42,0.93c-0.4,0.4-0.72,0.89-0.97,1.46
		c-0.25,0.57-0.41,1.2-0.49,1.9h8.9c0-0.72-0.1-1.36-0.3-1.94c-0.2-0.57-0.49-1.05-0.86-1.45s-0.81-0.7-1.32-0.91
		C55.53,152.4,54.97,152.29,54.36,152.29z"/>
	<path d="M63.17,164.97v-13.42h0.72c0.22,0,0.35,0.11,0.39,0.34l0.12,1.94c0.52-0.75,1.12-1.35,1.79-1.81
		c0.67-0.46,1.43-0.69,2.28-0.69c0.98,0,1.77,0.28,2.35,0.85c0.59,0.57,0.99,1.35,1.19,2.36c0.16-0.55,0.39-1.03,0.68-1.43
		s0.63-0.74,1.01-1c0.38-0.27,0.79-0.46,1.23-0.59c0.44-0.13,0.9-0.19,1.37-0.19c0.67,0,1.26,0.11,1.79,0.33
		c0.53,0.22,0.98,0.55,1.35,0.98c0.37,0.43,0.65,0.96,0.85,1.59c0.2,0.63,0.3,1.35,0.3,2.16v8.58h-1.28v-8.58
		c0-1.31-0.28-2.31-0.85-3c-0.57-0.69-1.38-1.03-2.43-1.03c-0.47,0-0.92,0.09-1.34,0.26s-0.8,0.42-1.13,0.76
		c-0.33,0.34-0.59,0.76-0.78,1.26c-0.19,0.5-0.29,1.09-0.29,1.75v8.58h-1.29v-8.58c0-1.3-0.26-2.3-0.78-3
		c-0.52-0.69-1.27-1.04-2.27-1.04c-0.73,0-1.4,0.22-2.02,0.65s-1.17,1.03-1.66,1.79v10.17H63.17z"/>
	<path d="M84.89,169.72v-18.17h0.72c0.22,0,0.35,0.11,0.39,0.34l0.12,2.08c0.59-0.81,1.29-1.45,2.09-1.93
		c0.8-0.48,1.7-0.72,2.68-0.72c1.65,0,2.93,0.57,3.85,1.71c0.92,1.14,1.38,2.86,1.38,5.14c0,0.98-0.13,1.9-0.38,2.75
		c-0.26,0.85-0.63,1.59-1.13,2.21s-1.11,1.12-1.83,1.48c-0.72,0.36-1.56,0.54-2.5,0.54c-0.91,0-1.7-0.17-2.36-0.5
		s-1.24-0.82-1.73-1.47v6.54H84.89z M90.53,152.36c-0.89,0-1.7,0.23-2.41,0.69c-0.72,0.46-1.36,1.1-1.93,1.92v7.08
		c0.51,0.77,1.08,1.32,1.7,1.63c0.62,0.31,1.34,0.47,2.15,0.47c0.79,0,1.48-0.14,2.08-0.43c0.59-0.29,1.09-0.69,1.49-1.22
		c0.4-0.53,0.7-1.16,0.9-1.89c0.2-0.73,0.3-1.54,0.3-2.42c0-2-0.37-3.46-1.11-4.4S91.9,152.36,90.53,152.36z"/>
	<path d="M101.18,145.34v19.63h-1.29v-19.63H101.18z"/>
	<path d="M111.05,151.33c0.96,0,1.82,0.16,2.58,0.49c0.76,0.33,1.4,0.79,1.92,1.4s0.92,1.33,1.19,2.18s0.41,1.8,0.41,2.85
		s-0.14,2-0.41,2.85c-0.27,0.85-0.67,1.57-1.19,2.17s-1.16,1.07-1.92,1.39c-0.76,0.32-1.62,0.49-2.58,0.49s-1.82-0.16-2.58-0.49
		c-0.76-0.32-1.4-0.79-1.93-1.39c-0.53-0.6-0.93-1.33-1.2-2.17c-0.27-0.85-0.41-1.79-0.41-2.85s0.14-2,0.41-2.85s0.67-1.58,1.2-2.18
		c0.53-0.6,1.17-1.07,1.93-1.4C109.22,151.5,110.08,151.33,111.05,151.33z M111.05,164.14c0.8,0,1.5-0.14,2.1-0.41
		c0.6-0.27,1.1-0.67,1.5-1.18c0.4-0.51,0.7-1.13,0.9-1.85c0.2-0.72,0.3-1.54,0.3-2.44c0-0.89-0.1-1.7-0.3-2.43
		c-0.2-0.73-0.5-1.35-0.9-1.87c-0.4-0.52-0.9-0.92-1.5-1.19s-1.3-0.42-2.1-0.42c-0.8,0-1.5,0.14-2.1,0.42s-1.1,0.68-1.5,1.19
		c-0.4,0.52-0.7,1.14-0.9,1.87c-0.2,0.73-0.3,1.54-0.3,2.43c0,0.9,0.1,1.71,0.3,2.44c0.2,0.72,0.5,1.34,0.9,1.85
		c0.4,0.51,0.9,0.91,1.5,1.18C109.55,164,110.25,164.14,111.05,164.14z"/>
	<path d="M123.92,169.29c-0.05,0.13-0.12,0.23-0.21,0.31s-0.21,0.12-0.37,0.12h-0.92l2.36-5.25l-5.68-12.92h1.07
		c0.14,0,0.24,0.03,0.32,0.1c0.08,0.07,0.14,0.14,0.16,0.22l4.52,10.44c0.05,0.13,0.1,0.27,0.14,0.41s0.08,0.28,0.11,0.42
		c0.04-0.14,0.09-0.29,0.14-0.42c0.05-0.14,0.1-0.28,0.16-0.41l4.47-10.44c0.04-0.1,0.11-0.18,0.19-0.24
		c0.08-0.06,0.17-0.09,0.27-0.09h0.98L123.92,169.29z"/>
	<path d="M139.57,151.33c0.76,0,1.46,0.13,2.1,0.39c0.65,0.26,1.21,0.64,1.69,1.14c0.48,0.5,0.85,1.11,1.13,1.84
		c0.27,0.73,0.41,1.56,0.41,2.51c0,0.2-0.03,0.33-0.08,0.4c-0.05,0.07-0.14,0.11-0.27,0.11h-9.77v0.26c0,1.01,0.12,1.89,0.35,2.66
		c0.23,0.76,0.57,1.41,1,1.92c0.43,0.52,0.95,0.91,1.56,1.17c0.61,0.26,1.29,0.39,2.05,0.39c0.67,0,1.26-0.07,1.75-0.22
		c0.49-0.15,0.91-0.31,1.25-0.5c0.34-0.18,0.6-0.35,0.8-0.5c0.2-0.15,0.34-0.22,0.43-0.22c0.12,0,0.21,0.04,0.27,0.13l0.35,0.43
		c-0.22,0.27-0.5,0.52-0.86,0.76s-0.75,0.43-1.19,0.6c-0.44,0.17-0.9,0.3-1.4,0.4c-0.5,0.1-1,0.15-1.5,0.15
		c-0.92,0-1.75-0.16-2.51-0.48c-0.76-0.32-1.4-0.78-1.94-1.4s-0.96-1.36-1.25-2.25c-0.29-0.89-0.44-1.9-0.44-3.04
		c0-0.96,0.14-1.85,0.41-2.66c0.27-0.81,0.67-1.52,1.19-2.1c0.52-0.59,1.15-1.05,1.9-1.38C137.76,151.5,138.61,151.33,139.57,151.33
		z M139.58,152.29c-0.69,0-1.31,0.11-1.86,0.32c-0.55,0.22-1.02,0.53-1.42,0.93c-0.4,0.4-0.72,0.89-0.97,1.46
		c-0.25,0.57-0.41,1.2-0.49,1.9h8.9c0-0.72-0.1-1.36-0.3-1.94c-0.2-0.57-0.49-1.05-0.86-1.45s-0.81-0.7-1.32-0.91
		C140.75,152.4,140.19,152.29,139.58,152.29z"/>
	<path d="M153.64,151.33c0.76,0,1.46,0.13,2.1,0.39c0.65,0.26,1.21,0.64,1.69,1.14c0.48,0.5,0.85,1.11,1.13,1.84
		c0.27,0.73,0.41,1.56,0.41,2.51c0,0.2-0.03,0.33-0.08,0.4c-0.05,0.07-0.14,0.11-0.27,0.11h-9.77v0.26c0,1.01,0.12,1.89,0.35,2.66
		c0.23,0.76,0.57,1.41,1,1.92c0.43,0.52,0.95,0.91,1.56,1.17c0.61,0.26,1.29,0.39,2.05,0.39c0.67,0,1.26-0.07,1.75-0.22
		c0.49-0.15,0.91-0.31,1.25-0.5c0.34-0.18,0.6-0.35,0.8-0.5c0.2-0.15,0.34-0.22,0.43-0.22c0.12,0,0.21,0.04,0.27,0.13l0.35,0.43
		c-0.22,0.27-0.5,0.52-0.86,0.76s-0.75,0.43-1.19,0.6c-0.44,0.17-0.9,0.3-1.4,0.4c-0.5,0.1-1,0.15-1.5,0.15
		c-0.92,0-1.75-0.16-2.51-0.48c-0.76-0.32-1.4-0.78-1.94-1.4s-0.96-1.36-1.25-2.25c-0.29-0.89-0.44-1.9-0.44-3.04
		c0-0.96,0.14-1.85,0.41-2.66c0.27-0.81,0.67-1.52,1.19-2.1c0.52-0.59,1.15-1.05,1.9-1.38C151.83,151.5,152.68,151.33,153.64,151.33
		z M153.65,152.29c-0.69,0-1.31,0.11-1.86,0.32c-0.55,0.22-1.02,0.53-1.42,0.93c-0.4,0.4-0.72,0.89-0.97,1.46
		c-0.25,0.57-0.41,1.2-0.49,1.9h8.9c0-0.72-0.1-1.36-0.3-1.94c-0.2-0.57-0.49-1.05-0.86-1.45s-0.81-0.7-1.32-0.91
		C154.82,152.4,154.26,152.29,153.65,152.29z"/>
	<path d="M169.84,153.21c-0.07,0.13-0.18,0.19-0.31,0.19c-0.1,0-0.23-0.06-0.38-0.17s-0.36-0.24-0.61-0.38
		c-0.26-0.14-0.57-0.27-0.95-0.38c-0.38-0.11-0.84-0.17-1.38-0.17c-0.49,0-0.93,0.07-1.33,0.21c-0.4,0.14-0.74,0.33-1.03,0.56
		s-0.5,0.51-0.65,0.82c-0.15,0.31-0.23,0.64-0.23,0.98c0,0.42,0.11,0.77,0.32,1.05s0.5,0.52,0.84,0.71s0.74,0.37,1.19,0.51
		c0.45,0.14,0.91,0.29,1.37,0.43c0.46,0.14,0.92,0.3,1.37,0.48s0.85,0.39,1.19,0.65s0.63,0.58,0.84,0.96
		c0.22,0.38,0.32,0.84,0.32,1.38c0,0.58-0.1,1.13-0.31,1.63c-0.21,0.5-0.51,0.94-0.91,1.31c-0.4,0.37-0.89,0.66-1.48,0.88
		s-1.25,0.32-2.01,0.32c-0.94,0-1.76-0.15-2.44-0.45c-0.68-0.3-1.3-0.69-1.83-1.18l0.3-0.46c0.04-0.07,0.1-0.13,0.16-0.16
		c0.06-0.04,0.14-0.05,0.24-0.05c0.12,0,0.26,0.07,0.42,0.22c0.17,0.14,0.39,0.3,0.67,0.47s0.62,0.32,1.03,0.47
		c0.41,0.14,0.92,0.22,1.52,0.22c0.57,0,1.07-0.08,1.5-0.24c0.43-0.16,0.79-0.37,1.08-0.64c0.29-0.27,0.51-0.59,0.65-0.95
		s0.22-0.75,0.22-1.15c0-0.45-0.11-0.82-0.32-1.12s-0.5-0.55-0.85-0.76c-0.35-0.21-0.75-0.38-1.19-0.53
		c-0.45-0.14-0.9-0.29-1.37-0.43c-0.47-0.14-0.92-0.3-1.37-0.47c-0.44-0.17-0.84-0.39-1.19-0.65c-0.35-0.26-0.63-0.58-0.85-0.95
		s-0.32-0.84-0.32-1.4c0-0.48,0.1-0.94,0.31-1.38c0.21-0.44,0.5-0.83,0.88-1.16c0.38-0.33,0.85-0.6,1.4-0.8
		c0.55-0.2,1.16-0.3,1.85-0.3c0.82,0,1.54,0.12,2.18,0.35c0.63,0.23,1.21,0.59,1.73,1.08L169.84,153.21z"/>
	<path d="M173.62,163.93c0-0.17,0.03-0.33,0.09-0.49s0.15-0.29,0.26-0.4c0.11-0.11,0.24-0.2,0.39-0.27s0.31-0.1,0.49-0.1
		c0.17,0,0.33,0.03,0.49,0.1s0.29,0.16,0.4,0.27s0.2,0.25,0.27,0.4s0.1,0.31,0.1,0.49c0,0.18-0.03,0.34-0.1,0.49
		s-0.16,0.28-0.27,0.39c-0.11,0.11-0.25,0.2-0.4,0.26s-0.31,0.09-0.49,0.09c-0.35,0-0.65-0.12-0.88-0.36
		S173.62,164.28,173.62,163.93z"/>
	<path d="M189.25,153.34c-0.04,0.04-0.09,0.08-0.13,0.11c-0.04,0.03-0.1,0.05-0.17,0.05c-0.09,0-0.21-0.06-0.36-0.18
		s-0.36-0.25-0.62-0.4c-0.26-0.14-0.59-0.28-0.98-0.4c-0.39-0.12-0.87-0.18-1.42-0.18c-0.77,0-1.46,0.14-2.06,0.41
		s-1.1,0.67-1.52,1.18c-0.41,0.51-0.73,1.13-0.94,1.86s-0.32,1.55-0.32,2.46c0,0.94,0.11,1.78,0.33,2.51
		c0.22,0.73,0.53,1.34,0.94,1.84s0.9,0.88,1.47,1.14c0.58,0.26,1.21,0.39,1.92,0.39c0.65,0,1.19-0.08,1.63-0.23
		c0.44-0.15,0.8-0.32,1.08-0.5c0.28-0.18,0.51-0.35,0.67-0.5c0.16-0.15,0.3-0.23,0.4-0.23s0.2,0.04,0.27,0.13l0.34,0.43
		c-0.21,0.27-0.47,0.52-0.78,0.76s-0.67,0.44-1.07,0.61c-0.4,0.17-0.83,0.3-1.29,0.4c-0.46,0.09-0.95,0.14-1.45,0.14
		c-0.85,0-1.63-0.16-2.34-0.47c-0.71-0.31-1.31-0.76-1.82-1.35c-0.51-0.59-0.9-1.31-1.19-2.17s-0.43-1.83-0.43-2.91
		c0-1.03,0.14-1.96,0.4-2.81c0.27-0.85,0.67-1.57,1.19-2.19c0.52-0.61,1.16-1.09,1.91-1.42s1.61-0.51,2.58-0.51
		c0.87,0,1.65,0.14,2.32,0.42c0.67,0.28,1.26,0.66,1.77,1.13L189.25,153.34z"/>
	<path d="M198.26,151.33c0.96,0,1.82,0.16,2.58,0.49c0.76,0.33,1.4,0.79,1.92,1.4s0.92,1.33,1.19,2.18s0.41,1.8,0.41,2.85
		s-0.14,2-0.41,2.85c-0.27,0.85-0.67,1.57-1.19,2.17s-1.16,1.07-1.92,1.39c-0.76,0.32-1.62,0.49-2.58,0.49s-1.82-0.16-2.58-0.49
		c-0.76-0.32-1.4-0.79-1.93-1.39c-0.53-0.6-0.93-1.33-1.2-2.17c-0.27-0.85-0.41-1.79-0.41-2.85s0.14-2,0.41-2.85s0.67-1.58,1.2-2.18
		c0.53-0.6,1.17-1.07,1.93-1.4C196.44,151.5,197.3,151.33,198.26,151.33z M198.26,164.14c0.8,0,1.5-0.14,2.1-0.41
		c0.6-0.27,1.1-0.67,1.5-1.18c0.4-0.51,0.7-1.13,0.9-1.85c0.2-0.72,0.3-1.54,0.3-2.44c0-0.89-0.1-1.7-0.3-2.43
		c-0.2-0.73-0.5-1.35-0.9-1.87c-0.4-0.52-0.9-0.92-1.5-1.19s-1.3-0.42-2.1-0.42c-0.8,0-1.5,0.14-2.1,0.42s-1.1,0.68-1.5,1.19
		c-0.4,0.52-0.7,1.14-0.9,1.87c-0.2,0.73-0.3,1.54-0.3,2.43c0,0.9,0.1,1.71,0.3,2.44c0.2,0.72,0.5,1.34,0.9,1.85
		c0.4,0.51,0.9,0.91,1.5,1.18C196.76,164,197.46,164.14,198.26,164.14z"/>
	<path d="M208,164.97v-13.42h0.72c0.22,0,0.35,0.11,0.39,0.34l0.12,1.94c0.52-0.75,1.12-1.35,1.79-1.81
		c0.67-0.46,1.43-0.69,2.28-0.69c0.98,0,1.77,0.28,2.35,0.85c0.59,0.57,0.99,1.35,1.19,2.36c0.16-0.55,0.39-1.03,0.68-1.43
		s0.63-0.74,1.01-1c0.38-0.27,0.79-0.46,1.23-0.59c0.44-0.13,0.9-0.19,1.37-0.19c0.67,0,1.26,0.11,1.79,0.33
		c0.53,0.22,0.98,0.55,1.35,0.98c0.37,0.43,0.65,0.96,0.85,1.59c0.2,0.63,0.3,1.35,0.3,2.16v8.58h-1.28v-8.58
		c0-1.31-0.28-2.31-0.85-3c-0.57-0.69-1.38-1.03-2.43-1.03c-0.47,0-0.92,0.09-1.34,0.26s-0.8,0.42-1.13,0.76
		c-0.33,0.34-0.59,0.76-0.78,1.26c-0.19,0.5-0.29,1.09-0.29,1.75v8.58h-1.29v-8.58c0-1.3-0.26-2.3-0.78-3
		c-0.52-0.69-1.27-1.04-2.27-1.04c-0.73,0-1.4,0.22-2.02,0.65s-1.17,1.03-1.66,1.79v10.17H208z"/>
	<path d="M229.72,169.72v-18.17h0.72c0.22,0,0.35,0.11,0.39,0.34l0.12,2.08c0.59-0.81,1.29-1.45,2.09-1.93
		c0.8-0.48,1.7-0.72,2.68-0.72c1.65,0,2.93,0.57,3.85,1.71c0.92,1.14,1.38,2.86,1.38,5.14c0,0.98-0.13,1.9-0.38,2.75
		c-0.26,0.85-0.63,1.59-1.13,2.21s-1.11,1.12-1.83,1.48c-0.72,0.36-1.56,0.54-2.5,0.54c-0.91,0-1.7-0.17-2.36-0.5
		s-1.24-0.82-1.73-1.47v6.54H229.72z M235.36,152.36c-0.89,0-1.7,0.23-2.41,0.69c-0.72,0.46-1.36,1.1-1.93,1.92v7.08
		c0.51,0.77,1.08,1.32,1.7,1.63c0.62,0.31,1.34,0.47,2.15,0.47c0.79,0,1.48-0.14,2.08-0.43c0.59-0.29,1.09-0.69,1.49-1.22
		c0.4-0.53,0.7-1.16,0.9-1.89c0.2-0.73,0.3-1.54,0.3-2.42c0-2-0.37-3.46-1.11-4.4S236.74,152.36,235.36,152.36z"/>
	<path d="M252.86,164.97c-0.27,0-0.44-0.13-0.5-0.38l-0.19-1.71c-0.37,0.36-0.74,0.68-1.1,0.97c-0.36,0.29-0.74,0.53-1.14,0.73
		c-0.4,0.2-0.82,0.35-1.28,0.45c-0.46,0.1-0.96,0.16-1.51,0.16c-0.46,0-0.9-0.07-1.34-0.2c-0.43-0.14-0.82-0.34-1.15-0.62
		s-0.61-0.64-0.81-1.07c-0.2-0.44-0.3-0.96-0.3-1.57c0-0.57,0.16-1.09,0.49-1.58c0.32-0.49,0.83-0.91,1.52-1.27s1.58-0.65,2.66-0.86
		c1.08-0.22,2.39-0.34,3.91-0.38v-1.4c0-1.24-0.27-2.2-0.8-2.87c-0.54-0.67-1.33-1-2.38-1c-0.65,0-1.2,0.09-1.65,0.27
		c-0.45,0.18-0.84,0.38-1.15,0.59s-0.57,0.41-0.77,0.59c-0.2,0.18-0.36,0.27-0.5,0.27c-0.1,0-0.18-0.02-0.24-0.07
		c-0.06-0.04-0.12-0.1-0.16-0.18l-0.23-0.39c0.7-0.7,1.44-1.23,2.21-1.59c0.77-0.36,1.65-0.54,2.63-0.54c0.72,0,1.35,0.11,1.89,0.34
		c0.54,0.23,0.99,0.56,1.34,0.98c0.35,0.43,0.62,0.94,0.8,1.55c0.18,0.61,0.27,1.28,0.27,2.03v8.74H252.86z M247.46,164.26
		c0.52,0,1-0.06,1.44-0.17c0.44-0.11,0.84-0.27,1.21-0.47c0.37-0.2,0.72-0.44,1.05-0.72s0.64-0.58,0.96-0.9v-3.49
		c-1.28,0.04-2.38,0.13-3.31,0.29c-0.93,0.16-1.69,0.37-2.29,0.64c-0.6,0.27-1.04,0.59-1.32,0.96c-0.28,0.37-0.43,0.8-0.43,1.27
		c0,0.45,0.07,0.84,0.22,1.17s0.35,0.6,0.59,0.81c0.25,0.21,0.53,0.37,0.86,0.47C246.78,164.21,247.11,164.26,247.46,164.26z"/>
	<path d="M257.66,164.97v-13.42h0.72c0.22,0,0.35,0.11,0.39,0.34l0.12,2.02c0.62-0.78,1.34-1.41,2.15-1.88
		c0.81-0.47,1.72-0.7,2.73-0.7c0.74,0,1.39,0.12,1.95,0.35s1.03,0.57,1.4,1.01c0.37,0.44,0.65,0.97,0.84,1.59
		c0.19,0.62,0.28,1.32,0.28,2.1v8.58h-1.3v-8.58c0-1.26-0.29-2.25-0.86-2.96c-0.58-0.71-1.45-1.07-2.63-1.07
		c-0.88,0-1.7,0.22-2.46,0.67c-0.76,0.45-1.43,1.06-2.02,1.85v10.09H257.66z"/>
	<path d="M275.63,169.29c-0.05,0.13-0.12,0.23-0.21,0.31s-0.21,0.12-0.37,0.12h-0.92l2.36-5.25l-5.68-12.92h1.07
		c0.14,0,0.24,0.03,0.32,0.1c0.08,0.07,0.14,0.14,0.16,0.22l4.52,10.44c0.05,0.13,0.1,0.27,0.14,0.41s0.08,0.28,0.11,0.42
		c0.04-0.14,0.09-0.29,0.14-0.42c0.05-0.14,0.1-0.28,0.16-0.41l4.47-10.44c0.04-0.1,0.11-0.18,0.19-0.24
		c0.08-0.06,0.17-0.09,0.27-0.09h0.98L275.63,169.29z"/>
	<path d="M285.72,163.93c0-0.17,0.03-0.33,0.09-0.49s0.15-0.29,0.26-0.4c0.11-0.11,0.24-0.2,0.39-0.27s0.31-0.1,0.49-0.1
		c0.17,0,0.33,0.03,0.49,0.1s0.29,0.16,0.4,0.27s0.2,0.25,0.27,0.4s0.1,0.31,0.1,0.49c0,0.18-0.03,0.34-0.1,0.49
		s-0.16,0.28-0.27,0.39c-0.11,0.11-0.25,0.2-0.4,0.26s-0.31,0.09-0.49,0.09c-0.35,0-0.65-0.12-0.88-0.36
		S285.72,164.28,285.72,163.93z"/>
	<path d="M301.36,153.34c-0.04,0.04-0.09,0.08-0.13,0.11c-0.04,0.03-0.1,0.05-0.17,0.05c-0.09,0-0.21-0.06-0.36-0.18
		s-0.36-0.25-0.62-0.4c-0.26-0.14-0.59-0.28-0.98-0.4c-0.39-0.12-0.87-0.18-1.42-0.18c-0.77,0-1.46,0.14-2.06,0.41
		s-1.1,0.67-1.52,1.18c-0.41,0.51-0.73,1.13-0.94,1.86s-0.32,1.55-0.32,2.46c0,0.94,0.11,1.78,0.33,2.51
		c0.22,0.73,0.53,1.34,0.94,1.84s0.9,0.88,1.47,1.14c0.58,0.26,1.21,0.39,1.92,0.39c0.65,0,1.19-0.08,1.63-0.23
		c0.44-0.15,0.8-0.32,1.08-0.5c0.28-0.18,0.51-0.35,0.67-0.5c0.16-0.15,0.3-0.23,0.4-0.23s0.2,0.04,0.27,0.13l0.34,0.43
		c-0.21,0.27-0.47,0.52-0.78,0.76s-0.67,0.44-1.07,0.61c-0.4,0.17-0.83,0.3-1.29,0.4c-0.46,0.09-0.95,0.14-1.45,0.14
		c-0.85,0-1.63-0.16-2.34-0.47c-0.71-0.31-1.31-0.76-1.82-1.35c-0.51-0.59-0.9-1.31-1.19-2.17s-0.43-1.83-0.43-2.91
		c0-1.03,0.14-1.96,0.4-2.81c0.27-0.85,0.67-1.57,1.19-2.19c0.52-0.61,1.16-1.09,1.91-1.42s1.61-0.51,2.58-0.51
		c0.87,0,1.65,0.14,2.32,0.42c0.67,0.28,1.26,0.66,1.77,1.13L301.36,153.34z"/>
	<path d="M310.37,151.33c0.96,0,1.82,0.16,2.58,0.49c0.76,0.33,1.4,0.79,1.92,1.4s0.92,1.33,1.19,2.18s0.41,1.8,0.41,2.85
		s-0.14,2-0.41,2.85c-0.27,0.85-0.67,1.57-1.19,2.17s-1.16,1.07-1.92,1.39c-0.76,0.32-1.62,0.49-2.58,0.49s-1.82-0.16-2.58-0.49
		c-0.76-0.32-1.4-0.79-1.93-1.39c-0.53-0.6-0.93-1.33-1.2-2.17c-0.27-0.85-0.41-1.79-0.41-2.85s0.14-2,0.41-2.85s0.67-1.58,1.2-2.18
		c0.53-0.6,1.17-1.07,1.93-1.4C308.55,151.5,309.41,151.33,310.37,151.33z M310.37,164.14c0.8,0,1.5-0.14,2.1-0.41
		c0.6-0.27,1.1-0.67,1.5-1.18c0.4-0.51,0.7-1.13,0.9-1.85c0.2-0.72,0.3-1.54,0.3-2.44c0-0.89-0.1-1.7-0.3-2.43
		c-0.2-0.73-0.5-1.35-0.9-1.87c-0.4-0.52-0.9-0.92-1.5-1.19s-1.3-0.42-2.1-0.42c-0.8,0-1.5,0.14-2.1,0.42s-1.1,0.68-1.5,1.19
		c-0.4,0.52-0.7,1.14-0.9,1.87c-0.2,0.73-0.3,1.54-0.3,2.43c0,0.9,0.1,1.71,0.3,2.44c0.2,0.72,0.5,1.34,0.9,1.85
		c0.4,0.51,0.9,0.91,1.5,1.18C308.87,164,309.57,164.14,310.37,164.14z"/>
	<path d="M320.11,164.97v-13.42h0.72c0.22,0,0.35,0.11,0.39,0.34l0.12,1.94c0.52-0.75,1.12-1.35,1.79-1.81
		c0.67-0.46,1.43-0.69,2.28-0.69c0.98,0,1.77,0.28,2.35,0.85c0.59,0.57,0.99,1.35,1.19,2.36c0.16-0.55,0.39-1.03,0.68-1.43
		s0.63-0.74,1.01-1c0.38-0.27,0.79-0.46,1.23-0.59c0.44-0.13,0.9-0.19,1.37-0.19c0.67,0,1.26,0.11,1.79,0.33
		c0.53,0.22,0.98,0.55,1.35,0.98c0.37,0.43,0.65,0.96,0.85,1.59c0.2,0.63,0.3,1.35,0.3,2.16v8.58h-1.28v-8.58
		c0-1.31-0.28-2.31-0.85-3c-0.57-0.69-1.38-1.03-2.43-1.03c-0.47,0-0.92,0.09-1.34,0.26s-0.8,0.42-1.13,0.76
		c-0.33,0.34-0.59,0.76-0.78,1.26c-0.19,0.5-0.29,1.09-0.29,1.75v8.58h-1.29v-8.58c0-1.3-0.26-2.3-0.78-3
		c-0.52-0.69-1.27-1.04-2.27-1.04c-0.73,0-1.4,0.22-2.02,0.65s-1.17,1.03-1.66,1.79v10.17H320.11z"/>
	<path d="M189.25,218.1c-0.04,0.04-0.09,0.08-0.13,0.11c-0.04,0.03-0.1,0.05-0.17,0.05c-0.09,0-0.21-0.06-0.36-0.18
		s-0.36-0.25-0.62-0.4c-0.26-0.14-0.59-0.28-0.98-0.4c-0.39-0.12-0.87-0.18-1.42-0.18c-0.77,0-1.46,0.14-2.06,0.41
		s-1.1,0.67-1.52,1.18c-0.41,0.51-0.73,1.13-0.94,1.86s-0.32,1.55-0.32,2.46c0,0.95,0.11,1.78,0.33,2.51
		c0.22,0.73,0.53,1.34,0.94,1.84c0.4,0.5,0.9,0.88,1.47,1.14c0.58,0.26,1.21,0.39,1.92,0.39c0.65,0,1.19-0.08,1.63-0.23
		c0.44-0.15,0.8-0.32,1.08-0.5s0.51-0.35,0.67-0.5c0.16-0.15,0.3-0.23,0.4-0.23s0.2,0.04,0.27,0.13l0.34,0.43
		c-0.21,0.27-0.47,0.52-0.78,0.76c-0.31,0.23-0.67,0.44-1.07,0.61c-0.4,0.17-0.83,0.3-1.29,0.4c-0.46,0.09-0.95,0.14-1.45,0.14
		c-0.85,0-1.63-0.16-2.34-0.47c-0.71-0.31-1.31-0.76-1.82-1.35c-0.51-0.59-0.9-1.31-1.19-2.17c-0.28-0.85-0.43-1.83-0.43-2.91
		c0-1.03,0.14-1.96,0.4-2.81c0.27-0.84,0.67-1.57,1.19-2.19c0.52-0.61,1.16-1.09,1.91-1.42c0.75-0.34,1.61-0.51,2.58-0.51
		c0.87,0,1.65,0.14,2.32,0.42c0.67,0.28,1.26,0.66,1.77,1.13L189.25,218.1z"/>
	<path d="M198.26,216.09c0.96,0,1.82,0.16,2.58,0.49c0.76,0.33,1.4,0.79,1.92,1.4c0.52,0.6,0.92,1.33,1.19,2.18
		c0.27,0.85,0.41,1.8,0.41,2.85c0,1.05-0.14,2-0.41,2.85c-0.27,0.85-0.67,1.57-1.19,2.17c-0.52,0.6-1.16,1.06-1.92,1.39
		c-0.76,0.32-1.62,0.49-2.58,0.49s-1.82-0.16-2.58-0.49c-0.76-0.32-1.4-0.79-1.93-1.39c-0.53-0.6-0.93-1.33-1.2-2.17
		c-0.27-0.84-0.41-1.79-0.41-2.85c0-1.05,0.14-2,0.41-2.85c0.27-0.85,0.67-1.58,1.2-2.18c0.53-0.6,1.17-1.07,1.93-1.4
		C196.44,216.25,197.3,216.09,198.26,216.09z M198.26,228.89c0.8,0,1.5-0.14,2.1-0.41c0.6-0.27,1.1-0.67,1.5-1.18
		c0.4-0.51,0.7-1.13,0.9-1.86c0.2-0.72,0.3-1.54,0.3-2.44c0-0.89-0.1-1.7-0.3-2.43c-0.2-0.73-0.5-1.35-0.9-1.87
		c-0.4-0.52-0.9-0.91-1.5-1.19s-1.3-0.42-2.1-0.42c-0.8,0-1.5,0.14-2.1,0.42s-1.1,0.68-1.5,1.19c-0.4,0.52-0.7,1.14-0.9,1.87
		c-0.2,0.73-0.3,1.54-0.3,2.43c0,0.9,0.1,1.71,0.3,2.44c0.2,0.72,0.5,1.34,0.9,1.86c0.4,0.51,0.9,0.91,1.5,1.18
		C196.76,228.75,197.46,228.89,198.26,228.89z"/>
	<path d="M208,229.73V216.3h0.72c0.22,0,0.35,0.11,0.39,0.34l0.12,1.94c0.52-0.75,1.12-1.35,1.79-1.81
		c0.67-0.46,1.43-0.69,2.28-0.69c0.98,0,1.77,0.28,2.35,0.85c0.59,0.57,0.99,1.35,1.19,2.36c0.16-0.55,0.39-1.03,0.68-1.43
		s0.63-0.74,1.01-1c0.38-0.27,0.79-0.46,1.23-0.59c0.44-0.13,0.9-0.19,1.37-0.19c0.67,0,1.26,0.11,1.79,0.33
		c0.53,0.22,0.98,0.55,1.35,0.98c0.37,0.43,0.65,0.96,0.85,1.59c0.2,0.63,0.3,1.35,0.3,2.16v8.58h-1.28v-8.58
		c0-1.31-0.28-2.31-0.85-3c-0.57-0.69-1.38-1.03-2.43-1.03c-0.47,0-0.92,0.08-1.34,0.26s-0.8,0.42-1.13,0.76
		c-0.33,0.34-0.59,0.76-0.78,1.26s-0.29,1.09-0.29,1.75v8.58h-1.29v-8.58c0-1.3-0.26-2.3-0.78-3s-1.27-1.04-2.27-1.04
		c-0.73,0-1.4,0.21-2.02,0.65s-1.17,1.03-1.66,1.79v10.17H208z"/>
	<path d="M229.72,234.48V216.3h0.72c0.22,0,0.35,0.11,0.39,0.34l0.12,2.08c0.59-0.81,1.29-1.45,2.09-1.93
		c0.8-0.48,1.7-0.71,2.68-0.71c1.65,0,2.93,0.57,3.85,1.71s1.38,2.86,1.38,5.14c0,0.98-0.13,1.89-0.38,2.74
		c-0.26,0.85-0.63,1.59-1.13,2.21s-1.11,1.12-1.83,1.48c-0.72,0.36-1.56,0.54-2.5,0.54c-0.91,0-1.7-0.17-2.36-0.5
		c-0.67-0.33-1.24-0.82-1.73-1.47v6.54H229.72z M235.36,217.12c-0.89,0-1.7,0.23-2.41,0.69c-0.72,0.46-1.36,1.1-1.93,1.92v7.08
		c0.51,0.77,1.08,1.32,1.7,1.63c0.62,0.31,1.34,0.47,2.15,0.47c0.79,0,1.48-0.14,2.08-0.43c0.59-0.29,1.09-0.7,1.49-1.22
		c0.4-0.53,0.7-1.16,0.9-1.89s0.3-1.54,0.3-2.42c0-2-0.37-3.46-1.11-4.41S236.74,217.12,235.36,217.12z"/>
	<path d="M252.86,229.73c-0.27,0-0.44-0.13-0.5-0.38l-0.19-1.71c-0.37,0.36-0.74,0.68-1.1,0.97c-0.36,0.29-0.74,0.53-1.14,0.73
		c-0.4,0.2-0.82,0.35-1.28,0.45s-0.96,0.16-1.51,0.16c-0.46,0-0.9-0.07-1.34-0.2s-0.82-0.34-1.15-0.62
		c-0.34-0.28-0.61-0.64-0.81-1.07c-0.2-0.44-0.3-0.96-0.3-1.57c0-0.57,0.16-1.09,0.49-1.58c0.32-0.49,0.83-0.91,1.52-1.27
		s1.58-0.65,2.66-0.86c1.08-0.22,2.39-0.34,3.91-0.38v-1.4c0-1.24-0.27-2.2-0.8-2.87c-0.54-0.67-1.33-1-2.38-1
		c-0.65,0-1.2,0.09-1.65,0.27c-0.45,0.18-0.84,0.38-1.15,0.59c-0.31,0.21-0.57,0.41-0.77,0.59c-0.2,0.18-0.36,0.27-0.5,0.27
		c-0.1,0-0.18-0.02-0.24-0.07c-0.06-0.04-0.12-0.1-0.16-0.17l-0.23-0.39c0.7-0.7,1.44-1.23,2.21-1.59c0.77-0.36,1.65-0.54,2.63-0.54
		c0.72,0,1.35,0.11,1.89,0.34c0.54,0.23,0.99,0.56,1.34,0.98c0.35,0.43,0.62,0.95,0.8,1.55c0.18,0.61,0.27,1.28,0.27,2.03v8.74
		H252.86z M247.46,229.01c0.52,0,1-0.06,1.44-0.17c0.44-0.11,0.84-0.27,1.21-0.47c0.37-0.2,0.72-0.44,1.05-0.72
		c0.32-0.28,0.64-0.58,0.96-0.9v-3.49c-1.28,0.04-2.38,0.13-3.31,0.29c-0.93,0.16-1.69,0.37-2.29,0.64s-1.04,0.59-1.32,0.96
		c-0.28,0.37-0.43,0.8-0.43,1.28c0,0.45,0.07,0.84,0.22,1.17s0.35,0.6,0.59,0.81c0.25,0.21,0.53,0.37,0.86,0.46
		C246.78,228.96,247.11,229.01,247.46,229.01z"/>
	<path d="M257.66,229.73V216.3h0.72c0.22,0,0.35,0.11,0.39,0.34l0.12,2.02c0.62-0.78,1.34-1.41,2.15-1.88
		c0.81-0.47,1.72-0.7,2.73-0.7c0.74,0,1.39,0.12,1.95,0.35c0.56,0.23,1.03,0.57,1.4,1.01c0.37,0.44,0.65,0.97,0.84,1.59
		c0.19,0.62,0.28,1.32,0.28,2.1v8.58h-1.3v-8.58c0-1.26-0.29-2.25-0.86-2.96s-1.45-1.07-2.63-1.07c-0.88,0-1.7,0.22-2.46,0.67
		c-0.76,0.45-1.43,1.06-2.02,1.85v10.09H257.66z"/>
	<path d="M275.63,234.04c-0.05,0.13-0.12,0.23-0.21,0.31c-0.09,0.08-0.21,0.12-0.37,0.12h-0.92l2.36-5.25l-5.68-12.92h1.07
		c0.14,0,0.24,0.03,0.32,0.1c0.08,0.07,0.14,0.14,0.16,0.22l4.52,10.44c0.05,0.13,0.1,0.27,0.14,0.41s0.08,0.28,0.11,0.42
		c0.04-0.14,0.09-0.29,0.14-0.42c0.05-0.14,0.1-0.28,0.16-0.41l4.47-10.44c0.04-0.1,0.11-0.18,0.19-0.24
		c0.08-0.06,0.17-0.09,0.27-0.09h0.98L275.63,234.04z"/>
	<path d="M285.72,228.69c0-0.17,0.03-0.33,0.09-0.49s0.15-0.29,0.26-0.4c0.11-0.11,0.24-0.2,0.39-0.27s0.31-0.1,0.49-0.1
		c0.17,0,0.33,0.03,0.49,0.1s0.29,0.16,0.4,0.27c0.11,0.11,0.2,0.24,0.27,0.4s0.1,0.32,0.1,0.49c0,0.18-0.03,0.34-0.1,0.49
		s-0.16,0.28-0.27,0.39s-0.25,0.2-0.4,0.26c-0.15,0.06-0.31,0.09-0.49,0.09c-0.35,0-0.65-0.12-0.88-0.36
		S285.72,229.04,285.72,228.69z"/>
	<path d="M301.36,218.1c-0.04,0.04-0.09,0.08-0.13,0.11c-0.04,0.03-0.1,0.05-0.17,0.05c-0.09,0-0.21-0.06-0.36-0.18
		s-0.36-0.25-0.62-0.4c-0.26-0.14-0.59-0.28-0.98-0.4c-0.39-0.12-0.87-0.18-1.42-0.18c-0.77,0-1.46,0.14-2.06,0.41
		s-1.1,0.67-1.52,1.18c-0.41,0.51-0.73,1.13-0.94,1.86s-0.32,1.55-0.32,2.46c0,0.95,0.11,1.78,0.33,2.51
		c0.22,0.73,0.53,1.34,0.94,1.84c0.4,0.5,0.9,0.88,1.47,1.14c0.58,0.26,1.21,0.39,1.92,0.39c0.65,0,1.19-0.08,1.63-0.23
		c0.44-0.15,0.8-0.32,1.08-0.5s0.51-0.35,0.67-0.5c0.16-0.15,0.3-0.23,0.4-0.23s0.2,0.04,0.27,0.13l0.34,0.43
		c-0.21,0.27-0.47,0.52-0.78,0.76c-0.31,0.23-0.67,0.44-1.07,0.61c-0.4,0.17-0.83,0.3-1.29,0.4c-0.46,0.09-0.95,0.14-1.45,0.14
		c-0.85,0-1.63-0.16-2.34-0.47c-0.71-0.31-1.31-0.76-1.82-1.35c-0.51-0.59-0.9-1.31-1.19-2.17c-0.28-0.85-0.43-1.83-0.43-2.91
		c0-1.03,0.14-1.96,0.4-2.81c0.27-0.84,0.67-1.57,1.19-2.19c0.52-0.61,1.16-1.09,1.91-1.42c0.75-0.34,1.61-0.51,2.58-0.51
		c0.87,0,1.65,0.14,2.32,0.42c0.67,0.28,1.26,0.66,1.77,1.13L301.36,218.1z"/>
	<path d="M310.37,216.09c0.96,0,1.82,0.16,2.58,0.49c0.76,0.33,1.4,0.79,1.92,1.4c0.52,0.6,0.92,1.33,1.19,2.18
		c0.27,0.85,0.41,1.8,0.41,2.85c0,1.05-0.14,2-0.41,2.85c-0.27,0.85-0.67,1.57-1.19,2.17c-0.52,0.6-1.16,1.06-1.92,1.39
		c-0.76,0.32-1.62,0.49-2.58,0.49s-1.82-0.16-2.58-0.49c-0.76-0.32-1.4-0.79-1.93-1.39c-0.53-0.6-0.93-1.33-1.2-2.17
		c-0.27-0.84-0.41-1.79-0.41-2.85c0-1.05,0.14-2,0.41-2.85c0.27-0.85,0.67-1.58,1.2-2.18c0.53-0.6,1.17-1.07,1.93-1.4
		C308.55,216.25,309.41,216.09,310.37,216.09z M310.37,228.89c0.8,0,1.5-0.14,2.1-0.41c0.6-0.27,1.1-0.67,1.5-1.18
		c0.4-0.51,0.7-1.13,0.9-1.86c0.2-0.72,0.3-1.54,0.3-2.44c0-0.89-0.1-1.7-0.3-2.43c-0.2-0.73-0.5-1.35-0.9-1.87
		c-0.4-0.52-0.9-0.91-1.5-1.19s-1.3-0.42-2.1-0.42c-0.8,0-1.5,0.14-2.1,0.42s-1.1,0.68-1.5,1.19c-0.4,0.52-0.7,1.14-0.9,1.87
		c-0.2,0.73-0.3,1.54-0.3,2.43c0,0.9,0.1,1.71,0.3,2.44c0.2,0.72,0.5,1.34,0.9,1.86c0.4,0.51,0.9,0.91,1.5,1.18
		C308.87,228.75,309.57,228.89,310.37,228.89z"/>
	<path d="M320.11,229.73V216.3h0.72c0.22,0,0.35,0.11,0.39,0.34l0.12,1.94c0.52-0.75,1.12-1.35,1.79-1.81
		c0.67-0.46,1.43-0.69,2.28-0.69c0.98,0,1.77,0.28,2.35,0.85c0.59,0.57,0.99,1.35,1.19,2.36c0.16-0.55,0.39-1.03,0.68-1.43
		s0.63-0.74,1.01-1c0.38-0.27,0.79-0.46,1.23-0.59c0.44-0.13,0.9-0.19,1.37-0.19c0.67,0,1.26,0.11,1.79,0.33
		c0.53,0.22,0.98,0.55,1.35,0.98c0.37,0.43,0.65,0.96,0.85,1.59c0.2,0.63,0.3,1.35,0.3,2.16v8.58h-1.28v-8.58
		c0-1.31-0.28-2.31-0.85-3c-0.57-0.69-1.38-1.03-2.43-1.03c-0.47,0-0.92,0.08-1.34,0.26s-0.8,0.42-1.13,0.76
		c-0.33,0.34-0.59,0.76-0.78,1.26s-0.29,1.09-0.29,1.75v8.58h-1.29v-8.58c0-1.3-0.26-2.3-0.78-3s-1.27-1.04-2.27-1.04
		c-0.73,0-1.4,0.21-2.02,0.65s-1.17,1.03-1.66,1.79v10.17H320.11z"/>
	<path d="M211.08,282.86c-0.04,0.04-0.09,0.08-0.13,0.12s-0.1,0.05-0.17,0.05c-0.09,0-0.21-0.06-0.36-0.18
		c-0.15-0.12-0.36-0.25-0.62-0.4c-0.26-0.14-0.59-0.28-0.98-0.4c-0.39-0.12-0.87-0.18-1.42-0.18c-0.77,0-1.46,0.14-2.06,0.41
		c-0.6,0.27-1.1,0.67-1.52,1.18c-0.41,0.51-0.73,1.13-0.94,1.86s-0.32,1.55-0.32,2.46c0,0.94,0.11,1.78,0.33,2.51
		c0.22,0.73,0.53,1.34,0.94,1.84s0.9,0.88,1.47,1.14c0.58,0.26,1.21,0.39,1.92,0.39c0.65,0,1.19-0.08,1.63-0.23
		c0.44-0.15,0.8-0.32,1.08-0.5s0.51-0.35,0.67-0.5c0.16-0.15,0.3-0.23,0.4-0.23s0.2,0.04,0.27,0.13l0.34,0.43
		c-0.21,0.27-0.47,0.52-0.78,0.76s-0.67,0.44-1.07,0.61c-0.4,0.17-0.83,0.3-1.29,0.4c-0.46,0.09-0.95,0.14-1.45,0.14
		c-0.85,0-1.63-0.16-2.34-0.46c-0.71-0.31-1.31-0.76-1.82-1.35c-0.51-0.59-0.9-1.31-1.19-2.17s-0.43-1.83-0.43-2.91
		c0-1.03,0.14-1.96,0.4-2.81c0.27-0.85,0.67-1.57,1.19-2.19c0.52-0.61,1.16-1.09,1.91-1.42s1.61-0.51,2.58-0.51
		c0.87,0,1.65,0.14,2.32,0.42c0.67,0.28,1.26,0.66,1.77,1.13L211.08,282.86z"/>
	<path d="M220.09,280.85c0.96,0,1.82,0.16,2.58,0.49c0.76,0.33,1.4,0.79,1.92,1.4s0.92,1.33,1.19,2.18s0.41,1.8,0.41,2.85
		s-0.14,2-0.41,2.85s-0.67,1.57-1.19,2.17s-1.16,1.07-1.92,1.39c-0.76,0.32-1.62,0.49-2.58,0.49s-1.82-0.16-2.58-0.49
		c-0.76-0.32-1.4-0.79-1.93-1.39c-0.53-0.6-0.93-1.33-1.2-2.17s-0.41-1.79-0.41-2.85s0.14-2,0.41-2.85s0.67-1.58,1.2-2.18
		c0.53-0.6,1.17-1.07,1.93-1.4C218.27,281.01,219.13,280.85,220.09,280.85z M220.09,293.65c0.8,0,1.5-0.14,2.1-0.41
		c0.6-0.27,1.1-0.67,1.5-1.18c0.4-0.51,0.7-1.13,0.9-1.86c0.2-0.72,0.3-1.54,0.3-2.43c0-0.89-0.1-1.7-0.3-2.43
		c-0.2-0.73-0.5-1.35-0.9-1.87c-0.4-0.52-0.9-0.92-1.5-1.19c-0.6-0.28-1.3-0.42-2.1-0.42c-0.8,0-1.5,0.14-2.1,0.42
		c-0.6,0.28-1.1,0.68-1.5,1.19c-0.4,0.52-0.7,1.14-0.9,1.87c-0.2,0.73-0.3,1.54-0.3,2.43c0,0.9,0.1,1.71,0.3,2.43
		c0.2,0.72,0.5,1.34,0.9,1.86c0.4,0.51,0.9,0.91,1.5,1.18C218.59,293.51,219.29,293.65,220.09,293.65z"/>
	<path d="M229.83,294.48v-13.42h0.72c0.22,0,0.35,0.11,0.39,0.34l0.12,1.94c0.52-0.75,1.12-1.35,1.79-1.81
		c0.67-0.46,1.43-0.69,2.28-0.69c0.98,0,1.77,0.28,2.35,0.85c0.59,0.57,0.99,1.35,1.19,2.36c0.16-0.55,0.39-1.03,0.68-1.43
		c0.29-0.41,0.63-0.74,1.01-1.01c0.38-0.27,0.79-0.46,1.23-0.59c0.44-0.13,0.9-0.19,1.37-0.19c0.67,0,1.26,0.11,1.79,0.33
		c0.53,0.22,0.98,0.55,1.35,0.98c0.37,0.43,0.65,0.96,0.85,1.59c0.2,0.63,0.3,1.35,0.3,2.16v8.58h-1.28v-8.58
		c0-1.31-0.28-2.31-0.85-3c-0.57-0.69-1.38-1.03-2.43-1.03c-0.47,0-0.92,0.09-1.34,0.26c-0.43,0.17-0.8,0.43-1.13,0.76
		c-0.33,0.34-0.59,0.76-0.78,1.26c-0.19,0.5-0.29,1.09-0.29,1.75v8.58h-1.29v-8.58c0-1.3-0.26-2.3-0.78-2.99
		c-0.52-0.69-1.27-1.04-2.27-1.04c-0.73,0-1.4,0.22-2.02,0.65s-1.17,1.03-1.66,1.79v10.17H229.83z"/>
	<path d="M251.55,299.23v-18.17h0.72c0.22,0,0.35,0.11,0.39,0.34l0.12,2.08c0.59-0.81,1.29-1.45,2.09-1.93
		c0.8-0.48,1.7-0.71,2.68-0.71c1.65,0,2.93,0.57,3.85,1.71c0.92,1.14,1.38,2.86,1.38,5.14c0,0.98-0.13,1.9-0.38,2.75
		c-0.26,0.85-0.63,1.59-1.13,2.21s-1.11,1.12-1.83,1.48c-0.72,0.36-1.56,0.54-2.5,0.54c-0.91,0-1.7-0.17-2.36-0.5
		s-1.24-0.82-1.73-1.47v6.54H251.55z M257.19,281.87c-0.89,0-1.7,0.23-2.41,0.69c-0.72,0.46-1.36,1.1-1.93,1.92v7.08
		c0.51,0.77,1.08,1.32,1.7,1.63c0.62,0.31,1.34,0.46,2.15,0.46c0.79,0,1.48-0.14,2.08-0.43c0.59-0.29,1.09-0.7,1.49-1.22
		c0.4-0.53,0.7-1.16,0.9-1.89c0.2-0.73,0.3-1.54,0.3-2.42c0-2-0.37-3.46-1.11-4.4C259.62,282.34,258.57,281.87,257.19,281.87z"/>
	<path d="M274.69,294.48c-0.27,0-0.44-0.12-0.5-0.38l-0.19-1.71c-0.37,0.36-0.74,0.68-1.1,0.97c-0.36,0.29-0.74,0.53-1.14,0.73
		c-0.4,0.2-0.82,0.35-1.28,0.45c-0.46,0.1-0.96,0.16-1.51,0.16c-0.46,0-0.9-0.07-1.34-0.2s-0.82-0.34-1.15-0.62
		s-0.61-0.64-0.81-1.07c-0.2-0.44-0.3-0.96-0.3-1.57c0-0.57,0.16-1.09,0.49-1.58s0.83-0.91,1.52-1.27c0.69-0.36,1.58-0.65,2.66-0.86
		c1.08-0.22,2.39-0.34,3.91-0.38v-1.4c0-1.24-0.27-2.2-0.8-2.87c-0.54-0.67-1.33-1-2.38-1c-0.65,0-1.2,0.09-1.65,0.27
		c-0.45,0.18-0.84,0.38-1.15,0.59s-0.57,0.41-0.77,0.59s-0.36,0.27-0.5,0.27c-0.1,0-0.18-0.02-0.24-0.07
		c-0.06-0.04-0.12-0.1-0.16-0.17l-0.23-0.39c0.7-0.7,1.44-1.23,2.21-1.59c0.77-0.36,1.65-0.54,2.63-0.54c0.72,0,1.35,0.12,1.89,0.34
		c0.54,0.23,0.99,0.56,1.34,0.99c0.35,0.43,0.62,0.94,0.8,1.55c0.18,0.61,0.27,1.28,0.27,2.03v8.74H274.69z M269.29,293.77
		c0.52,0,1-0.06,1.44-0.17c0.44-0.11,0.84-0.27,1.21-0.47c0.37-0.2,0.72-0.44,1.05-0.72s0.64-0.58,0.96-0.9v-3.49
		c-1.28,0.04-2.38,0.13-3.31,0.29c-0.93,0.16-1.69,0.37-2.29,0.64c-0.6,0.27-1.04,0.59-1.32,0.96c-0.28,0.37-0.43,0.8-0.43,1.28
		c0,0.45,0.07,0.84,0.22,1.17s0.35,0.6,0.59,0.81c0.25,0.21,0.53,0.37,0.86,0.46C268.6,293.72,268.94,293.77,269.29,293.77z"/>
	<path d="M279.49,294.48v-13.42h0.72c0.22,0,0.35,0.11,0.39,0.34l0.12,2.02c0.62-0.78,1.34-1.41,2.15-1.88
		c0.81-0.47,1.72-0.7,2.73-0.7c0.74,0,1.39,0.12,1.95,0.35s1.03,0.57,1.4,1.01c0.37,0.44,0.65,0.97,0.84,1.59
		c0.19,0.62,0.28,1.32,0.28,2.1v8.58h-1.3v-8.58c0-1.26-0.29-2.25-0.86-2.96s-1.45-1.07-2.63-1.07c-0.88,0-1.7,0.22-2.46,0.67
		s-1.43,1.06-2.02,1.85v10.09H279.49z"/>
	<path d="M297.46,298.8c-0.05,0.13-0.12,0.23-0.21,0.31s-0.21,0.12-0.37,0.12h-0.92l2.36-5.25l-5.68-12.92h1.07
		c0.14,0,0.24,0.03,0.32,0.1c0.08,0.07,0.14,0.14,0.16,0.22l4.52,10.44c0.05,0.13,0.1,0.27,0.14,0.41c0.04,0.14,0.08,0.28,0.11,0.43
		c0.04-0.14,0.09-0.29,0.14-0.43c0.05-0.14,0.1-0.28,0.16-0.41l4.47-10.44c0.04-0.1,0.11-0.18,0.19-0.24
		c0.08-0.06,0.17-0.09,0.27-0.09h0.98L297.46,298.8z"/>
	<path d="M307.55,293.45c0-0.17,0.03-0.33,0.09-0.49c0.06-0.15,0.15-0.29,0.26-0.4c0.11-0.11,0.24-0.2,0.39-0.27
		c0.15-0.07,0.31-0.1,0.49-0.1c0.17,0,0.33,0.03,0.49,0.1c0.15,0.07,0.29,0.16,0.4,0.27s0.2,0.25,0.27,0.4
		c0.07,0.15,0.1,0.31,0.1,0.49c0,0.18-0.03,0.34-0.1,0.49s-0.16,0.28-0.27,0.39c-0.11,0.11-0.25,0.2-0.4,0.26s-0.31,0.09-0.49,0.09
		c-0.35,0-0.65-0.12-0.88-0.36S307.55,293.8,307.55,293.45z"/>
	<path d="M315.31,281.06v8.58c0,1.26,0.29,2.25,0.86,2.96c0.58,0.71,1.45,1.07,2.63,1.07c0.87,0,1.69-0.22,2.44-0.67
		c0.76-0.45,1.43-1.06,2.04-1.86v-10.09h1.29v13.42h-0.71c-0.23,0-0.36-0.12-0.39-0.35l-0.12-2c-0.62,0.77-1.34,1.39-2.15,1.86
		s-1.72,0.7-2.72,0.7c-0.75,0-1.4-0.12-1.96-0.35c-0.56-0.23-1.02-0.57-1.39-1.01c-0.37-0.44-0.65-0.97-0.84-1.59
		c-0.19-0.62-0.28-1.32-0.28-2.1v-8.58H315.31z"/>
	<path d="M330.28,274.86v11.97h0.62c0.13,0,0.24-0.02,0.36-0.05c0.11-0.04,0.24-0.12,0.37-0.26l5.38-5.11
		c0.09-0.11,0.19-0.19,0.3-0.25c0.11-0.06,0.24-0.09,0.4-0.09h1.13l-5.92,5.63c-0.16,0.19-0.34,0.34-0.53,0.45
		c0.14,0.07,0.27,0.15,0.37,0.25s0.2,0.2,0.3,0.33l6.22,6.77h-1.12c-0.13,0-0.24-0.02-0.34-0.06c-0.1-0.04-0.2-0.12-0.29-0.25
		l-5.64-6.04c-0.07-0.08-0.14-0.15-0.21-0.2c-0.07-0.05-0.14-0.1-0.21-0.13c-0.07-0.03-0.16-0.05-0.25-0.07
		c-0.09-0.01-0.21-0.02-0.34-0.02h-0.61v6.77h-1.3v-19.63H330.28z"/>
</g>
<line class="st1" x1="363" y1="158.5" x2="426" y2="158.5"/>
<line class="st1" x1="363" y1="223.5" x2="426" y2="223.5"/>
<path class="st1" d="M363.5,288.5h15c0,0,16,1,16-11s0-40,0-40s-2.92-14,14.04-14"/>
<polyline class="st1" points="415.5,147.5 425.5,158.5 415.5,169.5 "/>
<polyline class="st1" points="415.5,212.5 425.5,223.5 415.5,234.5 "/>
</svg>
