<?xml version="1.0" encoding="utf-8"?>
<!-- Generator: Adobe Illustrator 23.0.3, SVG Export Plug-In . SVG Version: 6.00 Build 0)  -->
<svg version="1.1" id="Layer_1" xmlns="http://www.w3.org/2000/svg" xmlns:xlink="http://www.w3.org/1999/xlink" x="0px" y="0px"
	 viewBox="0 0 998 386" style="enable-background:new 0 0 998 386;" xml:space="preserve">
<style type="text/css">
	.st0{fill:none;stroke:#848484;stroke-miterlimit:10;}
	.st1{fill:#848484;}
</style>
<path class="st0" d="M751.5,342.5h-287c-8.3,0-15-6.7-15-15v-212c0-8.3,6.7-15,15-15h287c8.3,0,15,6.7,15,15v212
	C766.5,335.8,759.8,342.5,751.5,342.5z"/>
<g>
	<path class="st1" d="M474.3,151.6v8.6c0,1.3,0.3,2.2,0.9,3c0.6,0.7,1.5,1.1,2.6,1.1c0.9,0,1.7-0.2,2.4-0.7c0.8-0.4,1.4-1.1,2-1.9
		v-10.1h1.3V165h-0.7c-0.2,0-0.4-0.1-0.4-0.4l-0.1-2c-0.6,0.8-1.3,1.4-2.1,1.9s-1.7,0.7-2.7,0.7c-0.8,0-1.4-0.1-2-0.4
		c-0.6-0.2-1-0.6-1.4-1c-0.4-0.4-0.6-1-0.8-1.6s-0.3-1.3-0.3-2.1v-8.6H474.3z"/>
	<path class="st1" d="M495.4,153.2c-0.1,0.1-0.2,0.2-0.3,0.2c-0.1,0-0.2-0.1-0.4-0.2s-0.4-0.2-0.6-0.4c-0.3-0.1-0.6-0.3-1-0.4
		s-0.8-0.2-1.4-0.2c-0.5,0-0.9,0.1-1.3,0.2s-0.7,0.3-1,0.6s-0.5,0.5-0.6,0.8c-0.1,0.3-0.2,0.6-0.2,1c0,0.4,0.1,0.8,0.3,1.1
		s0.5,0.5,0.8,0.7s0.7,0.4,1.2,0.5s0.9,0.3,1.4,0.4s0.9,0.3,1.4,0.5s0.9,0.4,1.2,0.6s0.6,0.6,0.8,1c0.2,0.4,0.3,0.8,0.3,1.4
		c0,0.6-0.1,1.1-0.3,1.6s-0.5,0.9-0.9,1.3s-0.9,0.7-1.5,0.9s-1.2,0.3-2,0.3c-0.9,0-1.8-0.1-2.4-0.4s-1.3-0.7-1.8-1.2l0.3-0.5
		c0-0.1,0.1-0.1,0.2-0.2c0.1,0,0.1-0.1,0.2-0.1c0.1,0,0.3,0.1,0.4,0.2c0.2,0.1,0.4,0.3,0.7,0.5s0.6,0.3,1,0.5
		c0.4,0.1,0.9,0.2,1.5,0.2c0.6,0,1.1-0.1,1.5-0.2s0.8-0.4,1.1-0.6c0.3-0.3,0.5-0.6,0.6-0.9s0.2-0.8,0.2-1.1c0-0.4-0.1-0.8-0.3-1.1
		s-0.5-0.6-0.9-0.8c-0.4-0.2-0.8-0.4-1.2-0.5c-0.5-0.1-0.9-0.3-1.4-0.4s-0.9-0.3-1.4-0.5c-0.4-0.2-0.8-0.4-1.2-0.6s-0.6-0.6-0.9-0.9
		s-0.3-0.8-0.3-1.4c0-0.5,0.1-0.9,0.3-1.4s0.5-0.8,0.9-1.2s0.9-0.6,1.4-0.8s1.2-0.3,1.9-0.3c0.8,0,1.5,0.1,2.2,0.4
		c0.6,0.2,1.2,0.6,1.7,1.1L495.4,153.2z"/>
	<path class="st1" d="M504.7,151.3c0.8,0,1.5,0.1,2.1,0.4c0.6,0.3,1.2,0.6,1.7,1.1s0.9,1.1,1.1,1.8c0.3,0.7,0.4,1.6,0.4,2.5
		c0,0.2,0,0.3-0.1,0.4c0,0.1-0.1,0.1-0.3,0.1h-9.8v0.3c0,1,0.1,1.9,0.4,2.7c0.2,0.8,0.6,1.4,1,1.9c0.4,0.5,1,0.9,1.6,1.2
		s1.3,0.4,2,0.4c0.7,0,1.3-0.1,1.8-0.2s0.9-0.3,1.2-0.5c0.3-0.2,0.6-0.4,0.8-0.5c0.2-0.1,0.3-0.2,0.4-0.2c0.1,0,0.2,0,0.3,0.1
		l0.4,0.4c-0.2,0.3-0.5,0.5-0.9,0.8s-0.8,0.4-1.2,0.6c-0.4,0.2-0.9,0.3-1.4,0.4c-0.5,0.1-1,0.1-1.5,0.1c-0.9,0-1.8-0.2-2.5-0.5
		c-0.8-0.3-1.4-0.8-1.9-1.4s-1-1.4-1.2-2.2s-0.4-1.9-0.4-3c0-1,0.1-1.9,0.4-2.7s0.7-1.5,1.2-2.1c0.5-0.6,1.1-1.1,1.9-1.4
		C502.9,151.5,503.8,151.3,504.7,151.3z M504.7,152.3c-0.7,0-1.3,0.1-1.9,0.3c-0.5,0.2-1,0.5-1.4,0.9c-0.4,0.4-0.7,0.9-1,1.5
		s-0.4,1.2-0.5,1.9h8.9c0-0.7-0.1-1.4-0.3-1.9c-0.2-0.6-0.5-1.1-0.9-1.4s-0.8-0.7-1.3-0.9C505.9,152.4,505.4,152.3,504.7,152.3z"/>
	<path class="st1" d="M513.5,165v-13.4h0.7c0.2,0,0.3,0,0.3,0.1s0.1,0.2,0.1,0.3l0.1,2.8c0.2-0.6,0.4-1,0.7-1.5
		c0.3-0.4,0.6-0.8,0.9-1.1s0.7-0.5,1.2-0.7s0.9-0.2,1.4-0.2c0.3,0,0.5,0,0.8,0.1s0.5,0.1,0.7,0.3l-0.1,0.9c0,0.1-0.1,0.2-0.3,0.2
		c-0.1,0-0.3,0-0.5-0.1s-0.5-0.1-0.9-0.1c-0.5,0-1,0.1-1.4,0.2s-0.8,0.4-1.1,0.7c-0.3,0.3-0.6,0.7-0.8,1.2s-0.5,1-0.7,1.6v8.7
		L513.5,165L513.5,165z"/>
	<path class="st1" d="M530.5,153.2c-0.1,0.1-0.2,0.2-0.3,0.2c-0.1,0-0.2-0.1-0.4-0.2s-0.4-0.2-0.6-0.4c-0.3-0.1-0.6-0.3-1-0.4
		s-0.8-0.2-1.4-0.2c-0.5,0-0.9,0.1-1.3,0.2s-0.7,0.3-1,0.6s-0.5,0.5-0.7,0.8c-0.2,0.3-0.2,0.6-0.2,1c0,0.4,0.1,0.8,0.3,1.1
		s0.5,0.5,0.8,0.7s0.7,0.4,1.2,0.5s0.9,0.3,1.4,0.4s0.9,0.3,1.4,0.5s0.8,0.4,1.2,0.6c0.3,0.3,0.6,0.6,0.8,1s0.3,0.8,0.3,1.4
		c0,0.6-0.1,1.1-0.3,1.6s-0.5,0.9-0.9,1.3c-0.4,0.4-0.9,0.7-1.5,0.9s-1.2,0.3-2,0.3c-0.9,0-1.8-0.1-2.4-0.4s-1.3-0.7-1.8-1.2
		l0.3-0.5c0-0.1,0.1-0.1,0.2-0.2c0.1,0,0.1-0.1,0.2-0.1c0.1,0,0.3,0.1,0.4,0.2c0.2,0.1,0.4,0.3,0.7,0.5s0.6,0.3,1,0.5
		c0.4,0.1,0.9,0.2,1.5,0.2c0.6,0,1.1-0.1,1.5-0.2s0.8-0.4,1.1-0.6c0.3-0.3,0.5-0.6,0.7-0.9s0.2-0.8,0.2-1.1c0-0.4-0.1-0.8-0.3-1.1
		s-0.5-0.6-0.8-0.8c-0.3-0.2-0.8-0.4-1.2-0.5c-0.5-0.1-0.9-0.3-1.4-0.4s-0.9-0.3-1.4-0.5c-0.4-0.2-0.8-0.4-1.2-0.6s-0.6-0.6-0.8-0.9
		s-0.3-0.8-0.3-1.4c0-0.5,0.1-0.9,0.3-1.4s0.5-0.8,0.9-1.2s0.8-0.6,1.4-0.8c0.5-0.2,1.2-0.3,1.8-0.3c0.8,0,1.5,0.1,2.2,0.4
		c0.6,0.2,1.2,0.6,1.7,1.1L530.5,153.2z"/>
	<path class="st1" d="M543.7,167.7v0.9h-10.6v-0.9H543.7z"/>
	<path class="st1" d="M546.7,165v-19.6h1.3v8.5c0.6-0.8,1.3-1.4,2-1.9s1.7-0.7,2.7-0.7c0.8,0,1.5,0.1,2.2,0.4
		c0.6,0.3,1.2,0.7,1.6,1.3c0.5,0.6,0.8,1.2,1,2.1c0.2,0.8,0.3,1.7,0.3,2.8c0,1.1-0.1,2.1-0.4,3s-0.6,1.7-1.1,2.3
		c-0.5,0.6-1.1,1.1-1.8,1.5c-0.7,0.4-1.5,0.5-2.5,0.5c-1,0-1.8-0.2-2.4-0.6c-0.7-0.4-1.2-0.9-1.7-1.6l-0.1,1.6
		c0,0.2-0.2,0.3-0.4,0.3L546.7,165L546.7,165z M552.4,152.4c-1,0-1.8,0.2-2.5,0.7s-1.3,1.1-1.9,1.9v7.1c0.5,0.8,1.1,1.3,1.7,1.6
		s1.3,0.5,2.1,0.5c0.8,0,1.5-0.1,2.1-0.4s1.1-0.7,1.5-1.2s0.7-1.2,0.9-1.9s0.3-1.6,0.3-2.6c0-1.9-0.4-3.2-1.1-4.2
		C554.8,152.8,553.8,152.4,552.4,152.4z"/>
	<path class="st1" d="M569.8,165c-0.3,0-0.4-0.1-0.5-0.4l-0.2-1.7c-0.4,0.4-0.7,0.7-1.1,1c-0.4,0.3-0.7,0.5-1.1,0.7
		s-0.8,0.4-1.3,0.4c-0.5,0.1-1,0.2-1.5,0.2c-0.5,0-0.9-0.1-1.3-0.2c-0.4-0.1-0.8-0.3-1.2-0.6c-0.3-0.3-0.6-0.6-0.8-1.1
		c-0.2-0.4-0.3-1-0.3-1.6c0-0.6,0.2-1.1,0.5-1.6c0.3-0.5,0.8-0.9,1.5-1.3s1.6-0.6,2.7-0.9s2.4-0.3,3.9-0.4v-1.4
		c0-1.2-0.3-2.2-0.8-2.9s-1.3-1-2.4-1c-0.7,0-1.2,0.1-1.7,0.3c-0.5,0.2-0.8,0.4-1.2,0.6s-0.6,0.4-0.8,0.6s-0.4,0.3-0.5,0.3
		c-0.1,0-0.2,0-0.2-0.1c-0.1,0-0.1-0.1-0.2-0.2l-0.2-0.4c0.7-0.7,1.4-1.2,2.2-1.6s1.7-0.5,2.6-0.5c0.7,0,1.3,0.1,1.9,0.3
		c0.5,0.2,1,0.6,1.3,1s0.6,0.9,0.8,1.6s0.3,1.3,0.3,2v8.7L569.8,165L569.8,165z M564.4,164.3c0.5,0,1-0.1,1.4-0.2s0.8-0.3,1.2-0.5
		s0.7-0.4,1-0.7s0.6-0.6,1-0.9v-3.5c-1.3,0-2.4,0.1-3.3,0.3c-0.9,0.2-1.7,0.4-2.3,0.6s-1,0.6-1.3,1s-0.4,0.8-0.4,1.3
		c0,0.4,0.1,0.8,0.2,1.2s0.3,0.6,0.6,0.8c0.2,0.2,0.5,0.4,0.9,0.5S564.1,164.3,564.4,164.3z"/>
	<path class="st1" d="M583.7,153.3c0,0-0.1,0.1-0.1,0.1s-0.1,0.1-0.2,0.1c-0.1,0-0.2-0.1-0.4-0.2s-0.4-0.2-0.6-0.4
		c-0.3-0.1-0.6-0.3-1-0.4s-0.9-0.2-1.4-0.2c-0.8,0-1.5,0.1-2.1,0.4s-1.1,0.7-1.5,1.2c-0.4,0.5-0.7,1.1-0.9,1.9s-0.3,1.6-0.3,2.5
		c0,0.9,0.1,1.8,0.3,2.5s0.5,1.3,0.9,1.8s0.9,0.9,1.5,1.1c0.6,0.3,1.2,0.4,1.9,0.4c0.7,0,1.2-0.1,1.6-0.2s0.8-0.3,1.1-0.5
		s0.5-0.4,0.7-0.5s0.3-0.2,0.4-0.2s0.2,0,0.3,0.1l0.3,0.4c-0.2,0.3-0.5,0.5-0.8,0.8c-0.3,0.2-0.7,0.4-1.1,0.6s-0.8,0.3-1.3,0.4
		s-1,0.1-1.5,0.1c-0.8,0-1.6-0.2-2.3-0.5s-1.3-0.8-1.8-1.4c-0.5-0.6-0.9-1.3-1.2-2.2s-0.4-1.8-0.4-2.9c0-1,0.1-2,0.4-2.8
		c0.3-0.9,0.7-1.6,1.2-2.2s1.2-1.1,1.9-1.4s1.6-0.5,2.6-0.5c0.9,0,1.7,0.1,2.3,0.4c0.7,0.3,1.3,0.7,1.8,1.1L583.7,153.3z"/>
	<path class="st1" d="M588.7,145.3v12h0.6c0.1,0,0.2,0,0.4-0.1c0.1,0,0.2-0.1,0.4-0.3l5.4-5.1c0.1-0.1,0.2-0.2,0.3-0.2
		s0.2-0.1,0.4-0.1h1.1l-5.9,5.6c-0.2,0.2-0.3,0.3-0.5,0.4c0.1,0.1,0.3,0.2,0.4,0.2s0.2,0.2,0.3,0.3l6.2,6.8h-1.1
		c-0.1,0-0.2,0-0.3-0.1s-0.2-0.1-0.3-0.2l-5.6-6c-0.1-0.1-0.1-0.1-0.2-0.2s-0.1-0.1-0.2-0.1s-0.2-0.1-0.2-0.1c-0.1,0-0.2,0-0.3,0
		h-0.6v6.8h-1.3v-19.6L588.7,145.3L588.7,145.3z"/>
	<path class="st1" d="M605.5,151.3c0.8,0,1.5,0.1,2.1,0.4c0.7,0.3,1.2,0.6,1.7,1.1s0.8,1.1,1.1,1.8s0.4,1.6,0.4,2.5
		c0,0.2,0,0.3-0.1,0.4c0,0.1-0.1,0.1-0.3,0.1h-9.8v0.3c0,1,0.1,1.9,0.3,2.7c0.2,0.8,0.6,1.4,1,1.9c0.4,0.5,1,0.9,1.6,1.2
		c0.6,0.3,1.3,0.4,2,0.4c0.7,0,1.3-0.1,1.8-0.2c0.5-0.1,0.9-0.3,1.2-0.5c0.3-0.2,0.6-0.4,0.8-0.5s0.3-0.2,0.4-0.2
		c0.1,0,0.2,0,0.3,0.1l0.3,0.4c-0.2,0.3-0.5,0.5-0.9,0.8s-0.8,0.4-1.2,0.6c-0.4,0.2-0.9,0.3-1.4,0.4c-0.5,0.1-1,0.1-1.5,0.1
		c-0.9,0-1.8-0.2-2.5-0.5c-0.8-0.3-1.4-0.8-1.9-1.4c-0.5-0.6-1-1.4-1.2-2.2s-0.4-1.9-0.4-3c0-1,0.1-1.9,0.4-2.7
		c0.3-0.8,0.7-1.5,1.2-2.1c0.5-0.6,1.2-1.1,1.9-1.4C603.6,151.5,604.5,151.3,605.5,151.3z M605.5,152.3c-0.7,0-1.3,0.1-1.9,0.3
		c-0.5,0.2-1,0.5-1.4,0.9c-0.4,0.4-0.7,0.9-1,1.5s-0.4,1.2-0.5,1.9h8.9c0-0.7-0.1-1.4-0.3-1.9c-0.2-0.6-0.5-1.1-0.9-1.4
		s-0.8-0.7-1.3-0.9C606.6,152.4,606.1,152.3,605.5,152.3z"/>
	<path class="st1" d="M614.3,165v-13.4h0.7c0.2,0,0.3,0.1,0.4,0.3l0.1,2c0.6-0.8,1.3-1.4,2.1-1.9c0.8-0.5,1.7-0.7,2.7-0.7
		c0.7,0,1.4,0.1,2,0.4s1,0.6,1.4,1c0.4,0.4,0.7,1,0.8,1.6s0.3,1.3,0.3,2.1v8.6h-1.3v-8.6c0-1.3-0.3-2.2-0.9-3
		c-0.6-0.7-1.5-1.1-2.6-1.1c-0.9,0-1.7,0.2-2.5,0.7c-0.8,0.4-1.4,1.1-2,1.9V165L614.3,165L614.3,165z"/>
	<path class="st1" d="M638.8,165c-0.2,0-0.4-0.1-0.4-0.4l-0.1-2.1c-0.6,0.8-1.3,1.4-2.1,1.9s-1.7,0.7-2.7,0.7
		c-1.7,0-2.9-0.6-3.9-1.7s-1.4-2.9-1.4-5.1c0-1,0.1-1.9,0.4-2.8c0.3-0.9,0.6-1.6,1.1-2.2s1.1-1.1,1.8-1.5c0.7-0.4,1.6-0.5,2.5-0.5
		c0.9,0,1.7,0.2,2.4,0.5c0.7,0.3,1.2,0.8,1.7,1.5v-8h1.3V165L638.8,165L638.8,165z M633.9,164.1c0.9,0,1.7-0.2,2.4-0.7
		c0.7-0.5,1.4-1.1,1.9-1.9v-7c-0.5-0.8-1.1-1.3-1.7-1.6c-0.6-0.3-1.3-0.5-2.1-0.5c-0.8,0-1.5,0.1-2.1,0.4c-0.6,0.3-1.1,0.7-1.5,1.2
		s-0.7,1.2-0.9,1.9s-0.3,1.5-0.3,2.4c0,2,0.4,3.5,1.1,4.4C631.5,163.6,632.5,164.1,633.9,164.1z"/>
	<path class="st1" d="M653.2,167.7v0.9h-10.6v-0.9H653.2z"/>
	<path class="st1" d="M654.6,151.6h1c0.1,0,0.2,0,0.3,0.1s0.1,0.1,0.2,0.2l3.4,10.6c0,0.2,0.1,0.4,0.1,0.6c0,0.2,0.1,0.4,0.1,0.6
		c0-0.2,0.1-0.4,0.2-0.6c0.1-0.2,0.1-0.4,0.2-0.6l3.6-10.7c0.1-0.2,0.2-0.3,0.4-0.3h0.5c0.2,0,0.3,0.1,0.4,0.3l3.6,10.7
		c0.1,0.2,0.1,0.4,0.2,0.6s0.1,0.4,0.1,0.6c0-0.2,0.1-0.4,0.1-0.6s0.1-0.4,0.2-0.6l3.4-10.6c0-0.1,0.1-0.2,0.2-0.2
		c0.1-0.1,0.2-0.1,0.3-0.1h0.9l-4.5,13.4h-1c-0.2,0-0.3-0.1-0.3-0.3l-3.7-10.9c0-0.1-0.1-0.3-0.1-0.4c0-0.1-0.1-0.3-0.1-0.4
		c0,0.1-0.1,0.3-0.1,0.4c0,0.1-0.1,0.3-0.1,0.4l-3.7,10.9c0,0.2-0.2,0.3-0.3,0.3h-0.9L654.6,151.6z"/>
	<path class="st1" d="M682,151.3c0.8,0,1.5,0.1,2.1,0.4c0.7,0.3,1.2,0.6,1.7,1.1s0.8,1.1,1.1,1.8c0.3,0.7,0.4,1.6,0.4,2.5
		c0,0.2,0,0.3-0.1,0.4c0,0.1-0.1,0.1-0.3,0.1h-9.8v0.3c0,1,0.1,1.9,0.3,2.7c0.2,0.8,0.6,1.4,1,1.9c0.4,0.5,1,0.9,1.6,1.2
		s1.3,0.4,2,0.4c0.7,0,1.3-0.1,1.8-0.2s0.9-0.3,1.2-0.5c0.3-0.2,0.6-0.4,0.8-0.5s0.3-0.2,0.4-0.2c0.1,0,0.2,0,0.3,0.1l0.3,0.4
		c-0.2,0.3-0.5,0.5-0.9,0.8s-0.8,0.4-1.2,0.6c-0.4,0.2-0.9,0.3-1.4,0.4c-0.5,0.1-1,0.1-1.5,0.1c-0.9,0-1.8-0.2-2.5-0.5
		c-0.8-0.3-1.4-0.8-1.9-1.4c-0.5-0.6-1-1.4-1.2-2.2s-0.4-1.9-0.4-3c0-1,0.1-1.9,0.4-2.7c0.3-0.8,0.7-1.5,1.2-2.1
		c0.5-0.6,1.2-1.1,1.9-1.4C680.2,151.5,681,151.3,682,151.3z M682,152.3c-0.7,0-1.3,0.1-1.9,0.3s-1,0.5-1.4,0.9s-0.7,0.9-1,1.5
		s-0.4,1.2-0.5,1.9h8.9c0-0.7-0.1-1.4-0.3-1.9c-0.2-0.6-0.5-1.1-0.9-1.4s-0.8-0.7-1.3-0.9S682.6,152.3,682,152.3z"/>
	<path class="st1" d="M690.8,165v-19.6h1.3v8.5c0.6-0.8,1.3-1.4,2-1.9c0.8-0.4,1.7-0.7,2.7-0.7c0.8,0,1.5,0.1,2.2,0.4
		c0.6,0.3,1.2,0.7,1.6,1.3s0.8,1.2,1,2.1s0.3,1.7,0.3,2.8c0,1.1-0.1,2.1-0.4,3c-0.3,0.9-0.6,1.7-1.1,2.3c-0.5,0.6-1.1,1.1-1.8,1.5
		c-0.7,0.4-1.5,0.5-2.5,0.5c-1,0-1.8-0.2-2.4-0.6s-1.2-0.9-1.7-1.6l-0.1,1.6c0,0.2-0.2,0.3-0.4,0.3L690.8,165L690.8,165z
		 M696.5,152.4c-1,0-1.8,0.2-2.5,0.7s-1.3,1.1-1.9,1.9v7.1c0.5,0.8,1.1,1.3,1.7,1.6s1.3,0.5,2.1,0.5c0.8,0,1.5-0.1,2.1-0.4
		s1.1-0.7,1.5-1.2c0.4-0.5,0.7-1.2,0.9-1.9s0.3-1.6,0.3-2.6c0-1.9-0.4-3.2-1.1-4.2C698.9,152.8,697.9,152.4,696.5,152.4z"/>
	<path class="st1" d="M713.1,153.2c-0.1,0.1-0.2,0.2-0.3,0.2c-0.1,0-0.2-0.1-0.4-0.2s-0.4-0.2-0.6-0.4c-0.3-0.1-0.6-0.3-1-0.4
		s-0.8-0.2-1.4-0.2c-0.5,0-0.9,0.1-1.3,0.2s-0.7,0.3-1,0.6s-0.5,0.5-0.7,0.8c-0.2,0.3-0.2,0.6-0.2,1c0,0.4,0.1,0.8,0.3,1.1
		s0.5,0.5,0.8,0.7s0.7,0.4,1.2,0.5s0.9,0.3,1.4,0.4s0.9,0.3,1.4,0.5s0.8,0.4,1.2,0.6c0.3,0.3,0.6,0.6,0.8,1c0.2,0.4,0.3,0.8,0.3,1.4
		c0,0.6-0.1,1.1-0.3,1.6s-0.5,0.9-0.9,1.3c-0.4,0.4-0.9,0.7-1.5,0.9c-0.6,0.2-1.2,0.3-2,0.3c-0.9,0-1.8-0.1-2.4-0.4
		s-1.3-0.7-1.8-1.2l0.3-0.5c0-0.1,0.1-0.1,0.2-0.2c0.1,0,0.1-0.1,0.2-0.1c0.1,0,0.3,0.1,0.4,0.2c0.2,0.1,0.4,0.3,0.7,0.5
		c0.3,0.2,0.6,0.3,1,0.5c0.4,0.1,0.9,0.2,1.5,0.2c0.6,0,1.1-0.1,1.5-0.2s0.8-0.4,1.1-0.6c0.3-0.3,0.5-0.6,0.7-0.9s0.2-0.8,0.2-1.1
		c0-0.4-0.1-0.8-0.3-1.1c-0.2-0.3-0.5-0.6-0.8-0.8c-0.3-0.2-0.8-0.4-1.2-0.5c-0.5-0.1-0.9-0.3-1.4-0.4s-0.9-0.3-1.4-0.5
		c-0.4-0.2-0.8-0.4-1.2-0.6s-0.6-0.6-0.8-0.9c-0.2-0.4-0.3-0.8-0.3-1.4c0-0.5,0.1-0.9,0.3-1.4s0.5-0.8,0.9-1.2s0.8-0.6,1.4-0.8
		c0.5-0.2,1.2-0.3,1.8-0.3c0.8,0,1.5,0.1,2.2,0.4s1.2,0.6,1.7,1.1L713.1,153.2z"/>
	<path class="st1" d="M719.2,146.9c0,0.2,0,0.3-0.1,0.4c-0.1,0.1-0.2,0.3-0.3,0.4s-0.2,0.2-0.4,0.3c-0.1,0.1-0.3,0.1-0.5,0.1
		s-0.3,0-0.5-0.1c-0.1-0.1-0.3-0.1-0.4-0.3s-0.2-0.2-0.3-0.4c-0.1-0.1-0.1-0.3-0.1-0.4s0-0.3,0.1-0.5c0.1-0.1,0.2-0.3,0.3-0.4
		s0.2-0.2,0.4-0.3c0.1-0.1,0.3-0.1,0.5-0.1s0.3,0,0.5,0.1c0.1,0.1,0.3,0.1,0.4,0.3s0.2,0.2,0.3,0.4
		C719.1,146.6,719.2,146.8,719.2,146.9z M718.6,151.6V165h-1.3v-13.4H718.6z"/>
	<path class="st1" d="M726.8,165.2c-0.9,0-1.6-0.2-2.1-0.8s-0.8-1.3-0.8-2.3v-9.2H722c-0.1,0-0.2,0-0.2-0.1s-0.1-0.1-0.1-0.2v-0.5
		l2.3-0.2l0.3-4.8c0-0.1,0-0.1,0.1-0.2s0.1-0.1,0.2-0.1h0.6v5.1h4.2v1h-4.2v9.1c0,0.4,0,0.7,0.1,0.9c0.1,0.3,0.2,0.5,0.4,0.6
		s0.4,0.3,0.6,0.4c0.2,0.1,0.5,0.1,0.7,0.1c0.3,0,0.6-0.1,0.8-0.1c0.2-0.1,0.4-0.2,0.6-0.3s0.3-0.2,0.4-0.3s0.2-0.1,0.3-0.1
		s0.1,0,0.2,0.1l0.3,0.6c-0.3,0.4-0.8,0.7-1.3,0.9C728,165.1,727.4,165.2,726.8,165.2z"/>
	<path class="st1" d="M737.7,151.3c0.8,0,1.5,0.1,2.1,0.4c0.7,0.3,1.2,0.6,1.7,1.1s0.8,1.1,1.1,1.8c0.3,0.7,0.4,1.6,0.4,2.5
		c0,0.2,0,0.3-0.1,0.4c0,0.1-0.1,0.1-0.3,0.1h-9.8v0.3c0,1,0.1,1.9,0.3,2.7c0.2,0.8,0.6,1.4,1,1.9c0.4,0.5,1,0.9,1.6,1.2
		c0.6,0.3,1.3,0.4,2,0.4c0.7,0,1.3-0.1,1.8-0.2c0.5-0.1,0.9-0.3,1.2-0.5c0.3-0.2,0.6-0.4,0.8-0.5c0.2-0.1,0.3-0.2,0.4-0.2
		c0.1,0,0.2,0,0.3,0.1l0.3,0.4c-0.2,0.3-0.5,0.5-0.9,0.8s-0.8,0.4-1.2,0.6c-0.4,0.2-0.9,0.3-1.4,0.4c-0.5,0.1-1,0.1-1.5,0.1
		c-0.9,0-1.8-0.2-2.5-0.5c-0.8-0.3-1.4-0.8-1.9-1.4s-1-1.4-1.2-2.2s-0.4-1.9-0.4-3c0-1,0.1-1.9,0.4-2.7c0.3-0.8,0.7-1.5,1.2-2.1
		c0.5-0.6,1.2-1.1,1.9-1.4C735.8,151.5,736.7,151.3,737.7,151.3z M737.7,152.3c-0.7,0-1.3,0.1-1.9,0.3s-1,0.5-1.4,0.9
		c-0.4,0.4-0.7,0.9-1,1.5s-0.4,1.2-0.5,1.9h8.9c0-0.7-0.1-1.4-0.3-1.9s-0.5-1.1-0.9-1.4s-0.8-0.7-1.3-0.9
		C738.8,152.4,738.3,152.3,737.7,152.3z"/>
	<path class="st1" d="M514.7,218.1c0,0-0.1,0.1-0.1,0.1s-0.1,0.1-0.2,0.1c-0.1,0-0.2-0.1-0.4-0.2s-0.4-0.2-0.6-0.4
		c-0.3-0.1-0.6-0.3-1-0.4c-0.4-0.1-0.9-0.2-1.4-0.2c-0.8,0-1.5,0.1-2.1,0.4s-1.1,0.7-1.5,1.2c-0.4,0.5-0.7,1.1-0.9,1.9
		s-0.3,1.6-0.3,2.5c0,0.9,0.1,1.8,0.3,2.5s0.5,1.3,0.9,1.8c0.4,0.5,0.9,0.9,1.5,1.1c0.6,0.3,1.2,0.4,1.9,0.4c0.6,0,1.2-0.1,1.6-0.2
		s0.8-0.3,1.1-0.5s0.5-0.4,0.7-0.5s0.3-0.2,0.4-0.2s0.2,0,0.3,0.1l0.3,0.4c-0.2,0.3-0.5,0.5-0.8,0.8c-0.3,0.2-0.7,0.4-1.1,0.6
		s-0.8,0.3-1.3,0.4c-0.5,0.1-1,0.1-1.5,0.1c-0.9,0-1.6-0.2-2.3-0.5s-1.3-0.8-1.8-1.4c-0.5-0.6-0.9-1.3-1.2-2.2
		c-0.3-0.9-0.4-1.8-0.4-2.9c0-1,0.1-2,0.4-2.8c0.3-0.8,0.7-1.6,1.2-2.2c0.5-0.6,1.2-1.1,1.9-1.4c0.8-0.3,1.6-0.5,2.6-0.5
		c0.9,0,1.7,0.1,2.3,0.4s1.3,0.7,1.8,1.1L514.7,218.1z"/>
	<path class="st1" d="M523.7,216.1c1,0,1.8,0.2,2.6,0.5s1.4,0.8,1.9,1.4c0.5,0.6,0.9,1.3,1.2,2.2c0.3,0.9,0.4,1.8,0.4,2.9
		s-0.1,2-0.4,2.9c-0.3,0.9-0.7,1.6-1.2,2.2c-0.5,0.6-1.2,1.1-1.9,1.4c-0.8,0.3-1.6,0.5-2.6,0.5s-1.8-0.2-2.6-0.5
		c-0.8-0.3-1.4-0.8-1.9-1.4c-0.5-0.6-0.9-1.3-1.2-2.2s-0.4-1.8-0.4-2.9c0-1.1,0.1-2,0.4-2.9c0.3-0.9,0.7-1.6,1.2-2.2
		c0.5-0.6,1.2-1.1,1.9-1.4C521.9,216.2,522.8,216.1,523.7,216.1z M523.7,228.9c0.8,0,1.5-0.1,2.1-0.4s1.1-0.7,1.5-1.2
		s0.7-1.1,0.9-1.9c0.2-0.7,0.3-1.5,0.3-2.4c0-0.9-0.1-1.7-0.3-2.4s-0.5-1.4-0.9-1.9c-0.4-0.5-0.9-0.9-1.5-1.2s-1.3-0.4-2.1-0.4
		s-1.5,0.1-2.1,0.4s-1.1,0.7-1.5,1.2c-0.4,0.5-0.7,1.1-0.9,1.9s-0.3,1.5-0.3,2.4c0,0.9,0.1,1.7,0.3,2.4c0.2,0.7,0.5,1.3,0.9,1.9
		c0.4,0.5,0.9,0.9,1.5,1.2C522.2,228.8,522.9,228.9,523.7,228.9z"/>
	<path class="st1" d="M533.5,229.7v-13.4h0.7c0.2,0,0.3,0.1,0.4,0.3l0.1,1.9c0.5-0.8,1.1-1.4,1.8-1.8c0.7-0.5,1.4-0.7,2.3-0.7
		c1,0,1.8,0.3,2.3,0.9s1,1.4,1.2,2.4c0.2-0.6,0.4-1,0.7-1.4s0.6-0.7,1-1c0.4-0.3,0.8-0.5,1.2-0.6s0.9-0.2,1.4-0.2
		c0.7,0,1.3,0.1,1.8,0.3c0.5,0.2,1,0.6,1.3,1s0.7,1,0.8,1.6c0.2,0.6,0.3,1.4,0.3,2.2v8.6h-1.3v-8.6c0-1.3-0.3-2.3-0.8-3
		c-0.6-0.7-1.4-1-2.4-1c-0.5,0-0.9,0.1-1.3,0.3c-0.4,0.2-0.8,0.4-1.1,0.8s-0.6,0.8-0.8,1.3s-0.3,1.1-0.3,1.8v8.6h-1.3v-8.6
		c0-1.3-0.3-2.3-0.8-3c-0.5-0.7-1.3-1-2.3-1c-0.7,0-1.4,0.2-2,0.6c-0.6,0.4-1.2,1-1.7,1.8v10.2L533.5,229.7L533.5,229.7z"/>
	<path class="st1" d="M555.2,234.5v-18.2h0.7c0.2,0,0.3,0.1,0.4,0.3l0.1,2.1c0.6-0.8,1.3-1.4,2.1-1.9c0.8-0.5,1.7-0.7,2.7-0.7
		c1.7,0,2.9,0.6,3.8,1.7s1.4,2.9,1.4,5.1c0,1-0.1,1.9-0.4,2.7c-0.3,0.9-0.6,1.6-1.1,2.2s-1.1,1.1-1.8,1.5c-0.7,0.4-1.6,0.5-2.5,0.5
		c-0.9,0-1.7-0.2-2.4-0.5c-0.7-0.3-1.2-0.8-1.7-1.5v6.5L555.2,234.5L555.2,234.5z M560.8,217.1c-0.9,0-1.7,0.2-2.4,0.7
		s-1.4,1.1-1.9,1.9v7.1c0.5,0.8,1.1,1.3,1.7,1.6s1.3,0.5,2.1,0.5c0.8,0,1.5-0.1,2.1-0.4c0.6-0.3,1.1-0.7,1.5-1.2s0.7-1.2,0.9-1.9
		s0.3-1.5,0.3-2.4c0-2-0.4-3.5-1.1-4.4C563.2,217.6,562.2,217.1,560.8,217.1z"/>
	<path class="st1" d="M578.3,229.7c-0.3,0-0.4-0.1-0.5-0.4l-0.2-1.7c-0.4,0.4-0.7,0.7-1.1,1c-0.4,0.3-0.7,0.5-1.1,0.7
		s-0.8,0.4-1.3,0.4c-0.5,0.1-1,0.2-1.5,0.2c-0.5,0-0.9-0.1-1.3-0.2s-0.8-0.3-1.2-0.6c-0.3-0.3-0.6-0.6-0.8-1.1
		c-0.2-0.4-0.3-1-0.3-1.6c0-0.6,0.2-1.1,0.5-1.6c0.3-0.5,0.8-0.9,1.5-1.3s1.6-0.6,2.7-0.9c1.1-0.2,2.4-0.3,3.9-0.4V221
		c0-1.2-0.3-2.2-0.8-2.9c-0.5-0.7-1.3-1-2.4-1c-0.7,0-1.2,0.1-1.7,0.3c-0.5,0.2-0.8,0.4-1.2,0.6c-0.3,0.2-0.6,0.4-0.8,0.6
		s-0.4,0.3-0.5,0.3c-0.1,0-0.2,0-0.2-0.1s-0.1-0.1-0.2-0.2l-0.2-0.4c0.7-0.7,1.4-1.2,2.2-1.6s1.7-0.5,2.6-0.5c0.7,0,1.3,0.1,1.9,0.3
		c0.5,0.2,1,0.6,1.3,1c0.3,0.4,0.6,0.9,0.8,1.6c0.2,0.6,0.3,1.3,0.3,2v8.7L578.3,229.7L578.3,229.7z M572.9,229c0.5,0,1-0.1,1.4-0.2
		s0.8-0.3,1.2-0.5s0.7-0.4,1-0.7s0.6-0.6,1-0.9v-3.5c-1.3,0-2.4,0.1-3.3,0.3s-1.7,0.4-2.3,0.6s-1,0.6-1.3,1
		c-0.3,0.4-0.4,0.8-0.4,1.3c0,0.4,0.1,0.8,0.2,1.2s0.3,0.6,0.6,0.8c0.2,0.2,0.5,0.4,0.9,0.5S572.6,229,572.9,229z"/>
	<path class="st1" d="M583.1,229.7v-13.4h0.7c0.2,0,0.3,0.1,0.4,0.3l0.1,2c0.6-0.8,1.3-1.4,2.1-1.9c0.8-0.5,1.7-0.7,2.7-0.7
		c0.7,0,1.4,0.1,2,0.4c0.6,0.2,1,0.6,1.4,1c0.4,0.4,0.7,1,0.8,1.6s0.3,1.3,0.3,2.1v8.6h-1.3v-8.6c0-1.3-0.3-2.2-0.9-3
		s-1.5-1.1-2.6-1.1c-0.9,0-1.7,0.2-2.5,0.7c-0.8,0.4-1.4,1.1-2,1.9v10.1L583.1,229.7L583.1,229.7z"/>
	<path class="st1" d="M601.1,234c0,0.1-0.1,0.2-0.2,0.3c-0.1,0.1-0.2,0.1-0.4,0.1h-0.9l2.4-5.2l-5.7-12.9h1.1c0.1,0,0.2,0,0.3,0.1
		s0.1,0.1,0.2,0.2l4.5,10.4c0,0.1,0.1,0.3,0.1,0.4s0.1,0.3,0.1,0.4c0-0.1,0.1-0.3,0.1-0.4c0-0.1,0.1-0.3,0.2-0.4l4.5-10.4
		c0-0.1,0.1-0.2,0.2-0.2c0.1-0.1,0.2-0.1,0.3-0.1h1L601.1,234z"/>
	<path class="st1" d="M620.7,232.5v0.9H610v-0.9H620.7z"/>
	<path class="st1" d="M622.1,216.3h1c0.1,0,0.2,0,0.3,0.1s0.1,0.1,0.2,0.2l3.4,10.6c0,0.2,0.1,0.4,0.1,0.6c0,0.2,0.1,0.4,0.1,0.6
		c0-0.2,0.1-0.4,0.2-0.6c0.1-0.2,0.1-0.4,0.2-0.6l3.6-10.7c0.1-0.2,0.2-0.3,0.4-0.3h0.5c0.2,0,0.3,0.1,0.4,0.3l3.6,10.7
		c0.1,0.2,0.1,0.4,0.2,0.6c0,0.2,0.1,0.4,0.1,0.6c0-0.2,0.1-0.4,0.1-0.6s0.1-0.4,0.2-0.6l3.4-10.6c0-0.1,0.1-0.2,0.2-0.2
		c0.1-0.1,0.2-0.1,0.3-0.1h0.9l-4.5,13.4h-1c-0.2,0-0.3-0.1-0.3-0.3l-3.7-10.9c0-0.1-0.1-0.3-0.1-0.4c0-0.1-0.1-0.3-0.1-0.4
		c0,0.1-0.1,0.3-0.1,0.4c0,0.1-0.1,0.3-0.1,0.4l-3.7,10.9c0,0.2-0.2,0.3-0.3,0.3h-0.9L622.1,216.3z"/>
	<path class="st1" d="M649.5,216.1c0.8,0,1.5,0.1,2.1,0.4c0.7,0.3,1.2,0.6,1.7,1.1s0.8,1.1,1.1,1.8c0.3,0.7,0.4,1.6,0.4,2.5
		c0,0.2,0,0.3-0.1,0.4c0,0.1-0.1,0.1-0.3,0.1h-9.8v0.3c0,1,0.1,1.9,0.3,2.7c0.2,0.8,0.6,1.4,1,1.9s1,0.9,1.6,1.2
		c0.6,0.3,1.3,0.4,2,0.4c0.7,0,1.3-0.1,1.8-0.2c0.5-0.1,0.9-0.3,1.2-0.5c0.3-0.2,0.6-0.4,0.8-0.5c0.2-0.1,0.3-0.2,0.4-0.2
		c0.1,0,0.2,0,0.3,0.1l0.3,0.4c-0.2,0.3-0.5,0.5-0.9,0.8c-0.4,0.2-0.8,0.4-1.2,0.6s-0.9,0.3-1.4,0.4c-0.5,0.1-1,0.1-1.5,0.1
		c-0.9,0-1.8-0.2-2.5-0.5s-1.4-0.8-1.9-1.4c-0.5-0.6-1-1.4-1.2-2.2s-0.4-1.9-0.4-3c0-1,0.1-1.9,0.4-2.7c0.3-0.8,0.7-1.5,1.2-2.1
		s1.2-1.1,1.9-1.4C647.7,216.3,648.6,216.1,649.5,216.1z M649.5,217.1c-0.7,0-1.3,0.1-1.9,0.3s-1,0.5-1.4,0.9
		c-0.4,0.4-0.7,0.9-1,1.5s-0.4,1.2-0.5,1.9h8.9c0-0.7-0.1-1.4-0.3-1.9c-0.2-0.6-0.5-1.1-0.9-1.4s-0.8-0.7-1.3-0.9
		C650.7,217.1,650.1,217.1,649.5,217.1z"/>
	<path class="st1" d="M658.3,229.7v-19.6h1.3v8.5c0.6-0.8,1.3-1.4,2-1.9c0.8-0.4,1.7-0.7,2.7-0.7c0.8,0,1.5,0.1,2.2,0.4
		c0.6,0.3,1.2,0.7,1.6,1.3s0.8,1.2,1,2.1c0.2,0.8,0.3,1.7,0.3,2.8c0,1.1-0.1,2.1-0.4,3s-0.6,1.7-1.1,2.3c-0.5,0.6-1.1,1.1-1.8,1.5
		c-0.7,0.4-1.5,0.5-2.5,0.5c-1,0-1.8-0.2-2.4-0.6s-1.2-0.9-1.7-1.6l-0.1,1.6c0,0.2-0.2,0.3-0.4,0.3L658.3,229.7L658.3,229.7z
		 M664,217.1c-1,0-1.8,0.2-2.5,0.7s-1.3,1.1-1.9,1.9v7.1c0.5,0.8,1.1,1.3,1.7,1.6s1.3,0.5,2.1,0.5c0.8,0,1.5-0.1,2.1-0.4
		s1.1-0.7,1.5-1.2c0.4-0.5,0.7-1.2,0.9-1.9s0.3-1.6,0.3-2.6c0-1.9-0.4-3.2-1.1-4.2C666.4,217.6,665.4,217.1,664,217.1z"/>
	<path class="st1" d="M680.6,218c-0.1,0.1-0.2,0.2-0.3,0.2c-0.1,0-0.2-0.1-0.4-0.2c-0.2-0.1-0.4-0.2-0.6-0.4c-0.3-0.1-0.6-0.3-1-0.4
		s-0.8-0.2-1.4-0.2c-0.5,0-0.9,0.1-1.3,0.2s-0.7,0.3-1,0.6c-0.3,0.2-0.5,0.5-0.7,0.8c-0.2,0.3-0.2,0.6-0.2,1c0,0.4,0.1,0.8,0.3,1.1
		c0.2,0.3,0.5,0.5,0.8,0.7c0.3,0.2,0.7,0.4,1.2,0.5s0.9,0.3,1.4,0.4s0.9,0.3,1.4,0.5s0.8,0.4,1.2,0.6s0.6,0.6,0.8,1
		c0.2,0.4,0.3,0.8,0.3,1.4c0,0.6-0.1,1.1-0.3,1.6s-0.5,0.9-0.9,1.3s-0.9,0.7-1.5,0.9c-0.6,0.2-1.2,0.3-2,0.3c-0.9,0-1.8-0.1-2.4-0.4
		s-1.3-0.7-1.8-1.2l0.3-0.5c0-0.1,0.1-0.1,0.2-0.2c0.1,0,0.1-0.1,0.2-0.1c0.1,0,0.3,0.1,0.4,0.2c0.2,0.1,0.4,0.3,0.7,0.5
		c0.3,0.2,0.6,0.3,1,0.5c0.4,0.1,0.9,0.2,1.5,0.2c0.6,0,1.1-0.1,1.5-0.2s0.8-0.4,1.1-0.6c0.3-0.3,0.5-0.6,0.7-0.9s0.2-0.8,0.2-1.1
		c0-0.4-0.1-0.8-0.3-1.1s-0.5-0.6-0.8-0.8c-0.3-0.2-0.8-0.4-1.2-0.5c-0.5-0.1-0.9-0.3-1.4-0.4s-0.9-0.3-1.4-0.5s-0.8-0.4-1.2-0.6
		s-0.6-0.6-0.8-0.9s-0.3-0.8-0.3-1.4c0-0.5,0.1-0.9,0.3-1.4s0.5-0.8,0.9-1.2s0.8-0.6,1.4-0.8c0.5-0.2,1.2-0.3,1.8-0.3
		c0.8,0,1.5,0.1,2.2,0.4c0.6,0.2,1.2,0.6,1.7,1.1L680.6,218z"/>
	<path class="st1" d="M686.7,211.7c0,0.2,0,0.3-0.1,0.4c-0.1,0.1-0.2,0.3-0.3,0.4s-0.2,0.2-0.4,0.3c-0.1,0.1-0.3,0.1-0.5,0.1
		c-0.2,0-0.3,0-0.5-0.1s-0.3-0.1-0.4-0.3s-0.2-0.2-0.3-0.4s-0.1-0.3-0.1-0.4s0-0.3,0.1-0.5s0.2-0.3,0.3-0.4c0.1-0.1,0.2-0.2,0.4-0.3
		c0.1-0.1,0.3-0.1,0.5-0.1c0.2,0,0.3,0,0.5,0.1c0.1,0.1,0.3,0.1,0.4,0.3s0.2,0.2,0.3,0.4C686.6,211.4,686.7,211.5,686.7,211.7z
		 M686.1,216.3v13.4h-1.3v-13.4H686.1z"/>
	<path class="st1" d="M694.3,229.9c-0.9,0-1.6-0.2-2.1-0.8s-0.8-1.3-0.8-2.3v-9.2h-1.9c-0.1,0-0.2,0-0.2-0.1s-0.1-0.1-0.1-0.2v-0.5
		l2.3-0.2l0.3-4.8c0-0.1,0-0.1,0.1-0.2c0-0.1,0.1-0.1,0.2-0.1h0.6v5.1h4.2v1h-4.2v9.1c0,0.4,0,0.7,0.1,0.9c0.1,0.3,0.2,0.5,0.4,0.6
		c0.2,0.2,0.4,0.3,0.6,0.4c0.2,0.1,0.5,0.1,0.7,0.1c0.3,0,0.6-0.1,0.8-0.1c0.2-0.1,0.4-0.2,0.6-0.3s0.3-0.2,0.4-0.3s0.2-0.1,0.3-0.1
		s0.1,0,0.2,0.1l0.3,0.6c-0.3,0.4-0.8,0.7-1.3,0.9C695.5,229.8,694.9,229.9,694.3,229.9z"/>
	<path class="st1" d="M705.2,216.1c0.8,0,1.5,0.1,2.1,0.4c0.7,0.3,1.2,0.6,1.7,1.1s0.8,1.1,1.1,1.8s0.4,1.6,0.4,2.5
		c0,0.2,0,0.3-0.1,0.4c0,0.1-0.1,0.1-0.3,0.1h-9.8v0.3c0,1,0.1,1.9,0.3,2.7c0.2,0.8,0.6,1.4,1,1.9s1,0.9,1.6,1.2
		c0.6,0.3,1.3,0.4,2,0.4c0.7,0,1.3-0.1,1.8-0.2s0.9-0.3,1.2-0.5c0.3-0.2,0.6-0.4,0.8-0.5s0.3-0.2,0.4-0.2c0.1,0,0.2,0,0.3,0.1
		l0.3,0.4c-0.2,0.3-0.5,0.5-0.9,0.8c-0.4,0.2-0.8,0.4-1.2,0.6c-0.4,0.2-0.9,0.3-1.4,0.4c-0.5,0.1-1,0.1-1.5,0.1
		c-0.9,0-1.8-0.2-2.5-0.5c-0.8-0.3-1.4-0.8-1.9-1.4c-0.5-0.6-1-1.4-1.2-2.2s-0.4-1.9-0.4-3c0-1,0.1-1.9,0.4-2.7s0.7-1.5,1.2-2.1
		s1.2-1.1,1.9-1.4C703.4,216.3,704.2,216.1,705.2,216.1z M705.2,217.1c-0.7,0-1.3,0.1-1.9,0.3c-0.5,0.2-1,0.5-1.4,0.9
		c-0.4,0.4-0.7,0.9-1,1.5s-0.4,1.2-0.5,1.9h8.9c0-0.7-0.1-1.4-0.3-1.9c-0.2-0.6-0.5-1.1-0.9-1.4s-0.8-0.7-1.3-0.9
		C706.3,217.1,705.8,217.1,705.2,217.1z"/>
</g>
<g>
	<path class="st1" d="M800.3,157.1v7.9H799v-7.9l-7.1-11.2h1.2c0.1,0,0.2,0,0.3,0.1s0.2,0.1,0.2,0.2l5.5,8.8
		c0.1,0.2,0.2,0.4,0.3,0.6c0.1,0.2,0.2,0.4,0.2,0.6c0.1-0.2,0.2-0.4,0.2-0.6c0.1-0.2,0.2-0.4,0.3-0.6l5.5-8.8c0-0.1,0.1-0.2,0.2-0.2
		s0.2-0.1,0.3-0.1h1.2L800.3,157.1z"/>
	<path class="st1" d="M815.2,151.3c1,0,1.8,0.2,2.6,0.5s1.4,0.8,1.9,1.4s0.9,1.3,1.2,2.2s0.4,1.8,0.4,2.9s-0.1,2-0.4,2.9
		c-0.3,0.9-0.7,1.6-1.2,2.2s-1.2,1.1-1.9,1.4c-0.8,0.3-1.6,0.5-2.6,0.5s-1.8-0.2-2.6-0.5c-0.8-0.3-1.4-0.8-1.9-1.4
		c-0.5-0.6-0.9-1.3-1.2-2.2c-0.3-0.9-0.4-1.8-0.4-2.9s0.1-2,0.4-2.9s0.7-1.6,1.2-2.2c0.5-0.6,1.2-1.1,1.9-1.4
		C813.4,151.5,814.2,151.3,815.2,151.3z M815.2,164.1c0.8,0,1.5-0.1,2.1-0.4s1.1-0.7,1.5-1.2s0.7-1.1,0.9-1.9s0.3-1.5,0.3-2.4
		c0-0.9-0.1-1.7-0.3-2.4s-0.5-1.4-0.9-1.9c-0.4-0.5-0.9-0.9-1.5-1.2c-0.6-0.3-1.3-0.4-2.1-0.4s-1.5,0.1-2.1,0.4s-1.1,0.7-1.5,1.2
		s-0.7,1.1-0.9,1.9s-0.3,1.5-0.3,2.4c0,0.9,0.1,1.7,0.3,2.4c0.2,0.7,0.5,1.3,0.9,1.9s0.9,0.9,1.5,1.2
		C813.7,164,814.4,164.1,815.2,164.1z"/>
	<path class="st1" d="M826.1,151.6v8.6c0,1.3,0.3,2.2,0.9,3c0.6,0.7,1.5,1.1,2.6,1.1c0.9,0,1.7-0.2,2.4-0.7c0.8-0.4,1.4-1.1,2-1.9
		v-10.1h1.3V165h-0.7c-0.2,0-0.4-0.1-0.4-0.4l-0.1-2c-0.6,0.8-1.3,1.4-2.2,1.9s-1.7,0.7-2.7,0.7c-0.8,0-1.4-0.1-2-0.4
		c-0.6-0.2-1-0.6-1.4-1c-0.4-0.4-0.7-1-0.8-1.6s-0.3-1.3-0.3-2.1v-8.6H826.1z"/>
	<path class="st1" d="M839.8,165v-13.4h0.7c0.2,0,0.3,0,0.3,0.1s0.1,0.2,0.1,0.3l0.1,2.8c0.2-0.6,0.4-1,0.7-1.5
		c0.3-0.4,0.6-0.8,0.9-1.1s0.7-0.5,1.2-0.7s0.9-0.2,1.4-0.2c0.3,0,0.5,0,0.8,0.1s0.5,0.1,0.7,0.3l-0.1,0.9c0,0.1-0.1,0.2-0.3,0.2
		c-0.1,0-0.3,0-0.5-0.1s-0.5-0.1-0.9-0.1c-0.5,0-1,0.1-1.4,0.2s-0.8,0.4-1.1,0.7c-0.3,0.3-0.6,0.7-0.8,1.2s-0.5,1-0.7,1.6v8.7
		L839.8,165L839.8,165z"/>
	<path class="st1" d="M858,164h4.4v-15.5c0-0.3,0-0.6,0-1l-4.2,3.7c-0.1,0.1-0.2,0.1-0.4,0.1c-0.1,0-0.2-0.1-0.3-0.2l-0.4-0.5
		l5.5-4.9h1V164h4.2v1H858L858,164L858,164z"/>
	<path class="st1" d="M879.7,153.2c-0.1,0.1-0.2,0.2-0.3,0.2c-0.1,0-0.2-0.1-0.4-0.2s-0.4-0.2-0.6-0.4c-0.3-0.1-0.6-0.3-1-0.4
		s-0.8-0.2-1.4-0.2c-0.5,0-0.9,0.1-1.3,0.2s-0.7,0.3-1,0.6s-0.5,0.5-0.7,0.8c-0.2,0.3-0.2,0.6-0.2,1c0,0.4,0.1,0.8,0.3,1.1
		s0.5,0.5,0.8,0.7c0.3,0.2,0.7,0.4,1.2,0.5s0.9,0.3,1.4,0.4s0.9,0.3,1.4,0.5s0.8,0.4,1.2,0.6s0.6,0.6,0.8,1s0.3,0.8,0.3,1.4
		c0,0.6-0.1,1.1-0.3,1.6s-0.5,0.9-0.9,1.3c-0.4,0.4-0.9,0.7-1.5,0.9s-1.2,0.3-2,0.3c-1,0-1.8-0.1-2.4-0.4s-1.3-0.7-1.8-1.2l0.3-0.5
		c0-0.1,0.1-0.1,0.2-0.2c0.1,0,0.1-0.1,0.2-0.1c0.1,0,0.3,0.1,0.4,0.2c0.2,0.1,0.4,0.3,0.7,0.5s0.6,0.3,1,0.5
		c0.4,0.1,0.9,0.2,1.5,0.2c0.6,0,1.1-0.1,1.5-0.2s0.8-0.4,1.1-0.6c0.3-0.3,0.5-0.6,0.7-0.9s0.2-0.8,0.2-1.1c0-0.4-0.1-0.8-0.3-1.1
		s-0.5-0.6-0.8-0.8c-0.3-0.2-0.8-0.4-1.2-0.5c-0.5-0.1-0.9-0.3-1.4-0.4s-0.9-0.3-1.4-0.5c-0.4-0.2-0.8-0.4-1.2-0.6s-0.6-0.6-0.8-0.9
		s-0.3-0.8-0.3-1.4c0-0.5,0.1-0.9,0.3-1.4s0.5-0.8,0.9-1.2s0.8-0.6,1.4-0.8c0.5-0.2,1.2-0.3,1.8-0.3c0.8,0,1.5,0.1,2.2,0.4
		c0.6,0.2,1.2,0.6,1.7,1.1L879.7,153.2z"/>
	<path class="st1" d="M887.4,165.2c-0.9,0-1.6-0.2-2.1-0.8s-0.8-1.3-0.8-2.3v-9.2h-1.9c-0.1,0-0.2,0-0.2-0.1s-0.1-0.1-0.1-0.2v-0.5
		l2.3-0.2l0.3-4.8c0-0.1,0-0.1,0.1-0.2c0-0.1,0.1-0.1,0.2-0.1h0.6v5.1h4.2v1h-4.2v9.1c0,0.4,0,0.7,0.1,0.9s0.2,0.5,0.4,0.6
		c0.2,0.2,0.4,0.3,0.6,0.4c0.2,0.1,0.5,0.1,0.7,0.1c0.3,0,0.6-0.1,0.8-0.1c0.2-0.1,0.4-0.2,0.6-0.3s0.3-0.2,0.4-0.3s0.2-0.1,0.3-0.1
		s0.1,0,0.2,0.1l0.3,0.6c-0.3,0.4-0.8,0.7-1.3,0.9C888.5,165.1,888,165.2,887.4,165.2z"/>
	<path class="st1" d="M915.4,165h-1.1c-0.1,0-0.2,0-0.3-0.1s-0.1-0.2-0.2-0.3l-2.2-5.5h-9.4l-2.2,5.5c0,0.1-0.1,0.2-0.2,0.3
		c-0.1,0.1-0.2,0.1-0.3,0.1h-1l7.8-19.1h1.4L915.4,165z M902.7,158h8.5l-3.9-9.6c-0.1-0.3-0.3-0.7-0.4-1.1c-0.1,0.2-0.1,0.4-0.2,0.6
		s-0.1,0.4-0.2,0.5L902.7,158z"/>
	<path class="st1" d="M918,169.7v-18.2h0.7c0.2,0,0.4,0.1,0.4,0.3l0.1,2.1c0.6-0.8,1.3-1.4,2.1-1.9c0.8-0.5,1.7-0.7,2.7-0.7
		c1.7,0,2.9,0.6,3.8,1.7s1.4,2.9,1.4,5.1c0,1-0.1,1.9-0.4,2.8c-0.3,0.9-0.6,1.6-1.1,2.2s-1.1,1.1-1.8,1.5c-0.7,0.4-1.6,0.5-2.5,0.5
		c-0.9,0-1.7-0.2-2.4-0.5s-1.2-0.8-1.7-1.5v6.5H918z M923.6,152.4c-0.9,0-1.7,0.2-2.4,0.7c-0.7,0.5-1.4,1.1-1.9,1.9v7.1
		c0.5,0.8,1.1,1.3,1.7,1.6s1.3,0.5,2.2,0.5c0.8,0,1.5-0.1,2.1-0.4c0.6-0.3,1.1-0.7,1.5-1.2c0.4-0.5,0.7-1.2,0.9-1.9s0.3-1.5,0.3-2.4
		c0-2-0.4-3.5-1.1-4.4C926.1,152.8,925,152.4,923.6,152.4z"/>
	<path class="st1" d="M932.9,169.7v-18.2h0.7c0.2,0,0.3,0.1,0.4,0.3l0.1,2.1c0.6-0.8,1.3-1.4,2.1-1.9c0.8-0.5,1.7-0.7,2.7-0.7
		c1.7,0,2.9,0.6,3.8,1.7s1.4,2.9,1.4,5.1c0,1-0.1,1.9-0.4,2.8c-0.3,0.9-0.6,1.6-1.1,2.2c-0.5,0.6-1.1,1.1-1.8,1.5
		c-0.7,0.4-1.6,0.5-2.5,0.5c-0.9,0-1.7-0.2-2.4-0.5c-0.7-0.3-1.2-0.8-1.7-1.5v6.5H932.9z M938.5,152.4c-0.9,0-1.7,0.2-2.4,0.7
		s-1.4,1.1-1.9,1.9v7.1c0.5,0.8,1.1,1.3,1.7,1.6s1.3,0.5,2.1,0.5c0.8,0,1.5-0.1,2.1-0.4c0.6-0.3,1.1-0.7,1.5-1.2
		c0.4-0.5,0.7-1.2,0.9-1.9s0.3-1.5,0.3-2.4c0-2-0.4-3.5-1.1-4.4S939.9,152.4,938.5,152.4z"/>
	<path class="st1" d="M800.3,221.9v7.9H799v-7.9l-7.1-11.2h1.2c0.1,0,0.2,0,0.3,0.1s0.2,0.1,0.2,0.2l5.5,8.8
		c0.1,0.2,0.2,0.4,0.3,0.6c0.1,0.2,0.2,0.4,0.2,0.6c0.1-0.2,0.2-0.4,0.2-0.6c0.1-0.2,0.2-0.4,0.3-0.6l5.5-8.8c0-0.1,0.1-0.2,0.2-0.2
		s0.2-0.1,0.3-0.1h1.2L800.3,221.9z"/>
	<path class="st1" d="M815.2,216.1c1,0,1.8,0.2,2.6,0.5s1.4,0.8,1.9,1.4c0.5,0.6,0.9,1.3,1.2,2.2c0.3,0.9,0.4,1.8,0.4,2.9
		s-0.1,2-0.4,2.9c-0.3,0.9-0.7,1.6-1.2,2.2c-0.5,0.6-1.2,1.1-1.9,1.4c-0.8,0.3-1.6,0.5-2.6,0.5s-1.8-0.2-2.6-0.5s-1.4-0.8-1.9-1.4
		c-0.5-0.6-0.9-1.3-1.2-2.2s-0.4-1.8-0.4-2.9c0-1.1,0.1-2,0.4-2.9c0.3-0.9,0.7-1.6,1.2-2.2c0.5-0.6,1.2-1.1,1.9-1.4
		S814.2,216.1,815.2,216.1z M815.2,228.9c0.8,0,1.5-0.1,2.1-0.4s1.1-0.7,1.5-1.2s0.7-1.1,0.9-1.9c0.2-0.7,0.3-1.5,0.3-2.4
		c0-0.9-0.1-1.7-0.3-2.4s-0.5-1.4-0.9-1.9c-0.4-0.5-0.9-0.9-1.5-1.2s-1.3-0.4-2.1-0.4s-1.5,0.1-2.1,0.4s-1.1,0.7-1.5,1.2
		c-0.4,0.5-0.7,1.1-0.9,1.9s-0.3,1.5-0.3,2.4c0,0.9,0.1,1.7,0.3,2.4c0.2,0.7,0.5,1.3,0.9,1.9c0.4,0.5,0.9,0.9,1.5,1.2
		C813.7,228.8,814.4,228.9,815.2,228.9z"/>
	<path class="st1" d="M826.1,216.3v8.6c0,1.3,0.3,2.2,0.9,3c0.6,0.7,1.5,1.1,2.6,1.1c0.9,0,1.7-0.2,2.4-0.7c0.8-0.4,1.4-1.1,2-1.9
		v-10.1h1.3v13.4h-0.7c-0.2,0-0.4-0.1-0.4-0.4l-0.1-2c-0.6,0.8-1.3,1.4-2.2,1.9s-1.7,0.7-2.7,0.7c-0.8,0-1.4-0.1-2-0.4
		c-0.6-0.2-1-0.6-1.4-1c-0.4-0.4-0.7-1-0.8-1.6s-0.3-1.3-0.3-2.1v-8.6L826.1,216.3L826.1,216.3z"/>
	<path class="st1" d="M839.8,229.7v-13.4h0.7c0.2,0,0.3,0,0.3,0.1s0.1,0.2,0.1,0.3l0.1,2.8c0.2-0.6,0.4-1,0.7-1.5s0.6-0.8,0.9-1.1
		s0.7-0.5,1.2-0.7c0.4-0.2,0.9-0.2,1.4-0.2c0.3,0,0.5,0,0.8,0.1s0.5,0.1,0.7,0.3l-0.1,0.9c0,0.1-0.1,0.2-0.3,0.2
		c-0.1,0-0.3,0-0.5-0.1s-0.5-0.1-0.9-0.1c-0.5,0-1,0.1-1.4,0.2s-0.8,0.4-1.1,0.7s-0.6,0.7-0.8,1.2s-0.5,1-0.7,1.6v8.7L839.8,229.7
		L839.8,229.7z"/>
	<path class="st1" d="M862.3,210.4c0.7,0,1.4,0.1,2.1,0.3c0.7,0.2,1.2,0.5,1.8,1c0.5,0.4,0.9,1,1.2,1.6c0.3,0.6,0.5,1.4,0.5,2.3
		c0,0.7-0.1,1.4-0.3,2c-0.2,0.6-0.5,1.2-0.9,1.8c-0.4,0.6-0.8,1.1-1.3,1.6c-0.5,0.5-1,1.1-1.6,1.6l-6,6.1c0.3-0.1,0.6-0.1,0.9-0.2
		c0.3,0,0.6-0.1,0.9-0.1h8.2c0.1,0,0.3,0,0.3,0.1s0.1,0.2,0.1,0.3v0.8H856v-0.5c0-0.1,0-0.2,0.1-0.3c0-0.1,0.1-0.2,0.2-0.3l6.5-6.6
		c0.5-0.6,1-1.1,1.5-1.6s0.9-1,1.2-1.6c0.3-0.5,0.6-1.1,0.8-1.6s0.3-1.1,0.3-1.8c0-0.7-0.1-1.3-0.3-1.8s-0.5-0.9-0.9-1.3
		c-0.4-0.3-0.8-0.6-1.3-0.7c-0.5-0.2-1-0.2-1.6-0.2c-0.6,0-1.2,0.1-1.7,0.3c-0.5,0.2-1,0.4-1.3,0.8c-0.4,0.3-0.7,0.7-1,1.2
		c-0.3,0.4-0.4,0.9-0.5,1.5c-0.1,0.2-0.2,0.3-0.2,0.4s-0.2,0.1-0.4,0.1l-0.7-0.1c0.1-0.8,0.3-1.6,0.7-2.2s0.8-1.2,1.3-1.6
		c0.5-0.4,1.1-0.8,1.8-1C860.8,210.5,861.6,210.4,862.3,210.4z"/>
	<path class="st1" d="M872.3,229.7v-13.4h0.7c0.2,0,0.3,0.1,0.4,0.3l0.1,2c0.6-0.8,1.3-1.4,2.1-1.9c0.8-0.5,1.7-0.7,2.7-0.7
		c0.7,0,1.4,0.1,2,0.4c0.6,0.2,1,0.6,1.4,1c0.4,0.4,0.7,1,0.8,1.6s0.3,1.3,0.3,2.1v8.6h-1.3v-8.6c0-1.3-0.3-2.2-0.9-3
		s-1.5-1.1-2.6-1.1c-0.9,0-1.7,0.2-2.5,0.7c-0.8,0.4-1.4,1.1-2,1.9v10.1L872.3,229.7L872.3,229.7z"/>
	<path class="st1" d="M896.9,229.7c-0.2,0-0.4-0.1-0.4-0.4l-0.1-2.1c-0.6,0.8-1.3,1.4-2.1,1.9s-1.7,0.7-2.7,0.7
		c-1.7,0-2.9-0.6-3.9-1.7s-1.4-2.9-1.4-5.1c0-1,0.1-1.9,0.4-2.8c0.3-0.9,0.6-1.6,1.1-2.2s1.1-1.1,1.8-1.5c0.7-0.4,1.6-0.5,2.5-0.5
		c0.9,0,1.7,0.2,2.4,0.5c0.7,0.3,1.2,0.8,1.7,1.5v-8h1.3v19.6L896.9,229.7L896.9,229.7z M891.9,228.9c0.9,0,1.7-0.2,2.4-0.7
		c0.7-0.5,1.4-1.1,1.9-1.9v-7c-0.5-0.8-1.1-1.3-1.7-1.6c-0.6-0.3-1.3-0.5-2.1-0.5c-0.8,0-1.5,0.1-2.1,0.4c-0.6,0.3-1.1,0.7-1.5,1.2
		s-0.7,1.2-0.9,1.9s-0.3,1.5-0.3,2.4c0,2,0.4,3.5,1.1,4.4C889.5,228.4,890.5,228.9,891.9,228.9z"/>
	<path class="st1" d="M924.4,229.7h-1.1c-0.1,0-0.2,0-0.3-0.1s-0.1-0.1-0.2-0.3l-2.2-5.5h-9.4l-2.2,5.5c0,0.1-0.1,0.2-0.2,0.3
		s-0.2,0.1-0.3,0.1h-1l7.8-19.1h1.4L924.4,229.7z M911.7,222.8h8.5l-3.9-9.6c-0.1-0.3-0.3-0.7-0.4-1.1c-0.1,0.2-0.1,0.4-0.2,0.6
		s-0.1,0.4-0.2,0.5L911.7,222.8z"/>
	<path class="st1" d="M927,234.5v-18.2h0.7c0.2,0,0.4,0.1,0.4,0.3l0.1,2.1c0.6-0.8,1.3-1.4,2.1-1.9s1.7-0.7,2.7-0.7
		c1.7,0,2.9,0.6,3.8,1.7s1.4,2.9,1.4,5.1c0,1-0.1,1.9-0.4,2.7c-0.3,0.9-0.6,1.6-1.1,2.2s-1.1,1.1-1.8,1.5c-0.7,0.4-1.6,0.5-2.5,0.5
		c-0.9,0-1.7-0.2-2.4-0.5c-0.7-0.3-1.2-0.8-1.7-1.5v6.5L927,234.5L927,234.5z M932.6,217.1c-0.9,0-1.7,0.2-2.4,0.7
		c-0.7,0.5-1.4,1.1-1.9,1.9v7.1c0.5,0.8,1.1,1.3,1.7,1.6s1.3,0.5,2.2,0.5c0.8,0,1.5-0.1,2.1-0.4c0.6-0.3,1.1-0.7,1.5-1.2
		c0.4-0.5,0.7-1.2,0.9-1.9s0.3-1.5,0.3-2.4c0-2-0.4-3.5-1.1-4.4C935.1,217.6,934,217.1,932.6,217.1z"/>
	<path class="st1" d="M941.9,234.5v-18.2h0.7c0.2,0,0.3,0.1,0.4,0.3l0.1,2.1c0.6-0.8,1.3-1.4,2.1-1.9c0.8-0.5,1.7-0.7,2.7-0.7
		c1.7,0,2.9,0.6,3.8,1.7s1.4,2.9,1.4,5.1c0,1-0.1,1.9-0.4,2.7c-0.3,0.9-0.6,1.6-1.1,2.2c-0.5,0.6-1.1,1.1-1.8,1.5
		c-0.7,0.4-1.6,0.5-2.5,0.5c-0.9,0-1.7-0.2-2.4-0.5c-0.7-0.3-1.2-0.8-1.7-1.5v6.5L941.9,234.5L941.9,234.5z M947.5,217.1
		c-0.9,0-1.7,0.2-2.4,0.7s-1.4,1.1-1.9,1.9v7.1c0.5,0.8,1.1,1.3,1.7,1.6s1.3,0.5,2.1,0.5c0.8,0,1.5-0.1,2.1-0.4
		c0.6-0.3,1.1-0.7,1.5-1.2s0.7-1.2,0.9-1.9s0.3-1.5,0.3-2.4c0-2-0.4-3.5-1.1-4.4S948.9,217.1,947.5,217.1z"/>
</g>
<g>
	<path class="st1" d="M54.3,151.3c0.8,0,1.5,0.1,2.1,0.4c0.7,0.3,1.2,0.6,1.7,1.1s0.8,1.1,1.1,1.8c0.3,0.7,0.4,1.6,0.4,2.5
		c0,0.2,0,0.3-0.1,0.4c0,0.1-0.1,0.1-0.3,0.1h-9.8v0.3c0,1,0.1,1.9,0.3,2.7c0.2,0.8,0.6,1.4,1,1.9c0.4,0.5,1,0.9,1.6,1.2
		s1.3,0.4,2,0.4c0.7,0,1.3-0.1,1.8-0.2s0.9-0.3,1.2-0.5c0.3-0.2,0.6-0.4,0.8-0.5s0.3-0.2,0.4-0.2c0.1,0,0.2,0,0.3,0.1l0.3,0.4
		c-0.2,0.3-0.5,0.5-0.9,0.8s-0.8,0.4-1.2,0.6c-0.4,0.2-0.9,0.3-1.4,0.4c-0.5,0.1-1,0.1-1.5,0.1c-0.9,0-1.8-0.2-2.5-0.5
		c-0.8-0.3-1.4-0.8-1.9-1.4s-1-1.4-1.2-2.2s-0.4-1.9-0.4-3c0-1,0.1-1.9,0.4-2.7s0.7-1.5,1.2-2.1c0.5-0.6,1.2-1.1,1.9-1.4
		C52.5,151.5,53.4,151.3,54.3,151.3z M54.4,152.3c-0.7,0-1.3,0.1-1.9,0.3c-0.5,0.2-1,0.5-1.4,0.9c-0.4,0.4-0.7,0.9-1,1.5
		s-0.4,1.2-0.5,1.9h8.9c0-0.7-0.1-1.4-0.3-1.9c-0.2-0.6-0.5-1.1-0.9-1.4s-0.8-0.7-1.3-0.9C55.5,152.4,55,152.3,54.4,152.3z"/>
	<path class="st1" d="M63.2,165v-13.4h0.7c0.2,0,0.3,0.1,0.4,0.3l0.1,1.9c0.5-0.8,1.1-1.4,1.8-1.8c0.7-0.5,1.4-0.7,2.3-0.7
		c1,0,1.8,0.3,2.3,0.9c0.6,0.6,1,1.4,1.2,2.4c0.2-0.6,0.4-1,0.7-1.4s0.6-0.7,1-1c0.4-0.3,0.8-0.5,1.2-0.6c0.4-0.1,0.9-0.2,1.4-0.2
		c0.7,0,1.3,0.1,1.8,0.3s1,0.6,1.3,1c0.4,0.4,0.7,1,0.8,1.6c0.2,0.6,0.3,1.4,0.3,2.2v8.6h-1.3v-8.6c0-1.3-0.3-2.3-0.8-3
		s-1.4-1-2.4-1c-0.5,0-0.9,0.1-1.3,0.3s-0.8,0.4-1.1,0.8c-0.3,0.3-0.6,0.8-0.8,1.3s-0.3,1.1-0.3,1.8v8.6h-1.3v-8.6
		c0-1.3-0.3-2.3-0.8-3c-0.5-0.7-1.3-1-2.3-1c-0.7,0-1.4,0.2-2,0.6s-1.2,1-1.7,1.8V165L63.2,165L63.2,165z"/>
	<path class="st1" d="M84.9,169.7v-18.2h0.7c0.2,0,0.3,0.1,0.4,0.3l0.1,2.1c0.6-0.8,1.3-1.4,2.1-1.9c0.8-0.5,1.7-0.7,2.7-0.7
		c1.7,0,2.9,0.6,3.8,1.7s1.4,2.9,1.4,5.1c0,1-0.1,1.9-0.4,2.8c-0.3,0.9-0.6,1.6-1.1,2.2s-1.1,1.1-1.8,1.5s-1.6,0.5-2.5,0.5
		c-0.9,0-1.7-0.2-2.4-0.5s-1.2-0.8-1.7-1.5v6.5H84.9z M90.5,152.4c-0.9,0-1.7,0.2-2.4,0.7c-0.7,0.5-1.4,1.1-1.9,1.9v7.1
		c0.5,0.8,1.1,1.3,1.7,1.6c0.6,0.3,1.3,0.5,2.2,0.5c0.8,0,1.5-0.1,2.1-0.4c0.6-0.3,1.1-0.7,1.5-1.2s0.7-1.2,0.9-1.9
		c0.2-0.7,0.3-1.5,0.3-2.4c0-2-0.4-3.5-1.1-4.4S91.9,152.4,90.5,152.4z"/>
	<path class="st1" d="M101.2,145.3V165h-1.3v-19.6H101.2z"/>
	<path class="st1" d="M111.1,151.3c1,0,1.8,0.2,2.6,0.5s1.4,0.8,1.9,1.4s0.9,1.3,1.2,2.2s0.4,1.8,0.4,2.9s-0.1,2-0.4,2.9
		c-0.3,0.9-0.7,1.6-1.2,2.2s-1.2,1.1-1.9,1.4c-0.8,0.3-1.6,0.5-2.6,0.5s-1.8-0.2-2.6-0.5c-0.8-0.3-1.4-0.8-1.9-1.4s-0.9-1.3-1.2-2.2
		c-0.3-0.9-0.4-1.8-0.4-2.9s0.1-2,0.4-2.9s0.7-1.6,1.2-2.2c0.5-0.6,1.2-1.1,1.9-1.4C109.2,151.5,110.1,151.3,111.1,151.3z
		 M111.1,164.1c0.8,0,1.5-0.1,2.1-0.4s1.1-0.7,1.5-1.2s0.7-1.1,0.9-1.9c0.2-0.7,0.3-1.5,0.3-2.4c0-0.9-0.1-1.7-0.3-2.4
		c-0.2-0.7-0.5-1.4-0.9-1.9c-0.4-0.5-0.9-0.9-1.5-1.2s-1.3-0.4-2.1-0.4c-0.8,0-1.5,0.1-2.1,0.4s-1.1,0.7-1.5,1.2
		c-0.4,0.5-0.7,1.1-0.9,1.9c-0.2,0.7-0.3,1.5-0.3,2.4c0,0.9,0.1,1.7,0.3,2.4c0.2,0.7,0.5,1.3,0.9,1.9c0.4,0.5,0.9,0.9,1.5,1.2
		C109.6,164,110.2,164.1,111.1,164.1z"/>
	<path class="st1" d="M123.9,169.3c-0.1,0.1-0.1,0.2-0.2,0.3s-0.2,0.1-0.4,0.1h-0.9l2.4-5.2l-5.7-12.9h1.1c0.1,0,0.2,0,0.3,0.1
		s0.1,0.1,0.2,0.2l4.5,10.4c0.1,0.1,0.1,0.3,0.1,0.4s0.1,0.3,0.1,0.4c0-0.1,0.1-0.3,0.1-0.4c0.1-0.1,0.1-0.3,0.2-0.4l4.5-10.4
		c0-0.1,0.1-0.2,0.2-0.2c0.1-0.1,0.2-0.1,0.3-0.1h1L123.9,169.3z"/>
	<path class="st1" d="M139.6,151.3c0.8,0,1.5,0.1,2.1,0.4c0.6,0.3,1.2,0.6,1.7,1.1s0.9,1.1,1.1,1.8c0.3,0.7,0.4,1.6,0.4,2.5
		c0,0.2,0,0.3-0.1,0.4c-0.1,0.1-0.1,0.1-0.3,0.1h-9.8v0.3c0,1,0.1,1.9,0.4,2.7c0.2,0.8,0.6,1.4,1,1.9c0.4,0.5,0.9,0.9,1.6,1.2
		s1.3,0.4,2.1,0.4c0.7,0,1.3-0.1,1.8-0.2s0.9-0.3,1.2-0.5c0.3-0.2,0.6-0.4,0.8-0.5s0.3-0.2,0.4-0.2c0.1,0,0.2,0,0.3,0.1l0.4,0.4
		c-0.2,0.3-0.5,0.5-0.9,0.8s-0.8,0.4-1.2,0.6c-0.4,0.2-0.9,0.3-1.4,0.4c-0.5,0.1-1,0.1-1.5,0.1c-0.9,0-1.8-0.2-2.5-0.5
		c-0.8-0.3-1.4-0.8-1.9-1.4s-1-1.4-1.2-2.2s-0.4-1.9-0.4-3c0-1,0.1-1.9,0.4-2.7s0.7-1.5,1.2-2.1c0.5-0.6,1.1-1.1,1.9-1.4
		C137.8,151.5,138.6,151.3,139.6,151.3z M139.6,152.3c-0.7,0-1.3,0.1-1.9,0.3c-0.6,0.2-1,0.5-1.4,0.9s-0.7,0.9-1,1.5
		s-0.4,1.2-0.5,1.9h8.9c0-0.7-0.1-1.4-0.3-1.9c-0.2-0.6-0.5-1.1-0.9-1.4s-0.8-0.7-1.3-0.9C140.8,152.4,140.2,152.3,139.6,152.3z"/>
	<path class="st1" d="M153.6,151.3c0.8,0,1.5,0.1,2.1,0.4c0.6,0.3,1.2,0.6,1.7,1.1s0.9,1.1,1.1,1.8c0.3,0.7,0.4,1.6,0.4,2.5
		c0,0.2,0,0.3-0.1,0.4c-0.1,0.1-0.1,0.1-0.3,0.1h-9.8v0.3c0,1,0.1,1.9,0.4,2.7c0.2,0.8,0.6,1.4,1,1.9c0.4,0.5,0.9,0.9,1.6,1.2
		s1.3,0.4,2.1,0.4c0.7,0,1.3-0.1,1.8-0.2s0.9-0.3,1.2-0.5c0.3-0.2,0.6-0.4,0.8-0.5s0.3-0.2,0.4-0.2c0.1,0,0.2,0,0.3,0.1l0.4,0.4
		c-0.2,0.3-0.5,0.5-0.9,0.8s-0.8,0.4-1.2,0.6c-0.4,0.2-0.9,0.3-1.4,0.4c-0.5,0.1-1,0.1-1.5,0.1c-0.9,0-1.8-0.2-2.5-0.5
		c-0.8-0.3-1.4-0.8-1.9-1.4s-1-1.4-1.2-2.2s-0.4-1.9-0.4-3c0-1,0.1-1.9,0.4-2.7s0.7-1.5,1.2-2.1c0.5-0.6,1.1-1.1,1.9-1.4
		C151.8,151.5,152.7,151.3,153.6,151.3z M153.6,152.3c-0.7,0-1.3,0.1-1.9,0.3c-0.6,0.2-1,0.5-1.4,0.9s-0.7,0.9-1,1.5
		s-0.4,1.2-0.5,1.9h8.9c0-0.7-0.1-1.4-0.3-1.9c-0.2-0.6-0.5-1.1-0.9-1.4s-0.8-0.7-1.3-0.9C154.8,152.4,154.3,152.3,153.6,152.3z"/>
	<path class="st1" d="M169.8,153.2c-0.1,0.1-0.2,0.2-0.3,0.2c-0.1,0-0.2-0.1-0.4-0.2s-0.4-0.2-0.6-0.4c-0.3-0.1-0.6-0.3-0.9-0.4
		c-0.4-0.1-0.8-0.2-1.4-0.2c-0.5,0-0.9,0.1-1.3,0.2c-0.4,0.1-0.7,0.3-1,0.6s-0.5,0.5-0.6,0.8c-0.1,0.3-0.2,0.6-0.2,1
		c0,0.4,0.1,0.8,0.3,1.1s0.5,0.5,0.8,0.7s0.7,0.4,1.2,0.5s0.9,0.3,1.4,0.4c0.5,0.1,0.9,0.3,1.4,0.5s0.9,0.4,1.2,0.6s0.6,0.6,0.8,1
		c0.2,0.4,0.3,0.8,0.3,1.4c0,0.6-0.1,1.1-0.3,1.6c-0.2,0.5-0.5,0.9-0.9,1.3c-0.4,0.4-0.9,0.7-1.5,0.9s-1.2,0.3-2,0.3
		c-0.9,0-1.8-0.1-2.4-0.4c-0.7-0.3-1.3-0.7-1.8-1.2l0.3-0.5c0-0.1,0.1-0.1,0.2-0.2c0.1,0,0.1-0.1,0.2-0.1c0.1,0,0.3,0.1,0.4,0.2
		c0.2,0.1,0.4,0.3,0.7,0.5s0.6,0.3,1,0.5c0.4,0.1,0.9,0.2,1.5,0.2c0.6,0,1.1-0.1,1.5-0.2s0.8-0.4,1.1-0.6c0.3-0.3,0.5-0.6,0.6-0.9
		s0.2-0.8,0.2-1.1c0-0.4-0.1-0.8-0.3-1.1s-0.5-0.6-0.9-0.8c-0.4-0.2-0.8-0.4-1.2-0.5c-0.4-0.1-0.9-0.3-1.4-0.4s-0.9-0.3-1.4-0.5
		c-0.4-0.2-0.8-0.4-1.2-0.6s-0.6-0.6-0.9-0.9s-0.3-0.8-0.3-1.4c0-0.5,0.1-0.9,0.3-1.4c0.2-0.4,0.5-0.8,0.9-1.2s0.9-0.6,1.4-0.8
		c0.6-0.2,1.2-0.3,1.9-0.3c0.8,0,1.5,0.1,2.2,0.4c0.6,0.2,1.2,0.6,1.7,1.1L169.8,153.2z"/>
	<path class="st1" d="M173.6,163.9c0-0.2,0-0.3,0.1-0.5s0.1-0.3,0.3-0.4s0.2-0.2,0.4-0.3s0.3-0.1,0.5-0.1c0.2,0,0.3,0,0.5,0.1
		s0.3,0.2,0.4,0.3s0.2,0.2,0.3,0.4s0.1,0.3,0.1,0.5c0,0.2,0,0.3-0.1,0.5s-0.2,0.3-0.3,0.4s-0.2,0.2-0.4,0.3s-0.3,0.1-0.5,0.1
		c-0.4,0-0.6-0.1-0.9-0.4S173.6,164.3,173.6,163.9z"/>
	<path class="st1" d="M189.2,153.3c0,0-0.1,0.1-0.1,0.1c0,0-0.1,0.1-0.2,0.1c-0.1,0-0.2-0.1-0.4-0.2s-0.4-0.2-0.6-0.4
		c-0.3-0.1-0.6-0.3-1-0.4s-0.9-0.2-1.4-0.2c-0.8,0-1.5,0.1-2.1,0.4s-1.1,0.7-1.5,1.2c-0.4,0.5-0.7,1.1-0.9,1.9s-0.3,1.6-0.3,2.5
		c0,0.9,0.1,1.8,0.3,2.5s0.5,1.3,0.9,1.8s0.9,0.9,1.5,1.1c0.6,0.3,1.2,0.4,1.9,0.4c0.6,0,1.2-0.1,1.6-0.2s0.8-0.3,1.1-0.5
		s0.5-0.4,0.7-0.5s0.3-0.2,0.4-0.2s0.2,0,0.3,0.1l0.3,0.4c-0.2,0.3-0.5,0.5-0.8,0.8s-0.7,0.4-1.1,0.6c-0.4,0.2-0.8,0.3-1.3,0.4
		c-0.5,0.1-0.9,0.1-1.4,0.1c-0.9,0-1.6-0.2-2.3-0.5c-0.7-0.3-1.3-0.8-1.8-1.4c-0.5-0.6-0.9-1.3-1.2-2.2s-0.4-1.8-0.4-2.9
		c0-1,0.1-2,0.4-2.8c0.3-0.9,0.7-1.6,1.2-2.2c0.5-0.6,1.2-1.1,1.9-1.4s1.6-0.5,2.6-0.5c0.9,0,1.6,0.1,2.3,0.4
		c0.7,0.3,1.3,0.7,1.8,1.1L189.2,153.3z"/>
	<path class="st1" d="M198.3,151.3c1,0,1.8,0.2,2.6,0.5s1.4,0.8,1.9,1.4s0.9,1.3,1.2,2.2s0.4,1.8,0.4,2.9s-0.1,2-0.4,2.9
		s-0.7,1.6-1.2,2.2s-1.2,1.1-1.9,1.4c-0.8,0.3-1.6,0.5-2.6,0.5s-1.8-0.2-2.6-0.5c-0.8-0.3-1.4-0.8-1.9-1.4s-0.9-1.3-1.2-2.2
		c-0.3-0.9-0.4-1.8-0.4-2.9s0.1-2,0.4-2.9s0.7-1.6,1.2-2.2c0.5-0.6,1.2-1.1,1.9-1.4C196.4,151.5,197.3,151.3,198.3,151.3z
		 M198.3,164.1c0.8,0,1.5-0.1,2.1-0.4s1.1-0.7,1.5-1.2s0.7-1.1,0.9-1.9s0.3-1.5,0.3-2.4c0-0.9-0.1-1.7-0.3-2.4s-0.5-1.4-0.9-1.9
		c-0.4-0.5-0.9-0.9-1.5-1.2s-1.3-0.4-2.1-0.4s-1.5,0.1-2.1,0.4s-1.1,0.7-1.5,1.2c-0.4,0.5-0.7,1.1-0.9,1.9s-0.3,1.5-0.3,2.4
		c0,0.9,0.1,1.7,0.3,2.4c0.2,0.7,0.5,1.3,0.9,1.9c0.4,0.5,0.9,0.9,1.5,1.2C196.8,164,197.5,164.1,198.3,164.1z"/>
	<path class="st1" d="M208,165v-13.4h0.7c0.2,0,0.4,0.1,0.4,0.3l0.1,1.9c0.5-0.8,1.1-1.4,1.8-1.8c0.7-0.5,1.4-0.7,2.3-0.7
		c1,0,1.8,0.3,2.4,0.9c0.6,0.6,1,1.4,1.2,2.4c0.2-0.6,0.4-1,0.7-1.4s0.6-0.7,1-1c0.4-0.3,0.8-0.5,1.2-0.6c0.4-0.1,0.9-0.2,1.4-0.2
		c0.7,0,1.3,0.1,1.8,0.3s1,0.6,1.4,1c0.4,0.4,0.6,1,0.9,1.6c0.2,0.6,0.3,1.4,0.3,2.2v8.6h-1.3v-8.6c0-1.3-0.3-2.3-0.9-3
		s-1.4-1-2.4-1c-0.5,0-0.9,0.1-1.3,0.3s-0.8,0.4-1.1,0.8s-0.6,0.8-0.8,1.3s-0.3,1.1-0.3,1.8v8.6H216v-8.6c0-1.3-0.3-2.3-0.8-3
		c-0.5-0.7-1.3-1-2.3-1c-0.7,0-1.4,0.2-2,0.6s-1.2,1-1.7,1.8V165L208,165L208,165z"/>
	<path class="st1" d="M229.7,169.7v-18.2h0.7c0.2,0,0.4,0.1,0.4,0.3l0.1,2.1c0.6-0.8,1.3-1.4,2.1-1.9s1.7-0.7,2.7-0.7
		c1.6,0,2.9,0.6,3.9,1.7c0.9,1.1,1.4,2.9,1.4,5.1c0,1-0.1,1.9-0.4,2.8c-0.3,0.9-0.6,1.6-1.1,2.2s-1.1,1.1-1.8,1.5s-1.6,0.5-2.5,0.5
		c-0.9,0-1.7-0.2-2.4-0.5s-1.2-0.8-1.7-1.5v6.5H229.7z M235.4,152.4c-0.9,0-1.7,0.2-2.4,0.7c-0.7,0.5-1.4,1.1-1.9,1.9v7.1
		c0.5,0.8,1.1,1.3,1.7,1.6s1.3,0.5,2.1,0.5c0.8,0,1.5-0.1,2.1-0.4c0.6-0.3,1.1-0.7,1.5-1.2c0.4-0.5,0.7-1.2,0.9-1.9s0.3-1.5,0.3-2.4
		c0-2-0.4-3.5-1.1-4.4S236.7,152.4,235.4,152.4z"/>
	<path class="st1" d="M252.9,165c-0.3,0-0.4-0.1-0.5-0.4l-0.2-1.7c-0.4,0.4-0.7,0.7-1.1,1c-0.4,0.3-0.7,0.5-1.1,0.7
		s-0.8,0.4-1.3,0.4c-0.5,0.1-1,0.2-1.5,0.2c-0.5,0-0.9-0.1-1.3-0.2c-0.4-0.1-0.8-0.3-1.1-0.6s-0.6-0.6-0.8-1.1
		c-0.2-0.4-0.3-1-0.3-1.6c0-0.6,0.2-1.1,0.5-1.6c0.3-0.5,0.8-0.9,1.5-1.3s1.6-0.6,2.7-0.9c1.1-0.2,2.4-0.3,3.9-0.4v-1.4
		c0-1.2-0.3-2.2-0.8-2.9c-0.5-0.7-1.3-1-2.4-1c-0.6,0-1.2,0.1-1.6,0.3c-0.4,0.2-0.8,0.4-1.1,0.6s-0.6,0.4-0.8,0.6s-0.4,0.3-0.5,0.3
		c-0.1,0-0.2,0-0.2-0.1c-0.1,0-0.1-0.1-0.2-0.2l-0.2-0.4c0.7-0.7,1.4-1.2,2.2-1.6s1.6-0.5,2.6-0.5c0.7,0,1.4,0.1,1.9,0.3
		s1,0.6,1.3,1c0.4,0.4,0.6,0.9,0.8,1.6c0.2,0.6,0.3,1.3,0.3,2v8.7L252.9,165L252.9,165z M247.5,164.3c0.5,0,1-0.1,1.4-0.2
		s0.8-0.3,1.2-0.5c0.4-0.2,0.7-0.4,1.1-0.7s0.6-0.6,1-0.9v-3.5c-1.3,0-2.4,0.1-3.3,0.3c-0.9,0.2-1.7,0.4-2.3,0.6
		c-0.6,0.3-1,0.6-1.3,1c-0.3,0.4-0.4,0.8-0.4,1.3c0,0.4,0.1,0.8,0.2,1.2s0.4,0.6,0.6,0.8c0.2,0.2,0.5,0.4,0.9,0.5
		C246.8,164.2,247.1,164.3,247.5,164.3z"/>
	<path class="st1" d="M257.7,165v-13.4h0.7c0.2,0,0.4,0.1,0.4,0.3l0.1,2c0.6-0.8,1.3-1.4,2.1-1.9s1.7-0.7,2.7-0.7
		c0.7,0,1.4,0.1,2,0.4s1,0.6,1.4,1c0.4,0.4,0.6,1,0.8,1.6s0.3,1.3,0.3,2.1v8.6h-1.3v-8.6c0-1.3-0.3-2.2-0.9-3
		c-0.6-0.7-1.5-1.1-2.6-1.1c-0.9,0-1.7,0.2-2.5,0.7c-0.8,0.4-1.4,1.1-2,1.9V165L257.7,165L257.7,165z"/>
	<path class="st1" d="M275.6,169.3c0,0.1-0.1,0.2-0.2,0.3s-0.2,0.1-0.4,0.1h-0.9l2.4-5.2l-5.7-12.9h1.1c0.1,0,0.2,0,0.3,0.1
		c0.1,0.1,0.1,0.1,0.2,0.2l4.5,10.4c0,0.1,0.1,0.3,0.1,0.4s0.1,0.3,0.1,0.4c0-0.1,0.1-0.3,0.1-0.4c0-0.1,0.1-0.3,0.2-0.4l4.5-10.4
		c0-0.1,0.1-0.2,0.2-0.2c0.1-0.1,0.2-0.1,0.3-0.1h1L275.6,169.3z"/>
	<path class="st1" d="M285.7,163.9c0-0.2,0-0.3,0.1-0.5s0.1-0.3,0.3-0.4c0.1-0.1,0.2-0.2,0.4-0.3s0.3-0.1,0.5-0.1
		c0.2,0,0.3,0,0.5,0.1s0.3,0.2,0.4,0.3s0.2,0.2,0.3,0.4s0.1,0.3,0.1,0.5c0,0.2,0,0.3-0.1,0.5s-0.2,0.3-0.3,0.4s-0.2,0.2-0.4,0.3
		s-0.3,0.1-0.5,0.1c-0.4,0-0.6-0.1-0.9-0.4S285.7,164.3,285.7,163.9z"/>
	<path class="st1" d="M301.4,153.3c0,0-0.1,0.1-0.1,0.1s-0.1,0.1-0.2,0.1c-0.1,0-0.2-0.1-0.4-0.2s-0.4-0.2-0.6-0.4
		c-0.3-0.1-0.6-0.3-1-0.4s-0.9-0.2-1.4-0.2c-0.8,0-1.5,0.1-2.1,0.4s-1.1,0.7-1.5,1.2c-0.4,0.5-0.7,1.1-0.9,1.9s-0.3,1.6-0.3,2.5
		c0,0.9,0.1,1.8,0.3,2.5s0.5,1.3,0.9,1.8s0.9,0.9,1.5,1.1c0.6,0.3,1.2,0.4,1.9,0.4c0.6,0,1.2-0.1,1.6-0.2s0.8-0.3,1.1-0.5
		s0.5-0.4,0.7-0.5s0.3-0.2,0.4-0.2s0.2,0,0.3,0.1l0.3,0.4c-0.2,0.3-0.5,0.5-0.8,0.8s-0.7,0.4-1.1,0.6s-0.8,0.3-1.3,0.4
		c-0.5,0.1-1,0.1-1.5,0.1c-0.9,0-1.6-0.2-2.3-0.5s-1.3-0.8-1.8-1.4c-0.5-0.6-0.9-1.3-1.2-2.2s-0.4-1.8-0.4-2.9c0-1,0.1-2,0.4-2.8
		c0.3-0.9,0.7-1.6,1.2-2.2c0.5-0.6,1.2-1.1,1.9-1.4s1.6-0.5,2.6-0.5c0.9,0,1.6,0.1,2.3,0.4s1.3,0.7,1.8,1.1L301.4,153.3z"/>
	<path class="st1" d="M310.4,151.3c1,0,1.8,0.2,2.6,0.5c0.8,0.3,1.4,0.8,1.9,1.4s0.9,1.3,1.2,2.2s0.4,1.8,0.4,2.9s-0.1,2-0.4,2.9
		s-0.7,1.6-1.2,2.2s-1.2,1.1-1.9,1.4c-0.8,0.3-1.6,0.5-2.6,0.5s-1.8-0.2-2.6-0.5c-0.8-0.3-1.4-0.8-1.9-1.4s-0.9-1.3-1.2-2.2
		c-0.3-0.9-0.4-1.8-0.4-2.9s0.1-2,0.4-2.9s0.7-1.6,1.2-2.2c0.5-0.6,1.2-1.1,1.9-1.4C308.5,151.5,309.4,151.3,310.4,151.3z
		 M310.4,164.1c0.8,0,1.5-0.1,2.1-0.4s1.1-0.7,1.5-1.2s0.7-1.1,0.9-1.9c0.2-0.7,0.3-1.5,0.3-2.4c0-0.9-0.1-1.7-0.3-2.4
		c-0.2-0.7-0.5-1.4-0.9-1.9c-0.4-0.5-0.9-0.9-1.5-1.2s-1.3-0.4-2.1-0.4c-0.8,0-1.5,0.1-2.1,0.4s-1.1,0.7-1.5,1.2
		c-0.4,0.5-0.7,1.1-0.9,1.9c-0.2,0.7-0.3,1.5-0.3,2.4c0,0.9,0.1,1.7,0.3,2.4c0.2,0.7,0.5,1.3,0.9,1.9c0.4,0.5,0.9,0.9,1.5,1.2
		C308.9,164,309.6,164.1,310.4,164.1z"/>
	<path class="st1" d="M320.1,165v-13.4h0.7c0.2,0,0.4,0.1,0.4,0.3l0.1,1.9c0.5-0.8,1.1-1.4,1.8-1.8c0.7-0.5,1.4-0.7,2.3-0.7
		c1,0,1.8,0.3,2.4,0.9c0.6,0.6,1,1.4,1.2,2.4c0.2-0.6,0.4-1,0.7-1.4s0.6-0.7,1-1c0.4-0.3,0.8-0.5,1.2-0.6c0.4-0.1,0.9-0.2,1.4-0.2
		c0.7,0,1.3,0.1,1.8,0.3s1,0.6,1.4,1s0.6,1,0.9,1.6c0.2,0.6,0.3,1.4,0.3,2.2v8.6h-1.3v-8.6c0-1.3-0.3-2.3-0.9-3s-1.4-1-2.4-1
		c-0.5,0-0.9,0.1-1.3,0.3s-0.8,0.4-1.1,0.8c-0.3,0.3-0.6,0.8-0.8,1.3s-0.3,1.1-0.3,1.8v8.6h-1.3v-8.6c0-1.3-0.3-2.3-0.8-3
		c-0.5-0.7-1.3-1-2.3-1c-0.7,0-1.4,0.2-2,0.6s-1.2,1-1.7,1.8V165L320.1,165L320.1,165z"/>
	<path class="st1" d="M189.2,218.1c0,0-0.1,0.1-0.1,0.1c0,0-0.1,0.1-0.2,0.1c-0.1,0-0.2-0.1-0.4-0.2s-0.4-0.2-0.6-0.4
		c-0.3-0.1-0.6-0.3-1-0.4s-0.9-0.2-1.4-0.2c-0.8,0-1.5,0.1-2.1,0.4s-1.1,0.7-1.5,1.2c-0.4,0.5-0.7,1.1-0.9,1.9s-0.3,1.6-0.3,2.5
		c0,0.9,0.1,1.8,0.3,2.5s0.5,1.3,0.9,1.8c0.4,0.5,0.9,0.9,1.5,1.1c0.6,0.3,1.2,0.4,1.9,0.4c0.6,0,1.2-0.1,1.6-0.2s0.8-0.3,1.1-0.5
		s0.5-0.4,0.7-0.5s0.3-0.2,0.4-0.2s0.2,0,0.3,0.1l0.3,0.4c-0.2,0.3-0.5,0.5-0.8,0.8c-0.3,0.2-0.7,0.4-1.1,0.6
		c-0.4,0.2-0.8,0.3-1.3,0.4c-0.5,0.1-0.9,0.1-1.4,0.1c-0.9,0-1.6-0.2-2.3-0.5c-0.7-0.3-1.3-0.8-1.8-1.4c-0.5-0.6-0.9-1.3-1.2-2.2
		c-0.3-0.9-0.4-1.8-0.4-2.9c0-1,0.1-2,0.4-2.8c0.3-0.8,0.7-1.6,1.2-2.2c0.5-0.6,1.2-1.1,1.9-1.4c0.8-0.3,1.6-0.5,2.6-0.5
		c0.9,0,1.6,0.1,2.3,0.4c0.7,0.3,1.3,0.7,1.8,1.1L189.2,218.1z"/>
	<path class="st1" d="M198.3,216.1c1,0,1.8,0.2,2.6,0.5s1.4,0.8,1.9,1.4c0.5,0.6,0.9,1.3,1.2,2.2c0.3,0.9,0.4,1.8,0.4,2.9
		s-0.1,2-0.4,2.9s-0.7,1.6-1.2,2.2c-0.5,0.6-1.2,1.1-1.9,1.4c-0.8,0.3-1.6,0.5-2.6,0.5s-1.8-0.2-2.6-0.5c-0.8-0.3-1.4-0.8-1.9-1.4
		s-0.9-1.3-1.2-2.2s-0.4-1.8-0.4-2.9c0-1.1,0.1-2,0.4-2.9s0.7-1.6,1.2-2.2c0.5-0.6,1.2-1.1,1.9-1.4
		C196.4,216.2,197.3,216.1,198.3,216.1z M198.3,228.9c0.8,0,1.5-0.1,2.1-0.4s1.1-0.7,1.5-1.2s0.7-1.1,0.9-1.9
		c0.2-0.7,0.3-1.5,0.3-2.4c0-0.9-0.1-1.7-0.3-2.4s-0.5-1.4-0.9-1.9c-0.4-0.5-0.9-0.9-1.5-1.2s-1.3-0.4-2.1-0.4s-1.5,0.1-2.1,0.4
		s-1.1,0.7-1.5,1.2c-0.4,0.5-0.7,1.1-0.9,1.9s-0.3,1.5-0.3,2.4c0,0.9,0.1,1.7,0.3,2.4c0.2,0.7,0.5,1.3,0.9,1.9
		c0.4,0.5,0.9,0.9,1.5,1.2C196.8,228.8,197.5,228.9,198.3,228.9z"/>
	<path class="st1" d="M208,229.7v-13.4h0.7c0.2,0,0.4,0.1,0.4,0.3l0.1,1.9c0.5-0.8,1.1-1.4,1.8-1.8c0.7-0.5,1.4-0.7,2.3-0.7
		c1,0,1.8,0.3,2.4,0.9c0.6,0.6,1,1.4,1.2,2.4c0.2-0.6,0.4-1,0.7-1.4s0.6-0.7,1-1c0.4-0.3,0.8-0.5,1.2-0.6c0.4-0.1,0.9-0.2,1.4-0.2
		c0.7,0,1.3,0.1,1.8,0.3s1,0.6,1.4,1c0.4,0.4,0.6,1,0.9,1.6c0.2,0.6,0.3,1.4,0.3,2.2v8.6h-1.3v-8.6c0-1.3-0.3-2.3-0.9-3
		s-1.4-1-2.4-1c-0.5,0-0.9,0.1-1.3,0.3s-0.8,0.4-1.1,0.8s-0.6,0.8-0.8,1.3s-0.3,1.1-0.3,1.8v8.6H216v-8.6c0-1.3-0.3-2.3-0.8-3
		s-1.3-1-2.3-1c-0.7,0-1.4,0.2-2,0.6s-1.2,1-1.7,1.8v10.2L208,229.7L208,229.7z"/>
	<path class="st1" d="M229.7,234.5v-18.2h0.7c0.2,0,0.4,0.1,0.4,0.3l0.1,2.1c0.6-0.8,1.3-1.4,2.1-1.9s1.7-0.7,2.7-0.7
		c1.6,0,2.9,0.6,3.9,1.7s1.4,2.9,1.4,5.1c0,1-0.1,1.9-0.4,2.7c-0.3,0.9-0.6,1.6-1.1,2.2s-1.1,1.1-1.8,1.5s-1.6,0.5-2.5,0.5
		c-0.9,0-1.7-0.2-2.4-0.5c-0.7-0.3-1.2-0.8-1.7-1.5v6.5L229.7,234.5L229.7,234.5z M235.4,217.1c-0.9,0-1.7,0.2-2.4,0.7
		c-0.7,0.5-1.4,1.1-1.9,1.9v7.1c0.5,0.8,1.1,1.3,1.7,1.6s1.3,0.5,2.1,0.5c0.8,0,1.5-0.1,2.1-0.4c0.6-0.3,1.1-0.7,1.5-1.2
		c0.4-0.5,0.7-1.2,0.9-1.9s0.3-1.5,0.3-2.4c0-2-0.4-3.5-1.1-4.4S236.7,217.1,235.4,217.1z"/>
	<path class="st1" d="M252.9,229.7c-0.3,0-0.4-0.1-0.5-0.4l-0.2-1.7c-0.4,0.4-0.7,0.7-1.1,1c-0.4,0.3-0.7,0.5-1.1,0.7
		s-0.8,0.4-1.3,0.4s-1,0.2-1.5,0.2c-0.5,0-0.9-0.1-1.3-0.2s-0.8-0.3-1.1-0.6c-0.3-0.3-0.6-0.6-0.8-1.1c-0.2-0.4-0.3-1-0.3-1.6
		c0-0.6,0.2-1.1,0.5-1.6c0.3-0.5,0.8-0.9,1.5-1.3s1.6-0.6,2.7-0.9c1.1-0.2,2.4-0.3,3.9-0.4V221c0-1.2-0.3-2.2-0.8-2.9
		c-0.5-0.7-1.3-1-2.4-1c-0.6,0-1.2,0.1-1.6,0.3c-0.4,0.2-0.8,0.4-1.1,0.6c-0.3,0.2-0.6,0.4-0.8,0.6s-0.4,0.3-0.5,0.3
		c-0.1,0-0.2,0-0.2-0.1c-0.1,0-0.1-0.1-0.2-0.2l-0.2-0.4c0.7-0.7,1.4-1.2,2.2-1.6s1.6-0.5,2.6-0.5c0.7,0,1.4,0.1,1.9,0.3
		s1,0.6,1.3,1c0.4,0.4,0.6,0.9,0.8,1.6c0.2,0.6,0.3,1.3,0.3,2v8.7L252.9,229.7L252.9,229.7z M247.5,229c0.5,0,1-0.1,1.4-0.2
		s0.8-0.3,1.2-0.5c0.4-0.2,0.7-0.4,1.1-0.7c0.3-0.3,0.6-0.6,1-0.9v-3.5c-1.3,0-2.4,0.1-3.3,0.3c-0.9,0.2-1.7,0.4-2.3,0.6
		s-1,0.6-1.3,1c-0.3,0.4-0.4,0.8-0.4,1.3c0,0.4,0.1,0.8,0.2,1.2s0.4,0.6,0.6,0.8c0.2,0.2,0.5,0.4,0.9,0.5
		C246.8,229,247.1,229,247.5,229z"/>
	<path class="st1" d="M257.7,229.7v-13.4h0.7c0.2,0,0.4,0.1,0.4,0.3l0.1,2c0.6-0.8,1.3-1.4,2.1-1.9s1.7-0.7,2.7-0.7
		c0.7,0,1.4,0.1,2,0.4c0.6,0.2,1,0.6,1.4,1c0.4,0.4,0.6,1,0.8,1.6s0.3,1.3,0.3,2.1v8.6h-1.3v-8.6c0-1.3-0.3-2.2-0.9-3
		s-1.5-1.1-2.6-1.1c-0.9,0-1.7,0.2-2.5,0.7c-0.8,0.4-1.4,1.1-2,1.9v10.1L257.7,229.7L257.7,229.7z"/>
	<path class="st1" d="M275.6,234c0,0.1-0.1,0.2-0.2,0.3s-0.2,0.1-0.4,0.1h-0.9l2.4-5.2l-5.7-12.9h1.1c0.1,0,0.2,0,0.3,0.1
		c0.1,0.1,0.1,0.1,0.2,0.2l4.5,10.4c0,0.1,0.1,0.3,0.1,0.4s0.1,0.3,0.1,0.4c0-0.1,0.1-0.3,0.1-0.4c0-0.1,0.1-0.3,0.2-0.4l4.5-10.4
		c0-0.1,0.1-0.2,0.2-0.2c0.1-0.1,0.2-0.1,0.3-0.1h1L275.6,234z"/>
	<path class="st1" d="M285.7,228.7c0-0.2,0-0.3,0.1-0.5s0.1-0.3,0.3-0.4c0.1-0.1,0.2-0.2,0.4-0.3s0.3-0.1,0.5-0.1
		c0.2,0,0.3,0,0.5,0.1s0.3,0.2,0.4,0.3s0.2,0.2,0.3,0.4s0.1,0.3,0.1,0.5c0,0.2,0,0.3-0.1,0.5s-0.2,0.3-0.3,0.4s-0.2,0.2-0.4,0.3
		s-0.3,0.1-0.5,0.1c-0.4,0-0.6-0.1-0.9-0.4S285.7,229,285.7,228.7z"/>
	<path class="st1" d="M301.4,218.1c0,0-0.1,0.1-0.1,0.1s-0.1,0.1-0.2,0.1c-0.1,0-0.2-0.1-0.4-0.2s-0.4-0.2-0.6-0.4
		c-0.3-0.1-0.6-0.3-1-0.4s-0.9-0.2-1.4-0.2c-0.8,0-1.5,0.1-2.1,0.4s-1.1,0.7-1.5,1.2c-0.4,0.5-0.7,1.1-0.9,1.9s-0.3,1.6-0.3,2.5
		c0,0.9,0.1,1.8,0.3,2.5s0.5,1.3,0.9,1.8c0.4,0.5,0.9,0.9,1.5,1.1c0.6,0.3,1.2,0.4,1.9,0.4c0.6,0,1.2-0.1,1.6-0.2s0.8-0.3,1.1-0.5
		s0.5-0.4,0.7-0.5s0.3-0.2,0.4-0.2s0.2,0,0.3,0.1l0.3,0.4c-0.2,0.3-0.5,0.5-0.8,0.8c-0.3,0.2-0.7,0.4-1.1,0.6s-0.8,0.3-1.3,0.4
		c-0.5,0.1-1,0.1-1.5,0.1c-0.9,0-1.6-0.2-2.3-0.5s-1.3-0.8-1.8-1.4c-0.5-0.6-0.9-1.3-1.2-2.2c-0.3-0.9-0.4-1.8-0.4-2.9
		c0-1,0.1-2,0.4-2.8c0.3-0.8,0.7-1.6,1.2-2.2c0.5-0.6,1.2-1.1,1.9-1.4c0.8-0.3,1.6-0.5,2.6-0.5c0.9,0,1.6,0.1,2.3,0.4
		s1.3,0.7,1.8,1.1L301.4,218.1z"/>
	<path class="st1" d="M310.4,216.1c1,0,1.8,0.2,2.6,0.5c0.8,0.3,1.4,0.8,1.9,1.4c0.5,0.6,0.9,1.3,1.2,2.2c0.3,0.9,0.4,1.8,0.4,2.9
		s-0.1,2-0.4,2.9s-0.7,1.6-1.2,2.2c-0.5,0.6-1.2,1.1-1.9,1.4c-0.8,0.3-1.6,0.5-2.6,0.5s-1.8-0.2-2.6-0.5c-0.8-0.3-1.4-0.8-1.9-1.4
		s-0.9-1.3-1.2-2.2c-0.3-0.8-0.4-1.8-0.4-2.9c0-1.1,0.1-2,0.4-2.9s0.7-1.6,1.2-2.2c0.5-0.6,1.2-1.1,1.9-1.4
		C308.5,216.2,309.4,216.1,310.4,216.1z M310.4,228.9c0.8,0,1.5-0.1,2.1-0.4s1.1-0.7,1.5-1.2s0.7-1.1,0.9-1.9
		c0.2-0.7,0.3-1.5,0.3-2.4c0-0.9-0.1-1.7-0.3-2.4c-0.2-0.7-0.5-1.4-0.9-1.9c-0.4-0.5-0.9-0.9-1.5-1.2s-1.3-0.4-2.1-0.4
		c-0.8,0-1.5,0.1-2.1,0.4s-1.1,0.7-1.5,1.2c-0.4,0.5-0.7,1.1-0.9,1.9c-0.2,0.7-0.3,1.5-0.3,2.4c0,0.9,0.1,1.7,0.3,2.4
		c0.2,0.7,0.5,1.3,0.9,1.9c0.4,0.5,0.9,0.9,1.5,1.2C308.9,228.8,309.6,228.9,310.4,228.9z"/>
	<path class="st1" d="M320.1,229.7v-13.4h0.7c0.2,0,0.4,0.1,0.4,0.3l0.1,1.9c0.5-0.8,1.1-1.4,1.8-1.8c0.7-0.5,1.4-0.7,2.3-0.7
		c1,0,1.8,0.3,2.4,0.9c0.6,0.6,1,1.4,1.2,2.4c0.2-0.6,0.4-1,0.7-1.4s0.6-0.7,1-1c0.4-0.3,0.8-0.5,1.2-0.6c0.4-0.1,0.9-0.2,1.4-0.2
		c0.7,0,1.3,0.1,1.8,0.3s1,0.6,1.4,1s0.6,1,0.9,1.6c0.2,0.6,0.3,1.4,0.3,2.2v8.6h-1.3v-8.6c0-1.3-0.3-2.3-0.9-3s-1.4-1-2.4-1
		c-0.5,0-0.9,0.1-1.3,0.3s-0.8,0.4-1.1,0.8c-0.3,0.3-0.6,0.8-0.8,1.3s-0.3,1.1-0.3,1.8v8.6h-1.3v-8.6c0-1.3-0.3-2.3-0.8-3
		s-1.3-1-2.3-1c-0.7,0-1.4,0.2-2,0.6s-1.2,1-1.7,1.8v10.2L320.1,229.7L320.1,229.7z"/>
	<path class="st1" d="M211.1,282.9c0,0-0.1,0.1-0.1,0.1s-0.1,0-0.2,0c-0.1,0-0.2-0.1-0.4-0.2s-0.4-0.2-0.6-0.4
		c-0.3-0.1-0.6-0.3-1-0.4s-0.9-0.2-1.4-0.2c-0.8,0-1.5,0.1-2.1,0.4c-0.6,0.3-1.1,0.7-1.5,1.2c-0.4,0.5-0.7,1.1-0.9,1.9
		s-0.3,1.5-0.3,2.5c0,0.9,0.1,1.8,0.3,2.5s0.5,1.3,0.9,1.8s0.9,0.9,1.5,1.1c0.6,0.3,1.2,0.4,1.9,0.4c0.6,0,1.2-0.1,1.6-0.2
		c0.4-0.1,0.8-0.3,1.1-0.5s0.5-0.4,0.7-0.5s0.3-0.2,0.4-0.2s0.2,0,0.3,0.1l0.3,0.4c-0.2,0.3-0.5,0.5-0.8,0.8s-0.7,0.4-1.1,0.6
		c-0.4,0.2-0.8,0.3-1.3,0.4c-0.5,0.1-0.9,0.1-1.4,0.1c-0.9,0-1.6-0.2-2.3-0.5c-0.7-0.3-1.3-0.8-1.8-1.4c-0.5-0.6-0.9-1.3-1.2-2.2
		s-0.4-1.8-0.4-2.9c0-1,0.1-2,0.4-2.8c0.3-0.9,0.7-1.6,1.2-2.2c0.5-0.6,1.2-1.1,1.9-1.4s1.6-0.5,2.6-0.5c0.9,0,1.6,0.1,2.3,0.4
		c0.7,0.3,1.3,0.7,1.8,1.1L211.1,282.9z"/>
	<path class="st1" d="M220.1,280.9c1,0,1.8,0.2,2.6,0.5s1.4,0.8,1.9,1.4s0.9,1.3,1.2,2.2s0.4,1.8,0.4,2.9s-0.1,2-0.4,2.9
		s-0.7,1.6-1.2,2.2s-1.2,1.1-1.9,1.4s-1.6,0.5-2.6,0.5s-1.8-0.2-2.6-0.5c-0.8-0.3-1.4-0.8-1.9-1.4s-0.9-1.3-1.2-2.2
		s-0.4-1.8-0.4-2.9s0.1-2,0.4-2.9s0.7-1.6,1.2-2.2s1.2-1.1,1.9-1.4C218.3,281,219.1,280.9,220.1,280.9z M220.1,293.6
		c0.8,0,1.5-0.1,2.1-0.4s1.1-0.7,1.5-1.2c0.4-0.5,0.7-1.1,0.9-1.9c0.2-0.7,0.3-1.5,0.3-2.4c0-0.9-0.1-1.7-0.3-2.4
		c-0.2-0.7-0.5-1.4-0.9-1.9s-0.9-0.9-1.5-1.2c-0.6-0.3-1.3-0.4-2.1-0.4s-1.5,0.1-2.1,0.4s-1.1,0.7-1.5,1.2c-0.4,0.5-0.7,1.1-0.9,1.9
		c-0.2,0.7-0.3,1.5-0.3,2.4c0,0.9,0.1,1.7,0.3,2.4s0.5,1.3,0.9,1.9c0.4,0.5,0.9,0.9,1.5,1.2C218.6,293.5,219.3,293.6,220.1,293.6z"
		/>
	<path class="st1" d="M229.8,294.5v-13.4h0.7c0.2,0,0.4,0.1,0.4,0.3l0.1,1.9c0.5-0.8,1.1-1.4,1.8-1.8s1.4-0.7,2.3-0.7
		c1,0,1.8,0.3,2.4,0.9c0.6,0.6,1,1.4,1.2,2.4c0.2-0.5,0.4-1,0.7-1.4c0.3-0.4,0.6-0.7,1-1c0.4-0.3,0.8-0.5,1.2-0.6s0.9-0.2,1.4-0.2
		c0.7,0,1.3,0.1,1.8,0.3s1,0.5,1.4,1c0.4,0.4,0.6,1,0.9,1.6c0.2,0.6,0.3,1.4,0.3,2.2v8.6H246v-8.6c0-1.3-0.3-2.3-0.9-3s-1.4-1-2.4-1
		c-0.5,0-0.9,0.1-1.3,0.3c-0.4,0.2-0.8,0.4-1.1,0.8c-0.3,0.3-0.6,0.8-0.8,1.3s-0.3,1.1-0.3,1.8v8.6h-1.3v-8.6c0-1.3-0.3-2.3-0.8-3
		s-1.3-1-2.3-1c-0.7,0-1.4,0.2-2,0.6s-1.2,1-1.7,1.8v10.2L229.8,294.5L229.8,294.5z"/>
	<path class="st1" d="M251.6,299.2v-18.2h0.7c0.2,0,0.4,0.1,0.4,0.3l0.1,2.1c0.6-0.8,1.3-1.5,2.1-1.9c0.8-0.5,1.7-0.7,2.7-0.7
		c1.6,0,2.9,0.6,3.9,1.7c0.9,1.1,1.4,2.9,1.4,5.1c0,1-0.1,1.9-0.4,2.8c-0.3,0.9-0.6,1.6-1.1,2.2s-1.1,1.1-1.8,1.5
		c-0.7,0.4-1.6,0.5-2.5,0.5c-0.9,0-1.7-0.2-2.4-0.5s-1.2-0.8-1.7-1.5v6.5L251.6,299.2L251.6,299.2z M257.2,281.9
		c-0.9,0-1.7,0.2-2.4,0.7c-0.7,0.5-1.4,1.1-1.9,1.9v7.1c0.5,0.8,1.1,1.3,1.7,1.6s1.3,0.5,2.2,0.5c0.8,0,1.5-0.1,2.1-0.4
		c0.6-0.3,1.1-0.7,1.5-1.2c0.4-0.5,0.7-1.2,0.9-1.9c0.2-0.7,0.3-1.5,0.3-2.4c0-2-0.4-3.5-1.1-4.4
		C259.6,282.3,258.6,281.9,257.2,281.9z"/>
	<path class="st1" d="M274.7,294.5c-0.3,0-0.4-0.1-0.5-0.4l-0.2-1.7c-0.4,0.4-0.7,0.7-1.1,1c-0.4,0.3-0.7,0.5-1.1,0.7
		c-0.4,0.2-0.8,0.4-1.3,0.5s-1,0.2-1.5,0.2c-0.5,0-0.9-0.1-1.3-0.2s-0.8-0.3-1.1-0.6s-0.6-0.6-0.8-1.1c-0.2-0.4-0.3-1-0.3-1.6
		c0-0.6,0.2-1.1,0.5-1.6s0.8-0.9,1.5-1.3s1.6-0.6,2.7-0.9c1.1-0.2,2.4-0.3,3.9-0.4v-1.4c0-1.2-0.3-2.2-0.8-2.9c-0.5-0.7-1.3-1-2.4-1
		c-0.6,0-1.2,0.1-1.6,0.3c-0.5,0.2-0.8,0.4-1.1,0.6s-0.6,0.4-0.8,0.6s-0.4,0.3-0.5,0.3c-0.1,0-0.2,0-0.2-0.1c-0.1,0-0.1-0.1-0.2-0.2
		l-0.2-0.4c0.7-0.7,1.4-1.2,2.2-1.6s1.6-0.5,2.6-0.5c0.7,0,1.4,0.1,1.9,0.3c0.5,0.2,1,0.6,1.3,1s0.6,0.9,0.8,1.5s0.3,1.3,0.3,2v8.7
		L274.7,294.5L274.7,294.5z M269.3,293.8c0.5,0,1-0.1,1.4-0.2c0.4-0.1,0.8-0.3,1.2-0.5s0.7-0.4,1-0.7s0.6-0.6,1-0.9V288
		c-1.3,0-2.4,0.1-3.3,0.3s-1.7,0.4-2.3,0.6c-0.6,0.3-1,0.6-1.3,1s-0.4,0.8-0.4,1.3c0,0.5,0.1,0.8,0.2,1.2s0.4,0.6,0.6,0.8
		c0.2,0.2,0.5,0.4,0.9,0.5C268.6,293.7,268.9,293.8,269.3,293.8z"/>
	<path class="st1" d="M279.5,294.5v-13.4h0.7c0.2,0,0.4,0.1,0.4,0.3l0.1,2c0.6-0.8,1.3-1.4,2.1-1.9s1.7-0.7,2.7-0.7
		c0.7,0,1.4,0.1,2,0.4s1,0.6,1.4,1s0.6,1,0.8,1.6s0.3,1.3,0.3,2.1v8.6h-1.3v-8.6c0-1.3-0.3-2.2-0.9-3s-1.5-1.1-2.6-1.1
		c-0.9,0-1.7,0.2-2.5,0.7s-1.4,1.1-2,1.9v10.1L279.5,294.5L279.5,294.5z"/>
	<path class="st1" d="M297.5,298.8c0,0.1-0.1,0.2-0.2,0.3s-0.2,0.1-0.4,0.1H296l2.4-5.2l-5.7-12.9h1.1c0.1,0,0.2,0,0.3,0.1
		c0.1,0.1,0.1,0.1,0.2,0.2l4.5,10.4c0,0.1,0.1,0.3,0.1,0.4s0.1,0.3,0.1,0.4c0-0.1,0.1-0.3,0.1-0.4c0-0.1,0.1-0.3,0.2-0.4l4.5-10.4
		c0-0.1,0.1-0.2,0.2-0.2c0.1-0.1,0.2-0.1,0.3-0.1h1L297.5,298.8z"/>
	<path class="st1" d="M307.5,293.5c0-0.2,0-0.3,0.1-0.5c0.1-0.1,0.1-0.3,0.3-0.4c0.1-0.1,0.2-0.2,0.4-0.3c0.1-0.1,0.3-0.1,0.5-0.1
		c0.2,0,0.3,0,0.5,0.1c0.1,0.1,0.3,0.2,0.4,0.3s0.2,0.2,0.3,0.4c0.1,0.1,0.1,0.3,0.1,0.5s0,0.3-0.1,0.5s-0.2,0.3-0.3,0.4
		c-0.1,0.1-0.2,0.2-0.4,0.3s-0.3,0.1-0.5,0.1c-0.4,0-0.6-0.1-0.9-0.4S307.5,293.8,307.5,293.5z"/>
	<path class="st1" d="M315.3,281.1v8.6c0,1.3,0.3,2.2,0.9,3c0.6,0.7,1.5,1.1,2.6,1.1c0.9,0,1.7-0.2,2.4-0.7c0.8-0.5,1.4-1.1,2-1.9
		V281h1.3v13.4h-0.7c-0.2,0-0.4-0.1-0.4-0.4l-0.1-2c-0.6,0.8-1.3,1.4-2.1,1.9s-1.7,0.7-2.7,0.7c-0.8,0-1.4-0.1-2-0.4s-1-0.6-1.4-1
		c-0.4-0.4-0.6-1-0.8-1.6s-0.3-1.3-0.3-2.1V281L315.3,281.1L315.3,281.1z"/>
	<path class="st1" d="M330.3,274.9v12h0.6c0.1,0,0.2,0,0.4,0c0.1,0,0.2-0.1,0.4-0.3l5.4-5.1c0.1-0.1,0.2-0.2,0.3-0.2
		s0.2-0.1,0.4-0.1h1.1l-5.9,5.6c-0.2,0.2-0.3,0.3-0.5,0.5c0.1,0.1,0.3,0.1,0.4,0.2s0.2,0.2,0.3,0.3l6.2,6.8h-1.1
		c-0.1,0-0.2,0-0.3-0.1s-0.2-0.1-0.3-0.2l-5.6-6c-0.1-0.1-0.1-0.1-0.2-0.2c-0.1,0-0.1-0.1-0.2-0.1c-0.1,0-0.2,0-0.2-0.1
		c-0.1,0-0.2,0-0.3,0h-0.6v6.8H329v-19.6L330.3,274.9L330.3,274.9z"/>
</g>
<line class="st0" x1="363" y1="158.5" x2="426" y2="158.5"/>
<line class="st0" x1="363" y1="223.5" x2="426" y2="223.5"/>
<path class="st0" d="M363.5,288.5h15c0,0,16,1,16-11s0-40,0-40s-2.9-14,14-14"/>
<polyline class="st0" points="415.5,147.5 425.5,158.5 415.5,169.5 "/>
<polyline class="st0" points="415.5,212.5 425.5,223.5 415.5,234.5 "/>
<g>
	<path class="st1" d="M535.7,74.4h-0.4c-0.2,0-0.3-0.2-0.4-0.5c0-0.3,0-0.6,0-0.8l3.7-7.4l11.1-22c0.2-0.2,0.3-0.3,0.5-0.6
		c0.1-0.1,0.2-0.2,0.3-0.3c0.2,0,0.4,0.1,0.6,0.3c0.2,0.2,0.4,0.4,0.6,0.6l14.7,29.4c0,0.2,0,0.4,0,0.6c0,0.2-0.2,0.4-0.4,0.6
		c-0.1,0.1-0.1,0.1-0.2,0.1c-0.1,0-0.1,0-0.2,0s-0.2-0.1-0.3-0.2l-24.9-6.9l-3.2,6.5c-0.2,0.2-0.4,0.3-0.6,0.4
		C536.1,74.4,535.9,74.4,535.7,74.4z M541,65.4l22.5,6.5l-13.1-25.7L541,65.4z M561.5,67l-18.4-7.3c-0.4,0-0.7-0.2-0.7-0.5
		c-0.1-0.3-0.1-0.6-0.1-0.8c0.2-0.2,0.4-0.4,0.6-0.5s0.4-0.1,0.6,0.1l18.4,7.3c0.4,0,0.7,0.2,0.7,0.5c0.1,0.3,0.1,0.6,0.1,0.8
		c-0.2,0.2-0.4,0.3-0.6,0.4C561.9,67,561.7,67,561.5,67z"/>
	<path class="st1" d="M597.7,74.4c-0.2,0-0.4-0.1-0.6-0.2c-0.2-0.2-0.3-0.4-0.3-0.6V44.4c0-0.2,0.1-0.5,0.3-0.8
		c0.2-0.3,0.4-0.5,0.6-0.5c0.4,0,0.7,0.2,0.9,0.5c0.2,0.3,0.3,0.6,0.3,0.8v29.3c0,0.2-0.1,0.4-0.3,0.6
		C598.4,74.3,598.1,74.4,597.7,74.4z"/>
	<path class="st1" d="M647.7,74.6c-2.2,0-4.3-0.4-6.2-1.3c-2-0.9-3.7-2.1-5.2-3.5c-1.5-1.5-2.7-3.2-3.5-5.2c-0.9-2-1.3-4-1.3-6.2
		c0-2.2,0.4-4.3,1.3-6.2c0.9-1.9,2.1-3.6,3.5-5c1.5-1.4,3.2-2.6,5.2-3.4c2-0.8,4-1.2,6.2-1.2c2.2,0,4.3,0.4,6.2,1.2
		c1.9,0.8,3.6,2,5,3.4s2.6,3.1,3.4,5c0.8,1.9,1.2,4,1.2,6.2c0,2.2-0.4,4.3-1.2,6.2c-0.8,2-2,3.7-3.4,5.2c-1.4,1.5-3.1,2.7-5,3.5
		C652,74.2,649.9,74.6,647.7,74.6z M647.7,44.6c-2,0-3.8,0.4-5.5,1.1c-1.7,0.7-3.2,1.7-4.5,3c-1.3,1.3-2.3,2.7-3,4.4
		c-0.7,1.7-1.1,3.4-1.1,5.3c0,2,0.4,3.8,1.1,5.6c0.7,1.7,1.7,3.2,3,4.5c1.3,1.3,2.8,2.3,4.5,3c1.7,0.7,3.6,1.1,5.5,1.1
		c1.9,0,3.6-0.4,5.3-1.1c1.7-0.7,3.1-1.7,4.4-3c1.2-1.3,2.2-2.8,3-4.5c0.7-1.7,1.1-3.6,1.1-5.6c0-1.9-0.4-3.6-1.1-5.3
		c-0.7-1.7-1.7-3.1-3-4.4c-1.2-1.3-2.7-2.2-4.4-3C651.4,44.9,649.6,44.6,647.7,44.6z"/>
</g>
</svg>
