<svg xmlns="http://www.w3.org/2000/svg" xmlns:xlink="http://www.w3.org/1999/xlink" width="905" height="1028" viewBox="0 0 905 1028">
  <defs>
    <linearGradient id="linear-gradient" x2="1" y2="0.984" gradientUnits="objectBoundingBox">
      <stop offset="0" stop-color="#d8f3ff"/>
      <stop offset="1" stop-color="#b5e0f4"/>
    </linearGradient>
    <clipPath id="clip-structure">
      <rect width="905" height="1028"/>
    </clipPath>
  </defs>
  <g id="structure" clip-path="url(#clip-structure)">
    <rect width="905" height="1028" fill="#fff"/>
    <g id="Rectangle_1" data-name="Rectangle 1" transform="translate(2 2)" fill="none" stroke="#00a99d" stroke-width="4" stroke-dasharray="10 10">
      <rect width="900" height="1023" rx="35" stroke="none"/>
      <rect x="2" y="2" width="896" height="1019" rx="33" fill="none"/>
    </g>
    <rect id="Rectangle_2" data-name="Rectangle 2" width="354" height="586" rx="15" transform="translate(76 305)" fill="url(#linear-gradient)"/>
    <rect id="Rectangle_4" data-name="Rectangle 4" width="354" height="67" rx="15" transform="translate(76 921)" fill="url(#linear-gradient)"/>
    <text id="AIO_Root" data-name="AIO Root" transform="translate(36 62)" font-size="30" font-family="Poppins-SemiBold, Poppins" font-weight="600"><tspan x="0" y="0">AIO Root</tspan></text>
    <g id="File_Folder" data-name="File Folder" transform="translate(38.688 96)">
      <text id="assets" transform="translate(39.313 21)" font-size="20" font-family="Poppins-SemiBold, Poppins" font-weight="600"><tspan x="0" y="0">assets</tspan></text>
      <path id="Path_2" data-name="Path 2" d="M14.125-25.875a2.71,2.71,0,0,0-1.875-.812H5.313A2.7,2.7,0,0,0,2.688-24V-8A2.7,2.7,0,0,0,5.313-5.312H26.688A2.7,2.7,0,0,0,29.313-8V-21.312A2.655,2.655,0,0,0,26.688-24H16Z" transform="translate(-2.688 29)"/>
    </g>
    <g id="File_Folder-2" data-name="File Folder" transform="translate(38.688 255)">
      <text id="apps" transform="translate(39.313 21)" font-size="20" font-family="Poppins-SemiBold, Poppins" font-weight="600"><tspan x="0" y="0">apps</tspan></text>
      <path id="Path_2-2" data-name="Path 2" d="M14.125-25.875a2.71,2.71,0,0,0-1.875-.812H5.313A2.7,2.7,0,0,0,2.688-24V-8A2.7,2.7,0,0,0,5.313-5.312H26.688A2.7,2.7,0,0,0,29.313-8V-21.312A2.655,2.655,0,0,0,26.688-24H16Z" transform="translate(-2.688 29)"/>
    </g>
    <g id="File_Folder-3" data-name="File Folder" transform="translate(101.688 325)">
      <text id="walletsy" transform="translate(39.313 21)" font-size="20" font-family="Poppins-SemiBold, Poppins" font-weight="600"><tspan x="0" y="0">walletsy</tspan></text>
      <path id="Path_2-3" data-name="Path 2" d="M14.125-25.875a2.71,2.71,0,0,0-1.875-.812H5.313A2.7,2.7,0,0,0,2.688-24V-8A2.7,2.7,0,0,0,5.313-5.312H26.688A2.7,2.7,0,0,0,29.313-8V-21.312A2.655,2.655,0,0,0,26.688-24H16Z" transform="translate(-2.688 29)"/>
    </g>
    <g id="File_Folder-4" data-name="File Folder" transform="translate(101.688 941)">
      <text id="instagrocery" transform="translate(39.313 21)" font-size="20" font-family="Poppins-SemiBold, Poppins" font-weight="600"><tspan x="0" y="0">instagrocery</tspan></text>
      <path id="Path_2-4" data-name="Path 2" d="M14.125-25.875a2.71,2.71,0,0,0-1.875-.812H5.313A2.7,2.7,0,0,0,2.688-24V-8A2.7,2.7,0,0,0,5.313-5.312H26.688A2.7,2.7,0,0,0,29.313-8V-21.312A2.655,2.655,0,0,0,26.688-24H16Z" transform="translate(-2.688 29)"/>
    </g>
    <g id="File_Folder-5" data-name="File Folder" transform="translate(141.688 540)">
      <text id="pages" transform="translate(39.313 21)" font-size="20" font-family="Poppins-SemiBold, Poppins" font-weight="600"><tspan x="0" y="0">pages</tspan></text>
      <path id="Path_2-5" data-name="Path 2" d="M14.125-25.875a2.71,2.71,0,0,0-1.875-.812H5.313A2.7,2.7,0,0,0,2.688-24V-8A2.7,2.7,0,0,0,5.313-5.312H26.688A2.7,2.7,0,0,0,29.313-8V-21.312A2.655,2.655,0,0,0,26.688-24H16Z" transform="translate(-2.688 29)"/>
    </g>
    <g id="File_Folder-6" data-name="File Folder" transform="translate(141.688 368)">
      <text id="assets-2" data-name="assets" transform="translate(39.313 21)" font-size="20" font-family="Poppins-SemiBold, Poppins" font-weight="600"><tspan x="0" y="0">assets</tspan></text>
      <path id="Path_2-6" data-name="Path 2" d="M14.125-25.875a2.71,2.71,0,0,0-1.875-.812H5.313A2.7,2.7,0,0,0,2.688-24V-8A2.7,2.7,0,0,0,5.313-5.312H26.688A2.7,2.7,0,0,0,29.313-8V-21.312A2.655,2.655,0,0,0,26.688-24H16Z" transform="translate(-2.688 29)"/>
    </g>
    <g id="File_Folder-7" data-name="File Folder" transform="translate(181.688 411)">
      <text id="styles" transform="translate(39.313 21)" font-size="20" font-family="Poppins-SemiBold, Poppins" font-weight="600"><tspan x="0" y="0">styles</tspan></text>
      <path id="Path_2-7" data-name="Path 2" d="M14.125-25.875a2.71,2.71,0,0,0-1.875-.812H5.313A2.7,2.7,0,0,0,2.688-24V-8A2.7,2.7,0,0,0,5.313-5.312H26.688A2.7,2.7,0,0,0,29.313-8V-21.312A2.655,2.655,0,0,0,26.688-24H16Z" transform="translate(-2.688 29)" fill="#0031d3"/>
      <text id="css" transform="translate(13.313 17)" fill="#fff" font-size="11" font-family="Poppins-Bold, Poppins" font-weight="700"><tspan x="-9.465" y="0">css</tspan></text>
    </g>
    <g id="File_Folder-8" data-name="File Folder" transform="translate(181.688 454)">
      <text id="scripts" transform="translate(39.313 21)" font-size="20" font-family="Poppins-SemiBold, Poppins" font-weight="600"><tspan x="0" y="0">scripts</tspan></text>
      <path id="Path_2-8" data-name="Path 2" d="M14.125-25.875a2.71,2.71,0,0,0-1.875-.812H5.313A2.7,2.7,0,0,0,2.688-24V-8A2.7,2.7,0,0,0,5.313-5.312H26.688A2.7,2.7,0,0,0,29.313-8V-21.312A2.655,2.655,0,0,0,26.688-24H16Z" transform="translate(-2.688 29)" fill="#9a0404"/>
      <text id="js" transform="translate(13.313 17)" fill="#fff" font-size="11" font-family="Poppins-Bold, Poppins" font-weight="700"><tspan x="-4.686" y="0">js</tspan></text>
    </g>
    <g id="File_Folder-9" data-name="File Folder" transform="translate(181.688 497)">
      <text id="fonts" transform="translate(39.313 21)" font-size="20" font-family="Poppins-SemiBold, Poppins" font-weight="600"><tspan x="0" y="0">fonts</tspan></text>
      <path id="Path_2-9" data-name="Path 2" d="M14.125-25.875a2.71,2.71,0,0,0-1.875-.812H5.313A2.7,2.7,0,0,0,2.688-24V-8A2.7,2.7,0,0,0,5.313-5.312H26.688A2.7,2.7,0,0,0,29.313-8V-21.312A2.655,2.655,0,0,0,26.688-24H16Z" transform="translate(-2.688 29)" fill="#0bb8d8"/>
      <text id="Aa" transform="translate(13.313 17)" fill="#fff" font-size="11" font-family="Poppins-Bold, Poppins" font-weight="700"><tspan x="-7.788" y="0">Aa</tspan></text>
    </g>
    <g id="File_Folder-10" data-name="File Folder" transform="translate(141.688 669)">
      <text id="components" transform="translate(39.313 21)" font-size="20" font-family="Poppins-SemiBold, Poppins" font-weight="600"><tspan x="0" y="0">components</tspan></text>
      <path id="Path_2-10" data-name="Path 2" d="M14.125-25.875a2.71,2.71,0,0,0-1.875-.812H5.313A2.7,2.7,0,0,0,2.688-24V-8A2.7,2.7,0,0,0,5.313-5.312H26.688A2.7,2.7,0,0,0,29.313-8V-21.312A2.655,2.655,0,0,0,26.688-24H16Z" transform="translate(-2.688 29)"/>
    </g>
    <g id="File_Folder-11" data-name="File Folder" transform="translate(141.688 798)">
      <text id="functions" transform="translate(39.313 21)" font-size="20" font-family="Poppins-SemiBold, Poppins" font-weight="600"><tspan x="0" y="0">functions</tspan></text>
      <path id="Path_2-11" data-name="Path 2" d="M14.125-25.875a2.71,2.71,0,0,0-1.875-.812H5.313A2.7,2.7,0,0,0,2.688-24V-8A2.7,2.7,0,0,0,5.313-5.312H26.688A2.7,2.7,0,0,0,29.313-8V-21.312A2.655,2.655,0,0,0,26.688-24H16Z" transform="translate(-2.688 29)"/>
    </g>
    <g id="File_Folder-12" data-name="File Folder" transform="translate(38.688 149)">
      <text id="core" transform="translate(39.313 21)" font-size="20" font-family="Poppins-SemiBold, Poppins" font-weight="600"><tspan x="0" y="0">core</tspan></text>
      <path id="Path_2-12" data-name="Path 2" d="M14.125-25.875a2.71,2.71,0,0,0-1.875-.812H5.313A2.7,2.7,0,0,0,2.688-24V-8A2.7,2.7,0,0,0,5.313-5.312H26.688A2.7,2.7,0,0,0,29.313-8V-21.312A2.655,2.655,0,0,0,26.688-24H16Z" transform="translate(-2.688 29)"/>
    </g>
    <g id="File_Folder-13" data-name="File Folder" transform="translate(41.313 201.688)">
      <text id="index.php" transform="translate(36.688 21.313)" font-size="20" font-family="Poppins-SemiBold, Poppins" font-weight="600"><tspan x="0" y="0">index.php</tspan></text>
      <path id="Path_3" data-name="Path 3" d="M19.438-28.562a2.646,2.646,0,0,0-1.875-.75H8a2.7,2.7,0,0,0-2.687,2.625V-5.312A2.655,2.655,0,0,0,8-2.687H24a2.7,2.7,0,0,0,2.688-2.625V-20.25a2.71,2.71,0,0,0-.812-1.875ZM20-8H12a1.32,1.32,0,0,1-1.312-1.312A1.335,1.335,0,0,1,12-10.687h8a1.335,1.335,0,0,1,1.313,1.375A1.32,1.32,0,0,1,20-8Zm0-5.312H12a1.335,1.335,0,0,1-1.312-1.375A1.32,1.32,0,0,1,12-16h8a1.32,1.32,0,0,1,1.313,1.313A1.335,1.335,0,0,1,20-13.312Zm-2.687-8v-6L24.688-20h-6A1.376,1.376,0,0,1,17.313-21.312Z" transform="translate(-5.313 29.313)" fill="#50156f"/>
    </g>
    <g id="File_Folder-14" data-name="File Folder" transform="translate(142.02 840.688)">
      <text id="config.php" transform="translate(38.98 21.313)" font-size="20" font-family="Poppins-SemiBold, Poppins" font-weight="600"><tspan x="0" y="0">config.php</tspan></text>
      <path id="Path_4" data-name="Path 4" d="M26-16a4.73,4.73,0,0,0-.062-.937l2.5-1.875a1.281,1.281,0,0,0,.375-1.687l-2.5-4.312a1.33,1.33,0,0,0-1.687-.562L21.75-24.187a12.581,12.581,0,0,0-1.562-.875l-.375-3.125A1.3,1.3,0,0,0,18.5-29.312h-5a1.3,1.3,0,0,0-1.312,1.125l-.375,3.125a12.581,12.581,0,0,0-1.562.875L7.375-25.375a1.33,1.33,0,0,0-1.687.563L3.188-20.5a1.376,1.376,0,0,0,.375,1.75l2.5,1.875A3.843,3.843,0,0,0,6-16a4.73,4.73,0,0,0,.063.938l-2.5,1.875A1.281,1.281,0,0,0,3.188-11.5l2.5,4.313a1.33,1.33,0,0,0,1.688.563L10.25-7.812a12.581,12.581,0,0,0,1.563.875l.375,3.125A1.3,1.3,0,0,0,13.5-2.687h5a1.343,1.343,0,0,0,1.313-1.125l.375-3.125a12.581,12.581,0,0,0,1.563-.875l2.875,1.188a1.235,1.235,0,0,0,1.625-.562l2.5-4.312a1.265,1.265,0,0,0-.312-1.687l-2.5-1.875A4.73,4.73,0,0,0,26-16Zm-9.937,4.688A4.722,4.722,0,0,1,11.375-16a4.722,4.722,0,0,1,4.688-4.687A4.722,4.722,0,0,1,20.75-16,4.722,4.722,0,0,1,16.063-11.312Z" transform="translate(-3.02 29.313)" fill="#018901"/>
    </g>
    <g id="File_Folder-15" data-name="File Folder" transform="translate(179.313 625.688)">
      <text id="transactions.php" transform="translate(36.688 21.313)" font-size="20" font-family="Poppins-SemiBold, Poppins" font-weight="600"><tspan x="0" y="0">transactions.php</tspan></text>
      <path id="Path_3-2" data-name="Path 3" d="M19.438-28.562a2.646,2.646,0,0,0-1.875-.75H8a2.7,2.7,0,0,0-2.687,2.625V-5.312A2.655,2.655,0,0,0,8-2.687H24a2.7,2.7,0,0,0,2.688-2.625V-20.25a2.71,2.71,0,0,0-.812-1.875ZM20-8H12a1.32,1.32,0,0,1-1.312-1.312A1.335,1.335,0,0,1,12-10.687h8a1.335,1.335,0,0,1,1.313,1.375A1.32,1.32,0,0,1,20-8Zm0-5.312H12a1.335,1.335,0,0,1-1.312-1.375A1.32,1.32,0,0,1,12-16h8a1.32,1.32,0,0,1,1.313,1.313A1.335,1.335,0,0,1,20-13.312Zm-2.687-8v-6L24.688-20h-6A1.376,1.376,0,0,1,17.313-21.312Z" transform="translate(-5.313 29.313)" fill="#50156f"/>
    </g>
    <g id="File_Folder-16" data-name="File Folder" transform="translate(179.313 583)">
      <text id="index.php-2" data-name="index.php" transform="translate(36.688 21.313)" font-size="20" font-family="Poppins-SemiBold, Poppins" font-weight="600"><tspan x="0" y="0">index.php</tspan></text>
      <path id="Path_3-3" data-name="Path 3" d="M19.438-28.562a2.646,2.646,0,0,0-1.875-.75H8a2.7,2.7,0,0,0-2.687,2.625V-5.312A2.655,2.655,0,0,0,8-2.687H24a2.7,2.7,0,0,0,2.688-2.625V-20.25a2.71,2.71,0,0,0-.812-1.875ZM20-8H12a1.32,1.32,0,0,1-1.312-1.312A1.335,1.335,0,0,1,12-10.687h8a1.335,1.335,0,0,1,1.313,1.375A1.32,1.32,0,0,1,20-8Zm0-5.312H12a1.335,1.335,0,0,1-1.312-1.375A1.32,1.32,0,0,1,12-16h8a1.32,1.32,0,0,1,1.313,1.313A1.335,1.335,0,0,1,20-13.312Zm-2.687-8v-6L24.688-20h-6A1.376,1.376,0,0,1,17.313-21.312Z" transform="translate(-5.313 29.313)" fill="#50156f"/>
    </g>
    <g id="File_Folder-17" data-name="File Folder" transform="translate(179.313 711.688)">
      <text id="header.php" transform="translate(36.688 21.313)" font-size="20" font-family="Poppins-SemiBold, Poppins" font-weight="600"><tspan x="0" y="0">header.php</tspan></text>
      <path id="Path_3-4" data-name="Path 3" d="M19.438-28.562a2.646,2.646,0,0,0-1.875-.75H8a2.7,2.7,0,0,0-2.687,2.625V-5.312A2.655,2.655,0,0,0,8-2.687H24a2.7,2.7,0,0,0,2.688-2.625V-20.25a2.71,2.71,0,0,0-.812-1.875ZM20-8H12a1.32,1.32,0,0,1-1.312-1.312A1.335,1.335,0,0,1,12-10.687h8a1.335,1.335,0,0,1,1.313,1.375A1.32,1.32,0,0,1,20-8Zm0-5.312H12a1.335,1.335,0,0,1-1.312-1.375A1.32,1.32,0,0,1,12-16h8a1.32,1.32,0,0,1,1.313,1.313A1.335,1.335,0,0,1,20-13.312Zm-2.687-8v-6L24.688-20h-6A1.376,1.376,0,0,1,17.313-21.312Z" transform="translate(-5.313 29.313)" fill="#50156f"/>
    </g>
    <g id="File_Folder-18" data-name="File Folder" transform="translate(179.313 754.688)">
      <text id="footer.php" transform="translate(36.688 21.313)" font-size="20" font-family="Poppins-SemiBold, Poppins" font-weight="600"><tspan x="0" y="0">footer.php</tspan></text>
      <path id="Path_3-5" data-name="Path 3" d="M19.438-28.562a2.646,2.646,0,0,0-1.875-.75H8a2.7,2.7,0,0,0-2.687,2.625V-5.312A2.655,2.655,0,0,0,8-2.687H24a2.7,2.7,0,0,0,2.688-2.625V-20.25a2.71,2.71,0,0,0-.812-1.875ZM20-8H12a1.32,1.32,0,0,1-1.312-1.312A1.335,1.335,0,0,1,12-10.687h8a1.335,1.335,0,0,1,1.313,1.375A1.32,1.32,0,0,1,20-8Zm0-5.312H12a1.335,1.335,0,0,1-1.312-1.375A1.32,1.32,0,0,1,12-16h8a1.32,1.32,0,0,1,1.313,1.313A1.335,1.335,0,0,1,20-13.312Zm-2.687-8v-6L24.688-20h-6A1.376,1.376,0,0,1,17.313-21.312Z" transform="translate(-5.313 29.313)" fill="#50156f"/>
    </g>
    <g id="Component_2_2" data-name="Component 2 – 2" transform="translate(272.563 41)">
      <text id="Point_your_domains_to_root" data-name="Point your domains to root" transform="translate(37.438 17)" font-size="16" font-family="Poppins-Regular, Poppins"><tspan x="0" y="0">Point your domains to root</tspan></text>
      <path id="Path_1" data-name="Path 1" d="M26.688-17.312H9.125l3.813-3.875a1.359,1.359,0,0,0,0-1.875,1.359,1.359,0,0,0-1.875,0L4.938-16.937a1.359,1.359,0,0,0,0,1.875l6.125,6.125a1.359,1.359,0,0,0,1.875,0,1.359,1.359,0,0,0,0-1.875L9.125-14.687H26.688A1.32,1.32,0,0,0,28-16,1.32,1.32,0,0,0,26.688-17.312Z" transform="translate(-4.563 26)"/>
    </g>
    <g id="Component_2_3" data-name="Component 2 – 3" transform="translate(272.563 258)">
      <text id="Create_domain_named_folders_inside_apps_excl._tld." data-name="Create domain named folders inside apps excl. tld." transform="translate(37.438 17)" font-size="16" font-family="Poppins-Regular, Poppins"><tspan x="0" y="0">Create domain named folders inside apps excl. tld.</tspan></text>
      <path id="Path_1-2" data-name="Path 1" d="M26.688-17.312H9.125l3.813-3.875a1.359,1.359,0,0,0,0-1.875,1.359,1.359,0,0,0-1.875,0L4.938-16.937a1.359,1.359,0,0,0,0,1.875l6.125,6.125a1.359,1.359,0,0,0,1.875,0,1.359,1.359,0,0,0,0-1.875L9.125-14.687H26.688A1.32,1.32,0,0,0,28-16,1.32,1.32,0,0,0,26.688-17.312Z" transform="translate(-4.563 26)"/>
    </g>
    <g id="Component_2_4" data-name="Component 2 – 4" transform="translate(451.563 371)">
      <text id="Place_assets_in_relative_folders" data-name="Place assets in relative folders" transform="translate(37.438 17)" font-size="16" font-family="Poppins-Regular, Poppins"><tspan x="0" y="0">Place assets in relative folders</tspan></text>
      <path id="Path_1-3" data-name="Path 1" d="M26.688-17.312H9.125l3.813-3.875a1.359,1.359,0,0,0,0-1.875,1.359,1.359,0,0,0-1.875,0L4.938-16.937a1.359,1.359,0,0,0,0,1.875l6.125,6.125a1.359,1.359,0,0,0,1.875,0,1.359,1.359,0,0,0,0-1.875L9.125-14.687H26.688A1.32,1.32,0,0,0,28-16,1.32,1.32,0,0,0,26.688-17.312Z" transform="translate(-4.563 26)"/>
    </g>
    <g id="Component_2_5" data-name="Component 2 – 5" transform="translate(451.563 543)">
      <text id="Create_your_pages_here_and_start_browsing" data-name="Create your pages here and start browsing" transform="translate(37.438 17)" font-size="16" font-family="Poppins-Regular, Poppins"><tspan x="0" y="0">Create your pages here and start browsing</tspan></text>
      <path id="Path_1-4" data-name="Path 1" d="M26.688-17.312H9.125l3.813-3.875a1.359,1.359,0,0,0,0-1.875,1.359,1.359,0,0,0-1.875,0L4.938-16.937a1.359,1.359,0,0,0,0,1.875l6.125,6.125a1.359,1.359,0,0,0,1.875,0,1.359,1.359,0,0,0,0-1.875L9.125-14.687H26.688A1.32,1.32,0,0,0,28-16,1.32,1.32,0,0,0,26.688-17.312Z" transform="translate(-4.563 26)"/>
    </g>
    <g id="Component_2_6" data-name="Component 2 – 6" transform="translate(451.563 670)">
      <text id="Create_re-usable_components_and_use_anywhere" data-name="Create re-usable components and use anywhere" transform="translate(37.438)" font-size="16" font-family="Poppins-Regular, Poppins"><tspan x="0" y="17">Create re-usable components and use </tspan><tspan x="0" y="42">anywhere</tspan></text>
      <path id="Path_1-5" data-name="Path 1" d="M26.688-17.312H9.125l3.813-3.875a1.359,1.359,0,0,0,0-1.875,1.359,1.359,0,0,0-1.875,0L4.938-16.937a1.359,1.359,0,0,0,0,1.875l6.125,6.125a1.359,1.359,0,0,0,1.875,0,1.359,1.359,0,0,0,0-1.875L9.125-14.687H26.688A1.32,1.32,0,0,0,28-16,1.32,1.32,0,0,0,26.688-17.312Z" transform="translate(-4.563 28)"/>
    </g>
    <g id="Component_2_7" data-name="Component 2 – 7" transform="translate(451.563 796)">
      <text id="Write_your_functions_here" data-name="Write your functions here" transform="translate(37.438)" font-size="16" font-family="Poppins-Regular, Poppins"><tspan x="0" y="17">Write your functions here</tspan></text>
      <path id="Path_1-6" data-name="Path 1" d="M26.688-17.312H9.125l3.813-3.875a1.359,1.359,0,0,0,0-1.875,1.359,1.359,0,0,0-1.875,0L4.938-16.937a1.359,1.359,0,0,0,0,1.875l6.125,6.125a1.359,1.359,0,0,0,1.875,0,1.359,1.359,0,0,0,0-1.875L9.125-14.687H26.688A1.32,1.32,0,0,0,28-16,1.32,1.32,0,0,0,26.688-17.312Z" transform="translate(-4.563 28)"/>
    </g>
    <g id="Component_2_8" data-name="Component 2 – 8" transform="translate(451.563 842)">
      <text id="Your_app_config_file_define_app_name_configure_connection_to_db_etc." data-name="Your app config file, define app name, configure connection to db etc." transform="translate(37.438)" font-size="16" font-family="Poppins-Regular, Poppins"><tspan x="0" y="17">Your app config file, define app name, </tspan><tspan x="0" y="42">configure connection to db etc.</tspan></text>
      <path id="Path_1-7" data-name="Path 1" d="M26.688-17.312H9.125l3.813-3.875a1.359,1.359,0,0,0,0-1.875,1.359,1.359,0,0,0-1.875,0L4.938-16.937a1.359,1.359,0,0,0,0,1.875l6.125,6.125a1.359,1.359,0,0,0,1.875,0,1.359,1.359,0,0,0,0-1.875L9.125-14.687H26.688A1.32,1.32,0,0,0,28-16,1.32,1.32,0,0,0,26.688-17.312Z" transform="translate(-4.563 28)"/>
    </g>
    <g id="InfoTip" transform="translate(452.5 409)">
      <text id="walletsy.com_or_walletsy.enterprise.net" data-name="walletsy.com or walletsy.enterprise.net" transform="translate(38.313)" fill="#bf6e00" font-size="16" font-family="Poppins-SemiBold, Poppins" font-weight="600"><tspan x="0" y="17">walletsy.com or walletsy.enterprise.net</tspan></text>
      <text id="any_domain_or_sub-domain_auto_loads_this_app" data-name="any domain or sub-domain auto loads this app" transform="translate(38.313 25)" fill="#bf6e00" font-size="13" font-family="Poppins-Regular, Poppins"><tspan x="0" y="14">any domain or sub-domain auto loads this app</tspan></text>
      <path id="Path_5" data-name="Path 5" d="M16-29.312A13.284,13.284,0,0,0,2.688-16,13.284,13.284,0,0,0,16-2.687,13.284,13.284,0,0,0,29.313-16,13.284,13.284,0,0,0,16-29.312Zm0,20a1.335,1.335,0,0,1-1.312-1.375V-16A1.282,1.282,0,0,1,16-17.312,1.282,1.282,0,0,1,17.313-16v5.313A1.335,1.335,0,0,1,16-9.312ZM17.313-20H14.688v-2.687h2.625Z" transform="translate(-2.688 39)" fill="#bf6e00"/>
    </g>
    <g id="InfoTip-2" data-name="InfoTip" transform="translate(452.5 933)">
      <text id="instagrocery.tld" transform="translate(38.313)" fill="#bf6e00" font-size="16" font-family="Poppins-SemiBold, Poppins" font-weight="600"><tspan x="0" y="17">instagrocery.tld</tspan></text>
      <text id="create_unlimited_apps_and_single_AIO_will_server_them_all" data-name="create unlimited apps and single AIO will server them all" transform="translate(38.313 25)" fill="#bf6e00" font-size="13" font-family="Poppins-Regular, Poppins"><tspan x="0" y="14">create unlimited apps and single AIO will server them all</tspan></text>
      <path id="Path_5-2" data-name="Path 5" d="M16-29.312A13.284,13.284,0,0,0,2.688-16,13.284,13.284,0,0,0,16-2.687,13.284,13.284,0,0,0,29.313-16,13.284,13.284,0,0,0,16-29.312Zm0,20a1.335,1.335,0,0,1-1.312-1.375V-16A1.282,1.282,0,0,1,16-17.312,1.282,1.282,0,0,1,17.313-16v5.313A1.335,1.335,0,0,1,16-9.312ZM17.313-20H14.688v-2.687h2.625Z" transform="translate(-2.688 39)" fill="#bf6e00"/>
    </g>
    <g id="InfoTip-3" data-name="InfoTip" transform="translate(452.5 581)">
      <text id="walletsy.com_transactions" data-name="walletsy.com/transactions" transform="translate(38.313)" fill="#bf6e00" font-size="16" font-family="Poppins-SemiBold, Poppins" font-weight="600"><tspan x="0" y="17">walletsy.com/transactions</tspan></text>
      <text id="pages_are_auto_routed_simple_visit_domain_page_excluding_.php" data-name="pages are auto routed, simple visit domain / page excluding .php" transform="translate(38.313 25)" fill="#bf6e00" font-size="13" font-family="Poppins-Regular, Poppins"><tspan x="0" y="14">pages are auto routed, simple visit domain / page </tspan><tspan x="0" y="34">excluding .php</tspan></text>
      <path id="Path_5-3" data-name="Path 5" d="M16-29.312A13.284,13.284,0,0,0,2.688-16,13.284,13.284,0,0,0,16-2.687,13.284,13.284,0,0,0,29.313-16,13.284,13.284,0,0,0,16-29.312Zm0,20a1.335,1.335,0,0,1-1.312-1.375V-16A1.282,1.282,0,0,1,16-17.312,1.282,1.282,0,0,1,17.313-16v5.313A1.335,1.335,0,0,1,16-9.312ZM17.313-20H14.688v-2.687h2.625Z" transform="translate(-2.688 39)" fill="#bf6e00"/>
    </g>
  </g>
</svg>
